<?xml version="1.0" standalone="no"?>
<!DOCTYPE svg PUBLIC "-//W3C//DTD SVG 1.1//EN" "http://www.w3.org/Graphics/SVG/1.1/DTD/svg11.dtd" >
<svg>
<metadata>
Created by FontForge 20090914 at Tue May 26 13:12:33 2020
 By www-data
Copyright 2016 The Unna Project Authors (omnibus.type@gmail.com)
</metadata>
<defs>
<font id="Unna-Bold" horiz-adv-x="460" >
  <font-face 
    font-family="Unna"
    font-weight="700"
    font-stretch="normal"
    units-per-em="1000"
    panose-1="2 4 7 3 7 7 5 2 2 3"
    ascent="800"
    descent="-200"
    x-height="425"
    cap-height="597"
    bbox="-195.003 -268.999 943.999 883.001"
    underline-thickness="50"
    underline-position="-50"
    unicode-range="U+000D-U+FB02"
  />
<missing-glyph horiz-adv-x="488" 
d="M400 730v-975h-309v975h309zM325 665h-161v-32h63v-37h-64v-32h162v32h-65v37h65v32zM260 539h-97v-101h162v33h-65v68zM227 506v-35h-32v35h32zM325 411h-162v-32h64v-36h-64v-32h97v68h65v32zM325 353h-32v-65h-130v-33h162v98zM325 234h-98v-55h33v23h33v-46h-98v78
h-32v-110h162v110zM325 65h-162v-110h162v110zM293 33v-46h-98v46h98zM325 -68h-162v-32h68l-68 -46v-32h162v32h-100l68 46h32v32z" />
    <glyph glyph-name="fi" unicode="fi" horiz-adv-x="573" 
d="M20 34l37 -2.00098c8.66699 0 13 6.33301 13 19v337h-39v32h39v119c0 53.333 10.333 99.5 31 138.5s58.334 58.5 113.001 58.5c33.333 0 61 -8 83 -24s33 -37.667 33 -65c0 -15.333 -5 -28.5 -15 -39.5s-24.667 -16.5 -44 -16.5c-13.333 0 -25 3.33301 -35 10
s-15 16 -15 28c0 5.33301 1.33301 13.333 4 24c2 14 3 21.667 3 23c0 6.66699 -1.83301 12.667 -5.5 18s-9.16699 8 -16.5 8c-23.333 0 -35 -25.667 -35 -77c0 -9.33301 1.16699 -19.166 3.5 -29.499s5.16602 -20.5 8.49902 -30.5c5.33301 -17.333 9.5 -33.5 12.5 -48.5
s4.5 -32.167 4.5 -51.5v-45h91v-32h-90v-337c0 -12.667 4.33301 -19 13 -19l70 2v-34h-264v34zM494.5 639.999c14.333 -11.333 21.5 -26.333 21.5 -45c0 -19.333 -7.16699 -34.666 -21.5 -45.999s-32.833 -17 -55.5 -17s-41.167 5.66699 -55.5 17s-21.5 26.666 -21.5 45.999
c0 18.667 7.16699 33.667 21.5 45s32.833 17 55.5 17s41.167 -5.66699 55.5 -17zM507 50.999c0 -13.333 4.33301 -19.667 13 -19l33 2v-34h-223v34l33 -2h2c7.33301 0 11 6.33301 11 19v323c0 11.333 -4 18 -12 20l-33 -2v33h176v-374z" />
    <glyph glyph-name="fl" unicode="fl" horiz-adv-x="588" 
d="M20 34l37 -2.00098c8.66699 0 13 6.33301 13 19v337h-39v32h39v119c0 53.333 10.333 99.5 31 138.5s58.334 58.5 113.001 58.5c33.333 0 61 -8 83 -24s33 -37.667 33 -65c0 -15.333 -5 -28.5 -15 -39.5s-24.667 -16.5 -44 -16.5c-13.333 0 -25 3.33301 -35 10
s-15 16 -15 28c0 5.33301 1.33301 13.333 4 24c2 14 3 21.667 3 23c0 6.66699 -1.83301 12.667 -5.5 18s-9.16699 8 -16.5 8c-23.333 0 -35 -25.667 -35 -77c0 -9.33301 1.16699 -19.166 3.5 -29.499s5.16602 -20.5 8.49902 -30.5c5.33301 -17.333 9.5 -33.5 12.5 -48.5
s4.5 -32.167 4.5 -51.5v-45h91v-32h-90v-337c0 -12.667 4.33301 -19 13 -19l70 2v-34h-264v34zM330 33.999l49 -2.00098c8.66699 2 13 8.33301 13 19v629c0 11.333 -4 18.333 -12 21l-33 -2v32h176v-680c0 -13.333 4.33301 -19.666 13 -18.999l32 2v-34h-238v34z" />
    <glyph glyph-name=".notdef" horiz-adv-x="488" 
d="M400 730v-975h-309v975h309zM325 665h-161v-32h63v-37h-64v-32h162v32h-65v37h65v32zM260 539h-97v-101h162v33h-65v68zM227 506v-35h-32v35h32zM325 411h-162v-32h64v-36h-64v-32h97v68h65v32zM325 353h-32v-65h-130v-33h162v98zM325 234h-98v-55h33v23h33v-46h-98v78
h-32v-110h162v110zM325 65h-162v-110h162v110zM293 33v-46h-98v46h98zM325 -68h-162v-32h68l-68 -46v-32h162v32h-100l68 46h32v32z" />
    <glyph glyph-name="NULL" horiz-adv-x="0" 
 />
    <glyph glyph-name="NULL" horiz-adv-x="0" 
 />
    <glyph glyph-name="nonmarkingreturn" unicode="&#xd;" horiz-adv-x="205" 
 />
    <glyph glyph-name="space" unicode=" " horiz-adv-x="205" 
 />
    <glyph glyph-name="exclam" unicode="!" horiz-adv-x="286" 
d="M209 616c12.667 -14 19.001 -32.668 19.001 -56.001c0 -16 -3 -38 -9 -66l-20 -86c-10 -46 -17.333 -81.667 -22 -107s-7 -52 -7 -80c0 -13.333 -5 -20 -15 -20c-10.667 0 -16 6.66699 -16 20c0 24.667 -2.16699 49.334 -6.5 74.001s-10.5 54.667 -18.5 90
c-0.666992 4 -2.33398 11.667 -5.00098 23l-19 86c-6 28 -9 50 -9 66c0 23.333 6.16699 42 18.5 56s30.166 21 53.499 21c24.667 0 43.334 -7 56.001 -21zM220.501 117.999c17.667 -14.667 26.5 -32.334 26.5 -53.001c0 -21.333 -8.83301 -39.166 -26.5 -53.499
s-39.5 -21.5 -65.5 -21.5s-47.667 7.16699 -65 21.5s-26 32.166 -26 53.499c0 20.667 8.66699 38.334 26 53.001s39 22 65 22s47.833 -7.33301 65.5 -22z" />
    <glyph glyph-name="quotedbl" unicode="&#x22;" horiz-adv-x="267" 
d="M28.5 625.5c9 9.66699 21.833 14.5 38.5 14.5s29.5 -4.83301 38.5 -14.5s13.5 -23.167 13.5 -40.5c0 -7.33301 -1.66699 -17.333 -5 -30s-7 -25.334 -11 -38.001c-4.66699 -15.333 -9 -30.833 -13 -46.5s-6 -29.167 -6 -40.5c0 -14 -5.66699 -21 -17 -21s-17 7 -17 21
c0 11.333 -2 24.833 -6 40.5s-8.33301 31.167 -13 46.5c-4 12.667 -7.66699 25.334 -11 38.001s-5 22.667 -5 30c0 17.333 4.5 30.833 13.5 40.5zM161.5 625.5c9 9.66699 21.833 14.5 38.5 14.5s29.5 -4.83301 38.5 -14.5s13.5 -23.167 13.5 -40.5
c0 -7.33301 -1.66699 -17.333 -5 -30s-7 -25.334 -11 -38.001c-4.66699 -15.333 -9 -30.833 -13 -46.5s-6 -29.167 -6 -40.5c0 -14 -5.66699 -21 -17 -21s-17 7 -17 21c0 11.333 -2 24.833 -6 40.5s-8.33301 31.167 -13 46.5c-4 12.667 -7.66699 25.334 -11 38.001
s-5 22.667 -5 30c0 17.333 4.5 30.833 13.5 40.5z" />
    <glyph glyph-name="numbersign" unicode="#" horiz-adv-x="504" 
d="M17 191l13 47h95l50 164h-96l13 47h96l58 190h48l-58 -190h106l58 190h48l-57 -190h97l-13 -47h-99l-48 -164h97l-14 -47h-98l-59 -200h-48l60 200h-107l-59 -200h-48l60 200h-95zM173 238h107l49 164h-107z" />
    <glyph glyph-name="dollar" unicode="$" horiz-adv-x="448" 
d="M339 155c-22.667 -22 -53.334 -34.666 -92.001 -37.999v-212h-45v212c-16 2 -41.667 7.66699 -77 17c-11.333 2 -19.666 3 -24.999 3c-11.333 0 -19.666 -1.66699 -24.999 -5l4 106l31 1c0 -26.667 11.667 -48.5 35 -65.5s51.333 -25.5 84 -25.5
c16 0 28.833 3.5 38.5 10.5s14.5 17.167 14.5 30.5c0 11.333 -3.66699 20.5 -11 27.5s-20.333 12.833 -39 17.5l-47 13c-38 10.667 -65.167 24.5 -81.5 41.5s-24.5 39.167 -24.5 66.5c0 33.333 10.667 60.666 32 81.999s51.666 33.333 90.999 36v174h45v-175
c11.333 -1.33301 25.333 -4 42 -8c17.333 -4.66699 31.333 -7 42 -7c9.33301 0 17.333 2 24 6l-4 -91h-28c0 18.667 -8.5 35.167 -25.5 49.5s-40.5 21.5 -70.5 21.5c-14.667 0 -26.667 -3.33301 -36 -10s-14 -15.667 -14 -27c0 -22 13.667 -35.667 41 -41l45 -11
c43.333 -10 72.5 -24 87.5 -42s22.5 -41.333 22.5 -70c0 -36 -11.333 -65 -34 -87z" />
    <glyph glyph-name="percent" unicode="%" horiz-adv-x="601" 
d="M64 10l427 599l42 -28l-429 -602zM47 568.5c26.667 25.667 63.334 38.5 110.001 38.5c48 0 85.167 -13 111.5 -39s39.5 -59.667 39.5 -101c0 -40.667 -13.167 -74 -39.5 -100s-63.5 -39 -111.5 -39c-48.667 0 -85.834 13 -111.501 39s-38.5 59.333 -38.5 100
c0 42 13.333 75.833 40 101.5zM123.5 378c6.33301 -16 17.5 -23.999 33.5 -23.999c16.667 0 28.167 8.16699 34.5 24.5s9.5 46.166 9.5 89.499c0 44 -3.16699 74.167 -9.5 90.5s-17.833 24.5 -34.5 24.5c-16 0 -27.167 -8.5 -33.5 -25.5s-9.5 -46.833 -9.5 -89.5
c0 -44 3.16699 -74 9.5 -90zM333 230.501c26.667 25.667 63.333 38.5 110 38.5c48.667 0 86 -13 112 -39s39 -59.667 39 -101c0 -40.667 -13 -74 -39 -100s-63.333 -39 -112 -39c-48 0 -85 13.167 -111 39.5s-39 59.5 -39 99.5c0 42 13.333 75.833 40 101.5zM409.999 40.001
c6 -16 17 -23.999 33 -23.999c16.667 0 28.167 8.16699 34.5 24.5s9.5 46.166 9.5 89.499c0 44 -3.16699 74.167 -9.5 90.5s-17.833 24.5 -34.5 24.5c-16 0 -27 -8.33301 -33 -25s-9 -46.667 -9 -90c0 -44 3 -74 9 -90z" />
    <glyph glyph-name="ampersand" unicode="&#x26;" horiz-adv-x="624" 
d="M639 36l0.00390625 -36h-192l-35 48c-46.667 -38.667 -104.334 -58 -173.001 -58c-58.667 0 -109.5 13.333 -152.5 40s-64.5 67.334 -64.5 122.001c0 39.333 13.167 74.833 39.5 106.5s69.166 61.167 128.499 88.5l-24.5 34.5c-13 18.333 -22.833 36 -29.5 53
s-10 33.833 -10 50.5c0 34.667 13.667 63.5 41 86.5s64.333 34.5 111 34.5c42.667 0 75.167 -10 97.5 -30s33.5 -45.333 33.5 -76c0 -48 -28 -89.333 -84 -124l137 -186c19.333 50 29 97.667 29 143c0 12 -1 20.333 -3 25s-5.66699 7 -11 7l-42 -2v36h151v-36l-42 2
c-4.66699 0 -7.83398 -1.66699 -9.50098 -5s-2.83398 -9 -3.50098 -17c-6.66699 -76.667 -21 -139.334 -43 -188.001l80 -108c6.66699 -8.66699 16.667 -13 30 -13zM260.004 555c-11.333 -8.66699 -17 -21.333 -17 -38c0 -12.667 3.33301 -25.167 10 -37.5
s17.667 -29.166 33 -50.499l18 -25c23.333 14.667 40.5 29.167 51.5 43.5s16.5 31.166 16.5 50.499c0 21.333 -6.16699 38.333 -18.5 51s-28.833 19 -49.5 19c-18 0 -32.667 -4.33301 -44 -13zM390.004 76.001l-176 237c-20 -16.667 -34.667 -37.5 -44 -62.5
s-14 -50.5 -14 -76.5c0 -45.333 12 -80.833 36 -106.5s54 -38.5 90 -38.5c39.333 0 75.333 15.667 108 47z" />
    <glyph glyph-name="quotesingle" unicode="'" horiz-adv-x="134" 
d="M28.5 625.5c9 9.66699 21.833 14.5 38.5 14.5s29.5 -4.83301 38.5 -14.5s13.5 -23.167 13.5 -40.5c0 -7.33301 -1.66699 -17.333 -5 -30s-7 -25.334 -11 -38.001c-4.66699 -15.333 -9 -30.833 -13 -46.5s-6 -29.167 -6 -40.5c0 -14 -5.66699 -21 -17 -21s-17 7 -17 21
c0 11.333 -2 24.833 -6 40.5s-8.33301 31.167 -13 46.5c-4 12.667 -7.66699 25.334 -11 38.001s-5 22.667 -5 30c0 17.333 4.5 30.833 13.5 40.5z" />
    <glyph glyph-name="parenleft" unicode="(" horiz-adv-x="277" 
d="M44.5 418.5c17.667 53.667 41 102.5 70 146.5s66.167 92.667 111.5 146h51c-35.333 -58 -62.833 -127.667 -82.5 -209s-29.5 -168.666 -29.5 -261.999c0 -92.667 9.83301 -179.834 29.5 -261.501s47.167 -151.5 82.5 -209.5h-51c-45.333 53.333 -82.5 102 -111.5 146
s-52.333 92.833 -70 146.5s-26.5 113.167 -26.5 178.5s8.83301 124.833 26.5 178.5z" />
    <glyph glyph-name="parenright" unicode=")" horiz-adv-x="277" 
d="M232.5 61.5c-17.667 -53.667 -41 -102.5 -70 -146.5s-66.167 -92.667 -111.5 -146h-51c35.333 58 62.833 127.833 82.5 209.5s29.5 168.834 29.5 261.501c0 93.333 -9.83301 180.666 -29.5 261.999s-47.167 151 -82.5 209h51c45.333 -53.333 82.5 -102 111.5 -146
s52.333 -92.833 70 -146.5s26.5 -113.167 26.5 -178.5s-8.83301 -124.833 -26.5 -178.5z" />
    <glyph glyph-name="asterisk" unicode="*" horiz-adv-x="338" 
d="M310.5 527.5c5 -7 7.50488 -18.832 7.50488 -35.499s-2.83301 -28.5 -8.5 -35.5s-13.834 -10.5 -24.501 -10.5c-5.33301 0 -9.83301 1.16699 -13.5 3.5s-7.83398 5.83301 -12.501 10.5c-4.66699 5.33301 -9.5 9.5 -14.5 12.5s-11.5 4.5 -19.5 4.5
c-6.66699 0 -12.667 -2 -18 -6l-1 -5c0 -3.33301 1.66699 -8.33301 5 -15c4 -6.66699 8.16699 -11.334 12.5 -14.001s10.833 -5 19.5 -7c0.666992 0 4 -1 10 -3s10.667 -6 14 -12c4 -6.66699 6 -13 6 -19c0 -11.333 -9.66699 -22.333 -29 -33
c-12.667 -6.66699 -23.334 -10 -32.001 -10c-10 0 -18.333 5.33301 -25 16c-2 4 -3 8.33301 -3 13c0 3.33301 0.833008 8.66602 2.5 15.999s2.5 13 2.5 17c0 7.33301 -2 14.333 -6 21c-2.66699 6.66699 -7.33398 10.667 -14.001 12
c-6.66699 -1.33301 -11.334 -5.33301 -14.001 -12c-4 -6.66699 -6 -13.334 -6 -20.001c0 -4 1 -9.66699 3 -17s3 -12.666 3 -15.999c0 -4.66699 -1.33301 -9.33398 -4 -14.001c-6.66699 -12 -14.667 -18 -24 -18c-5.33301 0 -16 4 -32 12c-19.333 10 -29 21.667 -29 35
c0 4.66699 1.66699 10.334 5 17.001c2.66699 4.66699 5.66699 7.83398 9 9.50098s8.66602 3.5 15.999 5.5c8.66699 2 15.167 4.33301 19.5 7s8.5 7.33398 12.5 14.001c2 4 3 8 3 12s-0.333008 6.66699 -1 8c-5.33301 4 -11 6 -17 6c-8 0 -14.167 -1.33301 -18.5 -4
s-9.5 -7 -15.5 -13c-4.66699 -4.66699 -8.66699 -8.16699 -12 -10.5s-8 -3.5 -14 -3.5c-12 0 -20.5 3.5 -25.5 10.5s-7.5 18.833 -7.5 35.5c0 30.667 11 46 33 46c6 0 10.667 -1.16699 14 -3.5s7.33301 -5.83301 12 -10.5c5.33301 -5.33301 10.333 -9.33301 15 -12
s11 -4 19 -4c7.33301 0 13.333 1.66699 18 5c0.666992 2 1 4.33301 1 7c0 3.33301 -1.33301 7.66602 -4 12.999c-4 6.66699 -8.16699 11.334 -12.5 14.001s-10.833 5 -19.5 7c-7.33301 2 -12.666 3.83301 -15.999 5.5s-6.33301 4.83398 -9 9.50098c-4 8 -6 14.333 -6 19
c0 11.333 10 22.333 30 33c11.333 7.33301 21.666 11 30.999 11c10 0 18.333 -5.33301 25 -16c2.66699 -4.66699 4 -9.33398 4 -14.001c0 -3.33301 -1 -8.66602 -3 -15.999s-3 -13.333 -3 -18c0 -6.66699 2 -13.334 6 -20.001c2.66699 -6.66699 7.33398 -10.667 14.001 -12
c6.66699 1.33301 11.334 5.33301 14.001 12c4 6.66699 6 13.667 6 21c0 4 -1 9.66699 -3 17s-3 12.666 -3 15.999c0 4.66699 1.33301 9.33398 4 14.001c7.33301 11.333 15.333 17 24 17c7.33301 0 18 -4 32 -12c19.333 -10 29 -21.333 29 -34
c0 -5.33301 -1.66699 -11.333 -5 -18c-3.33301 -6 -8 -10 -14 -12s-9.33301 -3 -10 -3c-8.66699 -2 -15.167 -4.33301 -19.5 -7s-8.5 -7.33398 -12.5 -14.001c-4.66699 -6 -5.66699 -12.667 -3 -20c4.66699 -3.33301 10.334 -5 17.001 -5c8 0 14.5 1.5 19.5 4.5
s9.83301 7.16699 14.5 12.5c3.33301 3.33301 7.16602 6.33301 11.499 9s9.16602 4 14.499 4c12 0 20.5 -3.5 25.5 -10.5z" />
    <glyph glyph-name="plus" unicode="+" 
d="M20 255v52h182v181h57v-181h181v-52h-181v-182h-57v182h-182z" />
    <glyph glyph-name="comma" unicode="," horiz-adv-x="276" 
d="M120.5 -94c13 19.333 19.499 38.3311 19.499 56.998c0 20 -12.333 30 -37 30c-18.667 0 -32.667 5.16699 -42 15.5s-14 24.833 -14 43.5c0 20.667 7 38.334 21 53.001s33.333 22 58 22c32 0 57.333 -10.167 76 -30.5s28 -45.166 28 -74.499
c0 -38.667 -13.167 -74 -39.5 -106s-58.166 -57.333 -95.499 -76l-20 21c17.333 10.667 32.5 25.667 45.5 45z" />
    <glyph glyph-name="hyphen" unicode="-" horiz-adv-x="250" 
d="M22 182v62h206v-62h-206z" />
    <glyph glyph-name="period" unicode="." horiz-adv-x="275" 
d="M71 119.5c17.333 13.667 39.333 20.5 66 20.5c27.333 0 49.666 -6.83301 66.999 -20.5s26 -31.834 26 -54.501c0 -23.333 -8.66699 -41.666 -26 -54.999s-39.666 -20 -66.999 -20s-49.5 6.66699 -66.5 20s-25.5 31.666 -25.5 54.999c0 22.667 8.66699 40.834 26 54.501z
" />
    <glyph glyph-name="slash" unicode="/" horiz-adv-x="255" 
d="M-5 6l219 629l46 -10l-218 -632z" />
    <glyph glyph-name="zero" unicode="0" horiz-adv-x="540" 
d="M51.5 466c21.667 46.667 51.3301 81.835 88.9971 105.502s80.834 35.5 129.501 35.5s91.834 -12 129.501 -36s67.334 -59.333 89.001 -106s32.5 -102.667 32.5 -168c0 -64 -10.667 -119.167 -32 -165.5s-50.833 -81.5 -88.5 -105.5s-81.167 -36 -130.5 -36
c-50 0 -93.833 12.167 -131.5 36.5s-67 59.666 -88 105.999s-31.5 101.166 -31.5 164.499c0 66 10.833 122.333 32.5 169zM164.996 131.001c8 -39.333 20.333 -66.832 37 -82.499s39.334 -23.5 68.001 -23.5s51.5 8.16699 68.5 24.5s29.5 44.166 37.5 83.499
s12 94.333 12 165c0 72.667 -4 129 -12 169s-20.333 68 -37 84s-39.667 24 -69 24c-28.667 0 -51.334 -8.5 -68.001 -25.5s-29 -45.5 -37 -85.5s-12 -95.333 -12 -166c0 -72 4 -127.667 12 -167z" />
    <glyph glyph-name="one" unicode="1" horiz-adv-x="365" 
d="M182 577c16.667 10 35.333 23.668 56 41.001h21v-567c0 -13.333 6 -20 18 -20l57 1v-32h-276v32l58 -1c13.333 0 20 6.66699 20 20v433c0 6 -1.83301 10.667 -5.5 14s-8.5 3.66602 -14.5 0.999023l-65 -23l-12 38c46 10.667 93.667 31.667 143 63z" />
    <glyph glyph-name="two" unicode="2" horiz-adv-x="499" 
d="M462 169c-6.66699 -33.333 -11.8311 -65.999 -15.498 -97.999s-5.83398 -56.667 -6.50098 -74c-6 2 -25.667 3 -59 3h-337l-3 80l122 113c48 45.333 85 88.166 111 128.499s39 86.833 39 139.5c0 38 -7.66699 66.167 -23 84.5s-35.666 27.5 -60.999 27.5
c-20 0 -36.5 -5.33301 -49.5 -16s-19.5 -25 -19.5 -43c0 -8.66699 1.66699 -18.667 5 -30c2.66699 -13.333 4 -23.333 4 -30c0 -16 -5.83301 -28.167 -17.5 -36.5s-26.167 -12.5 -43.5 -12.5c-22 0 -39 6.66699 -51 20s-18 30.333 -18 51c0 23.333 8.16699 45 24.5 65
s39.666 36 69.999 48s65.166 18 104.499 18c62 0 112.5 -13.167 151.5 -39.5s58.5 -65.5 58.5 -117.5c0 -29.333 -6.5 -57 -19.5 -83s-33.5 -52.667 -61.5 -80s-66.333 -59.333 -115 -96l-130 -95h189c36.667 0 63.5 5.33301 80.5 16s27.5 29.667 31.5 57h39z" />
    <glyph glyph-name="three" unicode="3" horiz-adv-x="499" 
d="M244 321c76.667 -1.33301 135.332 -14.8311 175.999 -40.498s61 -63.5 61 -113.5c0 -35.333 -11.167 -66.5 -33.5 -93.5s-52.833 -47.667 -91.5 -62s-82.667 -21.5 -132 -21.5c-38.667 0 -74 5.16699 -106 15.5s-57 24.666 -75 42.999s-27 39.166 -27 62.499
c0 19.333 6 35.166 18 47.499s29 18.5 51 18.5c18 0 32.5 -4.66699 43.5 -14s16.5 -21.666 16.5 -36.999c0 -4.66699 -1.33301 -12.334 -4 -23.001c-3.33301 -8.66699 -5 -17 -5 -25c0 -17.333 8.16699 -30.5 24.5 -39.5s35.5 -13.5 57.5 -13.5c40 0 71.5 12.833 94.5 38.5
s34.5 58.167 34.5 97.5c0 43.333 -16.167 75.5 -48.5 96.5s-86.833 34.5 -163.5 40.5v33c30 1.33301 58.5 8.16602 85.5 20.499s48.667 29.833 65 52.5s24.5 49.334 24.5 80.001c0 26 -7.16699 47.333 -21.5 64s-35.5 25 -63.5 25c-21.333 0 -39.333 -4.83301 -54 -14.5
s-22 -22.167 -22 -37.5c0 -8 1.66699 -16 5 -24c0.666992 -2 1.66699 -5.5 3 -10.5s2 -10.167 2 -15.5c0 -16.667 -6 -29.167 -18 -37.5s-26 -12.5 -42 -12.5c-23.333 0 -40.666 6.33301 -51.999 19s-17 28.334 -17 47.001c0 36.667 20.667 65.834 62 87.501
s90 32.5 146 32.5c59.333 0 108.5 -10.833 147.5 -32.5s58.5 -52.834 58.5 -93.501c0 -42 -19 -76.833 -57 -104.5s-85.667 -45.167 -143 -52.5v-3z" />
    <glyph glyph-name="four" unicode="4" horiz-adv-x="486" 
d="M396 224h79v-77h-79v-96c0 -13.333 6.33301 -20 19 -20l43 1v-32h-273v32l69 -1c12.667 0 19 6.66699 19 20v96h-263v68c12.667 11.333 22.667 21.333 30 30l30 31l233 278l17 22l21 28h55v-380zM273 463l-200 -239h200v239z" />
    <glyph glyph-name="five" unicode="5" horiz-adv-x="485" 
d="M398.5 326c39 -32.667 58.498 -78.334 58.498 -137.001c0 -40.667 -10.333 -76 -31 -106s-49 -53 -85 -69s-76 -24 -120 -24c-49.333 0 -94.166 9.5 -134.499 28.5s-60.5 49.5 -60.5 91.5c0 22 6.5 39.333 19.5 52s29.167 19 48.5 19
c17.333 0 31.833 -4.83301 43.5 -14.5s17.5 -22.167 17.5 -37.5c0 -8 -2 -18 -6 -30c-2.66699 -9.33301 -4 -16.333 -4 -21c0 -18 7.33301 -31.5 22 -40.5s32.334 -13.5 53.001 -13.5c38 0 65 13 81 39s24 63 24 111c0 100.667 -42 151 -126 151
c-23.333 0 -46 -4.83301 -68 -14.5s-37.333 -21.167 -46 -34.5h-30l26 321h271c28.667 0 56 1 82 3c-3.33301 -12 -6.5 -27.667 -9.5 -47s-5.16699 -36.666 -6.5 -51.999h-304l-18 -170c20 12.667 43.5 23.167 70.5 31.5s53.833 12.5 80.5 12.5
c62 0 112.5 -16.333 151.5 -49z" />
    <glyph glyph-name="six" unicode="6" horiz-adv-x="500" 
d="M428 342.5c36.667 -35 54.998 -84.168 54.998 -147.501c0 -40 -9.33301 -75.667 -28 -107s-45 -55.666 -79 -72.999s-73 -26 -117 -26c-83.333 0 -142.333 24.667 -177 74s-52 116 -52 200c0 101.333 20.167 184 60.5 248s107.833 96 202.5 96
c32.667 0 61.5 -4.83301 86.5 -14.5s44.333 -22.5 58 -38.5s20.5 -33.333 20.5 -52c0 -19.333 -6 -34.833 -18 -46.5s-27.333 -17.5 -46 -17.5c-19.333 0 -34.666 4 -45.999 12s-17 19.333 -17 34c0 6.66699 1.33301 14.667 4 24s4 17 4 23
c0 11.333 -4.66699 20.833 -14 28.5s-23.333 11.5 -42 11.5c-38 0 -66.667 -19.667 -86 -59s-31 -92 -35 -158c28.667 27.333 65.334 41 110.001 41c67.333 0 119.333 -17.5 156 -52.5zM331.498 61.499c13.667 28.333 20.5 71.833 20.5 130.5c0 114 -30.667 171 -92 171
c-40 0 -66.667 -14.667 -80 -44s-20 -71.333 -20 -126c0 -48 8.33301 -89 25 -123s41.667 -51 75 -51c34 0 57.833 14.167 71.5 42.5z" />
    <glyph glyph-name="seven" unicode="7" horiz-adv-x="447" 
d="M308.5 329c-29 -79.333 -43.502 -167.665 -43.502 -264.998c0 -20.667 1 -42 3 -64h-131c0.666992 54 6.33398 106 17.001 156s31.5 104.167 62.5 162.5s75.5 119.166 133.5 182.499h-202c-29.333 0 -50.666 -4 -63.999 -12s-21.333 -22 -24 -42h-37l7 63
c5.33301 49.333 8 79.666 8 90.999c8.66699 -2.66699 50.667 -4 126 -4h275l5 -46c-61.333 -68.667 -106.5 -142.667 -135.5 -222z" />
    <glyph glyph-name="eight" unicode="8" horiz-adv-x="515" 
d="M454 257.5c26 -27.667 39 -61.1689 39 -100.502c0 -35.333 -11.333 -65.5 -34 -90.5s-52.834 -44 -90.501 -57s-78.5 -19.5 -122.5 -19.5c-67.333 0 -120.833 11.167 -160.5 33.5s-59.5 58.166 -59.5 107.499c0 36 12.833 67.333 38.5 94s61.5 50 107.5 70
c-40 22.667 -70.833 46.334 -92.5 71.001s-32.5 54.334 -32.5 89.001c0 48.667 20.833 86.167 62.5 112.5s94.5 39.5 158.5 39.5c60.667 0 109.834 -10.667 147.501 -32s56.5 -52.666 56.5 -93.999c0 -32 -12.833 -61.333 -38.5 -88s-55.167 -45 -88.5 -55
c46.667 -26 83 -52.833 109 -80.5zM199 550.498c-18.667 -15 -28.002 -33.834 -28.002 -56.501c0 -26.667 11.333 -49.5 34 -68.5s57.334 -41.5 104.001 -67.5c20.667 14.667 36.334 32.5 47.001 53.5s16 42.833 16 65.5c0 30.667 -8.5 54.334 -25.5 71.001
s-41.167 25 -72.5 25s-56.333 -7.5 -75 -22.5zM337.498 47.4971c20.333 15.667 30.501 37.5 30.501 65.5c0 24 -7.16699 45.333 -21.5 64s-31.5 34.5 -51.5 47.5s-48.333 29.5 -85 49.5c-23.333 -14 -42.5 -33.5 -57.5 -58.5s-22.5 -50.167 -22.5 -75.5
c0 -34 11.333 -61.833 34 -83.5s53.667 -32.5 93 -32.5c33.333 0 60.166 7.83301 80.499 23.5z" />
    <glyph glyph-name="nine" unicode="9" horiz-adv-x="500" 
d="M436 533c34.667 -49.333 52.002 -115.999 52.002 -199.999c0 -101.333 -20.167 -184 -60.5 -248s-107.833 -96 -202.5 -96c-32.667 0 -61.5 4.83301 -86.5 14.5s-44.333 22.5 -58 38.5s-20.5 33.333 -20.5 52c0 19.333 6 34.833 18 46.5s27.333 17.5 46 17.5
c19.333 0 34.666 -4 45.999 -12s17 -19.333 17 -34c0 -6.66699 -1.33301 -14.667 -4 -24s-4 -17 -4 -23c0 -11.333 4.66699 -20.833 14 -28.5s23.333 -11.5 42 -11.5c38 0 66.667 19.667 86 59s31 92 35 158c-28.667 -27.333 -65.334 -41 -110.001 -41
c-67.333 0 -119.333 17.5 -156 52.5s-55 84.167 -55 147.5c0 40 9.33301 75.667 28 107s45 55.666 79 72.999s73 26 117 26c83.333 0 142.333 -24.667 177 -74zM338.002 277.001c13.333 29.333 20 71.333 20 126c0 48 -8.33301 89 -25 123s-41.667 51 -75 51
c-34 0 -57.833 -14.167 -71.5 -42.5s-20.5 -71.833 -20.5 -130.5c0 -114 30.667 -171 92 -171c40 0 66.667 14.667 80 44z" />
    <glyph glyph-name="colon" unicode=":" horiz-adv-x="275" 
d="M71 119.5c17.333 13.667 39.333 20.5 66 20.5c27.333 0 49.666 -6.83301 66.999 -20.5s26 -31.834 26 -54.501c0 -23.333 -8.66699 -41.666 -26 -54.999s-39.666 -20 -66.999 -20s-49.5 6.66699 -66.5 20s-25.5 31.666 -25.5 54.999c0 22.667 8.66699 40.834 26 54.501z
M71 408.5c17.333 13.667 39.333 20.5 66 20.5c27.333 0 49.666 -6.83301 66.999 -20.5s26 -31.834 26 -54.501c0 -23.333 -8.66699 -41.666 -26 -54.999s-39.666 -20 -66.999 -20s-49.5 6.66699 -66.5 20s-25.5 31.666 -25.5 54.999c0 22.667 8.66699 40.834 26 54.501z" />
    <glyph glyph-name="semicolon" unicode=";" horiz-adv-x="276" 
d="M122.5 -94c13 19.333 19.499 38.3311 19.499 56.998c0 20 -12.333 30 -37 30c-18.667 0 -32.667 5.16699 -42 15.5s-14 24.833 -14 43.5c0 20.667 7 38.334 21 53.001s33.333 22 58 22c32 0 57.333 -10.167 76 -30.5s28 -45.166 28 -74.499
c0 -38.667 -13.167 -74 -39.5 -106s-58.166 -57.333 -95.499 -76l-20 21c17.333 10.667 32.5 25.667 45.5 45zM64.999 408.498c17.333 13.667 39.333 20.5 66 20.5c27.333 0 49.666 -6.83301 66.999 -20.5s26 -31.834 26 -54.501c0 -23.333 -8.66699 -41.666 -26 -54.999
s-39.666 -20 -66.999 -20s-49.5 6.66699 -66.5 20s-25.5 31.666 -25.5 54.999c0 22.667 8.66699 40.834 26 54.501z" />
    <glyph glyph-name="less" unicode="&#x3c;" 
d="M406 441v-56l-256 -155l-32 -12l32 -14l256 -154v-56l-352 211v24z" />
    <glyph glyph-name="equal" unicode="=" 
d="M35 295v50h390v-50h-390zM35 103v51h390v-51h-390z" />
    <glyph glyph-name="greater" unicode="&#x3e;" 
d="M54 -5v56l256 155l32 12l-32 14l-256 154v56l352 -211v-24z" />
    <glyph glyph-name="question" unicode="?" horiz-adv-x="413" 
d="M178 239.5c-18 11.667 -33.167 25.833 -45.5 42.5s-18.5 34.667 -18.5 54c0 18 5.5 35 16.5 51s27.5 35 49.5 57c23.333 24 41 44.833 53 62.5s18 37.167 18 58.5s-6.33301 38.5 -19 51.5s-29.667 19.5 -51 19.5c-14 0 -25.5 -3 -34.5 -9s-13.5 -14 -13.5 -24
c0 -4 1.33301 -10.333 4 -19s4 -15.667 4 -21c0 -14.667 -6 -26 -18 -34s-26.333 -12 -43 -12c-22 0 -38.667 6.33301 -50 19s-17 27.667 -17 45c0 30 17 52.333 51 67s78.667 22 134 22c62.667 0 110.667 -9.5 144 -28.5s50 -46.167 50 -81.5c0 -27.333 -9 -51.333 -27 -72
s-43.667 -43.334 -77 -68.001c-30 -22.667 -52 -41.5 -66 -56.5s-21 -32.167 -21 -51.5c0 -13.333 3.66699 -26.166 11 -38.499s18.333 -22.833 33 -31.5l-17 -26c-15.333 4 -32 11.833 -50 23.5zM128.5 10.999c-17.667 14 -26.5 31.666 -26.5 52.999
c0 20.667 8.66699 38.334 26 53.001s39.333 22 66 22c26 0 47.833 -7 65.5 -21s26.5 -31.667 26.5 -53c0 -22 -8.83301 -40 -26.5 -54s-39.5 -21 -65.5 -21s-47.833 7 -65.5 21z" />
    <glyph glyph-name="at" unicode="@" horiz-adv-x="776" 
d="M77 385.5c36.667 65.667 87.1641 118.495 151.497 158.495s135.5 60 213.5 60c58.667 0 111.834 -13.167 159.501 -39.5s85.167 -62.166 112.5 -107.499s41 -95.666 41 -150.999c0 -56 -15.333 -110.167 -46 -162.5s-74.667 -93.166 -132 -122.499
c-38.667 -20.667 -74.334 -31 -107.001 -31c-16 0 -26.5 3.5 -31.5 10.5s-7.5 18.833 -7.5 35.5c0 25.333 7.33301 70.666 22 135.999c-27.333 -64 -57.666 -110.333 -90.999 -139s-67.333 -43 -102 -43c-29.333 0 -52 10.833 -68 32.5s-24 51.5 -24 89.5
c0 53.333 11.5 105 34.5 155s54.333 90.5 94 121.5s82.834 46.5 129.501 46.5c15.333 0 29 -3.16699 41 -9.5s21 -16.166 27 -29.499l5 20l137 17l-24 -95c-12 -49.333 -22.167 -98.166 -30.5 -146.499s-12.5 -81.5 -12.5 -99.5c0 -11.333 4.33301 -17 13 -17
c17.333 0 36.5 11.5 57.5 34.5s39 52.333 54 88s22.5 71.5 22.5 107.5c0 47.333 -12 91 -36 131s-57 71.833 -99 95.5s-88.333 35.5 -139 35.5c-78 0 -145 -19.333 -201 -58s-98.5 -88.334 -127.5 -149.001s-43.5 -123 -43.5 -187c0 -56.667 13.833 -107 41.5 -151
s67 -78.167 118 -102.5s110.833 -36.5 179.5 -36.5c60.667 0 114.834 10.333 162.501 31s94.167 53.334 139.5 98.001l24 -29c-48.667 -48.667 -99.5 -83.5 -152.5 -104.5s-113.833 -31.5 -182.5 -31.5c-76 0 -142.5 13.5 -199.5 40.5s-101 65.5 -132 115.5
s-46.5 108.333 -46.5 175c0 72.667 18.333 141.834 55 207.501zM311.497 77.9951c6.33301 -12 15.168 -18 26.501 -18c13.333 0 31.666 17 54.999 51s44 74 62 120s27 86.667 27 122c0 14.667 -3.66699 27 -11 37s-17.333 15 -30 15c-23.333 0 -45.833 -14.5 -67.5 -43.5
s-39.5 -68.5 -53.5 -118.5c-12 -38.667 -18 -76 -18 -112c0 -23.333 3.16699 -41 9.5 -53z" />
    <glyph glyph-name="A" unicode="A" horiz-adv-x="613" 
d="M633 37v-36.999h-300v37l46 -2c20 -2 30 6 30 24c0 11.333 -3.33301 24.333 -10 39l-37 88h-220l-34 -82c-9.33301 -20.667 -14 -37.334 -14 -50.001c0 -14 7.33301 -20.667 22 -20l45 3v-37h-181v37l29 -2h4c13.333 0 24.333 6.33301 33 19c10 14.667 20 34 30 58
l206 495h49l208 -497c9.33301 -24 19 -43 29 -57c9.33301 -12 21 -18 35 -18h5zM156 221.001h192l-97 230z" />
    <glyph glyph-name="B" unicode="B" horiz-adv-x="581" 
d="M479 561c29.333 -24 44 -59.6689 44 -107.002c0 -35.333 -12.5 -65.166 -37.5 -89.499s-58.5 -40.166 -100.5 -47.499c31.333 0 60 -6.66699 86 -20s46.667 -31.833 62 -55.5s23 -50.167 23 -79.5c0 -108 -73.667 -162 -221 -162h-296v37l48 -2
c10.667 0 16 7.33301 16 22v485c0 4.66699 -1.5 9.16699 -4.5 13.5s-7.16699 6.5 -12.5 6.5l-47 -2v37h311c56.667 0 99.667 -12 129 -36zM253 561.998c-6.66699 0 -10.668 -4 -12.001 -12v-221h52c30.667 0 53.334 9.5 68.001 28.5s22 49.5 22 91.5
c0 75.333 -30.667 113 -92 113h-38zM240.999 293.998v-245c0 -8.66699 4.66699 -13 14 -13h49c34 0 60.833 10.667 80.5 32s29.5 53.333 29.5 96c0 45.333 -8 78.333 -24 99s-40.333 31 -73 31h-76z" />
    <glyph glyph-name="C" unicode="C" horiz-adv-x="596" 
d="M112.5 525c55 54.667 131.165 81.9971 228.498 81.9971c26.667 0 48.667 -2 66 -6s38.333 -10 63 -18c17.333 -6.66699 32.333 -11.5 45 -14.5s26.667 -4.5 42 -4.5c-2.66699 -20.667 -4 -45.667 -4 -75c0 -14 0.333008 -26.5 1 -37.5s1.66699 -17.167 3 -18.5h-32
c-8 39.333 -28.333 72.833 -61 100.5s-69 41.5 -109 41.5c-55.333 0 -98.166 -24.167 -128.499 -72.5s-45.5 -117.5 -45.5 -207.5c0 -86 16 -152.5 48 -199.5s75.333 -70.5 130 -70.5c42 0 78.833 13.5 110.5 40.5s51.834 60.833 60.501 101.5h36c-4 -32.667 -6 -61 -6 -85
c0 -19.333 1 -35 3 -47h-6c-12 0 -24.5 -1.5 -37.5 -4.5s-29.833 -7.83301 -50.5 -14.5c-30 -8.66699 -54.167 -15.167 -72.5 -19.5s-38.5 -6.5 -60.5 -6.5c-62.667 0 -117 12.333 -163 37s-81.333 59.834 -106 105.501s-37 99.834 -37 162.501
c0 98.667 27.5 175.334 82.5 230.001z" />
    <glyph glyph-name="D" unicode="D" horiz-adv-x="634" 
d="M39 37l39.001 -2h1c4.66699 0 8.16699 2.16699 10.5 6.5s3.5 9.5 3.5 15.5v484c0 6 -1.66699 11 -5 15s-8 6 -14 6l-35 -2v37h244c111.333 0 193.166 -23 245.499 -69s78.5 -122.333 78.5 -229c0 -98.667 -25.5 -173.167 -76.5 -223.5s-129.5 -75.5 -235.5 -75.5h-256v37
zM243.001 36h23c48 0 85.5 7.33301 112.5 22s46.667 40.667 59 78s18.5 91.333 18.5 162c0 70 -6.16699 124 -18.5 162s-32 64.5 -59 79.5s-64.5 22.5 -112.5 22.5h-23c-8 0 -12 -4.33301 -12 -13v-500c0 -8.66699 4 -13 12 -13z" />
    <glyph glyph-name="E" unicode="E" horiz-adv-x="571" 
d="M39 38l36 -2.99902c12 0 18 7.33301 18 22v484c0 6 -1.83301 11.167 -5.5 15.5s-8.5 6.16602 -14.5 5.49902l-34 -2v37h441c9.33301 0 15 0.333008 17 1v-155h-35c0 42 -11.333 72.333 -34 91s-58.667 28 -108 28h-77c-8 0 -12 -4.66699 -12 -14v-223h72
c22.667 0 41 9 55 27s21 42.667 21 74h34v-235h-34c0 28 -7.5 51.5 -22.5 70.5s-32.833 28.5 -53.5 28.5h-72v-241c0 -8.66699 4 -13 12 -13h110c45.333 0 79.833 12.333 103.5 37s35.5 60 35.5 106h35v-182c-14.667 2 -46.667 3 -96 3h-392v38z" />
    <glyph glyph-name="F" unicode="F" horiz-adv-x="529" 
d="M39 38l36 -2.99902c12 0 18 7.33301 18 22v484c0 14 -5.66699 21 -17 21h-2l-35 -2v37h453c8 0 13 0.333008 15 1v-155h-35c0.666992 41.333 -10.333 71.5 -33 90.5s-59 28.5 -109 28.5h-87c-8 0 -12 -4.33301 -12 -13v-234h68c24 0 43.167 9.16699 57.5 27.5
s21.5 43.166 21.5 74.499h34v-237h-34c0 30 -7.33301 54.167 -22 72.5s-33.667 27.5 -57 27.5h-68v-224c0 -6 1.83301 -11 5.5 -15s8.16699 -6 13.5 -6l52 3v-38h-263v38z" />
    <glyph glyph-name="G" unicode="G" horiz-adv-x="650" 
d="M111.5 528c54.333 52.667 131.499 79 231.499 79c28.667 0 54.334 -2.5 77.001 -7.5s49 -11.833 79 -20.5c12.667 -4 24.667 -7.5 36 -10.5s21 -4.5 29 -4.5c-2.66699 -17.333 -4 -37.333 -4 -60c0 -12 1.33301 -38 4 -78h-50c0.666992 4.66699 1 10.667 1 18
c-1.33301 41.333 -15.833 73.5 -43.5 96.5s-66.834 34.5 -117.501 34.5c-55.333 0 -98 -24.5 -128 -73.5s-45 -120.167 -45 -213.5c0 -175.333 54.333 -263 163 -263c20.667 0 38.667 3.16699 54 9.5s30 17.5 44 33.5v148c0 14.667 -6.33301 22 -19 22l-59 -2v36h267v-36
l-32 2c-6 0 -10.667 -2 -14 -6s-5 -9 -5 -15v-182c-6.66699 1.33301 -13 2 -19 2c-9.33301 0 -18.666 -1.33301 -27.999 -4s-21.333 -6.66699 -36 -12c-26.667 -9.33301 -52.167 -16.833 -76.5 -22.5s-52.833 -8.5 -85.5 -8.5c-95.333 0 -170 26 -224 78
s-81 128.333 -81 229c0 101.333 27.167 178.333 81.5 231z" />
    <glyph glyph-name="H" unicode="H" horiz-adv-x="696" 
d="M39 37l35 -2.00098h2c11.333 0 17 7.33301 17 22v484c0 14.667 -6.33301 21.667 -19 21l-35 -2v37h261v-37l-49 2h-2c-6 0 -10.5 -2 -13.5 -6s-4.5 -9 -4.5 -15v-219h234v219c0 14.667 -6.33301 21.667 -19 21l-49 -2v37h260v-37l-35 2h-2c-5.33301 0 -9.5 -2 -12.5 -6
s-4.5 -9 -4.5 -15v-484c0 -15.333 6.33301 -22.666 19 -21.999l35 2v-37h-260v37l49 -2c12.667 0 19 7.33301 19 22v230h-234v-230c0 -14.667 6.66699 -22 20 -22l49 2v-37h-261v37z" />
    <glyph glyph-name="I" unicode="I" horiz-adv-x="325" 
d="M39 37l34.999 -1.99902h2c11.333 0 17 7.33301 17 22v484c0 6 -1.66699 11.167 -5 15.5s-8 6.16602 -14 5.49902l-35 -2v37h247v-37l-35 2h-2c-5.33301 0 -9.66602 -2 -12.999 -6s-5 -9 -5 -15v-484c0 -16 6.66699 -23.333 20 -22l35 2v-37h-247v37z" />
    <glyph glyph-name="J" unicode="J" horiz-adv-x="459" 
d="M24 172l43.999 0.000976562c0 -36.667 6.66699 -70.5 20 -101.5s35 -46.5 65 -46.5c28.667 0 49.167 11.667 61.5 35s18.5 63.333 18.5 120v362c0 6 -1.83301 11.167 -5.5 15.5s-8.16699 6.16602 -13.5 5.49902l-69 -2v37h280v-37l-34 2h-2
c-5.33301 0 -9.66602 -2 -12.999 -6s-5 -8.66699 -5 -14v-363c0 -126 -65 -189 -195 -189c-18.667 0 -44.667 3 -78 9c-20 4 -33 6 -39 6h-8c-14 0 -23 -2 -27 -6v173z" />
    <glyph glyph-name="K" unicode="K" horiz-adv-x="639" 
d="M633 37l0.00195312 -37.001h-285v37l43 -3h3c11.333 0 17 3.66699 17 11c0 4.66699 -1.66699 9.33398 -5 14.001l-139 207l-36 -42v-167c0 -16 6.66699 -23.333 20 -22l45 2v-37h-257v37l35 -2h2c11.333 0 17 7.33301 17 22v484c0 6.66699 -1.66699 12 -5 16
s-8 5.66699 -14 5l-35 -2v37h261v-37l-49 2c-13.333 0 -20 -7.33301 -20 -22v-262l209 248c11.333 13.333 17 22.333 17 27c0 6 -3.33301 9 -10 9l-36 -2v37h180v-37l-34 2c-10.667 0.666992 -20.334 -1 -29.001 -5s-18.334 -12 -29.001 -24l-139 -161l219 -324
c6 -9.33301 14 -14 24 -14c11.333 0 21.333 1 30 3z" />
    <glyph glyph-name="L" unicode="L" horiz-adv-x="514" 
d="M39 38l38.999 -2.99902c10 0 15 7.33301 15 22v484c0 6 -1.83301 11.167 -5.5 15.5s-8.16699 6.16602 -13.5 5.49902l-35 -2v37h261v-37l-49 2h-2c-5.33301 0 -9.66602 -2 -12.999 -6s-5 -9 -5 -15v-492c0 -8.66699 4 -13 12 -13h83c43.333 0 76.333 11.5 99 34.5
s34 56.5 34 100.5h33v-174c-12 2 -53.333 3 -124 3h-329v38z" />
    <glyph glyph-name="M" unicode="M" horiz-adv-x="884" 
d="M846 37l-0.000976562 -37h-262v37l49 -2c13.333 0 20 7.33301 20 22v444l-230 -511h-32l-257 537v-470c0 -14.667 6.33301 -22 19 -22l49 2v-37h-168v37l39 -2c13.333 0 20 7.33301 20 22v499c0 4.66699 -3.33301 6.66699 -10 6l-42 -2v37h206l210 -436l197 436h187v-37
l-31 2h-2c-5.33301 0 -9.66602 -2 -12.999 -6s-5 -8.66699 -5 -14v-485c0 -16 6.66699 -23.333 20 -22z" />
    <glyph glyph-name="N" unicode="N" horiz-adv-x="677" 
d="M643 597v-29.999l-39 2h-2c-11.333 0 -17 -7 -17 -21v-554h-60l-391 531v-476c0 -14.667 6.33301 -22 19 -22l49 2v-29h-168v29l39 -2c13.333 0 20 7.33301 20 22v499c0 6 -1.83301 11.167 -5.5 15.5s-8.5 6.16602 -14.5 5.49902l-39 -2v30h206l304 -414v366
c0 13.333 -5.66699 20 -17 20h-3l-49 -2v30h168z" />
    <glyph glyph-name="O" unicode="O" horiz-adv-x="678" 
d="M111 527.5c54 53 130.001 79.5 228.001 79.5c99.333 0 175.666 -27 228.999 -81s80 -129.667 80 -227c0 -98 -27 -174 -81 -228s-130 -81 -228 -81s-174 27 -228 81s-81 130 -81 228c0 99.333 27 175.5 81 228.5zM198.001 134.5
c11.333 -39.667 28.333 -67.834 51 -84.501s52.667 -25 90 -25s67.333 8.33301 90 25s39.667 44.834 51 84.501s17 94.5 17 164.5c0 69.333 -5.66699 124 -17 164s-28.333 68.333 -51 85s-52.667 25 -90 25s-67.333 -8.33301 -90 -25s-39.667 -45 -51 -85
s-17 -94.667 -17 -164c0 -70 5.66699 -124.833 17 -164.5z" />
    <glyph glyph-name="P" unicode="P" horiz-adv-x="547" 
d="M39 37l35 -1.99902h2c11.333 0 17 7.33301 17 22v483c0 8 -1.66699 13.833 -5 17.5s-9.33301 5.16699 -18 4.5l-31 -2v37h263c75.333 0 131 -13.833 167 -41.5s54 -69.834 54 -126.501c0 -54.667 -17.5 -98.5 -52.5 -131.5s-82.167 -49.5 -141.5 -49.5h-98v-191
c0 -14.667 6.66699 -22 20 -22l49 2v-37h-261v37zM286 284.001c26.667 0 48.835 13.666 66.502 40.999s26.5 62 26.5 104c0 39.333 -8.83301 71.333 -26.5 96s-40.834 37 -69.501 37h-40c-2.66699 0 -5.33398 -1.16699 -8.00098 -3.5s-4 -5.16602 -4 -8.49902v-266h55z" />
    <glyph glyph-name="Q" unicode="Q" horiz-adv-x="669" 
d="M585.5 91.5c-41.667 -52.333 -100.831 -84.498 -177.498 -96.498c-1.33301 -45.333 11.167 -82.5 37.5 -111.5s61.5 -43.5 105.5 -43.5l-10 -36c-56 0 -105.333 8.16699 -148 24.5s-75.334 39.166 -98.001 68.499s-33.667 62.666 -33 99.999
c-74 13.333 -131.167 46 -171.5 98s-60.5 120 -60.5 204c0 99.333 27 175.5 81 228.5s130 79.5 228 79.5c99.333 0 175.666 -27 228.999 -81s80 -129.667 80 -227c0 -86 -20.833 -155.167 -62.5 -207.5zM198.003 134.502c11.333 -39.667 28.333 -67.834 51 -84.501
s52.667 -25 90 -25s67.333 8.33301 90 25s39.667 44.834 51 84.501s17 94.5 17 164.5c0 69.333 -5.66699 124 -17 164s-28.333 68.333 -51 85s-52.667 25 -90 25s-67.333 -8.33301 -90 -25s-39.667 -45 -51 -85s-17 -94.667 -17 -164c0 -70 5.66699 -124.833 17 -164.5z" />
    <glyph glyph-name="R" unicode="R" horiz-adv-x="597" 
d="M39 37l35 -2.00098h2c11.333 0 17 7.33301 17 22v484c0 6 -1.83301 11.167 -5.5 15.5s-9.16699 6.16602 -16.5 5.49902l-32 -2v37h259c72 0 125.167 -12.167 159.5 -36.5s51.5 -62.166 51.5 -113.499c0 -40.667 -12.833 -74.667 -38.5 -102
s-61.167 -45.666 -106.5 -54.999c24 0 48.333 -6.66699 73 -20s45.167 -32.833 61.5 -58.5s24.5 -55.5 24.5 -89.5c0 -18.667 2.83301 -38.5 8.5 -59.5s12.5 -32.5 20.5 -34.5c4 -1.33301 8.33301 -2 13 -2c6 0 11.333 1.33301 16 4v-30h-177
c-8 16.667 -12.667 38.667 -14 66c-1.33301 17.333 -2 30 -2 38v33c0 45.333 -12.667 79 -38 101s-56 33 -92 33h-27v-214c0 -14.667 6.66699 -22 20 -22l49 2v-37h-261v37zM294 305.999c24 0 43.167 11.5 57.5 34.5s21.5 54.167 21.5 93.5c0 44.667 -8 77.167 -24 97.5
s-40.667 30.5 -74 30.5h-32c-8 0 -12 -3.33301 -12 -10v-246h63z" />
    <glyph glyph-name="S" unicode="S" horiz-adv-x="498" 
d="M73 203c6.66699 -58 25.5029 -102.002 56.5029 -132.002s69.5 -45 115.5 -45c34 0 60.833 9.33301 80.5 28s29.5 43.334 29.5 74.001c0 46.667 -31.667 82.334 -95 107.001l-98 41c-76 31.333 -114 83 -114 155c0 32 7.66699 61.333 23 88s38.333 48 69 64s68 24 112 24
c22 0 40.667 -1.66699 56 -5s30.666 -7.66602 45.999 -12.999s26.333 -9 33 -11c11.333 -4 21.333 -6 30 -6c11.333 0 20.666 1.33301 27.999 4c-2 -16 -3 -41.333 -3 -76c0 -19.333 0.333008 -33.333 1 -42s2.33398 -16.667 5.00098 -24h-34
c0 41.333 -14.167 74.833 -42.5 100.5s-62.833 38.5 -103.5 38.5c-32 0 -58.333 -8.33301 -79 -25s-31 -38.334 -31 -65.001c0 -18.667 6.83301 -35.5 20.5 -50.5s35.5 -28.5 65.5 -40.5l85 -36c52 -22.667 89.167 -46.834 111.5 -72.501s33.5 -59.5 33.5 -101.5
c0 -36 -8.33301 -68.5 -25 -97.5s-41.334 -52 -74.001 -69s-72.334 -25.5 -119.001 -25.5c-29.333 0 -61 4.33301 -95 13c-38 10 -64 15 -78 15c-6 0 -13.167 -0.5 -21.5 -1.5s-13.833 -2.16699 -16.5 -3.5c2.66699 14 4 39.667 4 77c0 26.667 -0.666992 51.334 -2 74.001
s-3.33301 34.667 -6 36z" />
    <glyph glyph-name="T" unicode="T" horiz-adv-x="544" 
d="M15 600c12 -1.33301 27.999 -2 47.999 -2h419c24.667 0 40.334 0.666992 47.001 2v-156h-33c0 40.667 -9.5 70.667 -28.5 90s-50.5 29 -94.5 29h-20c-6.66699 0 -10.667 -3.66699 -12 -11v-495c0 -14.667 6.66699 -22 20 -22l53 2v-37h-284v37l54 -2
c6 0 10.667 2.5 14 7.5s5 10.833 5 17.5v491c0 8 -4 12 -12 12h-18c-44 0 -75.667 -9.66699 -95 -29s-29 -49.333 -29 -90h-34v156z" />
    <glyph glyph-name="U" unicode="U" horiz-adv-x="659" 
d="M35 597l263.997 0.000976562v-37l-49 2h-2c-5.33301 0 -9.66602 -2 -12.999 -6s-5 -8.66699 -5 -14v-343c0 -56.667 13.167 -98.834 39.5 -126.501s64.5 -41.5 114.5 -41.5c51.333 0 88.833 15.333 112.5 46s35.5 72.667 35.5 126v338c0 6.66699 -1.66699 12 -5 16
s-7.66602 5.66699 -12.999 5l-49 -2v37h169v-37l-39 2h-2c-5.33301 0 -9.66602 -2 -12.999 -6s-5 -8.66699 -5 -14v-339c0 -67.333 -18 -119.666 -54 -156.999s-90.333 -56 -163 -56c-177.333 0 -266 69.667 -266 209v342c0 6 -1.83301 11.167 -5.5 15.5
s-8.16699 6.16602 -13.5 5.49902l-38 -2v37z" />
    <glyph glyph-name="V" unicode="V" horiz-adv-x="607" 
d="M627 597l-0.000976562 -37.002l-36 2c-5.33301 0.666992 -9.16602 -0.666016 -11.499 -3.99902s-5.5 -9.66602 -9.5 -18.999l-235 -543h-52l-234 543c-7.33301 15.333 -15 23 -23 23l-28 -2v37h256v-37l-50 2c-3.33301 0 -6 -1.5 -8 -4.5s-3 -6.5 -3 -10.5
c0 -2 0.666992 -5 2 -9l164 -379l160 368c4.66699 10 7 18 7 24c0 7.33301 -4 11 -12 11l-48 -2v37h161z" />
    <glyph glyph-name="W" unicode="W" horiz-adv-x="911" 
d="M931 597v-36.999l-30 2c-6 0.666992 -11.167 -1.33301 -15.5 -6s-7.5 -9.66699 -9.5 -15l-185 -551h-46l-184 478l-162 -478h-49l-202 550c-4.66699 14.667 -11.667 22 -21 22l-30 -2v37h255v-37l-50 2c-4.66699 0 -8 -0.833008 -10 -2.5s-3 -4.5 -3 -8.5l3 -11l129 -358
l118 344l-2 5c-4 11.333 -7.66699 19.5 -11 24.5s-8.33301 7.16699 -15 6.5l-41 -2v37h247v-37l-42 2c-5.33301 0 -8.83301 -2.5 -10.5 -7.5s-1.5 -9.83301 0.5 -14.5l140 -381l129 383l2 8c0 4 -1.16699 7.16699 -3.5 9.5s-5.5 3.16602 -9.5 2.49902l-52 -2v37h160z" />
    <glyph glyph-name="X" unicode="X" horiz-adv-x="585" 
d="M593 37v-37.001h-276v37l49 -3h2c6.66699 0 10 2.66699 10 8c0 4.66699 -1.66699 9.66699 -5 15l-115 193l-123 -195c-2 -4 -3 -7.66699 -3 -11c0 -2.66699 0.833008 -5 2.5 -7s3.83398 -2.66699 6.50098 -2l45 3v-38h-166v38l36 -2c14 0 25.333 7.33301 34 22l147 235
l-148 250c-7.33301 12.667 -18 19 -32 19l-25 -2v37h270v-37l-42 2h-2c-4.66699 0 -8.33398 -1.16699 -11.001 -3.5s-4 -5.16602 -4 -8.49902c0 -2.66699 1 -5.66699 3 -9l96 -169l108 170c3.33301 4.66699 5 8.66699 5 12c0 6 -4.33301 8.66699 -13 8l-43 -2v37h163v-37
l-35 2c-12.667 0 -23 -6.66699 -31 -20l-132 -212l168 -279c7.33301 -13.333 17.333 -19 30 -17z" />
    <glyph glyph-name="Y" unicode="Y" horiz-adv-x="559" 
d="M569 597v-36.999l-30 2c-10.667 0 -20 -7 -28 -21l-149 -266v-219c0 -14 6.66699 -21 20 -21l48 2v-37h-274v37l49 -2c12.667 0 19 7.33301 19 22v199l-172 287c-8 12.667 -16 19 -24 19l-29 -2v37h270v-37l-53 2h-1c-7.33301 0 -11 -3.33301 -11 -10
c0 -4 1.66699 -8.66699 5 -14l133 -221l126 225c2 3.33301 3 6.66602 3 9.99902c0 6.66699 -3.33301 10 -10 10l-52 -2v37h160z" />
    <glyph glyph-name="Z" unicode="Z" horiz-adv-x="547" 
d="M527 167l-8 -170.999c-8 2.66699 -45.667 4 -113 4h-375v27l319 535h-120c-48 0 -83.5 -9.66699 -106.5 -29s-34.5 -49.333 -34.5 -90h-34v157l38 -1c28 -1.33301 51.667 -2 71 -2h353v-24l-316 -538h141c46 0 82.5 11.667 109.5 35s40.5 55.666 40.5 96.999h35z" />
    <glyph glyph-name="bracketleft" unicode="[" horiz-adv-x="279" 
d="M46 -147v822h200v-34h-82v-754h82v-34h-200z" />
    <glyph glyph-name="backslash" unicode="\" horiz-adv-x="257" 
d="M-8 626l48 11l219 -629l-49 -13z" />
    <glyph glyph-name="bracketright" unicode="]" horiz-adv-x="279" 
d="M233 -147h-200v34h82v754h-82v34h200v-822z" />
    <glyph glyph-name="asciicircum" unicode="^" 
d="M18 321l201 336h23l200 -336h-54l-145 245l-13 31l-11 -31l-147 -245h-54z" />
    <glyph glyph-name="underscore" unicode="_" horiz-adv-x="493" 
d="M0 -143h493v-48h-493v48z" />
    <glyph glyph-name="grave" unicode="`" horiz-adv-x="276" 
d="M49 639.5c16.667 9 30.999 13.5 42.999 13.5c6.66699 0 11.834 -1.33301 15.501 -4s10.5 -9.66699 20.5 -21l95 -104c10.667 -11.333 16 -20.333 16 -27s-3.66699 -10 -11 -10c-6.66699 0 -14.667 3 -24 9l-167 102c-8.66699 6.66699 -13 12.667 -13 18
c0 6.66699 8.33301 14.5 25 23.5z" />
    <glyph glyph-name="a" unicode="a" horiz-adv-x="467" 
d="M456 34l0.000976562 -33.999h-182c2.66699 16 4 28.333 4 37l1 27c-29.333 -46 -75.333 -69 -138 -69c-42 0 -73.833 9.5 -95.5 28.5s-32.5 47.167 -32.5 84.5c0 48.667 21.333 84.667 64 108s110 35 202 35v70c0 25.333 -4.33301 45 -13 59s-26.667 21 -54 21
c-23.333 0 -39.833 -4 -49.5 -12s-14.5 -17.667 -14.5 -29c0 -8.66699 1.66699 -16.334 5 -23.001c2.66699 -9.33301 4 -16 4 -20c0 -14.667 -5.16699 -26 -15.5 -34s-23.5 -12 -39.5 -12c-18.667 0 -33.834 5.5 -45.501 16.5s-17.5 24.833 -17.5 41.5
c0 32 16.667 57.667 50 77s78.333 29 135 29c124 0 186 -44.333 186 -133v-251c0 -12.667 4.33301 -19 13 -19zM251.501 80.501c15 17.667 24.167 40.833 27.5 69.5v66c-45.333 0 -78.333 -8 -99 -24s-31 -40 -31 -72c0 -44 16.333 -66 49 -66
c20.667 0 38.5 8.83301 53.5 26.5z" />
    <glyph glyph-name="b" unicode="b" horiz-adv-x="514" 
d="M17 730h176.998v-374c9.33301 24 25.333 43.167 48 57.5s49.334 21.5 80.001 21.5c58 0 101.833 -18.833 131.5 -56.5s44.5 -93.5 44.5 -167.5c0 -72.667 -15.667 -127.667 -47 -165s-76.666 -56 -135.999 -56c-34.667 0 -61 5.33301 -79 16s-34.667 26 -50 46
c-4.66699 6 -10.667 9 -18 9c-12 0 -21 -6 -27 -18s-9 -28 -9 -48h-69v685c0 5.33301 -1 10 -3 14s-5.33301 6 -10 6l-33 -2v32zM283.998 36c18.667 0 33.333 5.5 44 16.5s18.334 29 23.001 54s7 59.833 7 104.5c0 61.333 -5 106.5 -15 135.5s-29 43.5 -57 43.5
c-28.667 0 -50.834 -14.5 -66.501 -43.5s-23.5 -68.167 -23.5 -117.5v-43c0 -100 29.333 -150 88 -150z" />
    <glyph glyph-name="c" unicode="c" horiz-adv-x="439" 
d="M334 421c26.667 -9.33301 47.499 -22.002 62.499 -38.002s22.5 -33.667 22.5 -53c0 -17.333 -5.5 -32 -16.5 -44s-26.5 -18 -46.5 -18c-16 0 -29.167 3.83301 -39.5 11.5s-15.5 18.834 -15.5 33.501c0 6 1.33301 13 4 21c3.33301 6.66699 5 14 5 22
c0 14.667 -5.83301 25.834 -17.5 33.501s-26.167 11.5 -43.5 11.5c-28.667 0 -51 -13.5 -67 -40.5s-24 -72.833 -24 -137.5c0 -72 9.83301 -122.667 29.5 -152s46.834 -44 81.501 -44c27.333 0 52.166 7.5 74.499 22.5s39.5 39.5 51.5 73.5l31 -15
c-28.667 -78.667 -89 -118 -181 -118c-65.333 0 -119.166 18 -161.499 54s-63.5 91 -63.5 165s20.667 130.167 62 168.5s95.333 57.5 162 57.5c33.333 0 63.333 -4.66699 90 -14z" />
    <glyph glyph-name="d" unicode="d" horiz-adv-x="522" 
d="M69.5 378.5c30.333 37.667 75.168 56.501 134.501 56.501c30.667 0 57.167 -7.5 79.5 -22.5s37.166 -33.5 44.499 -55.5v323c0 13.333 -4.33301 20 -13 20l-46 -2v32h190v-679c0 -12.667 4.33301 -19 13 -19l33 2v-34h-184c1.33301 5.33301 2 10.666 2 15.999v22
c0 7.33301 0.333008 13 1 17s1 6.66699 1 8c-8.66699 -22.667 -23 -40.5 -43 -53.5s-45.667 -19.5 -77 -19.5c-64.667 0 -111 18 -139 54s-42 91.667 -42 167c0 74 15.167 129.833 45.5 167.5zM170.502 107.001c4.33301 -24.667 11.833 -42.666 22.5 -53.999
s25.667 -17 45 -17c30 0 52.167 12.5 66.5 37.5s21.5 62.5 21.5 112.5v43c0 50.667 -7.66699 90.167 -23 118.5s-37.333 42.5 -66 42.5c-26.667 0 -45.5 -15.167 -56.5 -45.5s-16.5 -74.833 -16.5 -133.5c0 -44.667 2.16699 -79.334 6.5 -104.001z" />
    <glyph glyph-name="e" unicode="e" horiz-adv-x="468" 
d="M392.5 385.5c36.333 -33 54.832 -79.834 55.499 -140.501v-37h-288c0 -57.333 10.5 -101 31.5 -131s52.5 -45.333 94.5 -46c31.333 0 58.333 7.83301 81 23.5s39.334 34.834 50.001 57.501l27 -19c-15.333 -32.667 -39.833 -58 -73.5 -76s-74.167 -27 -121.5 -27
c-79.333 0 -137.333 18 -174 54s-55 91.667 -55 167c0 76.667 19 133.167 57 169.5s94.667 54.5 170 54.5c60.667 0 109.167 -16.5 145.5 -49.5zM180.999 356.499c-13.333 -29.667 -20 -68.168 -20 -115.501h133c6.66699 0 11.667 2.33301 15 7s5 13.334 5 26.001
c0 43.333 -5.5 75.333 -16.5 96s-28.833 31 -53.5 31c-28.667 0 -49.667 -14.833 -63 -44.5z" />
    <glyph glyph-name="f" unicode="f" horiz-adv-x="299" 
d="M20 34l36.998 -1.99707c8.66699 0 13 6.33301 13 19v342h-39v32h39v61c0 68 13.167 126.667 39.5 176s74.166 74 143.499 74c40.667 0 74.834 -10 102.501 -30s41.5 -44.333 41.5 -73c0 -16.667 -5.33301 -31 -16 -43s-26.667 -18 -48 -18
c-15.333 0 -28.166 3.5 -38.499 10.5s-15.5 16.833 -15.5 29.5c0 4.66699 1.33301 11.667 4 21c3.33301 8 5 16.333 5 25c0 12 -3 22.333 -9 31s-15.333 13 -28 13c-18 0 -32 -7.83301 -42 -23.5s-15 -43.834 -15 -84.501c0 -16.667 0.333008 -31.334 1 -44.001
s1.33398 -23.334 2.00098 -32.001c2 -24 3 -47 3 -69v-24h79v-32h-78v-342c0 -12.667 4.33301 -19 13 -19l62 2v-34h-256v34z" />
    <glyph glyph-name="g" unicode="g" horiz-adv-x="511" 
d="M382 440c-10.667 -6 -19.332 -13.333 -25.999 -22c58 -22.667 87 -62.667 87 -120c0 -44 -17.667 -78.167 -53 -102.5s-83 -36.5 -143 -36.5c-28 0 -54.333 3 -79 9c-14 -12 -21 -24.333 -21 -37c0 -21.333 19.333 -32 58 -32h99c60.667 0 107 -11.833 139 -35.5
s48 -61.834 48 -114.501c0 -60.667 -23 -108.167 -69 -142.5s-108.333 -51.5 -187 -51.5c-63.333 0 -112.333 10.5 -147 31.5s-52 51.167 -52 90.5c0 49.333 33.333 88.666 100 117.999c-26 5.33301 -46.833 14.833 -62.5 28.5s-23.5 30.834 -23.5 51.501
c0 14 3.33301 26.667 10 38s19 25 37 41l31 27c-52.667 23.333 -79 61.333 -79 114c0 44 18.167 78.333 54.5 103s84.5 37 144.5 37c30 0 56 -2.66699 78 -8c42 55.333 83.667 83 125 83c22 0 37.667 -5.16699 47 -15.5s14 -22.166 14 -35.499
c0 -11.333 -3.33301 -21.666 -10 -30.999s-17.334 -14 -32.001 -14c-10 0 -17.333 1.66699 -22 5s-9.66699 8.33301 -15 15c-4 5.33301 -7.5 9.16602 -10.5 11.499s-7.16699 3.5 -12.5 3.5c-8 0 -17.333 -3 -28 -9zM294.502 213.5c9.66699 16.333 14.5 43.499 14.5 81.499
s-4.83301 65.167 -14.5 81.5s-26.167 24.5 -49.5 24.5c-22.667 0 -38.667 -7.83301 -48 -23.5s-14 -43.5 -14 -83.5c0 -39.333 4.5 -66.666 13.5 -81.999s24.833 -23 47.5 -23c24 0 40.833 8.16699 50.5 24.5zM189.002 -11.001h-1.99902
c-16.667 -6.66699 -30.667 -19.834 -42 -39.501s-17 -40.834 -17 -63.501c0 -30.667 9.33301 -54.667 28 -72s47.667 -26 87 -26c42.667 0 76.5 11.333 101.5 34s37.5 52.334 37.5 89.001c0 26.667 -7.33301 46.334 -22 59.001s-38.334 19 -71.001 19h-100z" />
    <glyph glyph-name="h" unicode="h" horiz-adv-x="539" 
d="M528 34l-0.000976562 -33.999h-228v34l38 -2c8.66699 2 13 8.33301 13 19v242c0 35.333 -2.83301 60 -8.5 74s-18.5 21 -38.5 21c-17.333 0 -34.166 -7.33301 -50.499 -22s-29.833 -36.334 -40.5 -65.001s-16 -63 -16 -103v-147c0 -12.667 4.33301 -19 13 -19l39 2v-34
h-229v34l33 -2c8.66699 2 13 8.33301 13 19v628c0 11.333 -4.33301 18 -13 20l-33 -2v33h177v-396c14.667 32 35.167 56.833 61.5 74.5s57.5 26.5 93.5 26.5c45.333 0 78.333 -11.5 99 -34.5s31 -59.167 31 -108.5v-241c0 -12.667 4.33301 -19 13 -19z" />
    <glyph glyph-name="i" unicode="i" horiz-adv-x="263" 
d="M184.5 640c14.333 -11.333 21.5 -26.333 21.5 -45c0 -19.333 -7.16699 -34.666 -21.5 -45.999s-32.833 -17 -55.5 -17s-41.167 5.66699 -55.5 17s-21.5 26.666 -21.5 45.999c0 18.667 7.16699 33.667 21.5 45s32.833 17 55.5 17s41.167 -5.66699 55.5 -17zM197 51
c0 -13.333 4.33301 -19.667 13 -19l33 2v-34h-223v34l33 -2h2c7.33301 0 11 6.33301 11 19v323c0 11.333 -4 18 -12 20l-33 -2v33h176v-374z" />
    <glyph glyph-name="j" unicode="j" horiz-adv-x="262" 
d="M185 640c14.667 -11.333 21.998 -26.334 21.998 -45.001c0 -19.333 -7.16699 -34.666 -21.5 -45.999s-33.166 -17 -56.499 -17c-22.667 0 -41 5.5 -55 16.5s-21 26.5 -21 46.5c0 18.667 7 33.667 21 45s32.333 17 55 17s41.334 -5.66699 56.001 -17zM196.998 -12.001
c0 -78.667 -13.165 -136.831 -39.498 -174.498s-65.833 -56.5 -118.5 -56.5c-40.667 0 -72.334 7 -95.001 21s-34 32.667 -34 56c0 17.333 5.66699 31.333 17 42s26.666 16 45.999 16c12 0 24.167 -3.33301 36.5 -10s18.5 -18.334 18.5 -35.001
c0 -3.33301 -1 -8.66602 -3 -15.999s-3 -12.333 -3 -15c0 -16.667 7.33301 -25 22 -25c10 0 17.833 4.83301 23.5 14.5s8.5 21.5 8.5 35.5c0 7.33301 -1 17.666 -3 30.999c-4.66699 31.333 -7 61.666 -7 90.999v411c0 6 -1.16699 11 -3.5 15s-5.5 5.66699 -9.5 5l-33 -2v33
h177v-437z" />
    <glyph glyph-name="k" unicode="k" horiz-adv-x="524" 
d="M517 34l0.00195312 -34.001h-241v34l34 -2h2c4.66699 0 7.5 1.33301 8.5 4s0.5 6 -1.5 10l-99 169l-23 -19v-145c0 -13.333 4.33301 -19.666 13 -18.999l35 2v-34h-225v34l33 -2c8.66699 2 13 8.33301 13 19v628c0 14 -4 21 -12 21l-33 -2v32h176v-492l160 137
c4 4 6 8.33301 6 13c0 2 -0.833008 3.83301 -2.5 5.5s-3.83398 2.16699 -6.50098 1.5l-43 -2v32h170v-32l-36 2c-10 0 -20.333 -4.66699 -31 -14l-97 -83l144 -248c3.33301 -5.33301 7.66602 -9.83301 12.999 -13.5s10 -5.16699 14 -4.5z" />
    <glyph glyph-name="l" unicode="l" horiz-adv-x="263" 
d="M20 34l33 -2.00098c8.66699 2 13 8.33301 13 19v629c0 11.333 -4 18.333 -12 21l-33 -2v32h176v-680c0 -13.333 4.33301 -19.666 13 -18.999l33 2v-34h-223v34z" />
    <glyph glyph-name="m" unicode="m" horiz-adv-x="807" 
d="M796 34l-0.00390625 -34.001h-226v34l36 -2c8.66699 2 13 8.33301 13 19v242c0 34 -2.5 58.333 -7.5 73s-15.5 22 -31.5 22c-14.667 0 -30.167 -7.33301 -46.5 -22s-30.166 -36 -41.499 -64s-17.333 -61 -18 -99v-152c0 -12.667 4.33301 -19 13 -19l35 2v-34h-228v34
l36 -2c8.66699 2 13 8.33301 13 19v242c0 35.333 -2.66699 60 -8 74s-16.333 21 -33 21c-14 0 -28.833 -7 -44.5 -21s-29.167 -34.167 -40.5 -60.5s-18 -57.5 -20 -93.5v-162c0 -13.333 4.33301 -19.666 13 -18.999l36 2v-34h-226v34l33 -2c8.66699 2 13 8.33301 13 19v323
c0 11.333 -4.33301 18 -13 20l-33 -2v33h183c-3.33301 -10 -5 -21.333 -5 -34v-56c14 31.333 34 55.833 60 73.5s57 26.5 93 26.5s63.833 -8.33301 83.5 -25s31.834 -43.667 36.501 -81c14 34 34.333 60.167 61 78.5s58.334 27.5 95.001 27.5
c42.667 0 73.834 -11.5 93.501 -34.5s29.5 -59.167 29.5 -108.5v-241c0 -12.667 4.33301 -19 13 -19z" />
    <glyph glyph-name="n" unicode="n" horiz-adv-x="539" 
d="M528 34l-0.000976562 -33.999h-228v34l38 -2c8.66699 2 13 8.33301 13 19v242c0 34.667 -2.83301 59.167 -8.5 73.5s-18.5 21.5 -38.5 21.5c-17.333 0 -34.166 -7.33301 -50.499 -22s-29.833 -36.334 -40.5 -65.001s-16 -63 -16 -103v-147c0 -12.667 4.33301 -19 13 -19
l39 2v-34h-229v34l33 -2c8.66699 2 13 8.33301 13 19v323c0 11.333 -4.33301 18 -13 20l-33 -2v33h182c-3.33301 -10 -5 -21.667 -5 -35v-56c14.667 32 35.167 56.833 61.5 74.5s57.5 26.5 93.5 26.5c45.333 0 78.333 -11.5 99 -34.5s31 -59.167 31 -108.5v-241
c0 -12.667 4.33301 -19 13 -19z" />
    <glyph glyph-name="o" unicode="o" horiz-adv-x="487" 
d="M76 378c37.333 38 93.333 57 168 57c75.333 0 131.333 -19 168 -57s55 -93 55 -165c0 -148.667 -74.333 -223 -223 -223c-74.667 0 -130.667 19 -168 57s-56 93.333 -56 166c0 72 18.667 127 56 165zM179.5 67.5c13 -28.333 34.5 -42.501 64.5 -42.501s51.333 14 64 42
s19 76 19 144c0 69.333 -6.33301 118.333 -19 147s-34 43 -64 43s-51.5 -14.333 -64.5 -43s-19.5 -77.667 -19.5 -147c0 -67.333 6.5 -115.166 19.5 -143.499z" />
    <glyph glyph-name="p" unicode="p" horiz-adv-x="521" 
d="M455 380c28 -36.667 42 -93.001 42 -169.001c0 -74 -15.5 -129.333 -46.5 -166s-78.833 -55 -143.5 -55c-27.333 0 -50.833 4.33301 -70.5 13s-34.167 20.667 -43.5 36v-227c0 -13.333 4.33301 -20 13 -20l62 2v-33h-248v33l29 -2c8.66699 0.666992 13 7.33398 13 20.001
v562c0 13.333 -4.33301 20 -13 20l-33 -2v33h181c-2.66699 -16.667 -4 -33.667 -4 -51v-25c10 28 25.5 49.333 46.5 64s49.5 22 85.5 22c58.667 0 102 -18.333 130 -55zM219 345.999c-16 -29.333 -24 -68.332 -24 -116.999v-43c0 -100 28.667 -150 86 -150
c20 0 35.5 5.5 46.5 16.5s18.833 29 23.5 54s7 59.833 7 104.5c0 46 -2 81.667 -6 107s-11.167 43.666 -21.5 54.999s-24.833 17 -43.5 17c-29.333 0 -52 -14.667 -68 -44z" />
    <glyph glyph-name="q" unicode="q" horiz-adv-x="513" 
d="M279 422c20 -8.66699 37 -22.666 51 -41.999c0.666992 -0.666992 2.5 -3.16699 5.5 -7.5s8.83301 -6.5 17.5 -6.5c23.333 0 35 19.667 35 59h71v-613c0 -13.333 4.33301 -19.666 13 -18.999l28 1v-33h-241v33l56 -1c8.66699 0.666992 13 7 13 19v250
c-8 -18.667 -23 -35.334 -45 -50.001s-50 -22 -84 -22c-56.667 0 -100 18.667 -130 56s-45 92.666 -45 165.999c0 72.667 15.5 128 46.5 166s76.5 57 136.5 57c28 0 52 -4.33301 72 -13zM180.5 350.501c-11 -26.333 -16.5 -70.167 -16.5 -131.5
c0 -69.333 5.83301 -117.166 17.5 -143.499s30.5 -39.5 56.5 -39.5c30.667 0 53 16 67 48s21 66.333 21 103v44c0 45.333 -6.33301 83.166 -19 113.499s-35 45.5 -67 45.5c-28.667 0 -48.5 -13.167 -59.5 -39.5z" />
    <glyph glyph-name="r" unicode="r" horiz-adv-x="419" 
d="M385.5 410c18.333 -16.667 27.5 -38.334 27.5 -65.001c0 -20 -5.83301 -35 -17.5 -45s-25.834 -15 -42.501 -15c-14 0 -26.5 3.5 -37.5 10.5s-16.5 17.167 -16.5 30.5c0 4.66699 1.33301 11.667 4 21c2 12 3 18.667 3 20c0 14.667 -6.33301 22 -19 22
c-17.333 0 -32.833 -9.83301 -46.5 -29.5s-24.167 -44.167 -31.5 -73.5s-11.333 -57.666 -12 -84.999v-150c0 -12.667 4.33301 -19 13 -19l69 2v-34h-254v34l28 -2c8.66699 0 13 6.33301 13 19v323c0 13.333 -4.33301 20 -13 20l-32 -2v33h182
c-1.33301 -4 -2.66602 -10.5 -3.99902 -19.5s-2 -17.833 -2 -26.5v-46c24 68 63.333 102 118 102c28.667 0 52.167 -8.33301 70.5 -25z" />
    <glyph glyph-name="s" unicode="s" horiz-adv-x="415" 
d="M40 142l34 1.99805c0 -34 14.167 -62.333 42.5 -85s62.5 -34 102.5 -34c22 0 39.5 5.16699 52.5 15.5s19.5 24.833 19.5 43.5c0 15.333 -4.83301 27.5 -14.5 36.5s-26.167 16.5 -49.5 22.5l-72 20c-38.667 10.667 -67.167 27 -85.5 49s-27.5 50 -27.5 84
c0 41.333 14.333 74.833 43 100.5s69 38.5 121 38.5c14 0 26.667 -1 38 -3s25.333 -5.33301 42 -10c21.333 -6 38 -9 50 -9c10.667 0 20.667 2.66699 30 8l-6 -114h-30c0 25.333 -10.5 47.333 -31.5 66s-49.5 28 -85.5 28c-20.667 0 -37.167 -5.16699 -49.5 -15.5
s-18.5 -23.166 -18.5 -38.499c0 -12.667 4.66699 -23.5 14 -32.5s23 -15.833 41 -20.5l69 -18c46 -12 77.5 -29 94.5 -51s25.5 -50.333 25.5 -85c0 -47.333 -16 -84.166 -48 -110.499s-74.333 -39.5 -127 -39.5c-15.333 0 -30.833 1.5 -46.5 4.5s-40.167 8.83301 -73.5 17.5
c-10.667 2.66699 -20 4 -28 4c-14.667 0 -25 -2 -31 -6z" />
    <glyph glyph-name="t" unicode="t" horiz-adv-x="325" 
d="M201 425h99.001v-32h-99v-306c0 -23.333 3 -39 9 -47s15.333 -12 28 -12c8 0 16.5 3.5 25.5 10.5s15.833 16.5 20.5 28.5l27 -15c-8.66699 -21.333 -22.167 -36.833 -40.5 -46.5s-41.5 -14.5 -69.5 -14.5c-40.667 0 -72.667 7.83301 -96 23.5s-35 40.5 -35 74.5v304h-60
v32c26.667 0 47 2.5 61 7.5s25.167 14.5 33.5 28.5s16.166 36 23.499 66h73v-102z" />
    <glyph glyph-name="u" unicode="u" horiz-adv-x="532" 
d="M512 34v-34.001h-183c3.33301 10 5 24.667 5 44v45c-30 -66 -80.667 -99 -152 -99c-43.333 0 -75 11.833 -95 35.5s-30 61.167 -30 112.5v237c0 12.667 -4.33301 19 -13 19l-33 -2v33h177v-293c0 -34 2.83301 -58.333 8.5 -73s17.5 -22 35.5 -22c16 0 31.833 7 47.5 21
s28.5 34.833 38.5 62.5s15.333 60.834 16 99.501v154c0 13.333 -4 20 -12 20l-39 -2v33h183v-374c0 -12 4.33301 -18.333 13 -19z" />
    <glyph glyph-name="v" unicode="v" horiz-adv-x="475" 
d="M466 425v-33.001l-32 2h-3c-9.33301 0 -16 -5 -20 -15l-157 -384h-61l-154 386c-1.33301 4 -4 7.33301 -8 10s-8 3.66699 -12 3l-32 -2v33h251v-33l-41 2c-4.66699 0 -9 -2 -13 -6s-4.66699 -8.66699 -2 -14l96 -231l92 235c1.33301 2.66699 2 5.33398 2 8.00098
c0 6 -3.33301 8.66699 -10 8l-41 -2v33h145z" />
    <glyph glyph-name="w" unicode="w" horiz-adv-x="742" 
d="M733 425v-33l-37 2c-9.33301 0 -16.333 -5.66699 -21 -17l-148 -387h-47l-122 286l-127 -286h-44l-141 391c-4 8.66699 -9.66699 13 -17 13l-42 -2v33h254v-33l-44 2h-2c-6 0 -10.167 -2 -12.5 -6s-2.5 -8.66699 -0.5 -14l82 -230l122 286h48l118 -280l83 227l2 8
c0 6.66699 -4.33301 9.66699 -13 9l-53 -2v33h162z" />
    <glyph glyph-name="x" unicode="x" horiz-adv-x="523" 
d="M512 34v-33.999h-270v34l49 -3h1c4 0 6.5 1.66699 7.5 5s0.5 6.33301 -1.5 9l-94 133l-96 -132l-2 -4c0 -6.66699 4.33301 -10 13 -10l43 2v-34h-155v34l39 -2c8 0 15 4.33301 21 13l116 163l-122 173c-4.66699 8.66699 -11 13 -19 13l-35 -2v33h263v-33l-46 2
c-4.66699 0 -8.16699 -1.16699 -10.5 -3.5s-1.83301 -5.5 1.5 -9.5l92 -129l98 125c2 3.33301 3 6.33301 3 9c0 5.33301 -3 8 -9 8l-43 -2v33h153v-33l-38 2c-3.33301 0 -7.5 -1.33301 -12.5 -4s-9.16699 -6.33398 -12.5 -11.001l-119 -156l126 -178
c6 -8.66699 12.333 -13 19 -13z" />
    <glyph glyph-name="y" unicode="y" horiz-adv-x="501" 
d="M500 425l-0.00195312 -33l-37 2h-2c-12 0 -20.333 -6.33301 -25 -19l-204 -491c-19.333 -46.667 -39.666 -78.834 -60.999 -96.501s-47.666 -26.5 -78.999 -26.5c-24.667 0 -44.5 5.5 -59.5 16.5s-23.167 27.167 -24.5 48.5c0 20.667 5.83301 36.667 17.5 48
s24.834 17 39.501 17c15.333 0 26.833 -3.16699 34.5 -9.5s14.5 -15.166 20.5 -26.499c4 -8 7.83301 -13.833 11.5 -17.5s8.5 -5.5 14.5 -5.5c8.66699 0 16.167 3.5 22.5 10.5s13.5 19.833 21.5 38.5l47 113l-184 387c-4 8.66699 -9.33301 13 -16 13l-39 -2v33h258v-33
l-45 2c-4.66699 0 -8.33398 -1.83301 -11.001 -5.5s-3 -7.5 -1 -11.5l107 -219l92 221c0.666992 1.33301 1 3.33301 1 6c0 6 -3.66699 9 -11 9l-47 -2v33h159z" />
    <glyph glyph-name="z" unicode="z" horiz-adv-x="443" 
d="M406 139l-0.000976562 -138.999h-268l-84 -1c-6 -0.666992 -12.667 -1 -20 -1v28l212 367h-60c-31.333 0 -56.5 -9.33301 -75.5 -28s-31.167 -45.334 -36.5 -80.001h-28l9 142c2 0 11.833 -0.333008 29.5 -1s39.834 -1 66.501 -1h248v-26l-207 -366h56
c42 0 74 8.83301 96 26.5s33 44.167 33 79.5h29z" />
    <glyph glyph-name="braceleft" unicode="{" horiz-adv-x="280" 
d="M30 281c18.667 4 31.665 11.667 38.998 23s11 29.333 11 54v224c0 24.667 3.5 43.5 10.5 56.5s19.167 22.333 36.5 28s42 8.5 74 8.5h49v-37h-27c-20.667 0 -31 -16.333 -31 -49v-231c0 -20.667 -3.16699 -36.834 -9.5 -48.501s-17.166 -20.5 -32.499 -26.5
s-38.333 -11.333 -69 -16c30.667 -6 53.5 -12 68.5 -18s25.667 -14.5 32 -25.5s9.83301 -26.833 10.5 -47.5v-236c0 -16.667 2.33301 -29 7 -37s12.667 -12 24 -12h27v-37h-49c-33.333 0 -58.5 2.83301 -75.5 8.5s-28.833 15 -35.5 28s-10 31.833 -10 56.5v229
c0 19.333 -1.33301 33.5 -4 42.5s-7.16699 15.833 -13.5 20.5s-17.166 9.33398 -32.499 14.001v28z" />
    <glyph glyph-name="bar" unicode="|" horiz-adv-x="240" 
d="M98 -239v969h44v-969h-44z" />
    <glyph glyph-name="braceright" unicode="}" horiz-adv-x="283" 
d="M220.5 239c-6.33301 -4.66699 -10.835 -11.5 -13.502 -20.5s-4 -23.167 -4 -42.5v-229c0 -24.667 -3.33301 -43.5 -10 -56.5s-18.5 -22.333 -35.5 -28s-42.167 -8.5 -75.5 -8.5h-49v37h27c11.333 0 19.333 4 24 12s7 20.333 7 37v236
c0.666992 20.667 4.16699 36.5 10.5 47.5s17 19.5 32 25.5s37.833 12 68.5 18c-30.667 4.66699 -53.667 10 -69 16s-26.166 14.833 -32.499 26.5s-9.5 27.834 -9.5 48.501v231c0 32.667 -10.333 49 -31 49h-27v37h49c32 0 56.667 -2.83301 74 -8.5s29.5 -15 36.5 -28
s10.5 -31.833 10.5 -56.5v-224c0 -24.667 3.66699 -42.667 11 -54s20.333 -19 39 -23v-28c-15.333 -4.66699 -26.166 -9.33398 -32.499 -14.001z" />
    <glyph glyph-name="asciitilde" unicode="~" 
d="M68 313c19.333 12.667 40.3301 18.999 62.9971 18.999c14.667 0 29.334 -2.66699 44.001 -8s33.334 -13.666 56.001 -24.999c21.333 -10.667 39 -18.667 53 -24s27.667 -8 41 -8c16.667 0 31.334 4.33301 44.001 13s26.667 24 42 46l32 -33
c-14.667 -26 -32.5 -46.167 -53.5 -60.5s-42.5 -21.5 -64.5 -21.5c-14 0 -27.667 2.5 -41 7.5s-32.666 13.5 -57.999 25.5c-20.667 10.667 -38.334 18.667 -53.001 24s-28.667 8 -42 8c-17.333 0 -31.5 -3.5 -42.5 -10.5s-24.167 -21.5 -39.5 -43.5l-31 34
c14 25.333 30.667 44.333 50 57z" />
    <glyph glyph-name="uni00A0" unicode="&#xa0;" horiz-adv-x="205" 
 />
    <glyph glyph-name="exclamdown" unicode="&#xa1;" horiz-adv-x="286" 
d="M196 423.5c17.333 -14.333 26 -32.166 26 -53.499c0 -20.667 -8.66699 -38.167 -26 -52.5s-39 -21.5 -65 -21.5s-47.833 7.16699 -65.5 21.5s-26.5 31.833 -26.5 52.5c0 21.333 8.83301 39.166 26.5 53.499s39.5 21.5 65.5 21.5s47.667 -7.16699 65 -21.5zM146 214
c0 -41.333 3.5 -83.332 10.5 -125.999s16.167 -90.334 27.5 -143.001c1.33301 -5.33301 4.83301 -21.833 10.5 -49.5s8.5 -48.167 8.5 -61.5c0 -23.333 -5.83301 -41.833 -17.5 -55.5s-29.167 -20.5 -52.5 -20.5c-24.667 0 -43.167 6.83301 -55.5 20.5
s-18.5 32.167 -18.5 55.5c0 14 2.83301 34.833 8.5 62.5s9.16699 45.167 10.5 52.5c12 52 21.333 99 28 141s10 83.333 10 124c0 13.333 5 20 15 20s15 -6.66699 15 -20z" />
    <glyph glyph-name="cent" unicode="&#xa2;" horiz-adv-x="414" 
d="M353 218l28.001 -9.99805c-11.333 -32.667 -27.833 -56.167 -49.5 -70.5s-48.5 -22.5 -80.5 -24.5v-208h-45v208c-50 2.66699 -91.167 17.834 -123.5 45.501s-48.5 71.167 -48.5 130.5c0 57.333 15.667 100.666 47 129.999s73 46 125 50v178h45v-178
c39.333 -2.66699 71 -11.834 95 -27.501s36 -34.834 36 -57.501c0 -15.333 -5.16699 -28.166 -15.5 -38.499s-24.833 -15.5 -43.5 -15.5c-15.333 0 -28 3.5 -38 10.5s-15 17.5 -15 31.5c0 5.33301 1.16699 11.333 3.5 18s3.5 12 3.5 16c0 11.333 -4 19.666 -12 24.999
s-18 8 -30 8c-21.333 0 -38 -10.5 -50 -31.5s-18 -56.5 -18 -106.5c0 -60.667 8.16699 -101.667 24.5 -123s38.166 -32 65.499 -32c43.333 0 75.333 24 96 72z" />
    <glyph glyph-name="sterling" unicode="&#xa3;" horiz-adv-x="507" 
d="M464 168l-9.99707 -170.999c-10 0 -18.333 0.333008 -25 1c-18.667 1.33301 -36.334 2 -53.001 2h-233c-25.333 0 -63 -1 -113 -3l-2 19c26.667 15.333 48 35.5 64 60.5s24 51.5 24 79.5l-4 143h-76v30h75l-2 81c0 68.667 16.333 118.667 49 150s86 47 160 47
c40 0 72.333 -8.5 97 -25.5s37 -38.167 37 -63.5c0 -16.667 -6 -30.334 -18 -41.001s-26.667 -16 -44 -16c-16 0 -29.5 4.16699 -40.5 12.5s-16.5 18.5 -16.5 30.5c0 5.33301 1.5 12 4.5 20s4.5 14.333 4.5 19c0 22.667 -13 34 -39 34
c-18.667 0 -33.834 -8.16699 -45.501 -24.5s-17.5 -38.166 -17.5 -65.499c0 -4 2 -22 6 -54c0.666992 -6.66699 2.5 -21.334 5.5 -44.001s4.83301 -42.667 5.5 -60h119v-30h-119v-58c0 -27.333 -7.33301 -53.5 -22 -78.5s-33.334 -46.833 -56.001 -65.5h129
c33.333 0 58.833 2.16699 76.5 6.5s30 11.5 37 21.5s10.5 24.333 10.5 43h32z" />
    <glyph glyph-name="currency" unicode="&#xa4;" horiz-adv-x="443" 
d="M357 159l48.001 -49l-31 -31l-48 49c-30.667 -22.667 -65.334 -34 -104.001 -34c-39.333 0 -73.666 12 -102.999 36l-50 -50l-31 31l50 50c-24 30 -36 64.667 -36 104c0 38.667 11.667 73 35 103l-48 48l31 31l48 -48c30 24 64.667 36 104 36s74.666 -12 105.999 -36
l47 47l31 -31l-48 -47c23.333 -30.667 35 -65 35 -103c0 -40 -12 -75.333 -36 -106zM288.501 151.5c20.333 11.667 36.333 27.667 48 48s17.5 42.166 17.5 65.499s-6 45 -18 65s-28 36 -48 48s-42 18 -66 18c-23.333 0 -45.166 -6 -65.499 -18s-36.333 -28 -48 -48
s-17.5 -41.667 -17.5 -65s5.83301 -45.166 17.5 -65.499s27.667 -36.333 48 -48s42.166 -17.5 65.499 -17.5c24 0 46.167 5.83301 66.5 17.5z" />
    <glyph glyph-name="yen" unicode="&#xa5;" horiz-adv-x="577" 
d="M569 597v-36.999l-30 2c-10.667 0 -20 -7 -28 -21l-112 -200h101v-36h-121l-17 -30v-44h138v-36h-138v-139c0 -14 6.66699 -21 20 -21l48 2v-37h-274v37l49 -2c12.667 0 19 7.33301 19 22v138h-136v36h136v25l-29 49h-107v36h85l-121 202c-8 12.667 -16 19 -24 19l-29 -2
v37h270v-37l-53 2h-1c-7.33301 0 -11 -3.33301 -11 -10c0 -4 1.66699 -8.66699 5 -14l133 -221l126 225c2 3.33301 3 6.66602 3 9.99902c0 6.66699 -3.33301 10 -10 10l-52 -2v37h160z" />
    <glyph glyph-name="brokenbar" unicode="&#xa6;" horiz-adv-x="240" 
d="M97 265v342h46v-342h-46zM97 113h46v-344h-46v344z" />
    <glyph glyph-name="section" unicode="&#xa7;" horiz-adv-x="439" 
d="M388.5 78c11.667 -20.667 17.5 -43.332 17.5 -67.999c0 -44.667 -16.833 -80 -50.5 -106s-80.167 -39 -139.5 -39c-49.333 0 -92.166 8.83301 -128.499 26.5s-54.5 42.834 -54.5 75.501c0 18.667 6 33.834 18 45.501s28 17.5 48 17.5c18 0 31.667 -4.33301 41 -13
s14 -20 14 -34c0 -6.66699 -2 -14.667 -6 -24c-4 -8 -6 -14.667 -6 -20c0 -14.667 7.33301 -25.667 22 -33s32 -11 52 -11c24.667 0 45 5.66699 61 17s24 26.666 24 45.999c0 14.667 -5 27.5 -15 38.5s-24.333 21.5 -43 31.5l-123 65c-32.667 17.333 -56.167 36 -70.5 56
s-21.5 42.333 -21.5 67c0 51.333 27.667 91.666 83 120.999c-27.333 18.667 -47 38 -59 58s-18 42.333 -18 67c0 44 17 79.167 51 105.5s80.667 39.5 140 39.5c49.333 0 92.166 -8.83301 128.499 -26.5s54.5 -42.834 54.5 -75.501c0 -18.667 -6 -33.834 -18 -45.501
s-28 -17.5 -48 -17.5c-18 0 -31.667 4.5 -41 13.5s-14 20.167 -14 33.5c0 6.66699 2 14.667 6 24c4 8 6 14.667 6 20c0 14.667 -7.5 25.667 -22.5 33s-32.167 11 -51.5 11c-24.667 0 -45.167 -5.66699 -61.5 -17s-24.5 -26.666 -24.5 -45.999c0 -14.667 5 -27.5 15 -38.5
s24.333 -21.167 43 -30.5l124 -66c32.667 -17.333 56.167 -36 70.5 -56s21.5 -42.333 21.5 -67c0 -52 -27.667 -92 -83 -120c27.333 -18 46.833 -37.333 58.5 -58zM295 156.002c10.667 10 16 22.667 16 38c0 14 -5 25.667 -15 35s-28.667 21.333 -56 36l-95 52
c-10 -10.667 -15 -23.667 -15 -39c0 -14.667 5 -26.5 15 -35.5s28.667 -20.5 56 -34.5z" />
    <glyph glyph-name="dieresis" unicode="&#xa8;" horiz-adv-x="420" 
d="M48.5 640.5c14.333 11.667 32.833 17.5 55.5 17.5c22 0 40.333 -5.83301 55 -17.5s22 -26.834 22 -45.501c0 -19.333 -7.16699 -34.666 -21.5 -45.999s-32.833 -17 -55.5 -17s-41.167 5.66699 -55.5 17s-21.5 26.666 -21.5 45.999c0 18.667 7.16699 33.834 21.5 45.501z
M259.5 640.5c14.333 11.667 32.833 17.5 55.5 17.5c22 0 40.333 -5.83301 55 -17.5s22 -26.834 22 -45.501c0 -19.333 -7.16699 -34.666 -21.5 -45.999s-32.833 -17 -55.5 -17s-41.167 5.66699 -55.5 17s-21.5 26.666 -21.5 45.999c0 18.667 7.16699 33.834 21.5 45.501z
" />
    <glyph glyph-name="copyright" unicode="&#xa9;" horiz-adv-x="708" 
d="M509 565.5c47.333 -27.667 84.834 -65.168 112.501 -112.501s41.5 -99 41.5 -155s-13.833 -107.667 -41.5 -155s-65.167 -84.666 -112.5 -111.999s-99 -41 -155 -41c-56.667 0 -108.5 13.667 -155.5 41s-84.167 64.5 -111.5 111.5s-41 98.833 -41 155.5
c0 56 13.667 107.667 41 155s64.666 84.833 111.999 112.5s99 41.5 155 41.5s107.667 -13.833 155 -41.5zM488.501 63.999c41 24 73.333 56.668 97 98.001s35.5 86.666 35.5 135.999s-11.833 94.833 -35.5 136.5s-56 74.667 -97 99s-86.167 36.5 -135.5 36.5
c-50 0 -95.333 -12.167 -136 -36.5s-72.834 -57.333 -96.501 -99s-35.5 -87.167 -35.5 -136.5c0 -50 11.833 -95.5 35.5 -136.5s55.834 -73.5 96.501 -97.5s86 -36 136 -36c49.333 0 94.5 12 135.5 36zM495.001 233l-3.00195 -51.999c0 -6 0.666992 -13.667 2 -23h-4
c-14 0 -32.667 -4.33301 -56 -13c-16 -5.33301 -29.167 -9.16602 -39.5 -11.499s-21.5 -3.5 -33.5 -3.5c-56 0 -100 15 -132 45s-48 71 -48 123c0 54.667 16 97 48 127s77 45 135 45c17.333 0 31.5 -1.33301 42.5 -4s23.167 -6.33398 36.5 -11.001
c18.667 -7.33301 34.334 -11 47.001 -11c-1.33301 -16 -2 -29 -2 -39c0 -18.667 0.666992 -29.334 2 -32.001l-25 -2c-3.33301 18.667 -13.166 35 -29.499 49s-33.5 21 -51.5 21c-28.667 0 -49.667 -10.833 -63 -32.5s-20 -58.5 -20 -110.5
c0 -48.667 7.16699 -83.667 21.5 -105s35.5 -32 63.5 -32c18.667 0 36 7 52 21s26 31 30 51h27z" />
    <glyph glyph-name="ordfeminine" unicode="&#xaa;" horiz-adv-x="343" 
d="M61 477c27.333 14 71.665 20.999 132.998 20.999v41c0 30.667 -11.667 46 -35 46c-14.667 0 -23.667 -2 -27 -6s-5 -13.333 -5 -28c0 -12 -4.5 -21.167 -13.5 -27.5s-20.5 -9.5 -34.5 -9.5c-13.333 0 -24.666 3.66699 -33.999 11s-14 18 -14 32c0 18.667 10.5 33 31.5 43
s52.167 15 93.5 15c46.667 0 80.834 -7 102.501 -21s32.5 -36.333 32.5 -67v-139c0 -4.66699 2 -7 6 -7l26 1v-32h-128l3 40c-7.33301 -15.333 -19.333 -27.166 -36 -35.499s-36 -12.5 -58 -12.5c-56 0 -84 23 -84 69c0 30 13.667 52 41 66zM148.999 383.999
c12.667 0 23.333 6.5 32 19.5s13 28.833 13 47.5v16c-28 0 -47.167 -3.83301 -57.5 -11.5s-15.5 -20.167 -15.5 -37.5c0 -22.667 9.33301 -34 28 -34z" />
    <glyph glyph-name="guillemotleft" unicode="&#xab;" horiz-adv-x="488" 
d="M209 206l186 171h44l-98 -171l98 -171h-44zM26 206l186 171h44l-98 -171l98 -171h-44z" />
    <glyph glyph-name="logicalnot" unicode="&#xac;" 
d="M20 312v48h420v-214h-50v166h-370z" />
    <glyph glyph-name="uni00AD" unicode="&#xad;" horiz-adv-x="250" 
d="M22 182v62h206v-62h-206z" />
    <glyph glyph-name="registered" unicode="&#xae;" horiz-adv-x="487" 
d="M347 582c30.667 -16.667 54.667 -39.834 72 -69.501s26 -63.5 26 -101.5s-8.66699 -71.833 -26 -101.5s-41.333 -52.834 -72 -69.501s-65 -25 -103 -25c-39.333 0 -74.333 8.33301 -105 25s-54.667 39.834 -72 69.501s-26 63.5 -26 101.5s8.66699 71.833 26 101.5
s41.333 52.834 72 69.501s65.667 25 105 25c38 0 72.333 -8.33301 103 -25zM122 530c-31.333 -30.667 -47 -70.334 -47 -119.001s15.667 -88.334 47 -119.001s71.666 -46 120.999 -46s89.666 15.333 120.999 46s47 70.334 47 119.001s-15.667 88.334 -47 119.001
s-71.666 46 -120.999 46s-89.666 -15.333 -120.999 -46zM267 513c26 0 45.166 -3.83105 57.499 -11.498s18.5 -19.5 18.5 -35.5c0 -15.333 -5.16699 -28.333 -15.5 -39s-25.5 -17.334 -45.5 -20.001c16 0 30.667 -4.33301 44 -13s20.333 -20 21 -34
c0 -5.33301 1.33301 -9.83301 4 -13.5s7.33398 -4.83398 14.001 -3.50098v-27h-49c-28.667 0 -43 13 -43 39v6c0 17.333 -8 26 -24 26h-18v-37c0 -4.66699 3 -7 9 -7h14v-27h-118v27h18c4 0 6 2.33301 6 7v129c0 4.66699 -3 7 -9 7h-15v27h131zM235.999 486.002
c-3.33301 0 -5 -0.999023 -5 -2.99902v-66h12c9.33301 0 16.5 3.5 21.5 10.5s7.5 15.5 7.5 25.5c0 11.333 -2.5 19.666 -7.5 24.999s-11.167 8 -18.5 8h-10z" />
    <glyph glyph-name="macron" unicode="&#xaf;" horiz-adv-x="447" 
d="M104 560v47h239v-47h-239z" />
    <glyph glyph-name="degree" unicode="&#xb0;" horiz-adv-x="374" 
d="M115 577.5c20 19.667 44 29.5 72 29.5s52 -9.83301 72 -29.5s30 -43.834 30 -72.501c0 -28 -10 -51.833 -30 -71.5s-44 -29.5 -72 -29.5s-52 9.83301 -72 29.5s-30 43.5 -30 71.5c0 28.667 10 52.834 30 72.501zM150 467.5c10 -10.333 22.333 -15.5 37 -15.5
s27 5.16699 37 15.5s15 22.833 15 37.5s-5 27.167 -15 37.5s-22.333 15.5 -37 15.5s-27 -5.16699 -37 -15.5s-15 -22.833 -15 -37.5s5 -27.167 15 -37.5z" />
    <glyph glyph-name="plusminus" unicode="&#xb1;" 
d="M20 273v49h183v184h53v-184h184v-49h-184v-186h-53v186h-183zM20 0v49h420v-49h-420z" />
    <glyph glyph-name="uni00B2" unicode="&#xb2;" horiz-adv-x="293" 
d="M238 476c7.33301 4.66699 11.6689 10.999 13.002 18.999h25c-4.66699 -19.333 -8.33398 -50.666 -11.001 -93.999c-5.33301 1.33301 -18 2 -38 2h-204l-3 64l80 42c24.667 14 42.667 28.667 54 44s17 35 17 59c0 14 -2.83301 24.833 -8.5 32.5s-13.167 11.5 -22.5 11.5
c-8.66699 0 -15.667 -2 -21 -6s-8 -9.33301 -8 -16c0 -4 1 -9.33301 3 -16s3 -12 3 -16c0 -11.333 -4.83301 -20.166 -14.5 -26.499s-21.834 -9.5 -36.501 -9.5c-18 0 -31.333 4.33301 -40 13s-13 19.667 -13 33c0 20 10.833 36 32.5 48s53.167 18 94.5 18
s74.833 -6.33301 100.5 -19s38.5 -31.334 38.5 -56.001c0 -22 -10.5 -41.167 -31.5 -57.5s-52.833 -32.5 -95.5 -48.5l-82 -28h135c14.667 0 25.667 2.33301 33 7z" />
    <glyph glyph-name="uni00B3" unicode="&#xb3;" horiz-adv-x="291" 
d="M72 551c24.667 0 46 5.33008 64 15.9971s27 28.334 27 53.001c0 11.333 -2.5 20.166 -7.5 26.499s-11.833 9.5 -20.5 9.5c-6.66699 0 -12.334 -1.66699 -17.001 -5s-7 -7.66602 -7 -12.999c0 -2.66699 0.5 -6.16699 1.5 -10.5s1.5 -8.5 1.5 -12.5
c0 -12 -4.83301 -21.167 -14.5 -27.5s-21.834 -9.5 -36.501 -9.5c-16.667 0 -29.334 4 -38.001 12s-13 17.667 -13 29c0 18.667 12 33.167 36 43.5s54.333 15.5 91 15.5c36 0 66 -5.16699 90 -15.5s36 -26.166 36 -47.499c0 -18.667 -9.33301 -33.834 -28 -45.501
s-43 -19.167 -73 -22.5v-3c37.333 0 66.333 -5.33301 87 -16s31 -26.667 31 -48c0 -25.333 -14.167 -45.5 -42.5 -60.5s-65.166 -22.5 -110.499 -22.5c-38 0 -67.833 4.83301 -89.5 14.5s-32.5 24.167 -32.5 43.5c0 12 4.66699 22 14 30s21.666 12 36.999 12
c14.667 0 26.834 -3.66699 36.501 -11s14.5 -16.333 14.5 -27c0 -3.33301 -0.5 -6.66602 -1.5 -9.99902s-1.5 -6.66602 -1.5 -9.99902c0 -7.33301 3.16699 -12.333 9.5 -15s13.5 -4 21.5 -4c12.667 0 22.834 4.83301 30.501 14.5s11.5 23.167 11.5 40.5
c0 12.667 -2.83301 22.667 -8.5 30s-16.167 13 -31.5 17s-37.666 6.66699 -66.999 8v21z" />
    <glyph glyph-name="acute" unicode="&#xb4;" horiz-adv-x="276" 
d="M239 598l-167.001 -102c-8.66699 -6 -16.667 -9 -24 -9s-11 3.33301 -11 10s5.33301 15.667 16 27l95 104c10 11.333 16.833 18.333 20.5 21s8.83398 4 15.501 4c12 0 26.333 -4.5 43 -13.5s25 -16.833 25 -23.5c0 -5.33301 -4.33301 -11.333 -13 -18z" />
    <glyph glyph-name="uni00B5" unicode="&#xb5;" horiz-adv-x="540" 
d="M520 34l0.000976562 -34h-183c4 10 6 25 6 45v45c-12.667 -27.333 -30.334 -50.333 -53.001 -69s-48 -28 -76 -28c-4 0 -10 0.666992 -18 2v-183c0 -12.667 4.33301 -19 13 -19l58 1v-33h-248v33l33 -1c8.66699 0.666992 13 7 13 19v563c0 12.667 -4.33301 19 -13 19
l-33 -2v33h177v-293c0 -33.333 2.83301 -57.5 8.5 -72.5s17.5 -22.5 35.5 -22.5c17.333 0 33.833 7.5 49.5 22.5s28.5 37.167 38.5 66.5s15 64.333 15 105v143c0 13.333 -4.33301 20 -13 20l-39 -2v33h183v-374c0 -12 4.33301 -18.333 13 -19z" />
    <glyph glyph-name="paragraph" unicode="&#xb6;" horiz-adv-x="499" 
d="M82.5 552.5c35 29.667 83.501 44.501 145.501 44.501h250v-38h-93v-828h-43v828h-33c-25.333 0 -38 -12.667 -38 -38v-790h-43v535c-62.667 0 -111.334 14.167 -146.001 42.5s-52 69.166 -52 122.499c0 51.333 17.5 91.833 52.5 121.5z" />
    <glyph glyph-name="periodcentered" unicode="&#xb7;" horiz-adv-x="275" 
d="M71 248.5c17.333 13.667 39.333 20.5 66 20.5c27.333 0 49.666 -6.83301 66.999 -20.5s26 -31.834 26 -54.501c0 -23.333 -8.66699 -41.666 -26 -54.999s-39.666 -20 -66.999 -20s-49.5 6.66699 -66.5 20s-25.5 31.666 -25.5 54.999c0 22.667 8.66699 40.834 26 54.501z
" />
    <glyph glyph-name="cedilla" unicode="&#xb8;" horiz-adv-x="241" 
d="M41 -166c8 -8.66699 19.668 -13 35.001 -13c12.667 0 24.167 4.66699 34.5 14s15.5 20 15.5 32c0 14 -11.333 27 -34 39l-23 14c-7.33301 5.33301 -11 10.333 -11 15s2 9 6 13l41 52h40l-22 -36c-4 -7.33301 -6 -13.666 -6 -18.999c0 -4.66699 2.5 -8 7.5 -10
s13.5 -4.33301 25.5 -7c19.333 -3.33301 34.666 -8.33301 45.999 -15s17 -18.334 17 -35.001c0 -29.333 -11.833 -52 -35.5 -68s-50.5 -24 -80.5 -24c-29.333 0 -52.333 5.33301 -69 16z" />
    <glyph glyph-name="uni00B9" unicode="&#xb9;" horiz-adv-x="222" 
d="M175 438c0 -6 3.00195 -9.00098 9.00195 -9.00098h25v-26h-182v26h33c6.66699 0 10 3 10 9v165c0 6.66699 -3.33301 9.33398 -10 8.00098l-37 -7l-7 30c25.333 4 51.166 11 77.499 21s47.166 19 62.499 27h19v-244z" />
    <glyph glyph-name="ordmasculine" unicode="&#xba;" horiz-adv-x="351" 
d="M63 581.5c27.333 24.333 64.667 36.501 112 36.501c48 0 85.833 -12 113.5 -36s41.5 -58 41.5 -102c0 -42.667 -13.667 -76 -41 -100s-65.333 -36 -114 -36c-50 0 -88 12.667 -114 38s-39 58 -39 98c0 43.333 13.667 77.166 41 101.499zM139.001 399.001
c6 -15.333 17.999 -23.002 35.999 -23.002c12 0 21.167 2.83301 27.5 8.5s11 15.834 14 30.501s4.5 36.334 4.5 65.001c0 40.667 -3.16699 68.667 -9.5 84s-18.5 23 -36.5 23c-17.333 0 -29.166 -8 -35.499 -24s-9.5 -43.667 -9.5 -83c0 -38.667 3 -65.667 9 -81z" />
    <glyph glyph-name="guillemotright" unicode="&#xbb;" horiz-adv-x="478" 
d="M280 206l-186 -171h-44l98 171l-98 171h44zM452 206l-186 -171h-44l98 171l-98 171h44z" />
    <glyph glyph-name="onequarter" unicode="&#xbc;" horiz-adv-x="580" 
d="M99 367l0.00195312 164.999c0 6.66699 -3.33301 9.33398 -10 8.00098l-37 -7l-7 30c25.333 4 51.166 11 77.499 21s47.166 19 62.499 27h19v-244c0 -6 3 -9 9 -9h25v-26h-182v26h33c6.66699 0 10 3 10 9zM492.002 608.999l42 -28l-429 -602l-40 31zM511.002 60.999v-26
c0 -6 3.33301 -9 10 -9h18v-26h-180v26h36c6.66699 0 10 3 10 9v26h-128v37l176 176h58v-172h37v-41h-37zM321.002 101.999h84v82z" />
    <glyph glyph-name="onehalf" unicode="&#xbd;" horiz-adv-x="625" 
d="M68 10l427 599l42 -28l-429 -602zM204 367c0 -6 3.00195 -9.00098 9.00195 -9.00098h25v-26h-182v26h33c6.66699 0 10 3 10 9v165c0 6.66699 -3.33301 9.33398 -10 8.00098l-37 -7l-7 30c25.333 4 51.166 11 77.499 21s47.166 19 62.499 27h19v-244zM550.002 72.999
c7.33301 4.66699 11.6689 10.999 13.002 18.999h25c-4.66699 -19.333 -8.33398 -50.666 -11.001 -93.999c-5.33301 1.33301 -18 2 -38 2h-204l-3 64l80 42c24.667 14 42.667 28.667 54 44s17 35 17 59c0 14 -2.83301 24.833 -8.5 32.5s-13.167 11.5 -22.5 11.5
c-8.66699 0 -15.667 -2 -21 -6s-8 -9.33301 -8 -16c0 -4 1 -9.33301 3 -16s3 -12 3 -16c0 -11.333 -4.83301 -20.166 -14.5 -26.499s-21.834 -9.5 -36.501 -9.5c-18 0 -31.333 4.33301 -40 13s-13 19.667 -13 33c0 20 10.833 36 32.5 48s53.167 18 94.5 18
s74.833 -6.33301 100.5 -19s38.5 -31.334 38.5 -56.001c0 -22 -10.5 -41.167 -31.5 -57.5s-52.833 -32.5 -95.5 -48.5l-82 -28h135c14.667 0 25.667 2.33301 33 7z" />
    <glyph glyph-name="threequarters" unicode="&#xbe;" horiz-adv-x="580" 
d="M510 609l42 -28l-429 -602l-40 31zM263.5 348.5c-28.333 -15 -65.166 -22.5029 -110.499 -22.5029c-38 0 -67.833 4.83301 -89.5 14.5s-32.5 24.167 -32.5 43.5c0 12 4.66699 22 14 30s21.666 12 36.999 12c14.667 0 26.834 -3.66699 36.501 -11s14.5 -16.333 14.5 -27
c0 -3.33301 -0.5 -6.66602 -1.5 -9.99902s-1.5 -6.66602 -1.5 -9.99902c0 -7.33301 3.16699 -12.333 9.5 -15s13.5 -4 21.5 -4c12.667 0 22.834 4.83301 30.501 14.5s11.5 23.167 11.5 40.5c0 12.667 -2.83301 22.667 -8.5 30s-16.167 13 -31.5 17
s-37.666 6.66699 -66.999 8v21c24.667 0 46 5.33301 64 16s27 28.334 27 53.001c0 11.333 -2.5 20.166 -7.5 26.499s-11.833 9.5 -20.5 9.5c-6.66699 0 -12.334 -1.66699 -17.001 -5s-7 -7.66602 -7 -12.999c0 -2.66699 0.5 -6.16699 1.5 -10.5s1.5 -8.5 1.5 -12.5
c0 -12 -4.83301 -21.167 -14.5 -27.5s-21.834 -9.5 -36.501 -9.5c-16.667 0 -29.334 4 -38.001 12s-13 17.667 -13 29c0 18.667 12 33.167 36 43.5s54.333 15.5 91 15.5c36 0 66 -5.16699 90 -15.5s36 -26.166 36 -47.499c0 -18.667 -9.33301 -33.834 -28 -45.501
s-43 -19.167 -73 -22.5v-3c37.333 0 66.333 -5.33301 87 -16s31 -26.667 31 -48c0 -25.333 -14.167 -45.5 -42.5 -60.5zM513 101.997h37v-41h-37v-26c0 -6 3.33301 -9 10 -9h19v-26h-180v26h36c6.66699 0 10 3 10 9v26h-128v37l176 176h57v-172zM323 101.997h85v83z" />
    <glyph glyph-name="questiondown" unicode="&#xbf;" horiz-adv-x="413" 
d="M284.5 424c17.667 -14 26.5 -31.666 26.5 -52.999c0 -20.667 -8.66699 -38.334 -26 -53.001s-39.333 -22 -66 -22c-26 0 -47.833 7 -65.5 21s-26.5 31.667 -26.5 53c0 22 8.83301 40 26.5 54s39.5 21 65.5 21s47.833 -7 65.5 -21zM235 195.501
c18 -11.667 33.167 -25.833 45.5 -42.5s18.5 -34.667 18.5 -54c0 -18 -5.5 -35 -16.5 -51s-27.5 -35 -49.5 -57c-23.333 -24 -41 -44.833 -53 -62.5s-18 -37.167 -18 -58.5s6.33301 -38.5 19 -51.5s29.667 -19.5 51 -19.5c14 0 25.5 3 34.5 9s13.5 14 13.5 24
c0 4 -1.33301 10.333 -4 19s-4 15.667 -4 21c0 14.667 6 26 18 34s26.333 12 43 12c22 0 38.667 -6.33301 50 -19s17 -27.667 17 -45c0 -30 -17 -52.333 -51 -67s-78.667 -22 -134 -22c-62.667 0 -110.667 9.5 -144 28.5s-50 46.167 -50 81.5c0 27.333 9 51.333 27 72
s43.667 43.334 77 68.001c30 22.667 52 41.5 66 56.5s21 32.167 21 51.5c0 13.333 -3.66699 26.166 -11 38.499s-18.333 22.833 -33 31.5l17 26c15.333 -4 32 -11.833 50 -23.5z" />
    <glyph glyph-name="Agrave" unicode="&#xc0;" horiz-adv-x="613" 
d="M633 37v-36.999h-300v37l46 -2c20 -2 30 6 30 24c0 11.333 -3.33301 24.333 -10 39l-37 88h-220l-34 -82c-9.33301 -20.667 -14 -37.334 -14 -50.001c0 -14 7.33301 -20.667 22 -20l45 3v-37h-181v37l29 -2h4c13.333 0 24.333 6.33301 33 19c10 14.667 20 34 30 58
l206 495h49l208 -497c9.33301 -24 19 -43 29 -57c9.33301 -12 21 -18 35 -18h5zM156 221.001h192l-97 230zM186 812.501c16.667 9 30.999 13.5 42.999 13.5c6.66699 0 11.834 -1.33301 15.501 -4s10.5 -9.66699 20.5 -21l95 -104c10.667 -11.333 16 -20.333 16 -27
s-3.66699 -10 -11 -10c-6.66699 0 -14.667 3 -24 9l-167 102c-8.66699 6.66699 -13 12.667 -13 18c0 6.66699 8.33301 14.5 25 23.5z" />
    <glyph glyph-name="Aacute" unicode="&#xc1;" horiz-adv-x="613" 
d="M633 37v-36.999h-300v37l46 -2c20 -2 30 6 30 24c0 11.333 -3.33301 24.333 -10 39l-37 88h-220l-34 -82c-9.33301 -20.667 -14 -37.334 -14 -50.001c0 -14 7.33301 -20.667 22 -20l45 3v-37h-181v37l29 -2h4c13.333 0 24.333 6.33301 33 19c10 14.667 20 34 30 58
l206 495h49l208 -497c9.33301 -24 19 -43 29 -57c9.33301 -12 21 -18 35 -18h5zM156 221.001h192l-97 230zM445 771.001l-167.001 -102c-8.66699 -6 -16.667 -9 -24 -9s-11 3.33301 -11 10s5.33301 15.667 16 27l95 104c10 11.333 16.833 18.333 20.5 21s8.83398 4 15.501 4
c12 0 26.333 -4.5 43 -13.5s25 -16.833 25 -23.5c0 -5.33301 -4.33301 -11.333 -13 -18z" />
    <glyph glyph-name="Acircumflex" unicode="&#xc2;" horiz-adv-x="613" 
d="M633 37v-36.999h-300v37l46 -2c20 -2 30 6 30 24c0 11.333 -3.33301 24.333 -10 39l-37 88h-220l-34 -82c-9.33301 -20.667 -14 -37.334 -14 -50.001c0 -14 7.33301 -20.667 22 -20l45 3v-37h-181v37l29 -2h4c13.333 0 24.333 6.33301 33 19c10 14.667 20 34 30 58
l206 495h49l208 -497c9.33301 -24 19 -43 29 -57c9.33301 -12 21 -18 35 -18h5zM156 221.001h192l-97 230zM453 666.001c-9.33301 0 -20.333 4 -33 12l-111 66l-112 -66c-12.667 -8 -23.667 -12 -33 -12c-7.33301 0 -11 2.66699 -11 8c0 2.66699 2.66699 6.83398 8 12.501
s12 12.167 20 19.5c20 20 36 36.667 48 50l23 24l24 24c11.333 12 22.333 18 33 18c10 0 21 -6 33 -18l24 -24l23 -24c12 -13.333 28 -30 48 -50c8 -7.33301 14.667 -13.833 20 -19.5s8 -9.83398 8 -12.501c0 -5.33301 -4 -8 -12 -8z" />
    <glyph glyph-name="Atilde" unicode="&#xc3;" horiz-adv-x="613" 
d="M633 37v-36.999h-300v37l46 -2c20 -2 30 6 30 24c0 11.333 -3.33301 24.333 -10 39l-37 88h-220l-34 -82c-9.33301 -20.667 -14 -37.334 -14 -50.001c0 -14 7.33301 -20.667 22 -20l45 3v-37h-181v37l29 -2h4c13.333 0 24.333 6.33301 33 19c10 14.667 20 34 30 58
l206 495h49l208 -497c9.33301 -24 19 -43 29 -57c9.33301 -12 21 -18 35 -18h5zM156 221.001h192l-97 230zM182 744.001c10.667 18 26.6689 27.0029 48.002 27.0029c11.333 0 23.833 -1.83301 37.5 -5.5s31.167 -8.83398 52.5 -15.501
c13.333 -4.66699 26.666 -8.83398 39.999 -12.501s24 -5.5 32 -5.5c9.33301 0 17.166 3.5 23.499 10.5s9.5 16.167 9.5 27.5h27c0 -30 -5.33301 -54 -16 -72s-26.667 -27 -48 -27c-18.667 0 -48.667 7.33301 -90 22c-3.33301 1.33301 -13.333 4.66602 -30 9.99902
s-30.334 8 -41.001 8c-9.33301 0 -17.166 -3.5 -23.499 -10.5s-9.5 -16.5 -9.5 -28.5h-28c0 30 5.33301 54 16 72z" />
    <glyph glyph-name="Adieresis" unicode="&#xc4;" horiz-adv-x="613" 
d="M633 37v-36.999h-300v37l46 -2c20 -2 30 6 30 24c0 11.333 -3.33301 24.333 -10 39l-37 88h-220l-34 -82c-9.33301 -20.667 -14 -37.334 -14 -50.001c0 -14 7.33301 -20.667 22 -20l45 3v-37h-181v37l29 -2h4c13.333 0 24.333 6.33301 33 19c10 14.667 20 34 30 58
l206 495h49l208 -497c9.33301 -24 19 -43 29 -57c9.33301 -12 21 -18 35 -18h5zM156 221.001h192l-97 230zM147.5 789.501c14.333 11.667 32.833 17.5 55.5 17.5c22 0 40.333 -5.83301 55 -17.5s22 -26.834 22 -45.501c0 -19.333 -7.16699 -34.666 -21.5 -45.999
s-32.833 -17 -55.5 -17s-41.167 5.66699 -55.5 17s-21.5 26.666 -21.5 45.999c0 18.667 7.16699 33.834 21.5 45.501zM358.5 789.501c14.333 11.667 32.833 17.5 55.5 17.5c22 0 40.333 -5.83301 55 -17.5s22 -26.834 22 -45.501c0 -19.333 -7.16699 -34.666 -21.5 -45.999
s-32.833 -17 -55.5 -17s-41.167 5.66699 -55.5 17s-21.5 26.666 -21.5 45.999c0 18.667 7.16699 33.834 21.5 45.501z" />
    <glyph glyph-name="Aring" unicode="&#xc5;" horiz-adv-x="613" 
d="M633 37v-36.999h-300v37l46 -2c20 -2 30 6 30 24c0 11.333 -3.33301 24.333 -10 39l-37 88h-220l-34 -82c-9.33301 -20.667 -14 -37.334 -14 -50.001c0 -14 7.33301 -20.667 22 -20l45 3v-37h-181v37l29 -2h4c13.333 0 24.333 6.33301 33 19c10 14.667 20 34 30 58
l206 495h49l208 -497c9.33301 -24 19 -43 29 -57c9.33301 -12 21 -18 35 -18h5zM156 221.001h192l-97 230zM246 807.001c16.667 16 37.332 24 61.999 24c25.333 0 46.333 -7.83301 63 -23.5s25 -35.5 25 -59.5s-8.33301 -43.833 -25 -59.5s-37.667 -23.5 -63 -23.5
s-46.166 7.83301 -62.499 23.5s-24.5 35.5 -24.5 59.5c0 23.333 8.33301 43 25 59zM280.998 717.001c6.66699 -7.33301 15.667 -11.002 27 -11.002s20.5 3.83301 27.5 11.5s10.5 17.834 10.5 30.501s-3.5 22.667 -10.5 30s-16.167 11 -27.5 11s-20.333 -3.66699 -27 -11
s-10 -17.333 -10 -30c0 -13.333 3.33301 -23.666 10 -30.999z" />
    <glyph glyph-name="AE" unicode="&#xc6;" horiz-adv-x="850" 
d="M786 443h-33.001c0 41.333 -11.5 71.5 -34.5 90.5s-58.833 28.5 -107.5 28.5h-140l43 -238h61c22 0 40.167 9.5 54.5 28.5s21.5 43.5 21.5 73.5h35v-235h-34c0 28 -7.33301 51.333 -22 70s-32.667 28 -54 28h-56l46 -236c3.33301 -12.667 10.333 -19 21 -19h44
c46.667 0 81.834 11.667 105.501 35s35.5 57.333 35.5 102h34v-174c-26 2 -57.667 3 -95 3h-369v38l57 -3c8 -0.666992 14 1.66602 18 6.99902s5.33301 11.333 4 18l-24 126h-230l-58 -98c-9.33301 -17.333 -14 -30.333 -14 -39c0 -10 6.66699 -14.667 20 -14l51 3v-38h-186
v38l31 -3c9.33301 -1.33301 18.166 2.33398 26.499 11.001s19.5 24.667 33.5 48l270 442c1.33301 2 2 4.66699 2 8c0 4.66699 -1.66699 8.5 -5 11.5s-7.33301 4.5 -12 4.5l-51 -2v39h470c16.667 0 30.334 0.666992 41.001 2v-156zM342.999 473l-154 -252h201z" />
    <glyph glyph-name="Ccedilla" unicode="&#xc7;" horiz-adv-x="596" 
d="M560 82c0 -19.333 0.999023 -35.001 2.99902 -47.001h-6c-12 0 -24.333 -1.5 -37 -4.5s-30 -7.83301 -52 -14.5c-47.333 -16 -88 -24.667 -122 -26l-16 -26c-4 -7.33301 -6 -13.666 -6 -18.999c0 -4.66699 2.5 -8 7.5 -10s13.5 -4.33301 25.5 -7
c19.333 -3.33301 34.666 -8.33301 45.999 -15s17 -18.334 17 -35.001c0 -29.333 -11.833 -52 -35.5 -68s-50.5 -24 -80.5 -24c-29.333 0 -52.333 5.33301 -69 16l13 32c8 -8.66699 19.667 -13 35 -13c12.667 0 24.167 4.66699 34.5 14s15.5 20 15.5 32
c0 14 -11.333 27 -34 39l-23 14c-7.33301 5.33301 -11 10.333 -11 15s2 9 6 13l34 43c-85.333 6 -152.5 36 -201.5 90s-73.5 125.333 -73.5 214c0 98.667 27.5 175.334 82.5 230.001s131.167 82 228.5 82c26.667 0 48.667 -2 66 -6s38.333 -10 63 -18
c17.333 -6.66699 32.333 -11.5 45 -14.5s26.667 -4.5 42 -4.5c-2.66699 -20.667 -4 -45.667 -4 -75c0 -14 0.333008 -26.5 1 -37.5s1.66699 -17.167 3 -18.5h-32c-8 39.333 -28.333 72.833 -61 100.5s-69 41.5 -109 41.5c-55.333 0 -98.166 -24.167 -128.499 -72.5
s-45.5 -117.5 -45.5 -207.5c0 -86 16 -152.5 48 -199.5s75.333 -70.5 130 -70.5c42 0 78.833 13.5 110.5 40.5s51.834 60.833 60.501 101.5h36c-4 -32.667 -6 -61 -6 -85z" />
    <glyph glyph-name="Egrave" unicode="&#xc8;" horiz-adv-x="571" 
d="M39 38l36 -2.99902c12 0 18 7.33301 18 22v484c0 6 -1.83301 11.167 -5.5 15.5s-8.5 6.16602 -14.5 5.49902l-34 -2v37h441c9.33301 0 15 0.333008 17 1v-155h-35c0 42 -11.333 72.333 -34 91s-58.667 28 -108 28h-77c-8 0 -12 -4.66699 -12 -14v-223h72
c22.667 0 41 9 55 27s21 42.667 21 74h34v-235h-34c0 28 -7.5 51.5 -22.5 70.5s-32.833 28.5 -53.5 28.5h-72v-241c0 -8.66699 4 -13 12 -13h110c45.333 0 79.833 12.333 103.5 37s35.5 60 35.5 106h35v-182c-14.667 2 -46.667 3 -96 3h-392v38zM159 812.501
c16.667 9 30.999 13.5 42.999 13.5c6.66699 0 11.834 -1.33301 15.501 -4s10.5 -9.66699 20.5 -21l95 -104c10.667 -11.333 16 -20.333 16 -27s-3.66699 -10 -11 -10c-6.66699 0 -14.667 3 -24 9l-167 102c-8.66699 6.66699 -13 12.667 -13 18
c0 6.66699 8.33301 14.5 25 23.5z" />
    <glyph glyph-name="Eacute" unicode="&#xc9;" horiz-adv-x="571" 
d="M39 38l36 -2.99902c12 0 18 7.33301 18 22v484c0 6 -1.83301 11.167 -5.5 15.5s-8.5 6.16602 -14.5 5.49902l-34 -2v37h441c9.33301 0 15 0.333008 17 1v-155h-35c0 42 -11.333 72.333 -34 91s-58.667 28 -108 28h-77c-8 0 -12 -4.66699 -12 -14v-223h72
c22.667 0 41 9 55 27s21 42.667 21 74h34v-235h-34c0 28 -7.5 51.5 -22.5 70.5s-32.833 28.5 -53.5 28.5h-72v-241c0 -8.66699 4 -13 12 -13h110c45.333 0 79.833 12.333 103.5 37s35.5 60 35.5 106h35v-182c-14.667 2 -46.667 3 -96 3h-392v38zM418 771.001l-167.001 -102
c-8.66699 -6 -16.667 -9 -24 -9s-11 3.33301 -11 10s5.33301 15.667 16 27l95 104c10 11.333 16.833 18.333 20.5 21s8.83398 4 15.501 4c12 0 26.333 -4.5 43 -13.5s25 -16.833 25 -23.5c0 -5.33301 -4.33301 -11.333 -13 -18z" />
    <glyph glyph-name="Ecircumflex" unicode="&#xca;" horiz-adv-x="571" 
d="M39 38l36 -2.99902c12 0 18 7.33301 18 22v484c0 6 -1.83301 11.167 -5.5 15.5s-8.5 6.16602 -14.5 5.49902l-34 -2v37h441c9.33301 0 15 0.333008 17 1v-155h-35c0 42 -11.333 72.333 -34 91s-58.667 28 -108 28h-77c-8 0 -12 -4.66699 -12 -14v-223h72
c22.667 0 41 9 55 27s21 42.667 21 74h34v-235h-34c0 28 -7.5 51.5 -22.5 70.5s-32.833 28.5 -53.5 28.5h-72v-241c0 -8.66699 4 -13 12 -13h110c45.333 0 79.833 12.333 103.5 37s35.5 60 35.5 106h35v-182c-14.667 2 -46.667 3 -96 3h-392v38zM426 666.001
c-9.33301 0 -20.333 4 -33 12l-111 66l-112 -66c-12.667 -8 -23.667 -12 -33 -12c-7.33301 0 -11 2.66699 -11 8c0 2.66699 2.66699 6.83398 8 12.501s12 12.167 20 19.5c20 20 36 36.667 48 50l23 24l24 24c11.333 12 22.333 18 33 18c10 0 21 -6 33 -18l24 -24l23 -24
c12 -13.333 28 -30 48 -50c8 -7.33301 14.667 -13.833 20 -19.5s8 -9.83398 8 -12.501c0 -5.33301 -4 -8 -12 -8z" />
    <glyph glyph-name="Edieresis" unicode="&#xcb;" horiz-adv-x="571" 
d="M39 38l36 -2.99902c12 0 18 7.33301 18 22v484c0 6 -1.83301 11.167 -5.5 15.5s-8.5 6.16602 -14.5 5.49902l-34 -2v37h441c9.33301 0 15 0.333008 17 1v-155h-35c0 42 -11.333 72.333 -34 91s-58.667 28 -108 28h-77c-8 0 -12 -4.66699 -12 -14v-223h72
c22.667 0 41 9 55 27s21 42.667 21 74h34v-235h-34c0 28 -7.5 51.5 -22.5 70.5s-32.833 28.5 -53.5 28.5h-72v-241c0 -8.66699 4 -13 12 -13h110c45.333 0 79.833 12.333 103.5 37s35.5 60 35.5 106h35v-182c-14.667 2 -46.667 3 -96 3h-392v38zM120.5 789.501
c14.333 11.667 32.833 17.5 55.5 17.5c22 0 40.333 -5.83301 55 -17.5s22 -26.834 22 -45.501c0 -19.333 -7.16699 -34.666 -21.5 -45.999s-32.833 -17 -55.5 -17s-41.167 5.66699 -55.5 17s-21.5 26.666 -21.5 45.999c0 18.667 7.16699 33.834 21.5 45.501zM331.5 789.501
c14.333 11.667 32.833 17.5 55.5 17.5c22 0 40.333 -5.83301 55 -17.5s22 -26.834 22 -45.501c0 -19.333 -7.16699 -34.666 -21.5 -45.999s-32.833 -17 -55.5 -17s-41.167 5.66699 -55.5 17s-21.5 26.666 -21.5 45.999c0 18.667 7.16699 33.834 21.5 45.501z" />
    <glyph glyph-name="Igrave" unicode="&#xcc;" horiz-adv-x="325" 
d="M39 37l34.999 -1.99902h2c11.333 0 17 7.33301 17 22v484c0 6 -1.66699 11.167 -5 15.5s-8 6.16602 -14 5.49902l-35 -2v37h247v-37l-35 2h-2c-5.33301 0 -9.66602 -2 -12.999 -6s-5 -9 -5 -15v-484c0 -16 6.66699 -23.333 20 -22l35 2v-37h-247v37zM39.999 812.501
c16.667 9 30.999 13.5 42.999 13.5c6.66699 0 11.834 -1.33301 15.501 -4s10.5 -9.66699 20.5 -21l95 -104c10.667 -11.333 16 -20.333 16 -27s-3.66699 -10 -11 -10c-6.66699 0 -14.667 3 -24 9l-167 102c-8.66699 6.66699 -13 12.667 -13 18
c0 6.66699 8.33301 14.5 25 23.5z" />
    <glyph glyph-name="Iacute" unicode="&#xcd;" horiz-adv-x="325" 
d="M39 37l34.999 -1.99902h2c11.333 0 17 7.33301 17 22v484c0 6 -1.66699 11.167 -5 15.5s-8 6.16602 -14 5.49902l-35 -2v37h247v-37l-35 2h-2c-5.33301 0 -9.66602 -2 -12.999 -6s-5 -9 -5 -15v-484c0 -16 6.66699 -23.333 20 -22l35 2v-37h-247v37zM298.999 771.001
l-167.001 -102c-8.66699 -6 -16.667 -9 -24 -9s-11 3.33301 -11 10s5.33301 15.667 16 27l95 104c10 11.333 16.833 18.333 20.5 21s8.83398 4 15.501 4c12 0 26.333 -4.5 43 -13.5s25 -16.833 25 -23.5c0 -5.33301 -4.33301 -11.333 -13 -18z" />
    <glyph glyph-name="Icircumflex" unicode="&#xce;" horiz-adv-x="325" 
d="M39 37l34.999 -1.99902h2c11.333 0 17 7.33301 17 22v484c0 6 -1.66699 11.167 -5 15.5s-8 6.16602 -14 5.49902l-35 -2v37h247v-37l-35 2h-2c-5.33301 0 -9.66602 -2 -12.999 -6s-5 -9 -5 -15v-484c0 -16 6.66699 -23.333 20 -22l35 2v-37h-247v37zM306.999 666.001
c-9.33301 0 -20.333 4 -33 12l-111 66l-112 -66c-12.667 -8 -23.667 -12 -33 -12c-7.33301 0 -11 2.66699 -11 8c0 2.66699 2.66699 6.83398 8 12.501s12 12.167 20 19.5c20 20 36 36.667 48 50l23 24l24 24c11.333 12 22.333 18 33 18c10 0 21 -6 33 -18l24 -24l23 -24
c12 -13.333 28 -30 48 -50c8 -7.33301 14.667 -13.833 20 -19.5s8 -9.83398 8 -12.501c0 -5.33301 -4 -8 -12 -8z" />
    <glyph glyph-name="Idieresis" unicode="&#xcf;" horiz-adv-x="325" 
d="M39 37l34.999 -1.99902h2c11.333 0 17 7.33301 17 22v484c0 6 -1.66699 11.167 -5 15.5s-8 6.16602 -14 5.49902l-35 -2v37h247v-37l-35 2h-2c-5.33301 0 -9.66602 -2 -12.999 -6s-5 -9 -5 -15v-484c0 -16 6.66699 -23.333 20 -22l35 2v-37h-247v37zM1.49902 789.501
c14.333 11.667 32.833 17.5 55.5 17.5c22 0 40.333 -5.83301 55 -17.5s22 -26.834 22 -45.501c0 -19.333 -7.16699 -34.666 -21.5 -45.999s-32.833 -17 -55.5 -17s-41.167 5.66699 -55.5 17s-21.5 26.666 -21.5 45.999c0 18.667 7.16699 33.834 21.5 45.501z
M212.499 789.501c14.333 11.667 32.833 17.5 55.5 17.5c22 0 40.333 -5.83301 55 -17.5s22 -26.834 22 -45.501c0 -19.333 -7.16699 -34.666 -21.5 -45.999s-32.833 -17 -55.5 -17s-41.167 5.66699 -55.5 17s-21.5 26.666 -21.5 45.999c0 18.667 7.16699 33.834 21.5 45.501
z" />
    <glyph glyph-name="Eth" unicode="&#xd0;" horiz-adv-x="636" 
d="M528.5 528c52.333 -46 78.501 -122.333 78.501 -229c0 -98.667 -25.5 -173.167 -76.5 -223.5s-129.5 -75.5 -235.5 -75.5h-256v37l39 -2h1c4.66699 0 8.16699 2.16699 10.5 6.5s3.5 9.5 3.5 15.5v229h-58v43h58v212c0 6 -1.66699 11 -5 15s-8 6 -14 6l-35 -2v37h244
c111.333 0 193.166 -23 245.499 -69zM378.501 58c27 14.667 46.667 40.667 59 78s18.5 91.333 18.5 162c0 70 -6.16699 124 -18.5 162s-32 64.5 -59 79.5s-64.5 22.5 -112.5 22.5h-23c-8 0 -12 -4.33301 -12 -13v-220h145v-43h-145v-237c0 -8.66699 4 -13 12 -13h23
c48 0 85.5 7.33301 112.5 22z" />
    <glyph glyph-name="Ntilde" unicode="&#xd1;" horiz-adv-x="677" 
d="M643 597v-29.999l-39 2h-2c-11.333 0 -17 -7 -17 -21v-554h-60l-391 531v-476c0 -14.667 6.33301 -22 19 -22l49 2v-29h-168v29l39 -2c13.333 0 20 7.33301 20 22v499c0 6 -1.83301 11.167 -5.5 15.5s-8.5 6.16602 -14.5 5.49902l-39 -2v30h206l304 -414v366
c0 13.333 -5.66699 20 -17 20h-3l-49 -2v30h168zM215 744.001c10.667 18 26.6689 27.0029 48.002 27.0029c11.333 0 23.833 -1.83301 37.5 -5.5s31.167 -8.83398 52.5 -15.501c13.333 -4.66699 26.666 -8.83398 39.999 -12.501s24 -5.5 32 -5.5
c9.33301 0 17.166 3.5 23.499 10.5s9.5 16.167 9.5 27.5h27c0 -30 -5.33301 -54 -16 -72s-26.667 -27 -48 -27c-18.667 0 -48.667 7.33301 -90 22c-3.33301 1.33301 -13.333 4.66602 -30 9.99902s-30.334 8 -41.001 8c-9.33301 0 -17.166 -3.5 -23.499 -10.5
s-9.5 -16.5 -9.5 -28.5h-28c0 30 5.33301 54 16 72z" />
    <glyph glyph-name="Ograve" unicode="&#xd2;" horiz-adv-x="678" 
d="M111 527.5c54 53 130.001 79.5 228.001 79.5c99.333 0 175.666 -27 228.999 -81s80 -129.667 80 -227c0 -98 -27 -174 -81 -228s-130 -81 -228 -81s-174 27 -228 81s-81 130 -81 228c0 99.333 27 175.5 81 228.5zM198.001 134.5
c11.333 -39.667 28.333 -67.834 51 -84.501s52.667 -25 90 -25s67.333 8.33301 90 25s39.667 44.834 51 84.501s17 94.5 17 164.5c0 69.333 -5.66699 124 -17 164s-28.333 68.333 -51 85s-52.667 25 -90 25s-67.333 -8.33301 -90 -25s-39.667 -45 -51 -85
s-17 -94.667 -17 -164c0 -70 5.66699 -124.833 17 -164.5zM216.001 812.5c16.667 9 30.999 13.5 42.999 13.5c6.66699 0 11.834 -1.33301 15.501 -4s10.5 -9.66699 20.5 -21l95 -104c10.667 -11.333 16 -20.333 16 -27s-3.66699 -10 -11 -10c-6.66699 0 -14.667 3 -24 9
l-167 102c-8.66699 6.66699 -13 12.667 -13 18c0 6.66699 8.33301 14.5 25 23.5z" />
    <glyph glyph-name="Oacute" unicode="&#xd3;" horiz-adv-x="678" 
d="M111 527.5c54 53 130.001 79.5 228.001 79.5c99.333 0 175.666 -27 228.999 -81s80 -129.667 80 -227c0 -98 -27 -174 -81 -228s-130 -81 -228 -81s-174 27 -228 81s-81 130 -81 228c0 99.333 27 175.5 81 228.5zM198.001 134.5
c11.333 -39.667 28.333 -67.834 51 -84.501s52.667 -25 90 -25s67.333 8.33301 90 25s39.667 44.834 51 84.501s17 94.5 17 164.5c0 69.333 -5.66699 124 -17 164s-28.333 68.333 -51 85s-52.667 25 -90 25s-67.333 -8.33301 -90 -25s-39.667 -45 -51 -85
s-17 -94.667 -17 -164c0 -70 5.66699 -124.833 17 -164.5zM475.001 771l-167.001 -102c-8.66699 -6 -16.667 -9 -24 -9s-11 3.33301 -11 10s5.33301 15.667 16 27l95 104c10 11.333 16.833 18.333 20.5 21s8.83398 4 15.501 4c12 0 26.333 -4.5 43 -13.5
s25 -16.833 25 -23.5c0 -5.33301 -4.33301 -11.333 -13 -18z" />
    <glyph glyph-name="Ocircumflex" unicode="&#xd4;" horiz-adv-x="678" 
d="M111 527.5c54 53 130.001 79.5 228.001 79.5c99.333 0 175.666 -27 228.999 -81s80 -129.667 80 -227c0 -98 -27 -174 -81 -228s-130 -81 -228 -81s-174 27 -228 81s-81 130 -81 228c0 99.333 27 175.5 81 228.5zM198.001 134.5
c11.333 -39.667 28.333 -67.834 51 -84.501s52.667 -25 90 -25s67.333 8.33301 90 25s39.667 44.834 51 84.501s17 94.5 17 164.5c0 69.333 -5.66699 124 -17 164s-28.333 68.333 -51 85s-52.667 25 -90 25s-67.333 -8.33301 -90 -25s-39.667 -45 -51 -85
s-17 -94.667 -17 -164c0 -70 5.66699 -124.833 17 -164.5zM483.001 666c-9.33301 0 -20.333 4 -33 12l-111 66l-112 -66c-12.667 -8 -23.667 -12 -33 -12c-7.33301 0 -11 2.66699 -11 8c0 2.66699 2.66699 6.83398 8 12.501s12 12.167 20 19.5c20 20 36 36.667 48 50l23 24
l24 24c11.333 12 22.333 18 33 18c10 0 21 -6 33 -18l24 -24l23 -24c12 -13.333 28 -30 48 -50c8 -7.33301 14.667 -13.833 20 -19.5s8 -9.83398 8 -12.501c0 -5.33301 -4 -8 -12 -8z" />
    <glyph glyph-name="Otilde" unicode="&#xd5;" horiz-adv-x="678" 
d="M111 527.5c54 53 130.001 79.5 228.001 79.5c99.333 0 175.666 -27 228.999 -81s80 -129.667 80 -227c0 -98 -27 -174 -81 -228s-130 -81 -228 -81s-174 27 -228 81s-81 130 -81 228c0 99.333 27 175.5 81 228.5zM198.001 134.5
c11.333 -39.667 28.333 -67.834 51 -84.501s52.667 -25 90 -25s67.333 8.33301 90 25s39.667 44.834 51 84.501s17 94.5 17 164.5c0 69.333 -5.66699 124 -17 164s-28.333 68.333 -51 85s-52.667 25 -90 25s-67.333 -8.33301 -90 -25s-39.667 -45 -51 -85
s-17 -94.667 -17 -164c0 -70 5.66699 -124.833 17 -164.5zM212.001 744c10.667 18 26.6689 27.0029 48.002 27.0029c11.333 0 23.833 -1.83301 37.5 -5.5s31.167 -8.83398 52.5 -15.501c13.333 -4.66699 26.666 -8.83398 39.999 -12.501s24 -5.5 32 -5.5
c9.33301 0 17.166 3.5 23.499 10.5s9.5 16.167 9.5 27.5h27c0 -30 -5.33301 -54 -16 -72s-26.667 -27 -48 -27c-18.667 0 -48.667 7.33301 -90 22c-3.33301 1.33301 -13.333 4.66602 -30 9.99902s-30.334 8 -41.001 8c-9.33301 0 -17.166 -3.5 -23.499 -10.5
s-9.5 -16.5 -9.5 -28.5h-28c0 30 5.33301 54 16 72z" />
    <glyph glyph-name="Odieresis" unicode="&#xd6;" horiz-adv-x="678" 
d="M111 527.5c54 53 130.001 79.5 228.001 79.5c99.333 0 175.666 -27 228.999 -81s80 -129.667 80 -227c0 -98 -27 -174 -81 -228s-130 -81 -228 -81s-174 27 -228 81s-81 130 -81 228c0 99.333 27 175.5 81 228.5zM198.001 134.5
c11.333 -39.667 28.333 -67.834 51 -84.501s52.667 -25 90 -25s67.333 8.33301 90 25s39.667 44.834 51 84.501s17 94.5 17 164.5c0 69.333 -5.66699 124 -17 164s-28.333 68.333 -51 85s-52.667 25 -90 25s-67.333 -8.33301 -90 -25s-39.667 -45 -51 -85
s-17 -94.667 -17 -164c0 -70 5.66699 -124.833 17 -164.5zM177.501 789.5c14.333 11.667 32.833 17.5 55.5 17.5c22 0 40.333 -5.83301 55 -17.5s22 -26.834 22 -45.501c0 -19.333 -7.16699 -34.666 -21.5 -45.999s-32.833 -17 -55.5 -17s-41.167 5.66699 -55.5 17
s-21.5 26.666 -21.5 45.999c0 18.667 7.16699 33.834 21.5 45.501zM388.501 789.5c14.333 11.667 32.833 17.5 55.5 17.5c22 0 40.333 -5.83301 55 -17.5s22 -26.834 22 -45.501c0 -19.333 -7.16699 -34.666 -21.5 -45.999s-32.833 -17 -55.5 -17s-41.167 5.66699 -55.5 17
s-21.5 26.666 -21.5 45.999c0 18.667 7.16699 33.834 21.5 45.501z" />
    <glyph glyph-name="multiply" unicode="&#xd7;" 
d="M60 135l135 133l-133 131l37 37l130 -132l133 133l38 -37l-133 -133l133 -133l-36 -36l-134 133l-132 -132z" />
    <glyph glyph-name="Oslash" unicode="&#xd8;" horiz-adv-x="676" 
d="M615 459.5c22 -45 32.999 -98.5 32.999 -160.5c0 -98 -27 -174 -81 -228s-130 -81 -228 -81c-54 0 -102 8.66699 -144 26l-65 -111l-45 24l65 110c-39.333 25.333 -69.166 60 -89.499 104s-30.5 96 -30.5 156c0 99.333 27 175.5 81 228.5s130 79.5 228 79.5
c50 0 94 -7 132 -21l60 103l45 -27l-57 -98c42 -24.667 74 -59.5 96 -104.5zM200.999 126l241 411c-24 24 -58.333 36 -103 36c-37.333 0 -67.333 -8.33301 -90 -25s-39.667 -45 -51 -85s-17 -94.667 -17 -164c0 -76 6.66699 -133.667 20 -173zM428.999 50
c22.667 16.667 39.667 44.834 51 84.501s17 94.5 17 164.5c0 83.333 -8.33301 145.666 -25 186.999l-244 -415c24 -30.667 61 -46 111 -46c37.333 0 67.333 8.33301 90 25z" />
    <glyph glyph-name="Ugrave" unicode="&#xd9;" horiz-adv-x="659" 
d="M35 597l263.997 0.000976562v-37l-49 2h-2c-5.33301 0 -9.66602 -2 -12.999 -6s-5 -8.66699 -5 -14v-343c0 -56.667 13.167 -98.834 39.5 -126.501s64.5 -41.5 114.5 -41.5c51.333 0 88.833 15.333 112.5 46s35.5 72.667 35.5 126v338c0 6.66699 -1.66699 12 -5 16
s-7.66602 5.66699 -12.999 5l-49 -2v37h169v-37l-39 2h-2c-5.33301 0 -9.66602 -2 -12.999 -6s-5 -8.66699 -5 -14v-339c0 -67.333 -18 -119.666 -54 -156.999s-90.333 -56 -163 -56c-177.333 0 -266 69.667 -266 209v342c0 6 -1.83301 11.167 -5.5 15.5
s-8.16699 6.16602 -13.5 5.49902l-38 -2v37zM220.997 812.501c16.667 9 30.999 13.5 42.999 13.5c6.66699 0 11.834 -1.33301 15.501 -4s10.5 -9.66699 20.5 -21l95 -104c10.667 -11.333 16 -20.333 16 -27s-3.66699 -10 -11 -10c-6.66699 0 -14.667 3 -24 9l-167 102
c-8.66699 6.66699 -13 12.667 -13 18c0 6.66699 8.33301 14.5 25 23.5z" />
    <glyph glyph-name="Uacute" unicode="&#xda;" horiz-adv-x="659" 
d="M35 597l263.997 0.000976562v-37l-49 2h-2c-5.33301 0 -9.66602 -2 -12.999 -6s-5 -8.66699 -5 -14v-343c0 -56.667 13.167 -98.834 39.5 -126.501s64.5 -41.5 114.5 -41.5c51.333 0 88.833 15.333 112.5 46s35.5 72.667 35.5 126v338c0 6.66699 -1.66699 12 -5 16
s-7.66602 5.66699 -12.999 5l-49 -2v37h169v-37l-39 2h-2c-5.33301 0 -9.66602 -2 -12.999 -6s-5 -8.66699 -5 -14v-339c0 -67.333 -18 -119.666 -54 -156.999s-90.333 -56 -163 -56c-177.333 0 -266 69.667 -266 209v342c0 6 -1.83301 11.167 -5.5 15.5
s-8.16699 6.16602 -13.5 5.49902l-38 -2v37zM479.997 771.001l-167.001 -102c-8.66699 -6 -16.667 -9 -24 -9s-11 3.33301 -11 10s5.33301 15.667 16 27l95 104c10 11.333 16.833 18.333 20.5 21s8.83398 4 15.501 4c12 0 26.333 -4.5 43 -13.5s25 -16.833 25 -23.5
c0 -5.33301 -4.33301 -11.333 -13 -18z" />
    <glyph glyph-name="Ucircumflex" unicode="&#xdb;" horiz-adv-x="659" 
d="M35 597l263.997 0.000976562v-37l-49 2h-2c-5.33301 0 -9.66602 -2 -12.999 -6s-5 -8.66699 -5 -14v-343c0 -56.667 13.167 -98.834 39.5 -126.501s64.5 -41.5 114.5 -41.5c51.333 0 88.833 15.333 112.5 46s35.5 72.667 35.5 126v338c0 6.66699 -1.66699 12 -5 16
s-7.66602 5.66699 -12.999 5l-49 -2v37h169v-37l-39 2h-2c-5.33301 0 -9.66602 -2 -12.999 -6s-5 -8.66699 -5 -14v-339c0 -67.333 -18 -119.666 -54 -156.999s-90.333 -56 -163 -56c-177.333 0 -266 69.667 -266 209v342c0 6 -1.83301 11.167 -5.5 15.5
s-8.16699 6.16602 -13.5 5.49902l-38 -2v37zM487.997 666.001c-9.33301 0 -20.333 4 -33 12l-111 66l-112 -66c-12.667 -8 -23.667 -12 -33 -12c-7.33301 0 -11 2.66699 -11 8c0 2.66699 2.66699 6.83398 8 12.501s12 12.167 20 19.5c20 20 36 36.667 48 50l23 24l24 24
c11.333 12 22.333 18 33 18c10 0 21 -6 33 -18l24 -24l23 -24c12 -13.333 28 -30 48 -50c8 -7.33301 14.667 -13.833 20 -19.5s8 -9.83398 8 -12.501c0 -5.33301 -4 -8 -12 -8z" />
    <glyph glyph-name="Udieresis" unicode="&#xdc;" horiz-adv-x="659" 
d="M35 597l263.997 0.000976562v-37l-49 2h-2c-5.33301 0 -9.66602 -2 -12.999 -6s-5 -8.66699 -5 -14v-343c0 -56.667 13.167 -98.834 39.5 -126.501s64.5 -41.5 114.5 -41.5c51.333 0 88.833 15.333 112.5 46s35.5 72.667 35.5 126v338c0 6.66699 -1.66699 12 -5 16
s-7.66602 5.66699 -12.999 5l-49 -2v37h169v-37l-39 2h-2c-5.33301 0 -9.66602 -2 -12.999 -6s-5 -8.66699 -5 -14v-339c0 -67.333 -18 -119.666 -54 -156.999s-90.333 -56 -163 -56c-177.333 0 -266 69.667 -266 209v342c0 6 -1.83301 11.167 -5.5 15.5
s-8.16699 6.16602 -13.5 5.49902l-38 -2v37zM182.497 789.501c14.333 11.667 32.833 17.5 55.5 17.5c22 0 40.333 -5.83301 55 -17.5s22 -26.834 22 -45.501c0 -19.333 -7.16699 -34.666 -21.5 -45.999s-32.833 -17 -55.5 -17s-41.167 5.66699 -55.5 17
s-21.5 26.666 -21.5 45.999c0 18.667 7.16699 33.834 21.5 45.501zM393.497 789.501c14.333 11.667 32.833 17.5 55.5 17.5c22 0 40.333 -5.83301 55 -17.5s22 -26.834 22 -45.501c0 -19.333 -7.16699 -34.666 -21.5 -45.999s-32.833 -17 -55.5 -17
s-41.167 5.66699 -55.5 17s-21.5 26.666 -21.5 45.999c0 18.667 7.16699 33.834 21.5 45.501z" />
    <glyph glyph-name="Yacute" unicode="&#xdd;" horiz-adv-x="559" 
d="M569 597v-36.999l-30 2c-10.667 0 -20 -7 -28 -21l-149 -266v-219c0 -14 6.66699 -21 20 -21l48 2v-37h-274v37l49 -2c12.667 0 19 7.33301 19 22v199l-172 287c-8 12.667 -16 19 -24 19l-29 -2v37h270v-37l-53 2h-1c-7.33301 0 -11 -3.33301 -11 -10
c0 -4 1.66699 -8.66699 5 -14l133 -221l126 225c2 3.33301 3 6.66602 3 9.99902c0 6.66699 -3.33301 10 -10 10l-52 -2v37h160zM441 771.001l-167.001 -102c-8.66699 -6 -16.667 -9 -24 -9s-11 3.33301 -11 10s5.33301 15.667 16 27l95 104c10 11.333 16.833 18.333 20.5 21
s8.83398 4 15.501 4c12 0 26.333 -4.5 43 -13.5s25 -16.833 25 -23.5c0 -5.33301 -4.33301 -11.333 -13 -18z" />
    <glyph glyph-name="Thorn" unicode="&#xde;" horiz-adv-x="543" 
d="M39 29l35 -1.99902h2c6 0 10.333 2 13 6s4 9.33301 4 16v499c0 6 -1.66699 11.167 -5 15.5s-8 6.16602 -14 5.49902l-35 -2v30h261v-30l-49 2c-6 0 -10.833 -2 -14.5 -6s-5.5 -9 -5.5 -15v-52h75c74.667 0 128.834 -12.333 162.501 -37s50.5 -66.334 50.5 -125.001
c0 -55.333 -16.833 -97.833 -50.5 -127.5s-80.834 -44.5 -141.501 -44.5h-96v-113c0 -15.333 6.66699 -22.666 20 -21.999l49 2v-29h-261v29zM235 192.001c2.66699 -2.66699 5.66699 -4 9 -4h47c24 0 44.5 13.5 61.5 40.5s25.5 62.167 25.5 105.5c0 44 -9 77.833 -27 101.5
s-43.333 35.5 -76 35.5h-44v-270c0 -3.33301 1.33301 -6.33301 4 -9z" />
    <glyph glyph-name="germandbls" unicode="&#xdf;" horiz-adv-x="563" 
d="M422 706.5c33.333 -20.333 49.999 -49.5 49.999 -87.5c0 -24.667 -6.66699 -45.667 -20 -63s-32 -36 -56 -56l-22 -19c-21.333 -19.333 -32 -39.666 -32 -60.999c0 -16 6.16699 -31.5 18.5 -46.5s32.166 -34.167 59.499 -57.5l70 -60c43.333 -36 65 -77.333 65 -124
c0 -44 -16.5 -78.333 -49.5 -103s-75.5 -37 -127.5 -37c-38.667 0 -69 6.33301 -91 19s-33 30.667 -33 54c0 17.333 5.33301 31 16 41s25.334 15 44.001 15c16.667 0 28.834 -4 36.501 -12s11.5 -18 11.5 -30c0 -5.33301 -1 -12.333 -3 -21s-3 -15 -3 -19
c0 -12 7 -18 21 -18c16 0 29 6 39 18s15 29.667 15 53c0 42.667 -20 81 -60 115l-63 51c-22 18 -38.667 35.333 -50 52s-17 34.334 -17 53.001c0 17.333 3.5 32.333 10.5 45s18.5 27.667 34.5 45c8.66699 9.33301 18 20.666 28 33.999c22.667 30 34 64.333 34 103
c0 35.333 -7.33301 63.333 -22 84s-35.334 31 -62.001 31c-25.333 0 -45.5 -9.33301 -60.5 -28s-22.5 -43.334 -22.5 -74.001c0 -16 2.33301 -41 7 -75c5.33301 -42.667 8 -74 8 -94v-386c0 -6 1.33301 -11 4 -15s6 -6 10 -6l35 2v-29h-225v29l33 -2c4 0 7 2 9 6s3 9 3 15
v464c0 78 17.833 135 53.5 171s89.834 54 162.501 54c60.667 0 107.667 -10.167 141 -30.5z" />
    <glyph glyph-name="agrave" unicode="&#xe0;" horiz-adv-x="467" 
d="M456 34l0.000976562 -33.999h-182c2.66699 16 4 28.333 4 37l1 27c-29.333 -46 -75.333 -69 -138 -69c-42 0 -73.833 9.5 -95.5 28.5s-32.5 47.167 -32.5 84.5c0 48.667 21.333 84.667 64 108s110 35 202 35v70c0 25.333 -4.33301 45 -13 59s-26.667 21 -54 21
c-23.333 0 -39.833 -4 -49.5 -12s-14.5 -17.667 -14.5 -29c0 -8.66699 1.66699 -16.334 5 -23.001c2.66699 -9.33301 4 -16 4 -20c0 -14.667 -5.16699 -26 -15.5 -34s-23.5 -12 -39.5 -12c-18.667 0 -33.834 5.5 -45.501 16.5s-17.5 24.833 -17.5 41.5
c0 32 16.667 57.667 50 77s78.333 29 135 29c124 0 186 -44.333 186 -133v-251c0 -12.667 4.33301 -19 13 -19zM251.501 80.501c15 17.667 24.167 40.833 27.5 69.5v66c-45.333 0 -78.333 -8 -99 -24s-31 -40 -31 -72c0 -44 16.333 -66 49 -66
c20.667 0 38.5 8.83301 53.5 26.5zM103.001 644.5c16.667 9 30.999 13.5 42.999 13.5c6.66699 0 11.834 -1.33301 15.501 -4s10.5 -9.66699 20.5 -21l95 -104c10.667 -11.333 16 -20.333 16 -27s-3.66699 -10 -11 -10c-6.66699 0 -14.667 3 -24 9l-167 102
c-8.66699 6.66699 -13 12.667 -13 18c0 6.66699 8.33301 14.5 25 23.5z" />
    <glyph glyph-name="aacute" unicode="&#xe1;" horiz-adv-x="467" 
d="M456 34l0.000976562 -33.999h-182c2.66699 16 4 28.333 4 37l1 27c-29.333 -46 -75.333 -69 -138 -69c-42 0 -73.833 9.5 -95.5 28.5s-32.5 47.167 -32.5 84.5c0 48.667 21.333 84.667 64 108s110 35 202 35v70c0 25.333 -4.33301 45 -13 59s-26.667 21 -54 21
c-23.333 0 -39.833 -4 -49.5 -12s-14.5 -17.667 -14.5 -29c0 -8.66699 1.66699 -16.334 5 -23.001c2.66699 -9.33301 4 -16 4 -20c0 -14.667 -5.16699 -26 -15.5 -34s-23.5 -12 -39.5 -12c-18.667 0 -33.834 5.5 -45.501 16.5s-17.5 24.833 -17.5 41.5
c0 32 16.667 57.667 50 77s78.333 29 135 29c124 0 186 -44.333 186 -133v-251c0 -12.667 4.33301 -19 13 -19zM251.501 80.501c15 17.667 24.167 40.833 27.5 69.5v66c-45.333 0 -78.333 -8 -99 -24s-31 -40 -31 -72c0 -44 16.333 -66 49 -66
c20.667 0 38.5 8.83301 53.5 26.5zM361.001 603l-167.001 -102c-8.66699 -6 -16.667 -9 -24 -9s-11 3.33301 -11 10s5.33301 15.667 16 27l95 104c10 11.333 16.833 18.333 20.5 21s8.83398 4 15.501 4c12 0 26.333 -4.5 43 -13.5s25 -16.833 25 -23.5
c0 -5.33301 -4.33301 -11.333 -13 -18z" />
    <glyph glyph-name="acircumflex" unicode="&#xe2;" horiz-adv-x="467" 
d="M456 34l0.000976562 -33.999h-182c2.66699 16 4 28.333 4 37l1 27c-29.333 -46 -75.333 -69 -138 -69c-42 0 -73.833 9.5 -95.5 28.5s-32.5 47.167 -32.5 84.5c0 48.667 21.333 84.667 64 108s110 35 202 35v70c0 25.333 -4.33301 45 -13 59s-26.667 21 -54 21
c-23.333 0 -39.833 -4 -49.5 -12s-14.5 -17.667 -14.5 -29c0 -8.66699 1.66699 -16.334 5 -23.001c2.66699 -9.33301 4 -16 4 -20c0 -14.667 -5.16699 -26 -15.5 -34s-23.5 -12 -39.5 -12c-18.667 0 -33.834 5.5 -45.501 16.5s-17.5 24.833 -17.5 41.5
c0 32 16.667 57.667 50 77s78.333 29 135 29c124 0 186 -44.333 186 -133v-251c0 -12.667 4.33301 -19 13 -19zM251.501 80.501c15 17.667 24.167 40.833 27.5 69.5v66c-45.333 0 -78.333 -8 -99 -24s-31 -40 -31 -72c0 -44 16.333 -66 49 -66
c20.667 0 38.5 8.83301 53.5 26.5zM370.001 498c-9.33301 0 -20.333 4 -33 12l-111 66l-112 -66c-12.667 -8 -23.667 -12 -33 -12c-7.33301 0 -11 2.66699 -11 8c0 2.66699 2.66699 6.83398 8 12.501s12 12.167 20 19.5c20 20 36 36.667 48 50l23 24l24 24
c11.333 12 22.333 18 33 18c10 0 21 -6 33 -18l24 -24l23 -24c12 -13.333 28 -30 48 -50c8 -7.33301 14.667 -13.833 20 -19.5s8 -9.83398 8 -12.501c0 -5.33301 -4 -8 -12 -8z" />
    <glyph glyph-name="atilde" unicode="&#xe3;" horiz-adv-x="467" 
d="M456 34l0.000976562 -33.999h-182c2.66699 16 4 28.333 4 37l1 27c-29.333 -46 -75.333 -69 -138 -69c-42 0 -73.833 9.5 -95.5 28.5s-32.5 47.167 -32.5 84.5c0 48.667 21.333 84.667 64 108s110 35 202 35v70c0 25.333 -4.33301 45 -13 59s-26.667 21 -54 21
c-23.333 0 -39.833 -4 -49.5 -12s-14.5 -17.667 -14.5 -29c0 -8.66699 1.66699 -16.334 5 -23.001c2.66699 -9.33301 4 -16 4 -20c0 -14.667 -5.16699 -26 -15.5 -34s-23.5 -12 -39.5 -12c-18.667 0 -33.834 5.5 -45.501 16.5s-17.5 24.833 -17.5 41.5
c0 32 16.667 57.667 50 77s78.333 29 135 29c124 0 186 -44.333 186 -133v-251c0 -12.667 4.33301 -19 13 -19zM251.501 80.501c15 17.667 24.167 40.833 27.5 69.5v66c-45.333 0 -78.333 -8 -99 -24s-31 -40 -31 -72c0 -44 16.333 -66 49 -66
c20.667 0 38.5 8.83301 53.5 26.5zM99.001 603c10.667 18 26.6689 27.0029 48.002 27.0029c11.333 0 23.833 -1.83301 37.5 -5.5s31.167 -8.83398 52.5 -15.501c13.333 -4.66699 26.666 -8.83398 39.999 -12.501s24 -5.5 32 -5.5c9.33301 0 17.166 3.5 23.499 10.5
s9.5 16.167 9.5 27.5h27c0 -30 -5.33301 -54 -16 -72s-26.667 -27 -48 -27c-18.667 0 -48.667 7.33301 -90 22c-3.33301 1.33301 -13.333 4.66602 -30 9.99902s-30.334 8 -41.001 8c-9.33301 0 -17.166 -3.5 -23.499 -10.5s-9.5 -16.5 -9.5 -28.5h-28c0 30 5.33301 54 16 72
z" />
    <glyph glyph-name="adieresis" unicode="&#xe4;" horiz-adv-x="467" 
d="M456 34l0.000976562 -33.999h-182c2.66699 16 4 28.333 4 37l1 27c-29.333 -46 -75.333 -69 -138 -69c-42 0 -73.833 9.5 -95.5 28.5s-32.5 47.167 -32.5 84.5c0 48.667 21.333 84.667 64 108s110 35 202 35v70c0 25.333 -4.33301 45 -13 59s-26.667 21 -54 21
c-23.333 0 -39.833 -4 -49.5 -12s-14.5 -17.667 -14.5 -29c0 -8.66699 1.66699 -16.334 5 -23.001c2.66699 -9.33301 4 -16 4 -20c0 -14.667 -5.16699 -26 -15.5 -34s-23.5 -12 -39.5 -12c-18.667 0 -33.834 5.5 -45.501 16.5s-17.5 24.833 -17.5 41.5
c0 32 16.667 57.667 50 77s78.333 29 135 29c124 0 186 -44.333 186 -133v-251c0 -12.667 4.33301 -19 13 -19zM251.501 80.501c15 17.667 24.167 40.833 27.5 69.5v66c-45.333 0 -78.333 -8 -99 -24s-31 -40 -31 -72c0 -44 16.333 -66 49 -66
c20.667 0 38.5 8.83301 53.5 26.5zM64.501 645.5c14.333 11.667 32.833 17.5 55.5 17.5c22 0 40.333 -5.83301 55 -17.5s22 -26.834 22 -45.501c0 -19.333 -7.16699 -34.666 -21.5 -45.999s-32.833 -17 -55.5 -17s-41.167 5.66699 -55.5 17s-21.5 26.666 -21.5 45.999
c0 18.667 7.16699 33.834 21.5 45.501zM275.501 645.5c14.333 11.667 32.833 17.5 55.5 17.5c22 0 40.333 -5.83301 55 -17.5s22 -26.834 22 -45.501c0 -19.333 -7.16699 -34.666 -21.5 -45.999s-32.833 -17 -55.5 -17s-41.167 5.66699 -55.5 17s-21.5 26.666 -21.5 45.999
c0 18.667 7.16699 33.834 21.5 45.501z" />
    <glyph glyph-name="aring" unicode="&#xe5;" horiz-adv-x="467" 
d="M456 34l0.000976562 -33.999h-182c2.66699 16 4 28.333 4 37l1 27c-29.333 -46 -75.333 -69 -138 -69c-42 0 -73.833 9.5 -95.5 28.5s-32.5 47.167 -32.5 84.5c0 48.667 21.333 84.667 64 108s110 35 202 35v70c0 25.333 -4.33301 45 -13 59s-26.667 21 -54 21
c-23.333 0 -39.833 -4 -49.5 -12s-14.5 -17.667 -14.5 -29c0 -8.66699 1.66699 -16.334 5 -23.001c2.66699 -9.33301 4 -16 4 -20c0 -14.667 -5.16699 -26 -15.5 -34s-23.5 -12 -39.5 -12c-18.667 0 -33.834 5.5 -45.501 16.5s-17.5 24.833 -17.5 41.5
c0 32 16.667 57.667 50 77s78.333 29 135 29c124 0 186 -44.333 186 -133v-251c0 -12.667 4.33301 -19 13 -19zM251.501 80.501c15 17.667 24.167 40.833 27.5 69.5v66c-45.333 0 -78.333 -8 -99 -24s-31 -40 -31 -72c0 -44 16.333 -66 49 -66
c20.667 0 38.5 8.83301 53.5 26.5zM163.001 639c16.667 16 37.332 24 61.999 24c25.333 0 46.333 -7.83301 63 -23.5s25 -35.5 25 -59.5s-8.33301 -43.833 -25 -59.5s-37.667 -23.5 -63 -23.5s-46.166 7.83301 -62.499 23.5s-24.5 35.5 -24.5 59.5
c0 23.333 8.33301 43 25 59zM197.999 549c6.66699 -7.33301 15.667 -11.002 27 -11.002s20.5 3.83301 27.5 11.5s10.5 17.834 10.5 30.501s-3.5 22.667 -10.5 30s-16.167 11 -27.5 11s-20.333 -3.66699 -27 -11s-10 -17.333 -10 -30c0 -13.333 3.33301 -23.666 10 -30.999z
" />
    <glyph glyph-name="ae" unicode="&#xe6;" horiz-adv-x="719" 
d="M648.5 381.5c33.667 -35.667 50.499 -92.833 50.499 -171.5h-289c0 -58 10.667 -102.333 32 -133s53 -46 95 -46c30 0 56.833 7.83301 80.5 23.5s40.834 34.834 51.501 57.501l27 -19c-15.333 -32.667 -39.666 -58 -72.999 -76s-73.333 -27 -120 -27
c-51.333 0 -93.5 7.16699 -126.5 21.5s-58.167 36.166 -75.5 65.499c-32.667 -54.667 -84.667 -82 -156 -82c-42 0 -74.5 9.33301 -97.5 28s-34.5 46.334 -34.5 83.001c0 48 21.333 82.667 64 104s110 32 202 32v79c0 25.333 -4.33301 45 -13 59s-26.667 21 -54 21
c-23.333 0 -39.833 -4 -49.5 -12s-14.5 -17.667 -14.5 -29c0 -8.66699 1.66699 -16.334 5 -23.001c2.66699 -9.33301 4 -16 4 -20c0 -14.667 -5.16699 -26 -15.5 -34s-23.5 -12 -39.5 -12c-18.667 0 -33.834 5.5 -45.501 16.5s-17.5 24.833 -17.5 41.5
c0 32 16.667 57.667 50 77s78.333 29 135 29c60.667 0 106 -10.667 136 -32c34 21.333 80.333 32 139 32c66 0 115.833 -17.833 149.5 -53.5zM430.999 358.001c-14 -28.667 -20.999 -67.333 -20.999 -116h138c11.333 0 17 10.667 17 32c0 42 -5.33301 73.667 -16 95
s-28.334 32 -53.001 32c-29.333 0 -51 -14.333 -65 -43zM180 184.002c-20.667 -16 -31 -39.333 -31 -70c0 -20.667 4.33301 -36 13 -46s21 -15 37 -15c20 0 37.667 9.66699 53 29s24.333 44 27 74v52c-45.333 0 -78.333 -8 -99 -24z" />
    <glyph glyph-name="ccedilla" unicode="&#xe7;" horiz-adv-x="439" 
d="M228 -36c-4 -7.33301 -5.99902 -13.6689 -5.99902 -19.002c0 -4.66699 2.5 -8 7.5 -10s13.5 -4.33301 25.5 -7c19.333 -3.33301 34.666 -8.33301 45.999 -15s17 -18.334 17 -35.001c0 -29.333 -11.833 -52 -35.5 -68s-50.5 -24 -80.5 -24
c-29.333 0 -52.333 5.33301 -69 16l13 32c8 -8.66699 19.667 -13 35 -13c12.667 0 24.167 4.66699 34.5 14s15.5 20 15.5 32c0 14 -11.333 27 -34 39l-23 14c-7.33301 5.33301 -11 10.333 -11 15s2 9 6 13l35 45c-54.667 6.66699 -99 27.834 -133 63.501s-51 86.5 -51 152.5
c0 74 20.667 130.167 62 168.5s95.333 57.5 162 57.5c33.333 0 63.333 -4.66699 90 -14s47.5 -22 62.5 -38s22.5 -33.667 22.5 -53c0 -17.333 -5.5 -32 -16.5 -44s-26.5 -18 -46.5 -18c-16 0 -29.167 3.83301 -39.5 11.5s-15.5 18.834 -15.5 33.501c0 6 1.33301 13 4 21
c3.33301 6.66699 5 14 5 22c0 14.667 -5.83301 25.834 -17.5 33.501s-26.167 11.5 -43.5 11.5c-28.667 0 -51 -13.5 -67 -40.5s-24 -72.833 -24 -137.5c0 -72 9.83301 -122.667 29.5 -152s46.834 -44 81.501 -44c27.333 0 52.166 7.5 74.499 22.5s39.5 39.5 51.5 73.5
l31 -15c-28.667 -78.667 -89 -118 -181 -118h-1z" />
    <glyph glyph-name="egrave" unicode="&#xe8;" horiz-adv-x="468" 
d="M392.5 385.5c36.333 -33 54.832 -79.834 55.499 -140.501v-37h-288c0 -57.333 10.5 -101 31.5 -131s52.5 -45.333 94.5 -46c31.333 0 58.333 7.83301 81 23.5s39.334 34.834 50.001 57.501l27 -19c-15.333 -32.667 -39.833 -58 -73.5 -76s-74.167 -27 -121.5 -27
c-79.333 0 -137.333 18 -174 54s-55 91.667 -55 167c0 76.667 19 133.167 57 169.5s94.667 54.5 170 54.5c60.667 0 109.167 -16.5 145.5 -49.5zM180.999 356.499c-13.333 -29.667 -20 -68.168 -20 -115.501h133c6.66699 0 11.667 2.33301 15 7s5 13.334 5 26.001
c0 43.333 -5.5 75.333 -16.5 96s-28.833 31 -53.5 31c-28.667 0 -49.667 -14.833 -63 -44.5zM119.999 644.498c16.667 9 30.999 13.5 42.999 13.5c6.66699 0 11.834 -1.33301 15.501 -4s10.5 -9.66699 20.5 -21l95 -104c10.667 -11.333 16 -20.333 16 -27
s-3.66699 -10 -11 -10c-6.66699 0 -14.667 3 -24 9l-167 102c-8.66699 6.66699 -13 12.667 -13 18c0 6.66699 8.33301 14.5 25 23.5z" />
    <glyph glyph-name="eacute" unicode="&#xe9;" horiz-adv-x="468" 
d="M392.5 385.5c36.333 -33 54.832 -79.834 55.499 -140.501v-37h-288c0 -57.333 10.5 -101 31.5 -131s52.5 -45.333 94.5 -46c31.333 0 58.333 7.83301 81 23.5s39.334 34.834 50.001 57.501l27 -19c-15.333 -32.667 -39.833 -58 -73.5 -76s-74.167 -27 -121.5 -27
c-79.333 0 -137.333 18 -174 54s-55 91.667 -55 167c0 76.667 19 133.167 57 169.5s94.667 54.5 170 54.5c60.667 0 109.167 -16.5 145.5 -49.5zM180.999 356.499c-13.333 -29.667 -20 -68.168 -20 -115.501h133c6.66699 0 11.667 2.33301 15 7s5 13.334 5 26.001
c0 43.333 -5.5 75.333 -16.5 96s-28.833 31 -53.5 31c-28.667 0 -49.667 -14.833 -63 -44.5zM377.999 602.998l-167.001 -102c-8.66699 -6 -16.667 -9 -24 -9s-11 3.33301 -11 10s5.33301 15.667 16 27l95 104c10 11.333 16.833 18.333 20.5 21s8.83398 4 15.501 4
c12 0 26.333 -4.5 43 -13.5s25 -16.833 25 -23.5c0 -5.33301 -4.33301 -11.333 -13 -18z" />
    <glyph glyph-name="ecircumflex" unicode="&#xea;" horiz-adv-x="468" 
d="M392.5 385.5c36.333 -33 54.832 -79.834 55.499 -140.501v-37h-288c0 -57.333 10.5 -101 31.5 -131s52.5 -45.333 94.5 -46c31.333 0 58.333 7.83301 81 23.5s39.334 34.834 50.001 57.501l27 -19c-15.333 -32.667 -39.833 -58 -73.5 -76s-74.167 -27 -121.5 -27
c-79.333 0 -137.333 18 -174 54s-55 91.667 -55 167c0 76.667 19 133.167 57 169.5s94.667 54.5 170 54.5c60.667 0 109.167 -16.5 145.5 -49.5zM180.999 356.499c-13.333 -29.667 -20 -68.168 -20 -115.501h133c6.66699 0 11.667 2.33301 15 7s5 13.334 5 26.001
c0 43.333 -5.5 75.333 -16.5 96s-28.833 31 -53.5 31c-28.667 0 -49.667 -14.833 -63 -44.5zM386.999 497.998c-9.33301 0 -20.333 4 -33 12l-111 66l-112 -66c-12.667 -8 -23.667 -12 -33 -12c-7.33301 0 -11 2.66699 -11 8c0 2.66699 2.66699 6.83398 8 12.501
s12 12.167 20 19.5c20 20 36 36.667 48 50l23 24l24 24c11.333 12 22.333 18 33 18c10 0 21 -6 33 -18l24 -24l23 -24c12 -13.333 28 -30 48 -50c8 -7.33301 14.667 -13.833 20 -19.5s8 -9.83398 8 -12.501c0 -5.33301 -4 -8 -12 -8z" />
    <glyph glyph-name="edieresis" unicode="&#xeb;" horiz-adv-x="468" 
d="M392.5 385.5c36.333 -33 54.832 -79.834 55.499 -140.501v-37h-288c0 -57.333 10.5 -101 31.5 -131s52.5 -45.333 94.5 -46c31.333 0 58.333 7.83301 81 23.5s39.334 34.834 50.001 57.501l27 -19c-15.333 -32.667 -39.833 -58 -73.5 -76s-74.167 -27 -121.5 -27
c-79.333 0 -137.333 18 -174 54s-55 91.667 -55 167c0 76.667 19 133.167 57 169.5s94.667 54.5 170 54.5c60.667 0 109.167 -16.5 145.5 -49.5zM180.999 356.499c-13.333 -29.667 -20 -68.168 -20 -115.501h133c6.66699 0 11.667 2.33301 15 7s5 13.334 5 26.001
c0 43.333 -5.5 75.333 -16.5 96s-28.833 31 -53.5 31c-28.667 0 -49.667 -14.833 -63 -44.5zM81.499 645.498c14.333 11.667 32.833 17.5 55.5 17.5c22 0 40.333 -5.83301 55 -17.5s22 -26.834 22 -45.501c0 -19.333 -7.16699 -34.666 -21.5 -45.999s-32.833 -17 -55.5 -17
s-41.167 5.66699 -55.5 17s-21.5 26.666 -21.5 45.999c0 18.667 7.16699 33.834 21.5 45.501zM292.499 645.498c14.333 11.667 32.833 17.5 55.5 17.5c22 0 40.333 -5.83301 55 -17.5s22 -26.834 22 -45.501c0 -19.333 -7.16699 -34.666 -21.5 -45.999
s-32.833 -17 -55.5 -17s-41.167 5.66699 -55.5 17s-21.5 26.666 -21.5 45.999c0 18.667 7.16699 33.834 21.5 45.501z" />
    <glyph glyph-name="igrave" unicode="&#xec;" horiz-adv-x="263" 
d="M197 51c0 -13.333 4.33301 -19.667 13 -19l33 2v-34h-223v34l33 -2h2c7.33301 0 11 6.33301 11 19v323c0 11.333 -4 18 -12 20l-33 -2v33h176v-374zM5 644.499c16.667 9 30.999 13.5 42.999 13.5c6.66699 0 11.834 -1.33301 15.501 -4s10.5 -9.66699 20.5 -21l95 -104
c10.667 -11.333 16 -20.333 16 -27s-3.66699 -10 -11 -10c-6.66699 0 -14.667 3 -24 9l-167 102c-8.66699 6.66699 -13 12.667 -13 18c0 6.66699 8.33301 14.5 25 23.5z" />
    <glyph glyph-name="iacute" unicode="&#xed;" horiz-adv-x="263" 
d="M197 51c0 -13.333 4.33301 -19.667 13 -19l33 2v-34h-223v34l33 -2h2c7.33301 0 11 6.33301 11 19v323c0 11.333 -4 18 -12 20l-33 -2v33h176v-374zM263 602.999l-167.001 -102c-8.66699 -6 -16.667 -9 -24 -9s-11 3.33301 -11 10s5.33301 15.667 16 27l95 104
c10 11.333 16.833 18.333 20.5 21s8.83398 4 15.501 4c12 0 26.333 -4.5 43 -13.5s25 -16.833 25 -23.5c0 -5.33301 -4.33301 -11.333 -13 -18z" />
    <glyph glyph-name="icircumflex" unicode="&#xee;" horiz-adv-x="263" 
d="M197 51c0 -13.333 4.33301 -19.667 13 -19l33 2v-34h-223v34l33 -2h2c7.33301 0 11 6.33301 11 19v323c0 11.333 -4 18 -12 20l-33 -2v33h176v-374zM4 497.999c-3.33301 0 -6 1 -8 3s-3 4.66699 -3 8s6.33301 12.333 19 27l94 113c7.33301 10 14.666 15 21.999 15
c6.66699 0 14.334 -5 23.001 -15l94 -113c12 -15.333 18 -24.333 18 -27c0 -3.33301 -1 -6 -3 -8s-4.66699 -3 -8 -3c-4 0 -12.667 3.66699 -26 11l-98 65l-98 -65c-12 -7.33301 -20.667 -11 -26 -11z" />
    <glyph glyph-name="idieresis" unicode="&#xef;" horiz-adv-x="263" 
d="M197 51c0 -13.333 4.33301 -19.667 13 -19l33 2v-34h-223v34l33 -2h2c7.33301 0 11 6.33301 11 19v323c0 11.333 -4 18 -12 20l-33 -2v33h176v-374zM-33.5 645.499c14.333 11.667 32.833 17.5 55.5 17.5c22 0 40.333 -5.83301 55 -17.5s22 -26.834 22 -45.501
c0 -19.333 -7.16699 -34.666 -21.5 -45.999s-32.833 -17 -55.5 -17s-41.167 5.66699 -55.5 17s-21.5 26.666 -21.5 45.999c0 18.667 7.16699 33.834 21.5 45.501zM177.5 645.499c14.333 11.667 32.833 17.5 55.5 17.5c22 0 40.333 -5.83301 55 -17.5s22 -26.834 22 -45.501
c0 -19.333 -7.16699 -34.666 -21.5 -45.999s-32.833 -17 -55.5 -17s-41.167 5.66699 -55.5 17s-21.5 26.666 -21.5 45.999c0 18.667 7.16699 33.834 21.5 45.501z" />
    <glyph glyph-name="eth" unicode="&#xf0;" horiz-adv-x="507" 
d="M441 425c30.667 -54.667 46.001 -121.667 46.001 -201c0 -72.667 -19.667 -130 -59 -172s-97.333 -63 -174 -63c-76 0 -134 19 -174 57s-60 93.333 -60 166c0 74 19.333 129.667 58 167s90 56 154 56c35.333 0 63.666 -7 84.999 -21c-14.667 36 -39 68.667 -73 98
l-102 -59l-17 30l90 52c-36 24 -70.333 38.333 -103 43l20 29c53.333 -2 103 -13.667 149 -35l83 48l16 -30l-63 -36c52 -31.333 93.333 -74.333 124 -129zM326.001 66.5c14 29.667 20.999 78.167 20.999 145.5c0 68.667 -7.16699 117.667 -21.5 147s-38.166 44 -71.499 44
s-57.333 -14.167 -72 -42.5s-22 -77.833 -22 -148.5c0 -69.333 7.5 -118.333 22.5 -147s38.833 -43 71.5 -43c34 0 58 14.833 72 44.5z" />
    <glyph glyph-name="ntilde" unicode="&#xf1;" horiz-adv-x="539" 
d="M528 34l-0.000976562 -33.999h-228v34l38 -2c8.66699 2 13 8.33301 13 19v242c0 34.667 -2.83301 59.167 -8.5 73.5s-18.5 21.5 -38.5 21.5c-17.333 0 -34.166 -7.33301 -50.499 -22s-29.833 -36.334 -40.5 -65.001s-16 -63 -16 -103v-147c0 -12.667 4.33301 -19 13 -19
l39 2v-34h-229v34l33 -2c8.66699 2 13 8.33301 13 19v323c0 11.333 -4.33301 18 -13 20l-33 -2v33h182c-3.33301 -10 -5 -21.667 -5 -35v-56c14.667 32 35.167 56.833 61.5 74.5s57.5 26.5 93.5 26.5c45.333 0 78.333 -11.5 99 -34.5s31 -59.167 31 -108.5v-241
c0 -12.667 4.33301 -19 13 -19zM146.999 603.001c10.667 18 26.6689 27.0029 48.002 27.0029c11.333 0 23.833 -1.83301 37.5 -5.5s31.167 -8.83398 52.5 -15.501c13.333 -4.66699 26.666 -8.83398 39.999 -12.501s24 -5.5 32 -5.5c9.33301 0 17.166 3.5 23.499 10.5
s9.5 16.167 9.5 27.5h27c0 -30 -5.33301 -54 -16 -72s-26.667 -27 -48 -27c-18.667 0 -48.667 7.33301 -90 22c-3.33301 1.33301 -13.333 4.66602 -30 9.99902s-30.334 8 -41.001 8c-9.33301 0 -17.166 -3.5 -23.499 -10.5s-9.5 -16.5 -9.5 -28.5h-28c0 30 5.33301 54 16 72
z" />
    <glyph glyph-name="ograve" unicode="&#xf2;" horiz-adv-x="487" 
d="M76 378c37.333 38 93.333 57 168 57c75.333 0 131.333 -19 168 -57s55 -93 55 -165c0 -148.667 -74.333 -223 -223 -223c-74.667 0 -130.667 19 -168 57s-56 93.333 -56 166c0 72 18.667 127 56 165zM179.5 67.5c13 -28.333 34.5 -42.501 64.5 -42.501s51.333 14 64 42
s19 76 19 144c0 69.333 -6.33301 118.333 -19 147s-34 43 -64 43s-51.5 -14.333 -64.5 -43s-19.5 -77.667 -19.5 -147c0 -67.333 6.5 -115.166 19.5 -143.499zM121 644.499c16.667 9 30.999 13.5 42.999 13.5c6.66699 0 11.834 -1.33301 15.501 -4s10.5 -9.66699 20.5 -21
l95 -104c10.667 -11.333 16 -20.333 16 -27s-3.66699 -10 -11 -10c-6.66699 0 -14.667 3 -24 9l-167 102c-8.66699 6.66699 -13 12.667 -13 18c0 6.66699 8.33301 14.5 25 23.5z" />
    <glyph glyph-name="oacute" unicode="&#xf3;" horiz-adv-x="487" 
d="M76 378c37.333 38 93.333 57 168 57c75.333 0 131.333 -19 168 -57s55 -93 55 -165c0 -148.667 -74.333 -223 -223 -223c-74.667 0 -130.667 19 -168 57s-56 93.333 -56 166c0 72 18.667 127 56 165zM179.5 67.5c13 -28.333 34.5 -42.501 64.5 -42.501s51.333 14 64 42
s19 76 19 144c0 69.333 -6.33301 118.333 -19 147s-34 43 -64 43s-51.5 -14.333 -64.5 -43s-19.5 -77.667 -19.5 -147c0 -67.333 6.5 -115.166 19.5 -143.499zM379 602.999l-167.001 -102c-8.66699 -6 -16.667 -9 -24 -9s-11 3.33301 -11 10s5.33301 15.667 16 27l95 104
c10 11.333 16.833 18.333 20.5 21s8.83398 4 15.501 4c12 0 26.333 -4.5 43 -13.5s25 -16.833 25 -23.5c0 -5.33301 -4.33301 -11.333 -13 -18z" />
    <glyph glyph-name="ocircumflex" unicode="&#xf4;" horiz-adv-x="487" 
d="M76 378c37.333 38 93.333 57 168 57c75.333 0 131.333 -19 168 -57s55 -93 55 -165c0 -148.667 -74.333 -223 -223 -223c-74.667 0 -130.667 19 -168 57s-56 93.333 -56 166c0 72 18.667 127 56 165zM179.5 67.5c13 -28.333 34.5 -42.501 64.5 -42.501s51.333 14 64 42
s19 76 19 144c0 69.333 -6.33301 118.333 -19 147s-34 43 -64 43s-51.5 -14.333 -64.5 -43s-19.5 -77.667 -19.5 -147c0 -67.333 6.5 -115.166 19.5 -143.499zM388 497.999c-9.33301 0 -20.333 4 -33 12l-111 66l-112 -66c-12.667 -8 -23.667 -12 -33 -12
c-7.33301 0 -11 2.66699 -11 8c0 2.66699 2.66699 6.83398 8 12.501s12 12.167 20 19.5c20 20 36 36.667 48 50l23 24l24 24c11.333 12 22.333 18 33 18c10 0 21 -6 33 -18l24 -24l23 -24c12 -13.333 28 -30 48 -50c8 -7.33301 14.667 -13.833 20 -19.5
s8 -9.83398 8 -12.501c0 -5.33301 -4 -8 -12 -8z" />
    <glyph glyph-name="otilde" unicode="&#xf5;" horiz-adv-x="487" 
d="M76 378c37.333 38 93.333 57 168 57c75.333 0 131.333 -19 168 -57s55 -93 55 -165c0 -148.667 -74.333 -223 -223 -223c-74.667 0 -130.667 19 -168 57s-56 93.333 -56 166c0 72 18.667 127 56 165zM179.5 67.5c13 -28.333 34.5 -42.501 64.5 -42.501s51.333 14 64 42
s19 76 19 144c0 69.333 -6.33301 118.333 -19 147s-34 43 -64 43s-51.5 -14.333 -64.5 -43s-19.5 -77.667 -19.5 -147c0 -67.333 6.5 -115.166 19.5 -143.499zM117 602.999c10.667 18 26.6689 27.0029 48.002 27.0029c11.333 0 23.833 -1.83301 37.5 -5.5
s31.167 -8.83398 52.5 -15.501c13.333 -4.66699 26.666 -8.83398 39.999 -12.501s24 -5.5 32 -5.5c9.33301 0 17.166 3.5 23.499 10.5s9.5 16.167 9.5 27.5h27c0 -30 -5.33301 -54 -16 -72s-26.667 -27 -48 -27c-18.667 0 -48.667 7.33301 -90 22
c-3.33301 1.33301 -13.333 4.66602 -30 9.99902s-30.334 8 -41.001 8c-9.33301 0 -17.166 -3.5 -23.499 -10.5s-9.5 -16.5 -9.5 -28.5h-28c0 30 5.33301 54 16 72z" />
    <glyph glyph-name="odieresis" unicode="&#xf6;" horiz-adv-x="487" 
d="M76 378c37.333 38 93.333 57 168 57c75.333 0 131.333 -19 168 -57s55 -93 55 -165c0 -148.667 -74.333 -223 -223 -223c-74.667 0 -130.667 19 -168 57s-56 93.333 -56 166c0 72 18.667 127 56 165zM179.5 67.5c13 -28.333 34.5 -42.501 64.5 -42.501s51.333 14 64 42
s19 76 19 144c0 69.333 -6.33301 118.333 -19 147s-34 43 -64 43s-51.5 -14.333 -64.5 -43s-19.5 -77.667 -19.5 -147c0 -67.333 6.5 -115.166 19.5 -143.499zM82.5 645.499c14.333 11.667 32.833 17.5 55.5 17.5c22 0 40.333 -5.83301 55 -17.5s22 -26.834 22 -45.501
c0 -19.333 -7.16699 -34.666 -21.5 -45.999s-32.833 -17 -55.5 -17s-41.167 5.66699 -55.5 17s-21.5 26.666 -21.5 45.999c0 18.667 7.16699 33.834 21.5 45.501zM293.5 645.499c14.333 11.667 32.833 17.5 55.5 17.5c22 0 40.333 -5.83301 55 -17.5s22 -26.834 22 -45.501
c0 -19.333 -7.16699 -34.666 -21.5 -45.999s-32.833 -17 -55.5 -17s-41.167 5.66699 -55.5 17s-21.5 26.666 -21.5 45.999c0 18.667 7.16699 33.834 21.5 45.501z" />
    <glyph glyph-name="divide" unicode="&#xf7;" 
d="M174 484c14 11.333 32.3311 17 54.998 17s41.334 -5.66699 56.001 -17s22 -26.666 22 -45.999s-7.16699 -34.5 -21.5 -45.5s-33.166 -16.5 -56.499 -16.5c-22.667 0 -41 5.5 -55 16.5s-21 26.167 -21 45.5s7 34.666 21 45.999zM18.998 240v59h422v-59h-422z
M174.498 141.5c14.333 11.667 32.498 17.498 54.498 17.498c22.667 0 41.334 -5.66699 56.001 -17s22 -26.666 22 -45.999s-7.16699 -34.5 -21.5 -45.5s-33.166 -16.5 -56.499 -16.5c-22.667 0 -41 5.5 -55 16.5s-21 26.167 -21 45.5c0 18.667 7.16699 33.834 21.5 45.501z
" />
    <glyph glyph-name="oslash" unicode="&#xf8;" horiz-adv-x="487" 
d="M467 213c0 -148.667 -74.333 -223 -223 -223c-32.667 0 -61 3.33301 -85 10l-49 -88l-46 23l47 85c-60.667 34.667 -91 99 -91 193c0 72 18.667 127 56 165s93.333 57 168 57c36 0 67 -4.33301 93 -13l47 85l42 -27l-44 -78c56.667 -35.333 85 -98.333 85 -189zM166 117
l138.999 247.999c-13.333 24 -33.666 36 -60.999 36c-30 0 -51.5 -14.333 -64.5 -43s-19.5 -77.667 -19.5 -147c0 -37.333 2 -68.666 6 -93.999zM307.999 66.999c12.667 28 19 76 19 144c0 35.333 -1.33301 63.333 -4 84l-135 -243c12 -18 30.667 -27 56 -27
c30 0 51.333 14 64 42z" />
    <glyph glyph-name="ugrave" unicode="&#xf9;" horiz-adv-x="532" 
d="M512 34v-34.001h-183c3.33301 10 5 24.667 5 44v45c-30 -66 -80.667 -99 -152 -99c-43.333 0 -75 11.833 -95 35.5s-30 61.167 -30 112.5v237c0 12.667 -4.33301 19 -13 19l-33 -2v33h177v-293c0 -34 2.83301 -58.333 8.5 -73s17.5 -22 35.5 -22c16 0 31.833 7 47.5 21
s28.5 34.833 38.5 62.5s15.333 60.834 16 99.501v154c0 13.333 -4 20 -12 20l-39 -2v33h183v-374c0 -12 4.33301 -18.333 13 -19zM132 644.499c16.667 9 30.999 13.5 42.999 13.5c6.66699 0 11.834 -1.33301 15.501 -4s10.5 -9.66699 20.5 -21l95 -104
c10.667 -11.333 16 -20.333 16 -27s-3.66699 -10 -11 -10c-6.66699 0 -14.667 3 -24 9l-167 102c-8.66699 6.66699 -13 12.667 -13 18c0 6.66699 8.33301 14.5 25 23.5z" />
    <glyph glyph-name="uacute" unicode="&#xfa;" horiz-adv-x="532" 
d="M512 34v-34.001h-183c3.33301 10 5 24.667 5 44v45c-30 -66 -80.667 -99 -152 -99c-43.333 0 -75 11.833 -95 35.5s-30 61.167 -30 112.5v237c0 12.667 -4.33301 19 -13 19l-33 -2v33h177v-293c0 -34 2.83301 -58.333 8.5 -73s17.5 -22 35.5 -22c16 0 31.833 7 47.5 21
s28.5 34.833 38.5 62.5s15.333 60.834 16 99.501v154c0 13.333 -4 20 -12 20l-39 -2v33h183v-374c0 -12 4.33301 -18.333 13 -19zM390 602.999l-167.001 -102c-8.66699 -6 -16.667 -9 -24 -9s-11 3.33301 -11 10s5.33301 15.667 16 27l95 104
c10 11.333 16.833 18.333 20.5 21s8.83398 4 15.501 4c12 0 26.333 -4.5 43 -13.5s25 -16.833 25 -23.5c0 -5.33301 -4.33301 -11.333 -13 -18z" />
    <glyph glyph-name="ucircumflex" unicode="&#xfb;" horiz-adv-x="532" 
d="M512 34v-34.001h-183c3.33301 10 5 24.667 5 44v45c-30 -66 -80.667 -99 -152 -99c-43.333 0 -75 11.833 -95 35.5s-30 61.167 -30 112.5v237c0 12.667 -4.33301 19 -13 19l-33 -2v33h177v-293c0 -34 2.83301 -58.333 8.5 -73s17.5 -22 35.5 -22c16 0 31.833 7 47.5 21
s28.5 34.833 38.5 62.5s15.333 60.834 16 99.501v154c0 13.333 -4 20 -12 20l-39 -2v33h183v-374c0 -12 4.33301 -18.333 13 -19zM399 497.999c-9.33301 0 -20.333 4 -33 12l-111 66l-112 -66c-12.667 -8 -23.667 -12 -33 -12c-7.33301 0 -11 2.66699 -11 8
c0 2.66699 2.66699 6.83398 8 12.501s12 12.167 20 19.5c20 20 36 36.667 48 50l23 24l24 24c11.333 12 22.333 18 33 18c10 0 21 -6 33 -18l24 -24l23 -24c12 -13.333 28 -30 48 -50c8 -7.33301 14.667 -13.833 20 -19.5s8 -9.83398 8 -12.501c0 -5.33301 -4 -8 -12 -8z
" />
    <glyph glyph-name="udieresis" unicode="&#xfc;" horiz-adv-x="532" 
d="M512 34v-34.001h-183c3.33301 10 5 24.667 5 44v45c-30 -66 -80.667 -99 -152 -99c-43.333 0 -75 11.833 -95 35.5s-30 61.167 -30 112.5v237c0 12.667 -4.33301 19 -13 19l-33 -2v33h177v-293c0 -34 2.83301 -58.333 8.5 -73s17.5 -22 35.5 -22c16 0 31.833 7 47.5 21
s28.5 34.833 38.5 62.5s15.333 60.834 16 99.501v154c0 13.333 -4 20 -12 20l-39 -2v33h183v-374c0 -12 4.33301 -18.333 13 -19zM93.5 645.499c14.333 11.667 32.833 17.5 55.5 17.5c22 0 40.333 -5.83301 55 -17.5s22 -26.834 22 -45.501
c0 -19.333 -7.16699 -34.666 -21.5 -45.999s-32.833 -17 -55.5 -17s-41.167 5.66699 -55.5 17s-21.5 26.666 -21.5 45.999c0 18.667 7.16699 33.834 21.5 45.501zM304.5 645.499c14.333 11.667 32.833 17.5 55.5 17.5c22 0 40.333 -5.83301 55 -17.5s22 -26.834 22 -45.501
c0 -19.333 -7.16699 -34.666 -21.5 -45.999s-32.833 -17 -55.5 -17s-41.167 5.66699 -55.5 17s-21.5 26.666 -21.5 45.999c0 18.667 7.16699 33.834 21.5 45.501z" />
    <glyph glyph-name="yacute" unicode="&#xfd;" horiz-adv-x="501" 
d="M500 425l-0.00195312 -33l-37 2h-2c-12 0 -20.333 -6.33301 -25 -19l-204 -491c-19.333 -46.667 -39.666 -78.834 -60.999 -96.501s-47.666 -26.5 -78.999 -26.5c-24.667 0 -44.5 5.5 -59.5 16.5s-23.167 27.167 -24.5 48.5c0 20.667 5.83301 36.667 17.5 48
s24.834 17 39.501 17c15.333 0 26.833 -3.16699 34.5 -9.5s14.5 -15.166 20.5 -26.499c4 -8 7.83301 -13.833 11.5 -17.5s8.5 -5.5 14.5 -5.5c8.66699 0 16.167 3.5 22.5 10.5s13.5 19.833 21.5 38.5l47 113l-184 387c-4 8.66699 -9.33301 13 -16 13l-39 -2v33h258v-33
l-45 2c-4.66699 0 -8.33398 -1.83301 -11.001 -5.5s-3 -7.5 -1 -11.5l107 -219l92 221c0.666992 1.33301 1 3.33301 1 6c0 6 -3.66699 9 -11 9l-47 -2v33h159zM406.998 603l-167.001 -102c-8.66699 -6 -16.667 -9 -24 -9s-11 3.33301 -11 10s5.33301 15.667 16 27l95 104
c10 11.333 16.833 18.333 20.5 21s8.83398 4 15.501 4c12 0 26.333 -4.5 43 -13.5s25 -16.833 25 -23.5c0 -5.33301 -4.33301 -11.333 -13 -18z" />
    <glyph glyph-name="thorn" unicode="&#xfe;" horiz-adv-x="520" 
d="M193 344c10 28 25.332 49.3311 45.999 63.998s49.334 22 86.001 22c58.667 0 102 -18.167 130 -54.5s42 -91.833 42 -166.5c0 -73.333 -15.5 -128.166 -46.5 -164.499s-78.833 -54.5 -143.5 -54.5c-27.333 0 -50.833 4.33301 -70.5 13s-34.167 20.667 -43.5 36v-227
c0 -13.333 4.33301 -20 13 -20l62 2v-33h-248v33l29 -2c8.66699 0.666992 13 7.33398 13 20.001v867c0 12 -4.33301 19 -13 21l-33 -2v33h177v-387zM218.999 340.998c-16 -28.667 -24 -67.002 -24 -115.002v-42c0 -98.667 28.333 -148 85 -148c20 0 35.5 5.33301 46.5 16
s18.833 28.334 23.5 53.001s7 59.334 7 104.001c0 45.333 -2 80.333 -6 105s-11 42.5 -21 53.5s-24.667 16.5 -44 16.5c-28.667 0 -51 -14.333 -67 -43z" />
    <glyph glyph-name="ydieresis" unicode="&#xff;" horiz-adv-x="501" 
d="M500 425l-0.00195312 -33l-37 2h-2c-12 0 -20.333 -6.33301 -25 -19l-204 -491c-19.333 -46.667 -39.666 -78.834 -60.999 -96.501s-47.666 -26.5 -78.999 -26.5c-24.667 0 -44.5 5.5 -59.5 16.5s-23.167 27.167 -24.5 48.5c0 20.667 5.83301 36.667 17.5 48
s24.834 17 39.501 17c15.333 0 26.833 -3.16699 34.5 -9.5s14.5 -15.166 20.5 -26.499c4 -8 7.83301 -13.833 11.5 -17.5s8.5 -5.5 14.5 -5.5c8.66699 0 16.167 3.5 22.5 10.5s13.5 19.833 21.5 38.5l47 113l-184 387c-4 8.66699 -9.33301 13 -16 13l-39 -2v33h258v-33
l-45 2c-4.66699 0 -8.33398 -1.83301 -11.001 -5.5s-3 -7.5 -1 -11.5l107 -219l92 221c0.666992 1.33301 1 3.33301 1 6c0 6 -3.66699 9 -11 9l-47 -2v33h159zM110.498 645.5c14.333 11.667 32.833 17.5 55.5 17.5c22 0 40.333 -5.83301 55 -17.5s22 -26.834 22 -45.501
c0 -19.333 -7.16699 -34.666 -21.5 -45.999s-32.833 -17 -55.5 -17s-41.167 5.66699 -55.5 17s-21.5 26.666 -21.5 45.999c0 18.667 7.16699 33.834 21.5 45.501zM321.498 645.5c14.333 11.667 32.833 17.5 55.5 17.5c22 0 40.333 -5.83301 55 -17.5s22 -26.834 22 -45.501
c0 -19.333 -7.16699 -34.666 -21.5 -45.999s-32.833 -17 -55.5 -17s-41.167 5.66699 -55.5 17s-21.5 26.666 -21.5 45.999c0 18.667 7.16699 33.834 21.5 45.501z" />
    <glyph glyph-name="Amacron" unicode="&#x100;" horiz-adv-x="613" 
d="M633 37v-36.999h-300v37l46 -2c20 -2 30 6 30 24c0 11.333 -3.33301 24.333 -10 39l-37 88h-220l-34 -82c-9.33301 -20.667 -14 -37.334 -14 -50.001c0 -14 7.33301 -20.667 22 -20l45 3v-37h-181v37l29 -2h4c13.333 0 24.333 6.33301 33 19c10 14.667 20 34 30 58
l206 495h49l208 -497c9.33301 -24 19 -43 29 -57c9.33301 -12 21 -18 35 -18h5zM156 221.001h192l-97 230zM189 699.001v47h239v-47h-239z" />
    <glyph glyph-name="amacron" unicode="&#x101;" horiz-adv-x="467" 
d="M456 34l0.000976562 -33.999h-182c2.66699 16 4 28.333 4 37l1 27c-29.333 -46 -75.333 -69 -138 -69c-42 0 -73.833 9.5 -95.5 28.5s-32.5 47.167 -32.5 84.5c0 48.667 21.333 84.667 64 108s110 35 202 35v70c0 25.333 -4.33301 45 -13 59s-26.667 21 -54 21
c-23.333 0 -39.833 -4 -49.5 -12s-14.5 -17.667 -14.5 -29c0 -8.66699 1.66699 -16.334 5 -23.001c2.66699 -9.33301 4 -16 4 -20c0 -14.667 -5.16699 -26 -15.5 -34s-23.5 -12 -39.5 -12c-18.667 0 -33.834 5.5 -45.501 16.5s-17.5 24.833 -17.5 41.5
c0 32 16.667 57.667 50 77s78.333 29 135 29c124 0 186 -44.333 186 -133v-251c0 -12.667 4.33301 -19 13 -19zM251.501 80.501c15 17.667 24.167 40.833 27.5 69.5v66c-45.333 0 -78.333 -8 -99 -24s-31 -40 -31 -72c0 -44 16.333 -66 49 -66
c20.667 0 38.5 8.83301 53.5 26.5zM106.001 565v47h239v-47h-239z" />
    <glyph glyph-name="Abreve" unicode="&#x102;" horiz-adv-x="613" 
d="M633 37v-36.999h-300v37l46 -2c20 -2 30 6 30 24c0 11.333 -3.33301 24.333 -10 39l-37 88h-220l-34 -82c-9.33301 -20.667 -14 -37.334 -14 -50.001c0 -14 7.33301 -20.667 22 -20l45 3v-37h-181v37l29 -2h4c13.333 0 24.333 6.33301 33 19c10 14.667 20 34 30 58
l206 495h49l208 -497c9.33301 -24 19 -43 29 -57c9.33301 -12 21 -18 35 -18h5zM156 221.001h192l-97 230zM405 695.501c-24.667 -24.333 -57.001 -36.5 -97.001 -36.5s-72.167 12.167 -96.5 36.5s-37.166 55.833 -38.499 94.5h46c4.66699 -18.667 14 -34.334 28 -47.001
s34.333 -19 61 -19c26 0 46.333 6.33301 61 19s24.667 28.334 30 47.001h45c-1.33301 -38.667 -14.333 -70.167 -39 -94.5z" />
    <glyph glyph-name="abreve" unicode="&#x103;" horiz-adv-x="467" 
d="M456 34l0.000976562 -33.999h-182c2.66699 16 4 28.333 4 37l1 27c-29.333 -46 -75.333 -69 -138 -69c-42 0 -73.833 9.5 -95.5 28.5s-32.5 47.167 -32.5 84.5c0 48.667 21.333 84.667 64 108s110 35 202 35v70c0 25.333 -4.33301 45 -13 59s-26.667 21 -54 21
c-23.333 0 -39.833 -4 -49.5 -12s-14.5 -17.667 -14.5 -29c0 -8.66699 1.66699 -16.334 5 -23.001c2.66699 -9.33301 4 -16 4 -20c0 -14.667 -5.16699 -26 -15.5 -34s-23.5 -12 -39.5 -12c-18.667 0 -33.834 5.5 -45.501 16.5s-17.5 24.833 -17.5 41.5
c0 32 16.667 57.667 50 77s78.333 29 135 29c124 0 186 -44.333 186 -133v-251c0 -12.667 4.33301 -19 13 -19zM251.501 80.501c15 17.667 24.167 40.833 27.5 69.5v66c-45.333 0 -78.333 -8 -99 -24s-31 -40 -31 -72c0 -44 16.333 -66 49 -66
c20.667 0 38.5 8.83301 53.5 26.5zM322.001 552.5c-24.667 -24.333 -57.001 -36.5 -97.001 -36.5s-72.167 12.167 -96.5 36.5s-37.166 55.833 -38.499 94.5h46c4.66699 -18.667 14 -34.334 28 -47.001s34.333 -19 61 -19c26 0 46.333 6.33301 61 19s24.667 28.334 30 47.001
h45c-1.33301 -38.667 -14.333 -70.167 -39 -94.5z" />
    <glyph glyph-name="Aogonek" unicode="&#x104;" horiz-adv-x="613" 
d="M658 -99c-16.667 -19.333 -35.168 -34.167 -55.501 -44.5s-41.166 -15.5 -62.499 -15.5c-22 0 -41 6.33301 -57 19s-24 30.334 -24 53.001c0 16.667 4.16699 32.5 12.5 47.5s20.833 28.167 37.5 39.5h-176v37l46 -2c20 -2 30 6 30 24c0 11.333 -3.33301 24.333 -10 39
l-37 88h-220l-34 -82c-9.33301 -20.667 -14 -37.334 -14 -50.001c0 -14 7.33301 -20.667 22 -20l45 3v-37h-181v37l29 -2h4c13.333 0 24.333 6.33301 33 19c10 14.667 20 34 30 58l206 495h49l208 -497c9.33301 -24 19 -43 29 -57c9.33301 -12 21 -18 35 -18h5l25 2v-37h-84
c-15.333 -14 -23 -32.333 -23 -55c0 -13.333 4.16699 -24.333 12.5 -33s20.833 -13 37.5 -13c22.667 0 46 7 70 21zM155.999 220.999h192l-97 230z" />
    <glyph glyph-name="aogonek" unicode="&#x105;" horiz-adv-x="467" 
d="M495 -103c-16.667 -19.333 -35.167 -34.166 -55.5 -44.499s-41.166 -15.5 -62.499 -15.5c-22 0 -41 6.33301 -57 19s-24 30.334 -24 53.001c0 18 4.83301 34.833 14.5 50.5s23.5 29.167 41.5 40.5h-78c2.66699 16 4 28.333 4 37l1 27c-29.333 -46 -75.333 -69 -138 -69
c-42 0 -73.833 9.5 -95.5 28.5s-32.5 47.167 -32.5 84.5c0 48.667 21.333 84.667 64 108s110 35 202 35v70c0 25.333 -4.33301 45 -13 59s-26.667 21 -54 21c-23.333 0 -39.833 -4 -49.5 -12s-14.5 -17.667 -14.5 -29c0 -8.66699 1.66699 -16.334 5 -23.001
c2.66699 -9.33301 4 -16 4 -20c0 -14.667 -5.16699 -26 -15.5 -34s-23.5 -12 -39.5 -12c-18.667 0 -33.834 5.5 -45.501 16.5s-17.5 24.833 -17.5 41.5c0 32 16.667 57.667 50 77s78.333 29 135 29c124 0 186 -44.333 186 -133v-251c0 -12.667 4.33301 -19 13 -19l33 2v-34
h-66c-18 -14.667 -27 -34.334 -27 -59.001c0 -13.333 4.16699 -24.333 12.5 -33s20.833 -13 37.5 -13c22.667 0 46 7 70 21zM251.5 80.5c15 17.667 24.167 40.833 27.5 69.5v66c-45.333 0 -78.333 -8 -99 -24s-31 -40 -31 -72c0 -44 16.333 -66 49 -66
c20.667 0 38.5 8.83301 53.5 26.5z" />
    <glyph glyph-name="Cacute" unicode="&#x106;" horiz-adv-x="596" 
d="M112.5 525c55 54.667 131.165 81.9971 228.498 81.9971c26.667 0 48.667 -2 66 -6s38.333 -10 63 -18c17.333 -6.66699 32.333 -11.5 45 -14.5s26.667 -4.5 42 -4.5c-2.66699 -20.667 -4 -45.667 -4 -75c0 -14 0.333008 -26.5 1 -37.5s1.66699 -17.167 3 -18.5h-32
c-8 39.333 -28.333 72.833 -61 100.5s-69 41.5 -109 41.5c-55.333 0 -98.166 -24.167 -128.499 -72.5s-45.5 -117.5 -45.5 -207.5c0 -86 16 -152.5 48 -199.5s75.333 -70.5 130 -70.5c42 0 78.833 13.5 110.5 40.5s51.834 60.833 60.501 101.5h36c-4 -32.667 -6 -61 -6 -85
c0 -19.333 1 -35 3 -47h-6c-12 0 -24.5 -1.5 -37.5 -4.5s-29.833 -7.83301 -50.5 -14.5c-30 -8.66699 -54.167 -15.167 -72.5 -19.5s-38.5 -6.5 -60.5 -6.5c-62.667 0 -117 12.333 -163 37s-81.333 59.834 -106 105.501s-37 99.834 -37 162.501
c0 98.667 27.5 175.334 82.5 230.001zM462.998 770.997l-167.001 -102c-8.66699 -6 -16.667 -9 -24 -9s-11 3.33301 -11 10s5.33301 15.667 16 27l95 104c10 11.333 16.833 18.333 20.5 21s8.83398 4 15.501 4c12 0 26.333 -4.5 43 -13.5s25 -16.833 25 -23.5
c0 -5.33301 -4.33301 -11.333 -13 -18z" />
    <glyph glyph-name="cacute" unicode="&#x107;" horiz-adv-x="439" 
d="M334 421c26.667 -9.33301 47.499 -22.002 62.499 -38.002s22.5 -33.667 22.5 -53c0 -17.333 -5.5 -32 -16.5 -44s-26.5 -18 -46.5 -18c-16 0 -29.167 3.83301 -39.5 11.5s-15.5 18.834 -15.5 33.501c0 6 1.33301 13 4 21c3.33301 6.66699 5 14 5 22
c0 14.667 -5.83301 25.834 -17.5 33.501s-26.167 11.5 -43.5 11.5c-28.667 0 -51 -13.5 -67 -40.5s-24 -72.833 -24 -137.5c0 -72 9.83301 -122.667 29.5 -152s46.834 -44 81.501 -44c27.333 0 52.166 7.5 74.499 22.5s39.5 39.5 51.5 73.5l31 -15
c-28.667 -78.667 -89 -118 -181 -118c-65.333 0 -119.166 18 -161.499 54s-63.5 91 -63.5 165s20.667 130.167 62 168.5s95.333 57.5 162 57.5c33.333 0 63.333 -4.66699 90 -14zM359.999 602.998l-167.001 -102c-8.66699 -6 -16.667 -9 -24 -9s-11 3.33301 -11 10
s5.33301 15.667 16 27l95 104c10 11.333 16.833 18.333 20.5 21s8.83398 4 15.501 4c12 0 26.333 -4.5 43 -13.5s25 -16.833 25 -23.5c0 -5.33301 -4.33301 -11.333 -13 -18z" />
    <glyph glyph-name="Ccaron" unicode="&#x10c;" horiz-adv-x="596" 
d="M112.5 525c55 54.667 131.165 81.9971 228.498 81.9971c26.667 0 48.667 -2 66 -6s38.333 -10 63 -18c17.333 -6.66699 32.333 -11.5 45 -14.5s26.667 -4.5 42 -4.5c-2.66699 -20.667 -4 -45.667 -4 -75c0 -14 0.333008 -26.5 1 -37.5s1.66699 -17.167 3 -18.5h-32
c-8 39.333 -28.333 72.833 -61 100.5s-69 41.5 -109 41.5c-55.333 0 -98.166 -24.167 -128.499 -72.5s-45.5 -117.5 -45.5 -207.5c0 -86 16 -152.5 48 -199.5s75.333 -70.5 130 -70.5c42 0 78.833 13.5 110.5 40.5s51.834 60.833 60.501 101.5h36c-4 -32.667 -6 -61 -6 -85
c0 -19.333 1 -35 3 -47h-6c-12 0 -24.5 -1.5 -37.5 -4.5s-29.833 -7.83301 -50.5 -14.5c-30 -8.66699 -54.167 -15.167 -72.5 -19.5s-38.5 -6.5 -60.5 -6.5c-62.667 0 -117 12.333 -163 37s-81.333 59.834 -106 105.501s-37 99.834 -37 162.501
c0 98.667 27.5 175.334 82.5 230.001zM182.998 823.997c9.33301 0 20.333 -4 33 -12l111 -66l112 66c12.667 8 23.667 12 33 12c7.33301 0 11 -2.66699 11 -8c0 -2.66699 -2.66699 -6.83398 -8 -12.501s-12 -12.167 -20 -19.5c-20 -20 -36 -36.667 -48 -50l-23 -24l-24 -24
c-10.667 -12 -21.667 -18 -33 -18c-10 0 -21 6 -33 18l-24 24l-23 24c-12 13.333 -28 30 -48 50c-8 7.33301 -14.667 13.833 -20 19.5s-8 9.83398 -8 12.501c0 5.33301 4 8 12 8z" />
    <glyph glyph-name="ccaron" unicode="&#x10d;" horiz-adv-x="439" 
d="M334 421c26.667 -9.33301 47.499 -22.002 62.499 -38.002s22.5 -33.667 22.5 -53c0 -17.333 -5.5 -32 -16.5 -44s-26.5 -18 -46.5 -18c-16 0 -29.167 3.83301 -39.5 11.5s-15.5 18.834 -15.5 33.501c0 6 1.33301 13 4 21c3.33301 6.66699 5 14 5 22
c0 14.667 -5.83301 25.834 -17.5 33.501s-26.167 11.5 -43.5 11.5c-28.667 0 -51 -13.5 -67 -40.5s-24 -72.833 -24 -137.5c0 -72 9.83301 -122.667 29.5 -152s46.834 -44 81.501 -44c27.333 0 52.166 7.5 74.499 22.5s39.5 39.5 51.5 73.5l31 -15
c-28.667 -78.667 -89 -118 -181 -118c-65.333 0 -119.166 18 -161.499 54s-63.5 91 -63.5 165s20.667 130.167 62 168.5s95.333 57.5 162 57.5c33.333 0 63.333 -4.66699 90 -14zM80.999 661.998c9.33301 0 20.333 -4 33 -12l111 -66l112 66c12.667 8 23.667 12 33 12
c7.33301 0 11 -2.66699 11 -8c0 -2.66699 -2.66699 -6.83398 -8 -12.501s-12 -12.167 -20 -19.5c-20 -20 -36 -36.667 -48 -50l-23 -24l-24 -24c-10.667 -12 -21.667 -18 -33 -18c-10 0 -21 6 -33 18l-24 24l-23 24c-12 13.333 -28 30 -48 50
c-8 7.33301 -14.667 13.833 -20 19.5s-8 9.83398 -8 12.501c0 5.33301 4 8 12 8z" />
    <glyph glyph-name="Dcaron" unicode="&#x10e;" horiz-adv-x="634" 
d="M39 37l39.001 -2h1c4.66699 0 8.16699 2.16699 10.5 6.5s3.5 9.5 3.5 15.5v484c0 6 -1.66699 11 -5 15s-8 6 -14 6l-35 -2v37h244c111.333 0 193.166 -23 245.499 -69s78.5 -122.333 78.5 -229c0 -98.667 -25.5 -173.167 -76.5 -223.5s-129.5 -75.5 -235.5 -75.5h-256v37
zM243.001 36h23c48 0 85.5 7.33301 112.5 22s46.667 40.667 59 78s18.5 91.333 18.5 162c0 70 -6.16699 124 -18.5 162s-32 64.5 -59 79.5s-64.5 22.5 -112.5 22.5h-23c-8 0 -12 -4.33301 -12 -13v-500c0 -8.66699 4 -13 12 -13zM159.001 824c9.33301 0 20.333 -4 33 -12
l111 -66l112 66c12.667 8 23.667 12 33 12c7.33301 0 11 -2.66699 11 -8c0 -2.66699 -2.66699 -6.83398 -8 -12.501s-12 -12.167 -20 -19.5c-20 -20 -36 -36.667 -48 -50l-23 -24l-24 -24c-10.667 -12 -21.667 -18 -33 -18c-10 0 -21 6 -33 18l-24 24l-23 24
c-12 13.333 -28 30 -48 50c-8 7.33301 -14.667 13.833 -20 19.5s-8 9.83398 -8 12.501c0 5.33301 4 8 12 8z" />
    <glyph glyph-name="dcaron" unicode="&#x10f;" horiz-adv-x="522" 
d="M459 51c0 -12.667 4.33496 -19 13.002 -19l33 2v-34h-184c1.33301 5.33301 2 10.666 2 15.999v22c0 7.33301 0.333008 13 1 17s1 6.66699 1 8c-8.66699 -22.667 -23 -40.5 -43 -53.5s-45.667 -19.5 -77 -19.5c-64.667 0 -111 18 -139 54s-42 91.667 -42 167
c0 74 15.167 129.833 45.5 167.5s75.166 56.5 134.499 56.5c30.667 0 57.167 -7.5 79.5 -22.5s37.166 -33.5 44.499 -55.5v323c0 13.333 -4.33301 20 -13 20l-46 -2v32h190v-119c11.333 8 24.666 12 39.999 12c20 0 36.667 -6.5 50 -19.5s20 -29.833 20 -50.5
c0 -25.333 -8.83301 -49.166 -26.5 -71.499s-38.5 -39.166 -62.5 -50.499l-21 22c10 6.66699 18.667 14.667 26 24s11 18.666 11 27.999c0 14 -7 21 -21 21c-5.33301 0 -10.666 1 -15.999 3v-478zM326.002 229c0 50.667 -7.66699 90.168 -23 118.501s-37.333 42.5 -66 42.5
c-26.667 0 -45.5 -15.167 -56.5 -45.5s-16.5 -74.833 -16.5 -133.5c0 -44.667 2.16699 -79.334 6.5 -104.001s11.833 -42.667 22.5 -54s25.667 -17 45 -17c30 0 52.167 12.5 66.5 37.5s21.5 62.5 21.5 112.5v43z" />
    <glyph glyph-name="Dcroat" unicode="&#x110;" horiz-adv-x="636" 
d="M528.5 528c52.333 -46 78.501 -122.333 78.501 -229c0 -98.667 -25.5 -173.167 -76.5 -223.5s-129.5 -75.5 -235.5 -75.5h-256v37l39 -2h1c4.66699 0 8.16699 2.16699 10.5 6.5s3.5 9.5 3.5 15.5v229h-58v43h58v212c0 6 -1.66699 11 -5 15s-8 6 -14 6l-35 -2v37h244
c111.333 0 193.166 -23 245.499 -69zM378.501 58c27 14.667 46.667 40.667 59 78s18.5 91.333 18.5 162c0 70 -6.16699 124 -18.5 162s-32 64.5 -59 79.5s-64.5 22.5 -112.5 22.5h-23c-8 0 -12 -4.33301 -12 -13v-220h145v-43h-145v-237c0 -8.66699 4 -13 12 -13h23
c48 0 85.5 7.33301 112.5 22z" />
    <glyph glyph-name="dcroat" unicode="&#x111;" horiz-adv-x="522" 
d="M459 551l0.00195312 -499.999c0 -12.667 4.33301 -19 13 -19l33 2v-34h-184c1.33301 5.33301 2 10.666 2 15.999v22c0 7.33301 0.333008 13 1 17s1 6.66699 1 8c-8.66699 -22.667 -23 -40.5 -43 -53.5s-45.667 -19.5 -77 -19.5c-64.667 0 -111 18 -139 54
s-42 91.667 -42 167c0 74 15.167 129.833 45.5 167.5s75.166 56.5 134.499 56.5c30.667 0 57.167 -7.5 79.5 -22.5s37.166 -33.5 44.499 -55.5v194h-102v47h102v82c0 13.333 -4.33301 20 -13 20l-46 -2v32h190v-132h50v-47h-50zM326.002 229.001
c0 50.667 -7.66699 90.168 -23 118.501s-37.333 42.5 -66 42.5c-26.667 0 -45.5 -15.167 -56.5 -45.5s-16.5 -74.833 -16.5 -133.5c0 -44.667 2.16699 -79.334 6.5 -104.001s11.833 -42.667 22.5 -54s25.667 -17 45 -17c30 0 52.167 12.5 66.5 37.5s21.5 62.5 21.5 112.5v43
z" />
    <glyph glyph-name="Emacron" unicode="&#x112;" horiz-adv-x="571" 
d="M39 38l36 -2.99902c12 0 18 7.33301 18 22v484c0 6 -1.83301 11.167 -5.5 15.5s-8.5 6.16602 -14.5 5.49902l-34 -2v37h441c9.33301 0 15 0.333008 17 1v-155h-35c0 42 -11.333 72.333 -34 91s-58.667 28 -108 28h-77c-8 0 -12 -4.66699 -12 -14v-223h72
c22.667 0 41 9 55 27s21 42.667 21 74h34v-235h-34c0 28 -7.5 51.5 -22.5 70.5s-32.833 28.5 -53.5 28.5h-72v-241c0 -8.66699 4 -13 12 -13h110c45.333 0 79.833 12.333 103.5 37s35.5 60 35.5 106h35v-182c-14.667 2 -46.667 3 -96 3h-392v38zM162 699.001v47h239v-47
h-239z" />
    <glyph glyph-name="emacron" unicode="&#x113;" horiz-adv-x="468" 
d="M392.5 385.5c36.333 -33 54.832 -79.834 55.499 -140.501v-37h-288c0 -57.333 10.5 -101 31.5 -131s52.5 -45.333 94.5 -46c31.333 0 58.333 7.83301 81 23.5s39.334 34.834 50.001 57.501l27 -19c-15.333 -32.667 -39.833 -58 -73.5 -76s-74.167 -27 -121.5 -27
c-79.333 0 -137.333 18 -174 54s-55 91.667 -55 167c0 76.667 19 133.167 57 169.5s94.667 54.5 170 54.5c60.667 0 109.167 -16.5 145.5 -49.5zM180.999 356.499c-13.333 -29.667 -20 -68.168 -20 -115.501h133c6.66699 0 11.667 2.33301 15 7s5 13.334 5 26.001
c0 43.333 -5.5 75.333 -16.5 96s-28.833 31 -53.5 31c-28.667 0 -49.667 -14.833 -63 -44.5zM122.999 564.998v47h239v-47h-239z" />
    <glyph glyph-name="Edotaccent" unicode="&#x116;" horiz-adv-x="571" 
d="M39 38l36 -2.99902c12 0 18 7.33301 18 22v484c0 6 -1.83301 11.167 -5.5 15.5s-8.5 6.16602 -14.5 5.49902l-34 -2v37h441c9.33301 0 15 0.333008 17 1v-155h-35c0 42 -11.333 72.333 -34 91s-58.667 28 -108 28h-77c-8 0 -12 -4.66699 -12 -14v-223h72
c22.667 0 41 9 55 27s21 42.667 21 74h34v-235h-34c0 28 -7.5 51.5 -22.5 70.5s-32.833 28.5 -53.5 28.5h-72v-241c0 -8.66699 4 -13 12 -13h110c45.333 0 79.833 12.333 103.5 37s35.5 60 35.5 106h35v-182c-14.667 2 -46.667 3 -96 3h-392v38zM226.5 789.501
c14.333 11.667 32.833 17.5 55.5 17.5c22 0 40.333 -5.83301 55 -17.5s22 -26.834 22 -45.501c0 -19.333 -7.16699 -34.666 -21.5 -45.999s-32.833 -17 -55.5 -17s-41.167 5.66699 -55.5 17s-21.5 26.666 -21.5 45.999c0 18.667 7.16699 33.834 21.5 45.501z" />
    <glyph glyph-name="edotaccent" unicode="&#x117;" horiz-adv-x="468" 
d="M392.5 385.5c36.333 -33 54.832 -79.834 55.499 -140.501v-37h-288c0 -57.333 10.5 -101 31.5 -131s52.5 -45.333 94.5 -46c31.333 0 58.333 7.83301 81 23.5s39.334 34.834 50.001 57.501l27 -19c-15.333 -32.667 -39.833 -58 -73.5 -76s-74.167 -27 -121.5 -27
c-79.333 0 -137.333 18 -174 54s-55 91.667 -55 167c0 76.667 19 133.167 57 169.5s94.667 54.5 170 54.5c60.667 0 109.167 -16.5 145.5 -49.5zM180.999 356.499c-13.333 -29.667 -20 -68.168 -20 -115.501h133c6.66699 0 11.667 2.33301 15 7s5 13.334 5 26.001
c0 43.333 -5.5 75.333 -16.5 96s-28.833 31 -53.5 31c-28.667 0 -49.667 -14.833 -63 -44.5zM187.499 645.498c14.333 11.667 32.833 17.5 55.5 17.5c22 0 40.333 -5.83301 55 -17.5s22 -26.834 22 -45.501c0 -19.333 -7.16699 -34.666 -21.5 -45.999s-32.833 -17 -55.5 -17
s-41.167 5.66699 -55.5 17s-21.5 26.666 -21.5 45.999c0 18.667 7.16699 33.834 21.5 45.501z" />
    <glyph glyph-name="Eogonek" unicode="&#x118;" horiz-adv-x="571" 
d="M556 -99c-16.667 -19.333 -35.167 -34.167 -55.5 -44.5s-41.166 -15.5 -62.499 -15.5c-22 0 -41 6.33301 -57 19s-24 30.334 -24 53.001c0 16.667 4.16699 32.5 12.5 47.5s20.833 28.167 37.5 39.5h-368v38l36 -3c12 0 18 7.33301 18 22v484
c0 6 -1.83301 11.167 -5.5 15.5s-8.5 6.16602 -14.5 5.49902l-34 -2v37h441c9.33301 0 15 0.333008 17 1v-155h-35c0 42 -11.333 72.333 -34 91s-58.667 28 -108 28h-77c-8 0 -12 -4.66699 -12 -14v-223h72c22.667 0 41 9 55 27s21 42.667 21 74h34v-235h-34
c0 28 -7.5 51.5 -22.5 70.5s-32.833 28.5 -53.5 28.5h-72v-241c0 -8.66699 4 -13 12 -13h110c45.333 0 79.833 12.333 103.5 37s35.5 60 35.5 106h35v-182c-12.667 2 -39.334 3 -80.001 3c-15.333 -14 -23 -32.333 -23 -55c0 -13.333 4.16699 -24.333 12.5 -33
s20.833 -13 37.5 -13c22.667 0 46 7 70 21z" />
    <glyph glyph-name="eogonek" unicode="&#x119;" horiz-adv-x="468" 
d="M448 208l-288.002 -0.00292969c0 -57.333 10.5 -101 31.5 -131s52.5 -45.333 94.5 -46c31.333 0 58.333 7.83301 81 23.5s39.334 34.834 50.001 57.501l27 -19c-18 -38.667 -48.667 -66.667 -92 -84c-12 -6.66699 -21.333 -16 -28 -28s-10 -25 -10 -39
c0 -13.333 4.16699 -24.333 12.5 -33s20.833 -13 37.5 -13c22.667 0 46 7 70 21l12 -19c-16.667 -19.333 -35.167 -34.166 -55.5 -44.499s-41.166 -15.5 -62.499 -15.5c-22 0 -41 6.33301 -57 19s-24 30.334 -24 53.001c0 32 14.667 59.667 44 83
c-12.667 -2 -26.667 -3 -42 -3c-79.333 0 -137.333 18 -174 54s-55 91.667 -55 167c0 76.667 19 133.167 57 169.5s94.667 54.5 170 54.5c60.667 0 109.167 -16.5 145.5 -49.5s54.833 -79.833 55.5 -140.5v-37zM308.998 247.997c3.33301 4.66699 5 13.333 5 26
c0 43.333 -5.5 75.333 -16.5 96s-28.833 31 -53.5 31c-28.667 0 -49.667 -14.833 -63 -44.5s-20 -68.167 -20 -115.5h133c6.66699 0 11.667 2.33301 15 7z" />
    <glyph glyph-name="Ecaron" unicode="&#x11a;" horiz-adv-x="571" 
d="M39 38l36 -2.99902c12 0 18 7.33301 18 22v484c0 6 -1.83301 11.167 -5.5 15.5s-8.5 6.16602 -14.5 5.49902l-34 -2v37h441c9.33301 0 15 0.333008 17 1v-155h-35c0 42 -11.333 72.333 -34 91s-58.667 28 -108 28h-77c-8 0 -12 -4.66699 -12 -14v-223h72
c22.667 0 41 9 55 27s21 42.667 21 74h34v-235h-34c0 28 -7.5 51.5 -22.5 70.5s-32.833 28.5 -53.5 28.5h-72v-241c0 -8.66699 4 -13 12 -13h110c45.333 0 79.833 12.333 103.5 37s35.5 60 35.5 106h35v-182c-14.667 2 -46.667 3 -96 3h-392v38zM138 824.001
c9.33301 0 20.333 -4 33 -12l111 -66l112 66c12.667 8 23.667 12 33 12c7.33301 0 11 -2.66699 11 -8c0 -2.66699 -2.66699 -6.83398 -8 -12.501s-12 -12.167 -20 -19.5c-20 -20 -36 -36.667 -48 -50l-23 -24l-24 -24c-10.667 -12 -21.667 -18 -33 -18c-10 0 -21 6 -33 18
l-24 24l-23 24c-12 13.333 -28 30 -48 50c-8 7.33301 -14.667 13.833 -20 19.5s-8 9.83398 -8 12.501c0 5.33301 4 8 12 8z" />
    <glyph glyph-name="ecaron" unicode="&#x11b;" horiz-adv-x="468" 
d="M392.5 385.5c36.333 -33 54.832 -79.834 55.499 -140.501v-37h-288c0 -57.333 10.5 -101 31.5 -131s52.5 -45.333 94.5 -46c31.333 0 58.333 7.83301 81 23.5s39.334 34.834 50.001 57.501l27 -19c-15.333 -32.667 -39.833 -58 -73.5 -76s-74.167 -27 -121.5 -27
c-79.333 0 -137.333 18 -174 54s-55 91.667 -55 167c0 76.667 19 133.167 57 169.5s94.667 54.5 170 54.5c60.667 0 109.167 -16.5 145.5 -49.5zM180.999 356.499c-13.333 -29.667 -20 -68.168 -20 -115.501h133c6.66699 0 11.667 2.33301 15 7s5 13.334 5 26.001
c0 43.333 -5.5 75.333 -16.5 96s-28.833 31 -53.5 31c-28.667 0 -49.667 -14.833 -63 -44.5zM98.999 661.998c9.33301 0 20.333 -4 33 -12l111 -66l112 66c12.667 8 23.667 12 33 12c7.33301 0 11 -2.66699 11 -8c0 -2.66699 -2.66699 -6.83398 -8 -12.501
s-12 -12.167 -20 -19.5c-20 -20 -36 -36.667 -48 -50l-23 -24l-24 -24c-10.667 -12 -21.667 -18 -33 -18c-10 0 -21 6 -33 18l-24 24l-23 24c-12 13.333 -28 30 -48 50c-8 7.33301 -14.667 13.833 -20 19.5s-8 9.83398 -8 12.501c0 5.33301 4 8 12 8z" />
    <glyph glyph-name="Gbreve" unicode="&#x11e;" horiz-adv-x="650" 
d="M111.5 528c54.333 52.667 131.499 79 231.499 79c28.667 0 54.334 -2.5 77.001 -7.5s49 -11.833 79 -20.5c12.667 -4 24.667 -7.5 36 -10.5s21 -4.5 29 -4.5c-2.66699 -17.333 -4 -37.333 -4 -60c0 -12 1.33301 -38 4 -78h-50c0.666992 4.66699 1 10.667 1 18
c-1.33301 41.333 -15.833 73.5 -43.5 96.5s-66.834 34.5 -117.501 34.5c-55.333 0 -98 -24.5 -128 -73.5s-45 -120.167 -45 -213.5c0 -175.333 54.333 -263 163 -263c20.667 0 38.667 3.16699 54 9.5s30 17.5 44 33.5v148c0 14.667 -6.33301 22 -19 22l-59 -2v36h267v-36
l-32 2c-6 0 -10.667 -2 -14 -6s-5 -9 -5 -15v-182c-6.66699 1.33301 -13 2 -19 2c-9.33301 0 -18.666 -1.33301 -27.999 -4s-21.333 -6.66699 -36 -12c-26.667 -9.33301 -52.167 -16.833 -76.5 -22.5s-52.833 -8.5 -85.5 -8.5c-95.333 0 -170 26 -224 78
s-81 128.333 -81 229c0 101.333 27.167 178.333 81.5 231zM426.999 695.5c-24.667 -24.333 -57.001 -36.5 -97.001 -36.5s-72.167 12.167 -96.5 36.5s-37.166 55.833 -38.499 94.5h46c4.66699 -18.667 14 -34.334 28 -47.001s34.333 -19 61 -19c26 0 46.333 6.33301 61 19
s24.667 28.334 30 47.001h45c-1.33301 -38.667 -14.333 -70.167 -39 -94.5z" />
    <glyph glyph-name="gbreve" unicode="&#x11f;" horiz-adv-x="511" 
d="M382 440c-10.667 -6 -19.332 -13.333 -25.999 -22c58 -22.667 87 -62.667 87 -120c0 -44 -17.667 -78.167 -53 -102.5s-83 -36.5 -143 -36.5c-28 0 -54.333 3 -79 9c-14 -12 -21 -24.333 -21 -37c0 -21.333 19.333 -32 58 -32h99c60.667 0 107 -11.833 139 -35.5
s48 -61.834 48 -114.501c0 -60.667 -23 -108.167 -69 -142.5s-108.333 -51.5 -187 -51.5c-63.333 0 -112.333 10.5 -147 31.5s-52 51.167 -52 90.5c0 49.333 33.333 88.666 100 117.999c-26 5.33301 -46.833 14.833 -62.5 28.5s-23.5 30.834 -23.5 51.501
c0 14 3.33301 26.667 10 38s19 25 37 41l31 27c-52.667 23.333 -79 61.333 -79 114c0 44 18.167 78.333 54.5 103s84.5 37 144.5 37c30 0 56 -2.66699 78 -8c42 55.333 83.667 83 125 83c22 0 37.667 -5.16699 47 -15.5s14 -22.166 14 -35.499
c0 -11.333 -3.33301 -21.666 -10 -30.999s-17.334 -14 -32.001 -14c-10 0 -17.333 1.66699 -22 5s-9.66699 8.33301 -15 15c-4 5.33301 -7.5 9.16602 -10.5 11.499s-7.16699 3.5 -12.5 3.5c-8 0 -17.333 -3 -28 -9zM294.502 213.5c9.66699 16.333 14.5 43.499 14.5 81.499
s-4.83301 65.167 -14.5 81.5s-26.167 24.5 -49.5 24.5c-22.667 0 -38.667 -7.83301 -48 -23.5s-14 -43.5 -14 -83.5c0 -39.333 4.5 -66.666 13.5 -81.999s24.833 -23 47.5 -23c24 0 40.833 8.16699 50.5 24.5zM189.002 -11.001h-1.99902
c-16.667 -6.66699 -30.667 -19.834 -42 -39.501s-17 -40.834 -17 -63.501c0 -30.667 9.33301 -54.667 28 -72s47.667 -26 87 -26c42.667 0 76.5 11.333 101.5 34s37.5 52.334 37.5 89.001c0 26.667 -7.33301 46.334 -22 59.001s-38.334 19 -71.001 19h-100zM346.003 552.499
c-24.667 -24.333 -57.001 -36.5 -97.001 -36.5s-72.167 12.167 -96.5 36.5s-37.166 55.833 -38.499 94.5h46c4.66699 -18.667 14 -34.334 28 -47.001s34.333 -19 61 -19c26 0 46.333 6.33301 61 19s24.667 28.334 30 47.001h45c-1.33301 -38.667 -14.333 -70.167 -39 -94.5z
" />
    <glyph glyph-name="Gcommaaccent" unicode="&#x122;" horiz-adv-x="650" 
d="M111.5 528c54.333 52.667 131.499 79 231.499 79c28.667 0 54.334 -2.5 77.001 -7.5s49 -11.833 79 -20.5c12.667 -4 24.667 -7.5 36 -10.5s21 -4.5 29 -4.5c-2.66699 -17.333 -4 -37.333 -4 -60c0 -12 1.33301 -38 4 -78h-50c0.666992 4.66699 1 10.667 1 18
c-1.33301 41.333 -15.833 73.5 -43.5 96.5s-66.834 34.5 -117.501 34.5c-55.333 0 -98 -24.5 -128 -73.5s-45 -120.167 -45 -213.5c0 -175.333 54.333 -263 163 -263c20.667 0 38.667 3.16699 54 9.5s30 17.5 44 33.5v148c0 14.667 -6.33301 22 -19 22l-59 -2v36h267v-36
l-32 2c-6 0 -10.667 -2 -14 -6s-5 -9 -5 -15v-182c-6.66699 1.33301 -13 2 -19 2c-9.33301 0 -18.666 -1.33301 -27.999 -4s-21.333 -6.66699 -36 -12c-26.667 -9.33301 -52.167 -16.833 -76.5 -22.5s-52.833 -8.5 -85.5 -8.5c-95.333 0 -170 26 -224 78
s-81 128.333 -81 229c0 101.333 27.167 178.333 81.5 231zM327.499 -200c9.66699 11.333 14.4971 21.333 14.4971 30c0 19.333 -9.33301 29 -28 29c-12.667 0 -22.667 4.83301 -30 14.5s-11 21.167 -11 34.5c0 15.333 5.33301 28.833 16 40.5s26.334 17.5 47.001 17.5
c23.333 0 42.333 -7.66699 57 -23s22 -33.333 22 -54c0 -30 -9.66699 -57.333 -29 -82s-42.666 -44 -69.999 -58l-22 22c12.667 8 23.834 17.667 33.501 29z" />
    <glyph glyph-name="gcommaaccent" unicode="&#x123;" horiz-adv-x="511" 
d="M183 514c-14.667 15.333 -21.9971 33.333 -21.9971 54c0 30 9.66699 57.333 29 82s42.666 44 69.999 58l22 -22c-12.667 -8 -23.834 -17.667 -33.501 -29s-14.5 -21.333 -14.5 -30c0 -19.333 9.33301 -29 28 -29c12.667 0 22.667 -4.83301 30 -14.5s11 -21.167 11 -34.5
c0 -15.333 -5.33301 -28.833 -16 -40.5s-26.334 -17.5 -47.001 -17.5c-23.333 0 -42.333 7.66699 -57 23zM382.003 440c-10.667 -6 -19.332 -13.333 -25.999 -22c58 -22.667 87 -62.667 87 -120c0 -44 -17.667 -78.167 -53 -102.5s-83 -36.5 -143 -36.5
c-28 0 -54.333 3 -79 9c-14 -12 -21 -24.333 -21 -37c0 -21.333 19.333 -32 58 -32h99c60.667 0 107 -11.833 139 -35.5s48 -61.834 48 -114.501c0 -60.667 -23 -108.167 -69 -142.5s-108.333 -51.5 -187 -51.5c-63.333 0 -112.333 10.5 -147 31.5s-52 51.167 -52 90.5
c0 49.333 33.333 88.666 100 117.999c-26 5.33301 -46.833 14.833 -62.5 28.5s-23.5 30.834 -23.5 51.501c0 14 3.33301 26.667 10 38s19 25 37 41l31 27c-52.667 23.333 -79 61.333 -79 114c0 44 18.167 78.333 54.5 103s84.5 37 144.5 37c30 0 56 -2.66699 78 -8
c42 55.333 83.667 83 125 83c22 0 37.667 -5.16699 47 -15.5s14 -22.166 14 -35.499c0 -11.333 -3.33301 -21.666 -10 -30.999s-17.334 -14 -32.001 -14c-10 0 -17.333 1.66699 -22 5s-9.66699 8.33301 -15 15c-4 5.33301 -7.5 9.16602 -10.5 11.499s-7.16699 3.5 -12.5 3.5
c-8 0 -17.333 -3 -28 -9zM294.505 213.5c9.66699 16.333 14.5 43.499 14.5 81.499s-4.83301 65.167 -14.5 81.5s-26.167 24.5 -49.5 24.5c-22.667 0 -38.667 -7.83301 -48 -23.5s-14 -43.5 -14 -83.5c0 -39.333 4.5 -66.666 13.5 -81.999s24.833 -23 47.5 -23
c24 0 40.833 8.16699 50.5 24.5zM189.005 -11.001h-1.99902c-16.667 -6.66699 -30.667 -19.834 -42 -39.501s-17 -40.834 -17 -63.501c0 -30.667 9.33301 -54.667 28 -72s47.667 -26 87 -26c42.667 0 76.5 11.333 101.5 34s37.5 52.334 37.5 89.001
c0 26.667 -7.33301 46.334 -22 59.001s-38.334 19 -71.001 19h-100z" />
    <glyph glyph-name="Imacron" unicode="&#x12a;" horiz-adv-x="325" 
d="M39 37l34.999 -1.99902h2c11.333 0 17 7.33301 17 22v484c0 6 -1.66699 11.167 -5 15.5s-8 6.16602 -14 5.49902l-35 -2v37h247v-37l-35 2h-2c-5.33301 0 -9.66602 -2 -12.999 -6s-5 -9 -5 -15v-484c0 -16 6.66699 -23.333 20 -22l35 2v-37h-247v37zM42.999 699.001v47
h239v-47h-239z" />
    <glyph glyph-name="imacron" unicode="&#x12b;" horiz-adv-x="263" 
d="M197 51c0 -13.333 4.33301 -19.667 13 -19l33 2v-34h-223v34l33 -2h2c7.33301 0 11 6.33301 11 19v323c0 11.333 -4 18 -12 20l-33 -2v33h176v-374zM8 564.999v47h239v-47h-239z" />
    <glyph glyph-name="Iogonek" unicode="&#x12e;" horiz-adv-x="325" 
d="M338 -102c-16.667 -19.333 -35.1689 -34.167 -55.502 -44.5s-41.166 -15.5 -62.499 -15.5c-22 0 -41 6.33301 -57 19s-24 30.334 -24 53.001c0 17.333 4.66699 33.833 14 49.5s23 29.167 41 40.5h-155v37l35 -2h2c11.333 0 17 7.33301 17 22v484
c0 6 -1.66699 11.167 -5 15.5s-8 6.16602 -14 5.49902l-35 -2v37h247v-37l-35 2h-2c-5.33301 0 -9.66602 -2 -12.999 -6s-5 -9 -5 -15v-484c0 -16 6.66699 -23.333 20 -22l35 2v-37h-54c-17.333 -14 -26 -33.333 -26 -58c0 -13.333 4.16699 -24.333 12.5 -33
s20.833 -13 37.5 -13c22.667 0 46 7 70 21z" />
    <glyph glyph-name="iogonek" unicode="&#x12f;" horiz-adv-x="263" 
d="M72.5 554c-14.333 11.333 -21.5 26.666 -21.5 45.999c0 18.667 7.16699 33.834 21.5 45.501s32.833 17.5 55.5 17.5c22 0 40.333 -5.83301 55 -17.5s22 -26.834 22 -45.501c0 -19.333 -7.16699 -34.666 -21.5 -45.999s-32.833 -17 -55.5 -17s-41.167 5.66699 -55.5 17z
M302 -100c-16.667 -19.333 -35.168 -34.167 -55.501 -44.5s-41.166 -15.5 -62.499 -15.5c-22 0 -41 6.33301 -57 19s-24 30.334 -24 53.001c0 16.667 4.33301 32.667 13 48s21.667 28.666 39 39.999h-135v34l33 -2h2c7.33301 0 11 6.33301 11 19v323c0 11.333 -4 18 -12 20
l-33 -2v33h176v-374c0 -13.333 4.33301 -19.666 13 -18.999l33 2v-34h-49c-16 -14.667 -24 -33.334 -24 -56.001c0 -13.333 4.16699 -24.333 12.5 -33s20.833 -13 37.5 -13c22.667 0 46 7 70 21z" />
    <glyph glyph-name="Idotaccent" unicode="&#x130;" horiz-adv-x="325" 
d="M39 37l34.999 -1.99902h2c11.333 0 17 7.33301 17 22v484c0 6 -1.66699 11.167 -5 15.5s-8 6.16602 -14 5.49902l-35 -2v37h247v-37l-35 2h-2c-5.33301 0 -9.66602 -2 -12.999 -6s-5 -9 -5 -15v-484c0 -16 6.66699 -23.333 20 -22l35 2v-37h-247v37zM107.499 789.501
c14.333 11.667 32.833 17.5 55.5 17.5c22 0 40.333 -5.83301 55 -17.5s22 -26.834 22 -45.501c0 -19.333 -7.16699 -34.666 -21.5 -45.999s-32.833 -17 -55.5 -17s-41.167 5.66699 -55.5 17s-21.5 26.666 -21.5 45.999c0 18.667 7.16699 33.834 21.5 45.501z" />
    <glyph glyph-name="dotlessi" unicode="&#x131;" horiz-adv-x="263" 
d="M197 51c0 -13.333 4.33301 -19.667 13 -19l33 2v-34h-223v34l33 -2h2c7.33301 0 11 6.33301 11 19v323c0 11.333 -4 18 -12 20l-33 -2v33h176v-374z" />
    <glyph glyph-name="IJ" unicode="&#x132;" horiz-adv-x="784" 
d="M39 37l34.999 -1.99902h2c11.333 0 17 7.33301 17 22v484c0 6 -1.66699 11.167 -5 15.5s-8 6.16602 -14 5.49902l-35 -2v37h247v-37l-35 2h-2c-5.33301 0 -9.66602 -2 -12.999 -6s-5 -9 -5 -15v-484c0 -16 6.66699 -23.333 20 -22l35 2v-37h-247v37zM348.999 172.001
l43.999 0.000976562c0 -36.667 6.66699 -70.5 20 -101.5s35 -46.5 65 -46.5c28.667 0 49.167 11.667 61.5 35s18.5 63.333 18.5 120v362c0 6 -1.83301 11.167 -5.5 15.5s-8.16699 6.16602 -13.5 5.49902l-69 -2v37h280v-37l-34 2h-2c-5.33301 0 -9.66602 -2 -12.999 -6
s-5 -8.66699 -5 -14v-363c0 -126 -65 -189 -195 -189c-18.667 0 -44.667 3 -78 9c-20 4 -33 6 -39 6h-8c-14 0 -23 -2 -27 -6v173z" />
    <glyph glyph-name="ij" unicode="&#x133;" horiz-adv-x="525" 
d="M184.5 640c14.333 -11.333 21.5 -26.333 21.5 -45c0 -19.333 -7.16699 -34.666 -21.5 -45.999s-32.833 -17 -55.5 -17s-41.167 5.66699 -55.5 17s-21.5 26.666 -21.5 45.999c0 18.667 7.16699 33.667 21.5 45s32.833 17 55.5 17s41.167 -5.66699 55.5 -17zM197 51
c0 -13.333 4.33301 -19.667 13 -19l33 2v-34h-223v34l33 -2h2c7.33301 0 11 6.33301 11 19v323c0 11.333 -4 18 -12 20l-33 -2v33h176v-374zM448 639.999c14.667 -11.333 21.998 -26.334 21.998 -45.001c0 -19.333 -7.16699 -34.666 -21.5 -45.999s-33.166 -17 -56.499 -17
c-22.667 0 -41 5.5 -55 16.5s-21 26.5 -21 46.5c0 18.667 7 33.667 21 45s32.333 17 55 17s41.334 -5.66699 56.001 -17zM459.998 -12.002c0 -78.667 -13.165 -136.831 -39.498 -174.498s-65.833 -56.5 -118.5 -56.5c-40.667 0 -72.334 7 -95.001 21s-34 32.667 -34 56
c0 17.333 5.66699 31.333 17 42s26.666 16 45.999 16c12 0 24.167 -3.33301 36.5 -10s18.5 -18.334 18.5 -35.001c0 -3.33301 -1 -8.66602 -3 -15.999s-3 -12.333 -3 -15c0 -16.667 7.33301 -25 22 -25c10 0 17.833 4.83301 23.5 14.5s8.5 21.5 8.5 35.5
c0 7.33301 -1 17.666 -3 30.999c-4.66699 31.333 -7 61.666 -7 90.999v411c0 6 -1.16699 11 -3.5 15s-5.5 5.66699 -9.5 5l-33 -2v33h177v-437z" />
    <glyph glyph-name="Kcommaaccent" unicode="&#x136;" horiz-adv-x="639" 
d="M633 37l0.00195312 -37.001h-285v37l43 -3h3c11.333 0 17 3.66699 17 11c0 4.66699 -1.66699 9.33398 -5 14.001l-139 207l-36 -42v-167c0 -16 6.66699 -23.333 20 -22l45 2v-37h-257v37l35 -2h2c11.333 0 17 7.33301 17 22v484c0 6.66699 -1.66699 12 -5 16
s-8 5.66699 -14 5l-35 -2v37h261v-37l-49 2c-13.333 0 -20 -7.33301 -20 -22v-262l209 248c11.333 13.333 17 22.333 17 27c0 6 -3.33301 9 -10 9l-36 -2v37h180v-37l-34 2c-10.667 0.666992 -20.334 -1 -29.001 -5s-18.334 -12 -29.001 -24l-139 -161l219 -324
c6 -9.33301 14 -14 24 -14c11.333 0 21.333 1 30 3zM319.502 -200.001c9.66699 11.333 14.4971 21.333 14.4971 30c0 19.333 -9.33301 29 -28 29c-12.667 0 -22.667 4.83301 -30 14.5s-11 21.167 -11 34.5c0 15.333 5.33301 28.833 16 40.5s26.334 17.5 47.001 17.5
c23.333 0 42.333 -7.66699 57 -23s22 -33.333 22 -54c0 -30 -9.66699 -57.333 -29 -82s-42.666 -44 -69.999 -58l-22 22c12.667 8 23.834 17.667 33.501 29z" />
    <glyph glyph-name="kcommaaccent" unicode="&#x137;" horiz-adv-x="524" 
d="M517 34l0.00195312 -34.001h-241v34l34 -2h2c4.66699 0 7.5 1.33301 8.5 4s0.5 6 -1.5 10l-99 169l-23 -19v-145c0 -13.333 4.33301 -19.666 13 -18.999l35 2v-34h-225v34l33 -2c8.66699 2 13 8.33301 13 19v628c0 14 -4 21 -12 21l-33 -2v32h176v-492l160 137
c4 4 6 8.33301 6 13c0 2 -0.833008 3.83301 -2.5 5.5s-3.83398 2.16699 -6.50098 1.5l-43 -2v32h170v-32l-36 2c-10 0 -20.333 -4.66699 -31 -14l-97 -83l144 -248c3.33301 -5.33301 7.66602 -9.83301 12.999 -13.5s10 -5.16699 14 -4.5zM256.502 -200.001
c9.66699 11.333 14.4971 21.333 14.4971 30c0 19.333 -9.33301 29 -28 29c-12.667 0 -22.667 4.83301 -30 14.5s-11 21.167 -11 34.5c0 15.333 5.33301 28.833 16 40.5s26.334 17.5 47.001 17.5c23.333 0 42.333 -7.66699 57 -23s22 -33.333 22 -54
c0 -30 -9.66699 -57.333 -29 -82s-42.666 -44 -69.999 -58l-22 22c12.667 8 23.834 17.667 33.501 29z" />
    <glyph glyph-name="Lacute" unicode="&#x139;" horiz-adv-x="514" 
d="M39 38l38.999 -2.99902c10 0 15 7.33301 15 22v484c0 6 -1.83301 11.167 -5.5 15.5s-8.16699 6.16602 -13.5 5.49902l-35 -2v37h261v-37l-49 2h-2c-5.33301 0 -9.66602 -2 -12.999 -6s-5 -9 -5 -15v-492c0 -8.66699 4 -13 12 -13h83c43.333 0 76.333 11.5 99 34.5
s34 56.5 34 100.5h33v-174c-12 2 -53.333 3 -124 3h-329v38zM312.999 771.001l-167.001 -102c-8.66699 -6 -16.667 -9 -24 -9s-11 3.33301 -11 10s5.33301 15.667 16 27l95 104c10 11.333 16.833 18.333 20.5 21s8.83398 4 15.501 4c12 0 26.333 -4.5 43 -13.5
s25 -16.833 25 -23.5c0 -5.33301 -4.33301 -11.333 -13 -18z" />
    <glyph glyph-name="lacute" unicode="&#x13a;" horiz-adv-x="263" 
d="M259 820l-178 -64.999c-6.66699 -2.66699 -12.667 -4 -18 -4c-10.667 0 -16 3.66699 -16 11c0 4 1.33301 7.5 4 10.5s8 7.16699 16 12.5l113 83c8 6 14.167 10 18.5 12s8.5 3 12.5 3c10 0 23.167 -5.83301 39.5 -17.5s24.5 -21.834 24.5 -30.501
c0 -6 -5.33301 -11 -16 -15zM20 34.001l33 -2.00098c8.66699 2 13 8.33301 13 19v629c0 11.333 -4 18.333 -12 21l-33 -2v32h176v-680c0 -13.333 4.33301 -19.666 13 -18.999l33 2v-34h-223v34z" />
    <glyph glyph-name="Lcommaaccent" unicode="&#x13b;" horiz-adv-x="514" 
d="M39 38l38.999 -2.99902c10 0 15 7.33301 15 22v484c0 6 -1.83301 11.167 -5.5 15.5s-8.16699 6.16602 -13.5 5.49902l-35 -2v37h261v-37l-49 2h-2c-5.33301 0 -9.66602 -2 -12.999 -6s-5 -9 -5 -15v-492c0 -8.66699 4 -13 12 -13h83c43.333 0 76.333 11.5 99 34.5
s34 56.5 34 100.5h33v-174c-12 2 -53.333 3 -124 3h-329v38zM253.499 -199.999c9.66699 11.333 14.4971 21.333 14.4971 30c0 19.333 -9.33301 29 -28 29c-12.667 0 -22.667 4.83301 -30 14.5s-11 21.167 -11 34.5c0 15.333 5.33301 28.833 16 40.5s26.334 17.5 47.001 17.5
c23.333 0 42.333 -7.66699 57 -23s22 -33.333 22 -54c0 -30 -9.66699 -57.333 -29 -82s-42.666 -44 -69.999 -58l-22 22c12.667 8 23.834 17.667 33.501 29z" />
    <glyph glyph-name="lcommaaccent" unicode="&#x13c;" horiz-adv-x="263" 
d="M20 34l33 -2.00098c8.66699 2 13 8.33301 13 19v629c0 11.333 -4 18.333 -12 21l-33 -2v32h176v-680c0 -13.333 4.33301 -19.666 13 -18.999l33 2v-34h-223v34zM124.5 -200.001c9.66699 11.333 14.4971 21.333 14.4971 30c0 19.333 -9.33301 29 -28 29
c-12.667 0 -22.667 4.83301 -30 14.5s-11 21.167 -11 34.5c0 15.333 5.33301 28.833 16 40.5s26.334 17.5 47.001 17.5c23.333 0 42.333 -7.66699 57 -23s22 -33.333 22 -54c0 -30 -9.66699 -57.333 -29 -82s-42.666 -44 -69.999 -58l-22 22
c12.667 8 23.834 17.667 33.501 29z" />
    <glyph glyph-name="Lcaron" unicode="&#x13d;" horiz-adv-x="514" 
d="M39 38l38.999 -2.99902c10 0 15 7.33301 15 22v484c0 6 -1.83301 11.167 -5.5 15.5s-8.16699 6.16602 -13.5 5.49902l-35 -2v37h261v-37l-49 2h-2c-5.33301 0 -9.66602 -2 -12.999 -6s-5 -9 -5 -15v-492c0 -8.66699 4 -13 12 -13h83c43.333 0 76.333 11.5 99 34.5
s34 56.5 34 100.5h33v-174c-12 2 -53.333 3 -124 3h-329v38zM425.999 477.001c7.33301 9.33301 11 18.6641 11 27.9971c0 14 -7 21 -21 21c-11.333 0 -20.5 3.83301 -27.5 11.5s-10.5 17.834 -10.5 30.501c0 16.667 5.83301 30 17.5 40s26.5 15 44.5 15
c20 0 36.667 -6.5 50 -19.5s20 -29.833 20 -50.5c0 -25.333 -8.83301 -49.166 -26.5 -71.499s-38.5 -39.166 -62.5 -50.499l-21 22c10 6.66699 18.667 14.667 26 24z" />
    <glyph glyph-name="lcaron" unicode="&#x13e;" horiz-adv-x="263" 
d="M239 477c7.33301 9.33301 11.001 18.666 11.001 27.999c0 14 -7 21 -21 21c-6.66699 0 -12.834 1.66699 -18.501 5s-10.167 7.66602 -13.5 12.999v-493c0 -13.333 4.33301 -19.666 13 -18.999l33 2v-34h-223v34l33 -2c8.66699 2 13 8.33301 13 19v629
c0 11.333 -4 18.333 -12 21l-33 -2v32h176v-138c4.66699 9.33301 12 16.666 22 21.999s21.333 8 34 8c20 0 36.667 -6.5 50 -19.5s20 -29.833 20 -50.5c0 -25.333 -8.83301 -49.166 -26.5 -71.499s-38.5 -39.166 -62.5 -50.499l-21 22c10 6.66699 18.667 14.667 26 24z" />
    <glyph glyph-name="Ldot" unicode="&#x13f;" horiz-adv-x="514" 
d="M39 38l38.999 -2.99902c10 0 15 7.33301 15 22v484c0 6 -1.83301 11.167 -5.5 15.5s-8.16699 6.16602 -13.5 5.49902l-35 -2v37h261v-37l-49 2h-2c-5.33301 0 -9.66602 -2 -12.999 -6s-5 -9 -5 -15v-492c0 -8.66699 4 -13 12 -13h83c43.333 0 76.333 11.5 99 34.5
s34 56.5 34 100.5h33v-174c-12 2 -53.333 3 -124 3h-329v38zM350.999 398.501c17.333 13.667 39.333 20.5 66 20.5c27.333 0 49.666 -6.83301 66.999 -20.5s26 -31.834 26 -54.501c0 -23.333 -8.66699 -41.666 -26 -54.999s-39.666 -20 -66.999 -20s-49.5 6.66699 -66.5 20
s-25.5 31.666 -25.5 54.999c0 22.667 8.66699 40.834 26 54.501z" />
    <glyph glyph-name="ldot" unicode="&#x140;" horiz-adv-x="263" 
d="M20 34l33 -2.00098c8.66699 2 13 8.33301 13 19v629c0 11.333 -4 18.333 -12 21l-33 -2v32h176v-680c0 -13.333 4.33301 -19.666 13 -18.999l33 2v-34h-223v34zM236.5 399.499c12.333 11.667 28.166 17.5 47.499 17.5c18.667 0 34.167 -5.83301 46.5 -17.5
s18.5 -26.834 18.5 -45.501c0 -19.333 -6 -34.666 -18 -45.999s-27.667 -17 -47 -17s-35.166 5.66699 -47.499 17s-18.5 26.666 -18.5 45.999c0 18.667 6.16699 33.834 18.5 45.501z" />
    <glyph glyph-name="Lslash" unicode="&#x141;" horiz-adv-x="514" 
d="M492 171l-0.000976562 -173.999c-12 2 -53.333 3 -124 3h-329v38l39 -3c10 0 15 7.33301 15 22v147l-43 -36v52l43 36v285c0 6 -1.83301 11.167 -5.5 15.5s-8.16699 6.16602 -13.5 5.49902l-35 -2v37h261v-37l-49 2h-2c-5.33301 0 -9.66602 -2 -12.999 -6s-5 -9 -5 -15
v-176l106 89v-55l-106 -87v-263c0 -8.66699 4 -13 12 -13h83c43.333 0 76.333 11.5 99 34.5s34 56.5 34 100.5h33z" />
    <glyph glyph-name="lslash" unicode="&#x142;" horiz-adv-x="263" 
d="M197 429v-378.001c0 -13.333 4.33301 -19.666 13 -18.999l33 2v-34h-223v34l33 -2c8.66699 2 13 8.33301 13 19v277l-56 -47v52l56 47v300c0 11.333 -4 18.333 -12 21l-33 -2v32h176v-249l57 48v-54z" />
    <glyph glyph-name="Nacute" unicode="&#x143;" horiz-adv-x="677" 
d="M643 597v-29.999l-39 2h-2c-11.333 0 -17 -7 -17 -21v-554h-60l-391 531v-476c0 -14.667 6.33301 -22 19 -22l49 2v-29h-168v29l39 -2c13.333 0 20 7.33301 20 22v499c0 6 -1.83301 11.167 -5.5 15.5s-8.5 6.16602 -14.5 5.49902l-39 -2v30h206l304 -414v366
c0 13.333 -5.66699 20 -17 20h-3l-49 -2v30h168zM478 771.001l-167.001 -102c-8.66699 -6 -16.667 -9 -24 -9s-11 3.33301 -11 10s5.33301 15.667 16 27l95 104c10 11.333 16.833 18.333 20.5 21s8.83398 4 15.501 4c12 0 26.333 -4.5 43 -13.5s25 -16.833 25 -23.5
c0 -5.33301 -4.33301 -11.333 -13 -18z" />
    <glyph glyph-name="nacute" unicode="&#x144;" horiz-adv-x="539" 
d="M528 34l-0.000976562 -33.999h-228v34l38 -2c8.66699 2 13 8.33301 13 19v242c0 34.667 -2.83301 59.167 -8.5 73.5s-18.5 21.5 -38.5 21.5c-17.333 0 -34.166 -7.33301 -50.499 -22s-29.833 -36.334 -40.5 -65.001s-16 -63 -16 -103v-147c0 -12.667 4.33301 -19 13 -19
l39 2v-34h-229v34l33 -2c8.66699 2 13 8.33301 13 19v323c0 11.333 -4.33301 18 -13 20l-33 -2v33h182c-3.33301 -10 -5 -21.667 -5 -35v-56c14.667 32 35.167 56.833 61.5 74.5s57.5 26.5 93.5 26.5c45.333 0 78.333 -11.5 99 -34.5s31 -59.167 31 -108.5v-241
c0 -12.667 4.33301 -19 13 -19zM408.999 603.001l-167.001 -102c-8.66699 -6 -16.667 -9 -24 -9s-11 3.33301 -11 10s5.33301 15.667 16 27l95 104c10 11.333 16.833 18.333 20.5 21s8.83398 4 15.501 4c12 0 26.333 -4.5 43 -13.5s25 -16.833 25 -23.5
c0 -5.33301 -4.33301 -11.333 -13 -18z" />
    <glyph glyph-name="Ncommaaccent" unicode="&#x145;" horiz-adv-x="677" 
d="M643 597v-29.999l-39 2h-2c-11.333 0 -17 -7 -17 -21v-554h-60l-391 531v-476c0 -14.667 6.33301 -22 19 -22l49 2v-29h-168v29l39 -2c13.333 0 20 7.33301 20 22v499c0 6 -1.83301 11.167 -5.5 15.5s-8.5 6.16602 -14.5 5.49902l-39 -2v30h206l304 -414v366
c0 13.333 -5.66699 20 -17 20h-3l-49 -2v30h168zM338.5 -199.999c9.66699 11.333 14.4971 21.333 14.4971 30c0 19.333 -9.33301 29 -28 29c-12.667 0 -22.667 4.83301 -30 14.5s-11 21.167 -11 34.5c0 15.333 5.33301 28.833 16 40.5s26.334 17.5 47.001 17.5
c23.333 0 42.333 -7.66699 57 -23s22 -33.333 22 -54c0 -30 -9.66699 -57.333 -29 -82s-42.666 -44 -69.999 -58l-22 22c12.667 8 23.834 17.667 33.501 29z" />
    <glyph glyph-name="ncommaaccent" unicode="&#x146;" horiz-adv-x="539" 
d="M528 34l-0.000976562 -33.999h-228v34l38 -2c8.66699 2 13 8.33301 13 19v242c0 34.667 -2.83301 59.167 -8.5 73.5s-18.5 21.5 -38.5 21.5c-17.333 0 -34.166 -7.33301 -50.499 -22s-29.833 -36.334 -40.5 -65.001s-16 -63 -16 -103v-147c0 -12.667 4.33301 -19 13 -19
l39 2v-34h-229v34l33 -2c8.66699 2 13 8.33301 13 19v323c0 11.333 -4.33301 18 -13 20l-33 -2v33h182c-3.33301 -10 -5 -21.667 -5 -35v-56c14.667 32 35.167 56.833 61.5 74.5s57.5 26.5 93.5 26.5c45.333 0 78.333 -11.5 99 -34.5s31 -59.167 31 -108.5v-241
c0 -12.667 4.33301 -19 13 -19zM270.499 -199.999c9.66699 11.333 14.4971 21.333 14.4971 30c0 19.333 -9.33301 29 -28 29c-12.667 0 -22.667 4.83301 -30 14.5s-11 21.167 -11 34.5c0 15.333 5.33301 28.833 16 40.5s26.334 17.5 47.001 17.5
c23.333 0 42.333 -7.66699 57 -23s22 -33.333 22 -54c0 -30 -9.66699 -57.333 -29 -82s-42.666 -44 -69.999 -58l-22 22c12.667 8 23.834 17.667 33.501 29z" />
    <glyph glyph-name="Ncaron" unicode="&#x147;" horiz-adv-x="677" 
d="M643 597v-29.999l-39 2h-2c-11.333 0 -17 -7 -17 -21v-554h-60l-391 531v-476c0 -14.667 6.33301 -22 19 -22l49 2v-29h-168v29l39 -2c13.333 0 20 7.33301 20 22v499c0 6 -1.83301 11.167 -5.5 15.5s-8.5 6.16602 -14.5 5.49902l-39 -2v30h206l304 -414v366
c0 13.333 -5.66699 20 -17 20h-3l-49 -2v30h168zM198 824.001c9.33301 0 20.333 -4 33 -12l111 -66l112 66c12.667 8 23.667 12 33 12c7.33301 0 11 -2.66699 11 -8c0 -2.66699 -2.66699 -6.83398 -8 -12.501s-12 -12.167 -20 -19.5c-20 -20 -36 -36.667 -48 -50l-23 -24
l-24 -24c-10.667 -12 -21.667 -18 -33 -18c-10 0 -21 6 -33 18l-24 24l-23 24c-12 13.333 -28 30 -48 50c-8 7.33301 -14.667 13.833 -20 19.5s-8 9.83398 -8 12.501c0 5.33301 4 8 12 8z" />
    <glyph glyph-name="ncaron" unicode="&#x148;" horiz-adv-x="539" 
d="M528 34l-0.000976562 -33.999h-228v34l38 -2c8.66699 2 13 8.33301 13 19v242c0 34.667 -2.83301 59.167 -8.5 73.5s-18.5 21.5 -38.5 21.5c-17.333 0 -34.166 -7.33301 -50.499 -22s-29.833 -36.334 -40.5 -65.001s-16 -63 -16 -103v-147c0 -12.667 4.33301 -19 13 -19
l39 2v-34h-229v34l33 -2c8.66699 2 13 8.33301 13 19v323c0 11.333 -4.33301 18 -13 20l-33 -2v33h182c-3.33301 -10 -5 -21.667 -5 -35v-56c14.667 32 35.167 56.833 61.5 74.5s57.5 26.5 93.5 26.5c45.333 0 78.333 -11.5 99 -34.5s31 -59.167 31 -108.5v-241
c0 -12.667 4.33301 -19 13 -19zM129.999 662.001c9.33301 0 20.333 -4 33 -12l111 -66l112 66c12.667 8 23.667 12 33 12c7.33301 0 11 -2.66699 11 -8c0 -2.66699 -2.66699 -6.83398 -8 -12.501s-12 -12.167 -20 -19.5c-20 -20 -36 -36.667 -48 -50l-23 -24l-24 -24
c-10.667 -12 -21.667 -18 -33 -18c-10 0 -21 6 -33 18l-24 24l-23 24c-12 13.333 -28 30 -48 50c-8 7.33301 -14.667 13.833 -20 19.5s-8 9.83398 -8 12.501c0 5.33301 4 8 12 8z" />
    <glyph glyph-name="Omacron" unicode="&#x14c;" horiz-adv-x="678" 
d="M111 527.5c54 53 130.001 79.5 228.001 79.5c99.333 0 175.666 -27 228.999 -81s80 -129.667 80 -227c0 -98 -27 -174 -81 -228s-130 -81 -228 -81s-174 27 -228 81s-81 130 -81 228c0 99.333 27 175.5 81 228.5zM198.001 134.5
c11.333 -39.667 28.333 -67.834 51 -84.501s52.667 -25 90 -25s67.333 8.33301 90 25s39.667 44.834 51 84.501s17 94.5 17 164.5c0 69.333 -5.66699 124 -17 164s-28.333 68.333 -51 85s-52.667 25 -90 25s-67.333 -8.33301 -90 -25s-39.667 -45 -51 -85
s-17 -94.667 -17 -164c0 -70 5.66699 -124.833 17 -164.5zM219.001 699v47h239v-47h-239z" />
    <glyph glyph-name="omacron" unicode="&#x14d;" horiz-adv-x="487" 
d="M76 378c37.333 38 93.333 57 168 57c75.333 0 131.333 -19 168 -57s55 -93 55 -165c0 -148.667 -74.333 -223 -223 -223c-74.667 0 -130.667 19 -168 57s-56 93.333 -56 166c0 72 18.667 127 56 165zM179.5 67.5c13 -28.333 34.5 -42.501 64.5 -42.501s51.333 14 64 42
s19 76 19 144c0 69.333 -6.33301 118.333 -19 147s-34 43 -64 43s-51.5 -14.333 -64.5 -43s-19.5 -77.667 -19.5 -147c0 -67.333 6.5 -115.166 19.5 -143.499zM124 564.999v47h239v-47h-239z" />
    <glyph glyph-name="Ohungarumlaut" unicode="&#x150;" horiz-adv-x="678" 
d="M111 527.5c54 53 130.001 79.5 228.001 79.5c99.333 0 175.666 -27 228.999 -81s80 -129.667 80 -227c0 -98 -27 -174 -81 -228s-130 -81 -228 -81s-174 27 -228 81s-81 130 -81 228c0 99.333 27 175.5 81 228.5zM198.001 134.5
c11.333 -39.667 28.333 -67.834 51 -84.501s52.667 -25 90 -25s67.333 8.33301 90 25s39.667 44.834 51 84.501s17 94.5 17 164.5c0 69.333 -5.66699 124 -17 164s-28.333 68.333 -51 85s-52.667 25 -90 25s-67.333 -8.33301 -90 -25s-39.667 -45 -51 -85
s-17 -94.667 -17 -164c0 -70 5.66699 -124.833 17 -164.5zM243.001 726c32 58 48.9971 88.334 50.9971 91.001c2.66699 3.33301 4.83398 5.66602 6.50098 6.99902s3.83398 2 6.50098 2c4.66699 0 13.5 -2 26.5 -6l31.5 -10c6 -2.66699 9 -6.66699 9 -12
c0 -2.66699 -2 -6.66699 -6 -12c-5.33301 -6 -43.666 -42.333 -114.999 -109c-8.66699 -8 -16.667 -12 -24 -12c-3.33301 0 -6 1 -8 3s-3 4 -3 6c0 3.33301 1 7 3 11zM385.998 754.001c22.667 41.333 34.3311 62.334 34.998 63.001
c2.66699 3.33301 4.83398 5.66602 6.50098 6.99902s3.83398 2 6.50098 2c4.66699 0 13.667 -2 27 -6s24 -7.33301 32 -10c6 -2.66699 9 -6.66699 9 -12c0 -2.66699 -2 -6.66699 -6 -12l-116 -109c-8.66699 -8 -16.667 -12 -24 -12c-3.33301 0 -5.83301 1 -7.5 3
s-2.5 4 -2.5 6c0 3.33301 1 7 3 11z" />
    <glyph glyph-name="ohungarumlaut" unicode="&#x151;" horiz-adv-x="487" 
d="M76 378c37.333 38 93.333 57 168 57c75.333 0 131.333 -19 168 -57s55 -93 55 -165c0 -148.667 -74.333 -223 -223 -223c-74.667 0 -130.667 19 -168 57s-56 93.333 -56 166c0 72 18.667 127 56 165zM179.5 67.5c13 -28.333 34.5 -42.501 64.5 -42.501s51.333 14 64 42
s19 76 19 144c0 69.333 -6.33301 118.333 -19 147s-34 43 -64 43s-51.5 -14.333 -64.5 -43s-19.5 -77.667 -19.5 -147c0 -67.333 6.5 -115.166 19.5 -143.499zM155 557.999c32 58 48.9971 88.334 50.9971 91.001c2.66699 3.33301 4.83398 5.66602 6.50098 6.99902
s3.83398 2 6.50098 2c4.66699 0 13.5 -2 26.5 -6l31.5 -10c6 -2.66699 9 -6.66699 9 -12c0 -2.66699 -2 -6.66699 -6 -12c-5.33301 -6 -43.666 -42.333 -114.999 -109c-8.66699 -8 -16.667 -12 -24 -12c-3.33301 0 -6 1 -8 3s-3 4 -3 6c0 3.33301 1 7 3 11zM297.997 586
c22.667 41.333 34.3311 62.334 34.998 63.001c2.66699 3.33301 4.83398 5.66602 6.50098 6.99902s3.83398 2 6.50098 2c4.66699 0 13.667 -2 27 -6s24 -7.33301 32 -10c6 -2.66699 9 -6.66699 9 -12c0 -2.66699 -2 -6.66699 -6 -12l-116 -109
c-8.66699 -8 -16.667 -12 -24 -12c-3.33301 0 -5.83301 1 -7.5 3s-2.5 4 -2.5 6c0 3.33301 1 7 3 11z" />
    <glyph glyph-name="OE" unicode="&#x152;" horiz-adv-x="905" 
d="M107.5 524.5c51.667 55 129.833 82.499 234.5 82.499c14 0 27.833 -0.666992 41.5 -2s22.834 -2.33301 27.501 -3c21.333 -3.33301 41.333 -5 60 -5h363v-154h-34c0 42.667 -11.167 73.167 -33.5 91.5s-58.5 27.5 -108.5 27.5h-73c-8.66699 0 -13 -4.66699 -13 -14v-223
h66c22.667 0 41.167 9 55.5 27s21.5 42.667 21.5 74h34v-235h-34c0 28 -7.66699 51.5 -23 70.5s-33.333 28.5 -54 28.5h-66v-242c0 -8.66699 4.33301 -13 13 -13h102c46 0 80.833 12.333 104.5 37s35.5 60.334 35.5 107.001h34v-182c-16.667 2 -48.334 3 -95.001 3h-287
c-40 -0 -73 -1.66699 -99 -5s-39.667 -5 -41 -5c-98 0 -174 26.833 -228 80.5s-81 127.5 -81 221.5c0 100 25.833 177.5 77.5 232.5zM195.499 136.999c10.333 -39.333 26.8301 -67.666 49.4971 -84.999s52.667 -26 90 -26c36.667 0 62.334 6.16699 77.001 18.5
s22 27.5 22 45.5v436c0 13.333 -9.66699 24.666 -29 33.999s-42.666 14 -69.999 14c-37.333 0 -67.166 -9.16699 -89.499 -27.5s-38.833 -47.833 -49.5 -88.5s-16 -94.667 -16 -162c0 -66.667 5.16699 -119.667 15.5 -159z" />
    <glyph glyph-name="oe" unicode="&#x153;" horiz-adv-x="768" 
d="M693.5 385.5c36.333 -33 54.501 -80.165 54.501 -141.498v-34h-290c0 -58 11 -102.333 33 -133s54 -46 96 -46c30.667 0 57.667 8.16699 81 24.5s39.666 35.166 48.999 56.499l27 -19c-15.333 -32.667 -39.5 -58 -72.5 -76s-73.167 -27 -120.5 -27
c-66.667 0 -119 17 -157 51c-18.667 -18 -40.167 -31 -64.5 -39s-53.5 -12 -87.5 -12c-73.333 0 -128.666 19 -165.999 57s-56 92.667 -56 164s18.333 126.5 55 165.5s92 58.5 166 58.5c67.333 0 118.333 -17 153 -51c19.333 17.333 41.333 30.166 66 38.499
s53.667 12.5 87 12.5c61.333 0 110.166 -16.5 146.499 -49.5zM179.001 357.002c-12.667 -29.333 -19 -78.333 -19 -147c0 -65.333 6.33301 -112.5 19 -141.5s33.667 -43.5 63 -43.5c22 0 39 6.16699 51 18.5s20.667 31.833 26 58.5s8 63 8 109
c0 48 -2.83301 85.667 -8.5 113s-14.667 47 -27 59s-29.166 18 -50.499 18c-28.667 0 -49.334 -14.667 -62.001 -44zM480.001 358.502c-14 -28.333 -21 -67.167 -21 -116.5h137c12 0 18 9.66699 18 29c0 44.667 -5.5 77.5 -16.5 98.5s-29.167 31.5 -54.5 31.5
c-28 0 -49 -14.167 -63 -42.5z" />
    <glyph glyph-name="Racute" unicode="&#x154;" horiz-adv-x="597" 
d="M39 37l35 -2.00098h2c11.333 0 17 7.33301 17 22v484c0 6 -1.83301 11.167 -5.5 15.5s-9.16699 6.16602 -16.5 5.49902l-32 -2v37h259c72 0 125.167 -12.167 159.5 -36.5s51.5 -62.166 51.5 -113.499c0 -40.667 -12.833 -74.667 -38.5 -102
s-61.167 -45.666 -106.5 -54.999c24 0 48.333 -6.66699 73 -20s45.167 -32.833 61.5 -58.5s24.5 -55.5 24.5 -89.5c0 -18.667 2.83301 -38.5 8.5 -59.5s12.5 -32.5 20.5 -34.5c4 -1.33301 8.33301 -2 13 -2c6 0 11.333 1.33301 16 4v-30h-177
c-8 16.667 -12.667 38.667 -14 66c-1.33301 17.333 -2 30 -2 38v33c0 45.333 -12.667 79 -38 101s-56 33 -92 33h-27v-214c0 -14.667 6.66699 -22 20 -22l49 2v-37h-261v37zM294 305.999c24 0 43.167 11.5 57.5 34.5s21.5 54.167 21.5 93.5c0 44.667 -8 77.167 -24 97.5
s-40.667 30.5 -74 30.5h-32c-8 0 -12 -3.33301 -12 -10v-246h63zM427 770.999l-167.001 -102c-8.66699 -6 -16.667 -9 -24 -9s-11 3.33301 -11 10s5.33301 15.667 16 27l95 104c10 11.333 16.833 18.333 20.5 21s8.83398 4 15.501 4c12 0 26.333 -4.5 43 -13.5
s25 -16.833 25 -23.5c0 -5.33301 -4.33301 -11.333 -13 -18z" />
    <glyph glyph-name="racute" unicode="&#x155;" horiz-adv-x="419" 
d="M385.5 410c18.333 -16.667 27.5 -38.334 27.5 -65.001c0 -20 -5.83301 -35 -17.5 -45s-25.834 -15 -42.501 -15c-14 0 -26.5 3.5 -37.5 10.5s-16.5 17.167 -16.5 30.5c0 4.66699 1.33301 11.667 4 21c2 12 3 18.667 3 20c0 14.667 -6.33301 22 -19 22
c-17.333 0 -32.833 -9.83301 -46.5 -29.5s-24.167 -44.167 -31.5 -73.5s-11.333 -57.666 -12 -84.999v-150c0 -12.667 4.33301 -19 13 -19l69 2v-34h-254v34l28 -2c8.66699 0 13 6.33301 13 19v323c0 13.333 -4.33301 20 -13 20l-32 -2v33h182
c-1.33301 -4 -2.66602 -10.5 -3.99902 -19.5s-2 -17.833 -2 -26.5v-46c24 68 63.333 102 118 102c28.667 0 52.167 -8.33301 70.5 -25zM276 603l-167.001 -102c-8.66699 -6 -16.667 -9 -24 -9s-11 3.33301 -11 10s5.33301 15.667 16 27l95 104
c10 11.333 16.833 18.333 20.5 21s8.83398 4 15.501 4c12 0 26.333 -4.5 43 -13.5s25 -16.833 25 -23.5c0 -5.33301 -4.33301 -11.333 -13 -18z" />
    <glyph glyph-name="Rcommaaccent" unicode="&#x156;" horiz-adv-x="597" 
d="M39 37l35 -2.00098h2c11.333 0 17 7.33301 17 22v484c0 6 -1.83301 11.167 -5.5 15.5s-9.16699 6.16602 -16.5 5.49902l-32 -2v37h259c72 0 125.167 -12.167 159.5 -36.5s51.5 -62.166 51.5 -113.499c0 -40.667 -12.833 -74.667 -38.5 -102
s-61.167 -45.666 -106.5 -54.999c24 0 48.333 -6.66699 73 -20s45.167 -32.833 61.5 -58.5s24.5 -55.5 24.5 -89.5c0 -18.667 2.83301 -38.5 8.5 -59.5s12.5 -32.5 20.5 -34.5c4 -1.33301 8.33301 -2 13 -2c6 0 11.333 1.33301 16 4v-30h-177
c-8 16.667 -12.667 38.667 -14 66c-1.33301 17.333 -2 30 -2 38v33c0 45.333 -12.667 79 -38 101s-56 33 -92 33h-27v-214c0 -14.667 6.66699 -22 20 -22l49 2v-37h-261v37zM294 305.999c24 0 43.167 11.5 57.5 34.5s21.5 54.167 21.5 93.5c0 44.667 -8 77.167 -24 97.5
s-40.667 30.5 -74 30.5h-32c-8 0 -12 -3.33301 -12 -10v-246h63zM287.5 -200.001c9.66699 11.333 14.4971 21.333 14.4971 30c0 19.333 -9.33301 29 -28 29c-12.667 0 -22.667 4.83301 -30 14.5s-11 21.167 -11 34.5c0 15.333 5.33301 28.833 16 40.5
s26.334 17.5 47.001 17.5c23.333 0 42.333 -7.66699 57 -23s22 -33.333 22 -54c0 -30 -9.66699 -57.333 -29 -82s-42.666 -44 -69.999 -58l-22 22c12.667 8 23.834 17.667 33.501 29z" />
    <glyph glyph-name="rcommaaccent" unicode="&#x157;" horiz-adv-x="419" 
d="M385.5 410c18.333 -16.667 27.5 -38.334 27.5 -65.001c0 -20 -5.83301 -35 -17.5 -45s-25.834 -15 -42.501 -15c-14 0 -26.5 3.5 -37.5 10.5s-16.5 17.167 -16.5 30.5c0 4.66699 1.33301 11.667 4 21c2 12 3 18.667 3 20c0 14.667 -6.33301 22 -19 22
c-17.333 0 -32.833 -9.83301 -46.5 -29.5s-24.167 -44.167 -31.5 -73.5s-11.333 -57.666 -12 -84.999v-150c0 -12.667 4.33301 -19 13 -19l69 2v-34h-254v34l28 -2c8.66699 0 13 6.33301 13 19v323c0 13.333 -4.33301 20 -13 20l-32 -2v33h182
c-1.33301 -4 -2.66602 -10.5 -3.99902 -19.5s-2 -17.833 -2 -26.5v-46c24 68 63.333 102 118 102c28.667 0 52.167 -8.33301 70.5 -25zM138.5 -200c9.66699 11.333 14.4971 21.333 14.4971 30c0 19.333 -9.33301 29 -28 29c-12.667 0 -22.667 4.83301 -30 14.5
s-11 21.167 -11 34.5c0 15.333 5.33301 28.833 16 40.5s26.334 17.5 47.001 17.5c23.333 0 42.333 -7.66699 57 -23s22 -33.333 22 -54c0 -30 -9.66699 -57.333 -29 -82s-42.666 -44 -69.999 -58l-22 22c12.667 8 23.834 17.667 33.501 29z" />
    <glyph glyph-name="Rcaron" unicode="&#x158;" horiz-adv-x="597" 
d="M39 37l35 -2.00098h2c11.333 0 17 7.33301 17 22v484c0 6 -1.83301 11.167 -5.5 15.5s-9.16699 6.16602 -16.5 5.49902l-32 -2v37h259c72 0 125.167 -12.167 159.5 -36.5s51.5 -62.166 51.5 -113.499c0 -40.667 -12.833 -74.667 -38.5 -102
s-61.167 -45.666 -106.5 -54.999c24 0 48.333 -6.66699 73 -20s45.167 -32.833 61.5 -58.5s24.5 -55.5 24.5 -89.5c0 -18.667 2.83301 -38.5 8.5 -59.5s12.5 -32.5 20.5 -34.5c4 -1.33301 8.33301 -2 13 -2c6 0 11.333 1.33301 16 4v-30h-177
c-8 16.667 -12.667 38.667 -14 66c-1.33301 17.333 -2 30 -2 38v33c0 45.333 -12.667 79 -38 101s-56 33 -92 33h-27v-214c0 -14.667 6.66699 -22 20 -22l49 2v-37h-261v37zM294 305.999c24 0 43.167 11.5 57.5 34.5s21.5 54.167 21.5 93.5c0 44.667 -8 77.167 -24 97.5
s-40.667 30.5 -74 30.5h-32c-8 0 -12 -3.33301 -12 -10v-246h63zM147 823.999c9.33301 0 20.333 -4 33 -12l111 -66l112 66c12.667 8 23.667 12 33 12c7.33301 0 11 -2.66699 11 -8c0 -2.66699 -2.66699 -6.83398 -8 -12.501s-12 -12.167 -20 -19.5
c-20 -20 -36 -36.667 -48 -50l-23 -24l-24 -24c-10.667 -12 -21.667 -18 -33 -18c-10 0 -21 6 -33 18l-24 24l-23 24c-12 13.333 -28 30 -48 50c-8 7.33301 -14.667 13.833 -20 19.5s-8 9.83398 -8 12.501c0 5.33301 4 8 12 8z" />
    <glyph glyph-name="rcaron" unicode="&#x159;" horiz-adv-x="419" 
d="M385.5 410c18.333 -16.667 27.5 -38.334 27.5 -65.001c0 -20 -5.83301 -35 -17.5 -45s-25.834 -15 -42.501 -15c-14 0 -26.5 3.5 -37.5 10.5s-16.5 17.167 -16.5 30.5c0 4.66699 1.33301 11.667 4 21c2 12 3 18.667 3 20c0 14.667 -6.33301 22 -19 22
c-17.333 0 -32.833 -9.83301 -46.5 -29.5s-24.167 -44.167 -31.5 -73.5s-11.333 -57.666 -12 -84.999v-150c0 -12.667 4.33301 -19 13 -19l69 2v-34h-254v34l28 -2c8.66699 0 13 6.33301 13 19v323c0 13.333 -4.33301 20 -13 20l-32 -2v33h182
c-1.33301 -4 -2.66602 -10.5 -3.99902 -19.5s-2 -17.833 -2 -26.5v-46c24 68 63.333 102 118 102c28.667 0 52.167 -8.33301 70.5 -25zM-3 662c9.33301 0 20.333 -4 33 -12l111 -66l112 66c12.667 8 23.667 12 33 12c7.33301 0 11 -2.66699 11 -8
c0 -2.66699 -2.66699 -6.83398 -8 -12.501s-12 -12.167 -20 -19.5c-20 -20 -36 -36.667 -48 -50l-23 -24l-24 -24c-10.667 -12 -21.667 -18 -33 -18c-10 0 -21 6 -33 18l-24 24l-23 24c-12 13.333 -28 30 -48 50c-8 7.33301 -14.667 13.833 -20 19.5s-8 9.83398 -8 12.501
c0 5.33301 4 8 12 8z" />
    <glyph glyph-name="Sacute" unicode="&#x15a;" horiz-adv-x="498" 
d="M73 203c6.66699 -58 25.5029 -102.002 56.5029 -132.002s69.5 -45 115.5 -45c34 0 60.833 9.33301 80.5 28s29.5 43.334 29.5 74.001c0 46.667 -31.667 82.334 -95 107.001l-98 41c-76 31.333 -114 83 -114 155c0 32 7.66699 61.333 23 88s38.333 48 69 64s68 24 112 24
c22 0 40.667 -1.66699 56 -5s30.666 -7.66602 45.999 -12.999s26.333 -9 33 -11c11.333 -4 21.333 -6 30 -6c11.333 0 20.666 1.33301 27.999 4c-2 -16 -3 -41.333 -3 -76c0 -19.333 0.333008 -33.333 1 -42s2.33398 -16.667 5.00098 -24h-34
c0 41.333 -14.167 74.833 -42.5 100.5s-62.833 38.5 -103.5 38.5c-32 0 -58.333 -8.33301 -79 -25s-31 -38.334 -31 -65.001c0 -18.667 6.83301 -35.5 20.5 -50.5s35.5 -28.5 65.5 -40.5l85 -36c52 -22.667 89.167 -46.834 111.5 -72.501s33.5 -59.5 33.5 -101.5
c0 -36 -8.33301 -68.5 -25 -97.5s-41.334 -52 -74.001 -69s-72.334 -25.5 -119.001 -25.5c-29.333 0 -61 4.33301 -95 13c-38 10 -64 15 -78 15c-6 0 -13.167 -0.5 -21.5 -1.5s-13.833 -2.16699 -16.5 -3.5c2.66699 14 4 39.667 4 77c0 26.667 -0.666992 51.334 -2 74.001
s-3.33301 34.667 -6 36zM387.003 770.998l-167.001 -102c-8.66699 -6 -16.667 -9 -24 -9s-11 3.33301 -11 10s5.33301 15.667 16 27l95 104c10 11.333 16.833 18.333 20.5 21s8.83398 4 15.501 4c12 0 26.333 -4.5 43 -13.5s25 -16.833 25 -23.5
c0 -5.33301 -4.33301 -11.333 -13 -18z" />
    <glyph glyph-name="sacute" unicode="&#x15b;" horiz-adv-x="415" 
d="M40 142l34 1.99805c0 -34 14.167 -62.333 42.5 -85s62.5 -34 102.5 -34c22 0 39.5 5.16699 52.5 15.5s19.5 24.833 19.5 43.5c0 15.333 -4.83301 27.5 -14.5 36.5s-26.167 16.5 -49.5 22.5l-72 20c-38.667 10.667 -67.167 27 -85.5 49s-27.5 50 -27.5 84
c0 41.333 14.333 74.833 43 100.5s69 38.5 121 38.5c14 0 26.667 -1 38 -3s25.333 -5.33301 42 -10c21.333 -6 38 -9 50 -9c10.667 0 20.667 2.66699 30 8l-6 -114h-30c0 25.333 -10.5 47.333 -31.5 66s-49.5 28 -85.5 28c-20.667 0 -37.167 -5.16699 -49.5 -15.5
s-18.5 -23.166 -18.5 -38.499c0 -12.667 4.66699 -23.5 14 -32.5s23 -15.833 41 -20.5l69 -18c46 -12 77.5 -29 94.5 -51s25.5 -50.333 25.5 -85c0 -47.333 -16 -84.166 -48 -110.499s-74.333 -39.5 -127 -39.5c-15.333 0 -30.833 1.5 -46.5 4.5s-40.167 8.83301 -73.5 17.5
c-10.667 2.66699 -20 4 -28 4c-14.667 0 -25 -2 -31 -6zM354 602.998l-167.001 -102c-8.66699 -6 -16.667 -9 -24 -9s-11 3.33301 -11 10s5.33301 15.667 16 27l95 104c10 11.333 16.833 18.333 20.5 21s8.83398 4 15.501 4c12 0 26.333 -4.5 43 -13.5s25 -16.833 25 -23.5
c0 -5.33301 -4.33301 -11.333 -13 -18z" />
    <glyph glyph-name="Scedilla" unicode="&#x15e;" horiz-adv-x="498" 
d="M254 -36c-4 -7.33301 -5.99902 -13.668 -5.99902 -19.001c0 -4.66699 2.5 -8 7.5 -10s13.5 -4.33301 25.5 -7c19.333 -3.33301 34.666 -8.33301 45.999 -15s17 -18.334 17 -35.001c0 -29.333 -11.833 -52 -35.5 -68s-50.5 -24 -80.5 -24
c-29.333 0 -52.333 5.33301 -69 16l13 32c8 -8.66699 19.667 -13 35 -13c12.667 0 24.167 4.66699 34.5 14s15.5 20 15.5 32c0 14 -11.333 27 -34 39l-23 14c-7.33301 5.33301 -11 10.333 -11 15s2 9 6 13l34 43c-18 0.666992 -40.667 4.66699 -68 12c-38 10 -64 15 -78 15
c-6 0 -13.167 -0.5 -21.5 -1.5s-13.833 -2.16699 -16.5 -3.5c2.66699 14 4 39.667 4 77c0 26.667 -0.666992 51.334 -2 74.001s-3.33301 34.667 -6 36l32 3c6.66699 -58 25.5 -102 56.5 -132s69.5 -45 115.5 -45c34 0 60.833 9.33301 80.5 28s29.5 43.334 29.5 74.001
c0 46.667 -31.667 82.334 -95 107.001l-98 41c-76 31.333 -114 83 -114 155c0 32 7.66699 61.333 23 88s38.333 48 69 64s68 24 112 24c22 0 40.667 -1.66699 56 -5s30.666 -7.66602 45.999 -12.999s26.333 -9 33 -11c11.333 -4 21.333 -6 30 -6
c11.333 0 20.666 1.33301 27.999 4c-2 -16 -3 -41.333 -3 -76c0 -19.333 0.333008 -33.333 1 -42s2.33398 -16.667 5.00098 -24h-34c0 41.333 -14.167 74.833 -42.5 100.5s-62.833 38.5 -103.5 38.5c-32 0 -58.333 -8.33301 -79 -25s-31 -38.334 -31 -65.001
c0 -18.667 6.83301 -35.5 20.5 -50.5s35.5 -28.5 65.5 -40.5l85 -36c52 -22.667 89.167 -46.834 111.5 -72.501s33.5 -59.5 33.5 -101.5c0 -53.333 -17.667 -98 -53 -134s-85.666 -55.333 -150.999 -58z" />
    <glyph glyph-name="scedilla" unicode="&#x15f;" horiz-adv-x="415" 
d="M223 -36c-4 -7.33301 -5.99902 -13.668 -5.99902 -19.001c0 -4.66699 2.5 -8 7.5 -10s13.5 -4.33301 25.5 -7c19.333 -3.33301 34.666 -8.33301 45.999 -15s17 -18.334 17 -35.001c0 -29.333 -11.833 -52 -35.5 -68s-50.5 -24 -80.5 -24
c-29.333 0 -52.333 5.33301 -69 16l13 32c8 -8.66699 19.667 -13 35 -13c12.667 0 24.167 4.66699 34.5 14s15.5 20 15.5 32c0 14 -11.333 27 -34 39l-23 14c-7.33301 5.33301 -11 10.333 -11 15s2 9 6 13l34 43c-12 0.666992 -26.5 2.83398 -43.5 6.50098
s-37.167 8.5 -60.5 14.5c-10.667 2.66699 -20 4 -28 4c-14.667 0 -25 -2 -31 -6l5 132l34 2c0 -34 14.167 -62.333 42.5 -85s62.5 -34 102.5 -34c22 0 39.5 5.16699 52.5 15.5s19.5 24.833 19.5 43.5c0 15.333 -4.83301 27.5 -14.5 36.5s-26.167 16.5 -49.5 22.5l-72 20
c-38.667 10.667 -67.167 27 -85.5 49s-27.5 50 -27.5 84c0 41.333 14.333 74.833 43 100.5s69 38.5 121 38.5c14 0 26.667 -1 38 -3s25.333 -5.33301 42 -10c21.333 -6 38 -9 50 -9c10.667 0 20.667 2.66699 30 8l-6 -114h-30c0 25.333 -10.5 47.333 -31.5 66
s-49.5 28 -85.5 28c-20.667 0 -37.167 -5.16699 -49.5 -15.5s-18.5 -23.166 -18.5 -38.499c0 -12.667 4.66699 -23.5 14 -32.5s23 -15.833 41 -20.5l69 -18c46 -12 77.5 -29 94.5 -51s25.5 -50.333 25.5 -85c0 -43.333 -13.5 -78 -40.5 -104s-63.167 -41 -108.5 -45z" />
    <glyph glyph-name="Scaron" unicode="&#x160;" horiz-adv-x="498" 
d="M73 203c6.66699 -58 25.5029 -102.002 56.5029 -132.002s69.5 -45 115.5 -45c34 0 60.833 9.33301 80.5 28s29.5 43.334 29.5 74.001c0 46.667 -31.667 82.334 -95 107.001l-98 41c-76 31.333 -114 83 -114 155c0 32 7.66699 61.333 23 88s38.333 48 69 64s68 24 112 24
c22 0 40.667 -1.66699 56 -5s30.666 -7.66602 45.999 -12.999s26.333 -9 33 -11c11.333 -4 21.333 -6 30 -6c11.333 0 20.666 1.33301 27.999 4c-2 -16 -3 -41.333 -3 -76c0 -19.333 0.333008 -33.333 1 -42s2.33398 -16.667 5.00098 -24h-34
c0 41.333 -14.167 74.833 -42.5 100.5s-62.833 38.5 -103.5 38.5c-32 0 -58.333 -8.33301 -79 -25s-31 -38.334 -31 -65.001c0 -18.667 6.83301 -35.5 20.5 -50.5s35.5 -28.5 65.5 -40.5l85 -36c52 -22.667 89.167 -46.834 111.5 -72.501s33.5 -59.5 33.5 -101.5
c0 -36 -8.33301 -68.5 -25 -97.5s-41.334 -52 -74.001 -69s-72.334 -25.5 -119.001 -25.5c-29.333 0 -61 4.33301 -95 13c-38 10 -64 15 -78 15c-6 0 -13.167 -0.5 -21.5 -1.5s-13.833 -2.16699 -16.5 -3.5c2.66699 14 4 39.667 4 77c0 26.667 -0.666992 51.334 -2 74.001
s-3.33301 34.667 -6 36zM107.003 823.998c9.33301 0 20.333 -4 33 -12l111 -66l112 66c12.667 8 23.667 12 33 12c7.33301 0 11 -2.66699 11 -8c0 -2.66699 -2.66699 -6.83398 -8 -12.501s-12 -12.167 -20 -19.5c-20 -20 -36 -36.667 -48 -50l-23 -24l-24 -24
c-10.667 -12 -21.667 -18 -33 -18c-10 0 -21 6 -33 18l-24 24l-23 24c-12 13.333 -28 30 -48 50c-8 7.33301 -14.667 13.833 -20 19.5s-8 9.83398 -8 12.501c0 5.33301 4 8 12 8z" />
    <glyph glyph-name="scaron" unicode="&#x161;" horiz-adv-x="415" 
d="M40 142l34 1.99805c0 -34 14.167 -62.333 42.5 -85s62.5 -34 102.5 -34c22 0 39.5 5.16699 52.5 15.5s19.5 24.833 19.5 43.5c0 15.333 -4.83301 27.5 -14.5 36.5s-26.167 16.5 -49.5 22.5l-72 20c-38.667 10.667 -67.167 27 -85.5 49s-27.5 50 -27.5 84
c0 41.333 14.333 74.833 43 100.5s69 38.5 121 38.5c14 0 26.667 -1 38 -3s25.333 -5.33301 42 -10c21.333 -6 38 -9 50 -9c10.667 0 20.667 2.66699 30 8l-6 -114h-30c0 25.333 -10.5 47.333 -31.5 66s-49.5 28 -85.5 28c-20.667 0 -37.167 -5.16699 -49.5 -15.5
s-18.5 -23.166 -18.5 -38.499c0 -12.667 4.66699 -23.5 14 -32.5s23 -15.833 41 -20.5l69 -18c46 -12 77.5 -29 94.5 -51s25.5 -50.333 25.5 -85c0 -47.333 -16 -84.166 -48 -110.499s-74.333 -39.5 -127 -39.5c-15.333 0 -30.833 1.5 -46.5 4.5s-40.167 8.83301 -73.5 17.5
c-10.667 2.66699 -20 4 -28 4c-14.667 0 -25 -2 -31 -6zM75 661.998c9.33301 0 20.333 -4 33 -12l111 -66l112 66c12.667 8 23.667 12 33 12c7.33301 0 11 -2.66699 11 -8c0 -2.66699 -2.66699 -6.83398 -8 -12.501s-12 -12.167 -20 -19.5c-20 -20 -36 -36.667 -48 -50
l-23 -24l-24 -24c-10.667 -12 -21.667 -18 -33 -18c-10 0 -21 6 -33 18l-24 24l-23 24c-12 13.333 -28 30 -48 50c-8 7.33301 -14.667 13.833 -20 19.5s-8 9.83398 -8 12.501c0 5.33301 4 8 12 8z" />
    <glyph glyph-name="uni0162" unicode="&#x162;" horiz-adv-x="544" 
d="M15 600c12 -1.33301 27.999 -2 47.999 -2h419c24.667 0 40.334 0.666992 47.001 2v-156h-33c0 40.667 -9.5 70.667 -28.5 90s-50.5 29 -94.5 29h-20c-6.66699 0 -10.667 -3.66699 -12 -11v-495c0 -14.667 6.66699 -22 20 -22l53 2v-37h-284v37l54 -2
c6 0 10.667 2.5 14 7.5s5 10.833 5 17.5v491c0 8 -4 12 -12 12h-18c-44 0 -75.667 -9.66699 -95 -29s-29 -49.333 -29 -90h-34v156zM193.999 -166c8 -8.66699 19.668 -13 35.001 -13c12.667 0 24.167 4.66699 34.5 14s15.5 20 15.5 32c0 14 -11.333 27 -34 39l-23 14
c-7.33301 5.33301 -11 10.333 -11 15s2 9 6 13l41 52h40l-22 -36c-4 -7.33301 -6 -13.666 -6 -18.999c0 -4.66699 2.5 -8 7.5 -10s13.5 -4.33301 25.5 -7c19.333 -3.33301 34.666 -8.33301 45.999 -15s17 -18.334 17 -35.001c0 -29.333 -11.833 -52 -35.5 -68
s-50.5 -24 -80.5 -24c-29.333 0 -52.333 5.33301 -69 16z" />
    <glyph glyph-name="uni0163" unicode="&#x163;" horiz-adv-x="325" 
d="M169 -36c-4 -7.33301 -5.99805 -13.666 -5.99805 -18.999c0 -4.66699 2.5 -8 7.5 -10s13.5 -4.33301 25.5 -7c19.333 -3.33301 34.666 -8.33301 45.999 -15s17 -18.334 17 -35.001c0 -29.333 -11.833 -52 -35.5 -68s-50.5 -24 -80.5 -24
c-29.333 0 -52.333 5.33301 -69 16l13 32c8 -8.66699 19.667 -13 35 -13c12.667 0 24.167 4.66699 34.5 14s15.5 20 15.5 32c0 14 -11.333 27 -34 39l-23 14c-7.33301 5.33301 -11 10.333 -11 15s2 9 6 13l38 48c-52 12 -78 43 -78 93v304h-60v32c26.667 0 47 2.5 61 7.5
s25.167 14.5 33.5 28.5s16.166 36 23.499 66h73v-102h99v-32h-99v-306c0 -23.333 3 -39 9 -47s15.333 -12 28 -12c8 0 16.5 3.5 25.5 10.5s15.833 16.5 20.5 28.5l27 -15c-8.66699 -21.333 -22.167 -36.833 -40.5 -46.5s-41.5 -14.5 -69.5 -14.5h-15z" />
    <glyph glyph-name="Tcaron" unicode="&#x164;" horiz-adv-x="544" 
d="M15 600c12 -1.33301 27.999 -2 47.999 -2h419c24.667 0 40.334 0.666992 47.001 2v-156h-33c0 40.667 -9.5 70.667 -28.5 90s-50.5 29 -94.5 29h-20c-6.66699 0 -10.667 -3.66699 -12 -11v-495c0 -14.667 6.66699 -22 20 -22l53 2v-37h-284v37l54 -2
c6 0 10.667 2.5 14 7.5s5 10.833 5 17.5v491c0 8 -4 12 -12 12h-18c-44 0 -75.667 -9.66699 -95 -29s-29 -49.333 -29 -90h-34v156zM128.999 824c9.33301 0 20.333 -4 33 -12l111 -66l112 66c12.667 8 23.667 12 33 12c7.33301 0 11 -2.66699 11 -8
c0 -2.66699 -2.66699 -6.83398 -8 -12.501s-12 -12.167 -20 -19.5c-20 -20 -36 -36.667 -48 -50l-23 -24l-24 -24c-10.667 -12 -21.667 -18 -33 -18c-10 0 -21 6 -33 18l-24 24l-23 24c-12 13.333 -28 30 -48 50c-8 7.33301 -14.667 13.833 -20 19.5s-8 9.83398 -8 12.501
c0 5.33301 4 8 12 8z" />
    <glyph glyph-name="tcaron" unicode="&#x165;" horiz-adv-x="325" 
d="M201 425h99.001v-32h-99v-306c0 -23.333 3 -39 9 -47s15.333 -12 28 -12c8 0 16.5 3.5 25.5 10.5s15.833 16.5 20.5 28.5l27 -15c-8.66699 -21.333 -22.167 -36.833 -40.5 -46.5s-41.5 -14.5 -69.5 -14.5c-40.667 0 -72.667 7.83301 -96 23.5s-35 40.5 -35 74.5v304h-60
v32c26.667 0 47 2.5 61 7.5s25.167 14.5 33.5 28.5s16.166 36 23.499 66h73v-102zM255.001 477c7.33301 9.33301 11 18.6641 11 27.9971c0 14 -7 21 -21 21c-11.333 0 -20.5 3.83301 -27.5 11.5s-10.5 17.834 -10.5 30.501c0 16.667 5.83301 30 17.5 40s26.5 15 44.5 15
c20 0 36.667 -6.5 50 -19.5s20 -29.833 20 -50.5c0 -25.333 -8.83301 -49.166 -26.5 -71.499s-38.5 -39.166 -62.5 -50.499l-21 22c10 6.66699 18.667 14.667 26 24z" />
    <glyph glyph-name="Umacron" unicode="&#x16a;" horiz-adv-x="659" 
d="M35 597l263.997 0.000976562v-37l-49 2h-2c-5.33301 0 -9.66602 -2 -12.999 -6s-5 -8.66699 -5 -14v-343c0 -56.667 13.167 -98.834 39.5 -126.501s64.5 -41.5 114.5 -41.5c51.333 0 88.833 15.333 112.5 46s35.5 72.667 35.5 126v338c0 6.66699 -1.66699 12 -5 16
s-7.66602 5.66699 -12.999 5l-49 -2v37h169v-37l-39 2h-2c-5.33301 0 -9.66602 -2 -12.999 -6s-5 -8.66699 -5 -14v-339c0 -67.333 -18 -119.666 -54 -156.999s-90.333 -56 -163 -56c-177.333 0 -266 69.667 -266 209v342c0 6 -1.83301 11.167 -5.5 15.5
s-8.16699 6.16602 -13.5 5.49902l-38 -2v37zM223.997 699.001v47h239v-47h-239z" />
    </font>
</defs>
</svg>
