<?xml version="1.0" encoding="utf-8"?>
<!-- Generator: Adobe Illustrator 15.0.0, SVG Export Plug-In  -->
<!DOCTYPE svg PUBLIC "-//W3C//DTD SVG 1.1//EN" "http://www.w3.org/Graphics/SVG/1.1/DTD/svg11.dtd" [
	<!ENTITY ns_flows "http://ns.adobe.com/Flows/1.0/">
]>
<svg version="1.1"
	 xmlns="http://www.w3.org/2000/svg" xmlns:xlink="http://www.w3.org/1999/xlink" xmlns:a="http://ns.adobe.com/AdobeSVGViewerExtensions/3.0/"
	 x="0px" y="0px" width="48px" height="48px" viewBox="0 0 48 48" enable-background="new 0 0 48 48" xml:space="preserve">
<defs>
</defs>
<g>
	<g>
		<linearGradient id="SVGID_1_" gradientUnits="userSpaceOnUse" x1="13.2627" y1="7.8047" x2="34.7283" y2="0.8159">
			<stop  offset="0.3091" style="stop-color:#3A7E86"/>
			<stop  offset="0.7818" style="stop-color:#23464B"/>
			<a:midPointStop  offset="0.3091" style="stop-color:#3A7E86"/>
			<a:midPointStop  offset="0.5" style="stop-color:#3A7E86"/>
			<a:midPointStop  offset="0.7818" style="stop-color:#23464B"/>
		</linearGradient>
		<path fill="url(#SVGID_1_)" d="M11.9,3.6l1.5,3c3.1-1.9,6.7-3,10.6-3c3.6,0,7.1,1,10,2.6l1.5-3c-3.4-1.9-7.3-3-11.5-3
			C19.6,0.3,15.4,1.5,11.9,3.6z"/>
		<linearGradient id="SVGID_2_" gradientUnits="userSpaceOnUse" x1="11.8096" y1="47.5156" x2="33.2371" y2="40.5392">
			<stop  offset="0.3091" style="stop-color:#3A7E86"/>
			<stop  offset="0.7818" style="stop-color:#23464B"/>
			<a:midPointStop  offset="0.3091" style="stop-color:#3A7E86"/>
			<a:midPointStop  offset="0.5" style="stop-color:#3A7E86"/>
			<a:midPointStop  offset="0.7818" style="stop-color:#23464B"/>
		</linearGradient>
		<path fill="url(#SVGID_2_)" d="M23.1,44.8c-3.9,0-7.6-1.1-10.7-3l-1.5,3c3.6,2.1,7.7,3.4,12.2,3.4c4.2,0,8.2-1.1,11.6-3l-1.5-3
			C30.3,43.8,26.8,44.8,23.1,44.8z"/>
		<linearGradient id="SVGID_3_" gradientUnits="userSpaceOnUse" x1="38.8047" y1="26.0244" x2="48.7108" y2="22.7992">
			<stop  offset="0.3091" style="stop-color:#3A7E86"/>
			<stop  offset="0.7818" style="stop-color:#23464B"/>
			<a:midPointStop  offset="0.3091" style="stop-color:#3A7E86"/>
			<a:midPointStop  offset="0.5" style="stop-color:#3A7E86"/>
			<a:midPointStop  offset="0.7818" style="stop-color:#23464B"/>
		</linearGradient>
		<path fill="url(#SVGID_3_)" d="M44.6,12l-3,1.5c1.9,3.1,3,6.8,3,10.7c0,3.8-1.1,7.4-2.9,10.5l3,1.5c2.1-3.5,3.3-7.7,3.3-12
			C47.9,19.8,46.7,15.6,44.6,12z"/>
		<linearGradient id="SVGID_4_" gradientUnits="userSpaceOnUse" x1="-0.772" y1="25.4307" x2="9.0376" y2="22.2368">
			<stop  offset="0.3091" style="stop-color:#3A7E86"/>
			<stop  offset="0.7818" style="stop-color:#23464B"/>
			<a:midPointStop  offset="0.3091" style="stop-color:#3A7E86"/>
			<a:midPointStop  offset="0.5" style="stop-color:#3A7E86"/>
			<a:midPointStop  offset="0.7818" style="stop-color:#23464B"/>
		</linearGradient>
		<path fill="url(#SVGID_4_)" d="M3.3,12.3c-2,3.5-3.2,7.6-3.2,11.9c0,4.3,1.1,8.3,3.1,11.7l3-1.5c-1.7-3-2.7-6.5-2.7-10.2
			c0-3.8,1-7.4,2.8-10.4L3.3,12.3z"/>
	</g>
</g>
<g>
	<g>
		<linearGradient id="SVGID_5_" gradientUnits="userSpaceOnUse" x1="17.0283" y1="30.9932" x2="9.3054" y2="38.9187">
			<stop  offset="0" style="stop-color:#DF6A63"/>
			<stop  offset="0.5665" style="stop-color:#B5332A"/>
			<a:midPointStop  offset="0" style="stop-color:#DF6A63"/>
			<a:midPointStop  offset="0.5" style="stop-color:#DF6A63"/>
			<a:midPointStop  offset="0.5665" style="stop-color:#B5332A"/>
		</linearGradient>
		<polygon fill="url(#SVGID_5_)" points="11.4,36.4 13.3,40.6 18.8,29.2 7.8,34.8 		"/>
		<linearGradient id="SVGID_6_" gradientUnits="userSpaceOnUse" x1="28.8516" y1="34.8877" x2="39.918" y2="34.8877">
			<stop  offset="9.696970e-002" style="stop-color:#DF6A63"/>
			<stop  offset="0.5665" style="stop-color:#B5332A"/>
			<a:midPointStop  offset="9.696970e-002" style="stop-color:#DF6A63"/>
			<a:midPointStop  offset="0.5" style="stop-color:#DF6A63"/>
			<a:midPointStop  offset="0.5665" style="stop-color:#B5332A"/>
		</linearGradient>
		<polygon fill="url(#SVGID_6_)" points="34.4,40.6 36.3,36.4 39.9,34.8 28.9,29.2 		"/>
		<linearGradient id="SVGID_7_" gradientUnits="userSpaceOnUse" x1="17.5693" y1="17.8428" x2="6.1254" y2="6.2824">
			<stop  offset="0" style="stop-color:#DF6A63"/>
			<stop  offset="0.5665" style="stop-color:#B5332A"/>
			<a:midPointStop  offset="0" style="stop-color:#DF6A63"/>
			<a:midPointStop  offset="0.5" style="stop-color:#DF6A63"/>
			<a:midPointStop  offset="0.5665" style="stop-color:#B5332A"/>
		</linearGradient>
		<polygon fill="url(#SVGID_7_)" points="11.4,12 7.8,13.6 18.8,19.2 13.3,7.8 		"/>
		<linearGradient id="SVGID_8_" gradientUnits="userSpaceOnUse" x1="28.8516" y1="13.5068" x2="39.918" y2="13.5068">
			<stop  offset="9.696970e-002" style="stop-color:#DF6A63"/>
			<stop  offset="0.5665" style="stop-color:#B5332A"/>
			<a:midPointStop  offset="9.696970e-002" style="stop-color:#DF6A63"/>
			<a:midPointStop  offset="0.5" style="stop-color:#DF6A63"/>
			<a:midPointStop  offset="0.5665" style="stop-color:#B5332A"/>
		</linearGradient>
		<polygon fill="url(#SVGID_8_)" points="36.3,12 34.4,7.8 28.9,19.2 39.9,13.6 		"/>
		<polygon fill="#DF6A63" points="20.6,23.6 24,26.9 27.4,23.5 24,20.1 		"/>
	</g>
</g>
<path display="none" fill="none" d="M30.4,27.2c0.3,0.1,0.5,0.2,0.8,0.3C31.5,27.5,31.2,27.4,30.4,27.2z"/>
<path display="none" fill="#878787" d="M38.4,28.1c0.3-0.1,0.4-0.1,0.4-0.1C38.6,28.1,38.5,28.1,38.4,28.1z"/>
<radialGradient id="SVGID_9_" cx="28.3994" cy="12.9233" r="28.2452" gradientTransform="matrix(1.0061 0 0 1.003 -0.1672 9.296823e-002)" gradientUnits="userSpaceOnUse">
	<stop  offset="0.3091" style="stop-color:#3A7E86"/>
	<stop  offset="0.7818" style="stop-color:#23464B"/>
	<a:midPointStop  offset="0.3091" style="stop-color:#3A7E86"/>
	<a:midPointStop  offset="0.5" style="stop-color:#3A7E86"/>
	<a:midPointStop  offset="0.7818" style="stop-color:#23464B"/>
</radialGradient>
<path display="none" fill="url(#SVGID_9_)" d="M43.9,23.3c0,0-5.1,3.3-11.3,3.2c-6.2,0-10.4-4-10.4-4l-0.1,0.3c0,0,0.7,0.6,2,1.4
	c2.2,1.2,4.3,2,6.2,2.4c0.8,0.1,1.2,0.1,0.8,0.1c3.7,0.6,6.3-0.1,7.2-0.5c0.1,0,0.3-0.1,0.4-0.2c0,0-0.1,0.1-0.4,0.2
	c-2.1,0.8-3.4,0.9-3.4,0.9c-6.3,0.7-10.8-1.7-13.3-3.6C21,24.4,19.9,26,19,27.2c-1.3,1.5-4,4.1-4,4.1c0.5,0.3,4.7,1.7,7.2,1.9
	s3.8,0.2,6.4,0c2.6-0.2,6.6-1.6,9.6-3.6c3-2,5.7-5.3,6-5.9C44.5,23.1,43.9,23.3,43.9,23.3z"/>
<radialGradient id="SVGID_10_" cx="28.4043" cy="12.9307" r="28.2356" gradientTransform="matrix(1.0061 0 0 1.003 -0.1672 9.296823e-002)" gradientUnits="userSpaceOnUse">
	<stop  offset="0.3091" style="stop-color:#3A7E86"/>
	<stop  offset="0.7818" style="stop-color:#23464B"/>
	<a:midPointStop  offset="0.3091" style="stop-color:#3A7E86"/>
	<a:midPointStop  offset="0.5" style="stop-color:#3A7E86"/>
	<a:midPointStop  offset="0.7818" style="stop-color:#23464B"/>
</radialGradient>
<path display="none" fill="url(#SVGID_10_)" d="M21.5,22.6c0.2-0.4,0.4-0.6,0.4-0.6l-0.3-0.4c0,0-0.2,0.3-0.5,0.7
	C21.3,22.4,21.4,22.5,21.5,22.6z"/>
<radialGradient id="SVGID_11_" cx="28.4014" cy="12.9253" r="28.2422" gradientTransform="matrix(1.0061 0 0 1.003 -0.1672 9.296823e-002)" gradientUnits="userSpaceOnUse">
	<stop  offset="0.3091" style="stop-color:#3A7E86"/>
	<stop  offset="0.7818" style="stop-color:#23464B"/>
	<a:midPointStop  offset="0.3091" style="stop-color:#3A7E86"/>
	<a:midPointStop  offset="0.5" style="stop-color:#3A7E86"/>
	<a:midPointStop  offset="0.7818" style="stop-color:#23464B"/>
</radialGradient>
<path display="none" fill="url(#SVGID_11_)" d="M21.1,23.2c-0.1-0.1-0.2-0.2-0.4-0.3C20,24,18.9,25.6,18,26.7
	c-1.5,1.9-4.2,4.3-4.2,4.3l0.4,0.2c2-1.6,4.2-4.2,5.3-5.6C20,24.9,20.6,24,21.1,23.2z"/>
<radialGradient id="SVGID_12_" cx="28.4004" cy="12.9248" r="28.2426" gradientTransform="matrix(1.0061 0 0 1.003 -0.1672 9.296823e-002)" gradientUnits="userSpaceOnUse">
	<stop  offset="0.3091" style="stop-color:#3A7E86"/>
	<stop  offset="0.7818" style="stop-color:#23464B"/>
	<a:midPointStop  offset="0.3091" style="stop-color:#3A7E86"/>
	<a:midPointStop  offset="0.5" style="stop-color:#3A7E86"/>
	<a:midPointStop  offset="0.7818" style="stop-color:#23464B"/>
</radialGradient>
<path display="none" fill="url(#SVGID_12_)" d="M20.3,22.6c-0.7-0.6-1-1-1-1l0.3-0.4l0.4-0.5l0.9,1l0.2-0.2L20,20.1
	c-5.7,4.8-8.1,9.6-8.1,9.6l1.5,0.8C16.4,28.2,19.4,23.9,20.3,22.6z M16.5,25.6c-2.2,2.6-3.7,3.3-3.7,3.3s3.4-4.6,5.5-6.9l0.6-0.6
	C19,21.4,18.6,23.1,16.5,25.6z"/>
<linearGradient id="SVGID_13_" gradientUnits="userSpaceOnUse" x1="3.906250e-003" y1="24.0752" x2="48.0039" y2="24.0752">
	<stop  offset="9.696970e-002" style="stop-color:#DF6A63"/>
	<stop  offset="0.5665" style="stop-color:#B5332A"/>
	<a:midPointStop  offset="9.696970e-002" style="stop-color:#DF6A63"/>
	<a:midPointStop  offset="0.5" style="stop-color:#DF6A63"/>
	<a:midPointStop  offset="0.5665" style="stop-color:#B5332A"/>
</linearGradient>
<path display="none" fill="url(#SVGID_13_)" d="M24,0.2c-4.8,0-9.3,1.4-13.1,3.9C9.6,4.9,8.5,5.8,7.4,6.8l2.7,4l7.8,11.7L12.6,8.3
	c3.7-3.1,8.4-5,13.6-5c11.6,0,20.9,9.3,20.9,20.9c0,11.5-9.4,20.9-20.9,20.9C16.1,45,7.6,37.7,5.7,28.1l8.3-0.6l-8.7-2.6L0,23.7
	c0,0.1,0,0.3,0,0.4c0,1.5,0.1,3,0.4,4.4C2.5,39.6,12.3,48,24,48c13.3,0,24-10.7,24-23.9C48,10.9,37.3,0.2,24,0.2z"/>
<linearGradient id="SVGID_14_" gradientUnits="userSpaceOnUse" x1="1.1851" y1="19.1201" x2="15.771" y2="19.1201">
	<stop  offset="9.696970e-002" style="stop-color:#DF6A63"/>
	<stop  offset="0.5665" style="stop-color:#B5332A"/>
	<a:midPointStop  offset="9.696970e-002" style="stop-color:#DF6A63"/>
	<a:midPointStop  offset="0.5" style="stop-color:#DF6A63"/>
	<a:midPointStop  offset="0.5665" style="stop-color:#B5332A"/>
</linearGradient>
<path display="none" fill="url(#SVGID_14_)" d="M6.6,16.8l-4-3.6c-0.6,1.1-1,2.2-1.4,3.4l4.7,2.6l9.9,5.7L6.6,16.8z"/>
<radialGradient id="SVGID_15_" cx="30.2871" cy="16.5352" r="28.0655" gradientTransform="matrix(1.0026 0 0 1.0026 -8.942308e-002 -0.2149)" gradientUnits="userSpaceOnUse">
	<stop  offset="0.3091" style="stop-color:#3A7E86"/>
	<stop  offset="0.7818" style="stop-color:#23464B"/>
	<a:midPointStop  offset="0.3091" style="stop-color:#3A7E86"/>
	<a:midPointStop  offset="0.5" style="stop-color:#3A7E86"/>
	<a:midPointStop  offset="0.7818" style="stop-color:#23464B"/>
</radialGradient>
<path display="none" fill="url(#SVGID_15_)" d="M23,30.8c3.2-2.7,3.9-7.1,1.6-9.7c-2.3-2.7-6.7-2.7-9.9,0c-3.2,2.7-3.9,7.1-1.6,9.7
	S19.8,33.5,23,30.8z M15.2,29.1c-1.4-1.6-0.8-4.4,1.3-6.1c2.1-1.8,4.9-1.9,6.2-0.3c1.4,1.6,0.8,4.4-1.3,6.1
	C19.3,30.6,16.6,30.7,15.2,29.1z"/>
<radialGradient id="SVGID_16_" cx="30.2861" cy="16.5386" r="28.053" gradientTransform="matrix(1.0026 0 0 1.0026 -8.942308e-002 -0.2149)" gradientUnits="userSpaceOnUse">
	<stop  offset="0.3091" style="stop-color:#3A7E86"/>
	<stop  offset="0.7818" style="stop-color:#23464B"/>
	<a:midPointStop  offset="0.3091" style="stop-color:#3A7E86"/>
	<a:midPointStop  offset="0.5" style="stop-color:#3A7E86"/>
	<a:midPointStop  offset="0.7818" style="stop-color:#23464B"/>
</radialGradient>
<path display="none" fill="url(#SVGID_16_)" d="M27.7,23.3c-0.8-0.5-1.2-0.8-1.2-0.8s0.2,0.6,0.3,1.5c0.3,0.3,0.7,0.6,1.3,0.9
	C27.9,24.3,27.8,23.8,27.7,23.3z"/>
<radialGradient id="SVGID_17_" cx="30.2881" cy="16.5347" r="28.0668" gradientTransform="matrix(1.0026 0 0 1.0026 -8.942308e-002 -0.2149)" gradientUnits="userSpaceOnUse">
	<stop  offset="0.3091" style="stop-color:#3A7E86"/>
	<stop  offset="0.7818" style="stop-color:#23464B"/>
	<a:midPointStop  offset="0.3091" style="stop-color:#3A7E86"/>
	<a:midPointStop  offset="0.5" style="stop-color:#3A7E86"/>
	<a:midPointStop  offset="0.7818" style="stop-color:#23464B"/>
</radialGradient>
<path display="none" fill="url(#SVGID_17_)" d="M28,27.3c-0.5-0.1-0.9-0.3-1.3-0.4c-0.2,0.9-0.5,1.9-1.1,2.7
	c-1.9,2.6-5.4,4.3-7.4,4.7c0.5,0.2,1.1,0.3,1.6,0.4c0.2,0,0.3,0,0.5,0C24.3,34.3,27.4,31.2,28,27.3z"/>
<radialGradient id="SVGID_18_" cx="30.2871" cy="16.5352" r="28.0665" gradientTransform="matrix(1.0026 0 0 1.0026 -8.942308e-002 -0.2149)" gradientUnits="userSpaceOnUse">
	<stop  offset="0.3091" style="stop-color:#3A7E86"/>
	<stop  offset="0.7818" style="stop-color:#23464B"/>
	<a:midPointStop  offset="0.3091" style="stop-color:#3A7E86"/>
	<a:midPointStop  offset="0.5" style="stop-color:#3A7E86"/>
	<a:midPointStop  offset="0.7818" style="stop-color:#23464B"/>
</radialGradient>
<path display="none" fill="url(#SVGID_18_)" d="M42.4,22.4c0.2-1,0.2-2.1,0.2-3.1c-0.1-0.7-0.2-1.1-0.2-1.1s-1.7,5.7-7.1,6.5
	c-2.8,0.4-5.1-0.2-6.6-0.9c0.1,0.4,0.2,0.8,0.2,1.3c0,0.1,0,0.1,0,0.2c1.4,0.6,3.3,1.1,5.7,0.5c5.3-1.2,7-4.6,7-4.6s-1,4.5-7,6
	c-2.3,0.6-4.2,0.5-5.7,0.2c-0.6,3.6-3.1,6.6-6.5,7.6C32.1,36.1,40.9,30.7,42.4,22.4z"/>
<linearGradient id="SVGID_19_" gradientUnits="userSpaceOnUse" x1="3.906250e-003" y1="24" x2="48.0039" y2="24">
	<stop  offset="9.696970e-002" style="stop-color:#DF6A63"/>
	<stop  offset="0.5665" style="stop-color:#B5332A"/>
	<a:midPointStop  offset="9.696970e-002" style="stop-color:#DF6A63"/>
	<a:midPointStop  offset="0.5" style="stop-color:#DF6A63"/>
	<a:midPointStop  offset="0.5665" style="stop-color:#B5332A"/>
</linearGradient>
<path display="none" fill="url(#SVGID_19_)" d="M24,0c-4.8,0-9.3,1.4-13.1,3.9C9.6,4.7,8.5,5.7,7.4,6.7l2.7,4l8.7,12.7L12.6,8.1
	c3.7-3.2,8.4-5.1,13.6-5.1c11.6,0,20.9,9.4,20.9,20.9c0,11.6-9.4,20.9-20.9,20.9C16.1,45,7.6,37.7,5.7,28l10.8-0.8L5.3,24.8L0,23.6
	c0,0.1,0,0.3,0,0.4c0,1.5,0.1,3,0.4,4.4C2.5,39.6,12.3,48,24,48c13.3,0,24-10.7,24-24S37.3,0,24,0z"/>
<linearGradient id="SVGID_20_" gradientUnits="userSpaceOnUse" x1="1.1855" y1="18.75" x2="15.2124" y2="18.75">
	<stop  offset="9.696970e-002" style="stop-color:#DF6A63"/>
	<stop  offset="0.5665" style="stop-color:#B5332A"/>
	<a:midPointStop  offset="9.696970e-002" style="stop-color:#DF6A63"/>
	<a:midPointStop  offset="0.5" style="stop-color:#DF6A63"/>
	<a:midPointStop  offset="0.5665" style="stop-color:#B5332A"/>
</linearGradient>
<path display="none" fill="url(#SVGID_20_)" d="M6.6,16.7l-4-3.6c-0.6,1.1-1,2.2-1.4,3.4l4.7,2.6l9.3,5.2L6.6,16.7z"/>
<linearGradient id="SVGID_21_" gradientUnits="userSpaceOnUse" x1="27.8584" y1="9.8418" x2="35.3037" y2="9.8418">
	<stop  offset="0.297" style="stop-color:#B5332A"/>
	<stop  offset="0.8242" style="stop-color:#DF6A63"/>
	<a:midPointStop  offset="0.297" style="stop-color:#B5332A"/>
	<a:midPointStop  offset="0.5" style="stop-color:#B5332A"/>
	<a:midPointStop  offset="0.8242" style="stop-color:#DF6A63"/>
</linearGradient>
<path display="none" fill="url(#SVGID_21_)" d="M31.3,14.5C31.3,14.5,31.3,14.5,31.3,14.5c-2.9-7.9,3.1-11.9,3.4-12.1
	c0.6-0.4,0.8-1.2,0.4-1.8c-0.4-0.6-1.2-0.8-1.8-0.4c-0.1,0.1-8.2,5.3-4.4,15.4c-0.2,0.3-0.4,0.7-0.5,1.1c-0.2,1.4,0.7,2.7,2.1,3
	c1.4,0.2,2.7-0.7,3-2.1C33.7,16.1,32.7,14.8,31.3,14.5z"/>
<path display="none" fill="#FFFFFF" d="M30.9,35.8L30.9,35.8C30.9,35.7,30.9,35.7,30.9,35.8z"/>
<path display="none" fill="#FFFFFF" d="M33.4,35.7L33.4,35.7C33.4,35.7,33.4,35.7,33.4,35.7z"/>
<linearGradient id="SVGID_22_" gradientUnits="userSpaceOnUse" x1="3.4946" y1="29.0635" x2="22.7095" y2="29.0635">
	<stop  offset="9.696970e-002" style="stop-color:#DF6A63"/>
	<stop  offset="0.3977" style="stop-color:#B5332A"/>
	<a:midPointStop  offset="9.696970e-002" style="stop-color:#DF6A63"/>
	<a:midPointStop  offset="0.5" style="stop-color:#DF6A63"/>
	<a:midPointStop  offset="0.3977" style="stop-color:#B5332A"/>
</linearGradient>
<path display="none" fill="url(#SVGID_22_)" d="M10.3,18.1L3.6,40.5l-0.1,0.2c0,0.1-0.1,0.3-0.1,0.5c0,0.8,0.5,1.5,1.2,1.8L5.1,43
	l9.1,2.7v-25l8.5-8.4L10.3,18.1z"/>
<linearGradient id="SVGID_23_" gradientUnits="userSpaceOnUse" x1="13.8359" y1="28.9766" x2="40.0625" y2="28.9766">
	<stop  offset="0.2182" style="stop-color:#23464B"/>
	<stop  offset="0.6909" style="stop-color:#3A7E86"/>
	<a:midPointStop  offset="0.2182" style="stop-color:#23464B"/>
	<a:midPointStop  offset="0.5" style="stop-color:#23464B"/>
	<a:midPointStop  offset="0.6909" style="stop-color:#3A7E86"/>
</linearGradient>
<path display="none" fill="url(#SVGID_23_)" d="M31.5,10c-0.1,1.1,0.1,2.4,0.5,3.8c1.6,0.5,2.7,2.2,2.4,3.9c-0.3,1.7-1.8,3-3.5,3
	c-0.2,0-0.4,0-0.6,0c-0.9-0.2-1.8-0.7-2.3-1.4c-0.6-0.8-0.8-1.7-0.6-2.6c0.1-0.4,0.2-0.7,0.3-1c-0.3-0.8-0.5-1.6-0.6-2.3l-9.3,9.2
	V46c0,1.1,0.9,2,2,2c0.5,0,0.9-0.2,1.2-0.4l0.4-0.4l8.1-8.2c0,0,0,0,0,0c0.4-0.4,0.9-0.6,1.4-0.6s1,0.2,1.4,0.6c0,0,0,0,0,0s0,0,0,0
	l8.1,8.2l0.4,0.4c0.3,0.3,0.8,0.4,1.2,0.4c1.1,0,2-0.9,2-2V22.5L31.5,10z M27.2,35.6C27.2,35.6,27.1,35.6,27.2,35.6l-2.4,2.2
	c-0.1,0.1-0.2,0.2-0.4,0.3c-0.2,0.1-0.4,0.2-0.7,0.2c-0.7,0-1.3-0.6-1.3-1.3v-4.6c0-0.1,0-0.1,0-0.2c0-0.1,0-0.1,0-0.2
	c0.1-0.6,0.6-1.1,1.3-1.1c0.3,0,0.7,0.1,0.9,0.4c0,0,0,0,0,0l2.4,2.4c0.1,0.1,0.1,0.1,0.2,0.2c0.2,0.2,0.3,0.5,0.3,0.8
	C27.5,35,27.4,35.3,27.2,35.6z M39.8,37v0.5c-0.1,0.6-0.6,1-1.2,1c-0.2,0-0.5-0.1-0.7-0.2l-0.4-0.4l-9.3-8.9L28,28.8
	c-0.1-0.1-0.2-0.3-0.2-0.5c0-0.4,0.4-0.8,0.8-0.8c0.1,0,0.2,0,0.3,0l0.3,0.2l7.1,4.4l0-6.5l-0.2-1.6L36,23.5
	c0.1-0.5,0.5-0.9,1.1-0.9c0.2,0,0.4,0.1,0.5,0.1l0.5,0.5l1.6,1.8V37z"/>
<linearGradient id="SVGID_24_" gradientUnits="userSpaceOnUse" x1="26.1211" y1="36.833" x2="48.0068" y2="36.833">
	<stop  offset="0.3879" style="stop-color:#DF6A63"/>
	<stop  offset="0.8" style="stop-color:#B5332A"/>
	<a:midPointStop  offset="0.3879" style="stop-color:#DF6A63"/>
	<a:midPointStop  offset="0.5" style="stop-color:#DF6A63"/>
	<a:midPointStop  offset="0.8" style="stop-color:#B5332A"/>
</linearGradient>
<path display="none" fill="url(#SVGID_24_)" d="M48,31.8l-6.7-6.1v9.1l1.5-3.6c1.2,1.6,3.2,5.1,2.2,9c-2.9,11.7-19,0-19,0
	s13.2,13.3,19.3,5.2c3.6-4.9,1.4-10.9-0.2-14.1L48,31.8z"/>
<linearGradient id="SVGID_25_" gradientUnits="userSpaceOnUse" x1="14.6978" y1="0.1973" x2="2.0411" y2="25.5307">
	<stop  offset="9.696970e-002" style="stop-color:#DF6A63"/>
	<stop  offset="0.3977" style="stop-color:#B5332A"/>
	<a:midPointStop  offset="9.696970e-002" style="stop-color:#DF6A63"/>
	<a:midPointStop  offset="0.5" style="stop-color:#DF6A63"/>
	<a:midPointStop  offset="0.3977" style="stop-color:#B5332A"/>
</linearGradient>
<path display="none" fill="url(#SVGID_25_)" d="M0,16.2l6.7,6.1v-9.1l-1.5,3.6c-1.2-1.6-3.2-5.1-2.2-9c2.9-11.7,19,0,19,0
	S8.7-5.5,2.6,2.6C-1,7.5,1.2,13.6,2.8,16.7L0,16.2z"/>
<radialGradient id="SVGID_26_" cx="25.0049" cy="23.2856" r="21.6956" gradientTransform="matrix(1.0026 0 0 1.0652 -0.212 -0.504)" gradientUnits="userSpaceOnUse">
	<stop  offset="0.3091" style="stop-color:#3A7E86"/>
	<stop  offset="0.7818" style="stop-color:#23464B"/>
	<a:midPointStop  offset="0.3091" style="stop-color:#3A7E86"/>
	<a:midPointStop  offset="0.5" style="stop-color:#3A7E86"/>
	<a:midPointStop  offset="0.7818" style="stop-color:#23464B"/>
</radialGradient>
<path display="none" fill="url(#SVGID_26_)" d="M23.9,19.1c-2.8,0-5,2.5-5,5.6c0,3.1,2.3,5.6,5,5.6c2.8,0,5-2.5,5-5.6
	C29,21.6,26.7,19.1,23.9,19.1z M23.9,29.3c-2.3,0-4.1-2-4.1-4.6c0-2.5,1.8-4.6,4.1-4.6c2.3,0,4.1,2.1,4.1,4.6
	C28,27.2,26.2,29.3,23.9,29.3z"/>
<radialGradient id="SVGID_27_" cx="25.0049" cy="23.2856" r="21.6937" gradientTransform="matrix(1.0026 0 0 1.0652 -0.212 -0.504)" gradientUnits="userSpaceOnUse">
	<stop  offset="0.3091" style="stop-color:#3A7E86"/>
	<stop  offset="0.7818" style="stop-color:#23464B"/>
	<a:midPointStop  offset="0.3091" style="stop-color:#3A7E86"/>
	<a:midPointStop  offset="0.5" style="stop-color:#3A7E86"/>
	<a:midPointStop  offset="0.7818" style="stop-color:#23464B"/>
</radialGradient>
<ellipse display="none" fill="url(#SVGID_27_)" cx="23.9" cy="24.7" rx="3" ry="3.3"/>
<radialGradient id="SVGID_28_" cx="25.0049" cy="23.2856" r="21.6966" gradientTransform="matrix(1.0026 0 0 1.0652 -0.212 -0.504)" gradientUnits="userSpaceOnUse">
	<stop  offset="0.3091" style="stop-color:#3A7E86"/>
	<stop  offset="0.7818" style="stop-color:#23464B"/>
	<a:midPointStop  offset="0.3091" style="stop-color:#3A7E86"/>
	<a:midPointStop  offset="0.5" style="stop-color:#3A7E86"/>
	<a:midPointStop  offset="0.7818" style="stop-color:#23464B"/>
</radialGradient>
<path display="none" fill="url(#SVGID_28_)" d="M25.8,33.6c-0.6,0-1.1,0.1-1.8,0c-0.4,0-0.6-0.1-0.9-0.1c-3.2,0-5.8-3.6-5.8-8.1
	c0-2.4,0.7-4.5,1.9-6c-4,1.6-6.4,5-8,7.6C8.2,31.8,9,37.3,9,37.3c10.2-2,30.8,0,30.8,0V25.4C36.2,30.3,29.6,33.6,25.8,33.6z"/>
<radialGradient id="SVGID_29_" cx="25.0049" cy="23.2861" r="21.6969" gradientTransform="matrix(1.0026 0 0 1.0652 -0.212 -0.504)" gradientUnits="userSpaceOnUse">
	<stop  offset="0.3091" style="stop-color:#3A7E86"/>
	<stop  offset="0.7818" style="stop-color:#23464B"/>
	<a:midPointStop  offset="0.3091" style="stop-color:#3A7E86"/>
	<a:midPointStop  offset="0.5" style="stop-color:#3A7E86"/>
	<a:midPointStop  offset="0.7818" style="stop-color:#23464B"/>
</radialGradient>
<path display="none" fill="url(#SVGID_29_)" d="M22.2,16.6c0.6,0,1.1-0.1,1.8,0c0.4,0,0.6,0.1,0.9,0.1c3.2,0,5.8,3.6,5.8,8.1
	c0,2.4-0.7,4.5-1.9,6c4-1.6,6.4-5,8-7.6c3-4.7,2.2-10.2,2.2-10.2c-10.2,2-30.8,0-30.8,0v11.9C11.8,20,18.4,16.6,22.2,16.6z"/>
<radialGradient id="SVGID_30_" cx="23.5425" cy="13.147" r="24.1806" gradientTransform="matrix(1 0 0 1.0252 0 0.2909)" gradientUnits="userSpaceOnUse">
	<stop  offset="0.3091" style="stop-color:#3A7E86"/>
	<stop  offset="0.7818" style="stop-color:#23464B"/>
	<a:midPointStop  offset="0.3091" style="stop-color:#3A7E86"/>
	<a:midPointStop  offset="0.5" style="stop-color:#3A7E86"/>
	<a:midPointStop  offset="0.7818" style="stop-color:#23464B"/>
</radialGradient>
<path display="none" fill="url(#SVGID_30_)" d="M23.9,5.7c-4.2,0-7.6,3.5-7.6,7.8c0,4.3,3.4,7.8,7.6,7.8s7.6-3.5,7.6-7.8
	C31.5,9.2,28.1,5.7,23.9,5.7z M23.9,20c-3.4,0-6.2-2.9-6.2-6.4c0-3.5,2.8-6.4,6.2-6.4c3.4,0,6.2,2.9,6.2,6.4
	C30.2,17.1,27.4,20,23.9,20z"/>
<radialGradient id="SVGID_31_" cx="23.5425" cy="13.1475" r="24.1802" gradientTransform="matrix(1 0 0 1.0252 0 0.2909)" gradientUnits="userSpaceOnUse">
	<stop  offset="0.3091" style="stop-color:#3A7E86"/>
	<stop  offset="0.7818" style="stop-color:#23464B"/>
	<a:midPointStop  offset="0.3091" style="stop-color:#3A7E86"/>
	<a:midPointStop  offset="0.5" style="stop-color:#3A7E86"/>
	<a:midPointStop  offset="0.7818" style="stop-color:#23464B"/>
</radialGradient>
<ellipse display="none" fill="url(#SVGID_31_)" cx="23.9" cy="13.6" rx="4.6" ry="4.7"/>
<radialGradient id="SVGID_32_" cx="23.542" cy="13.147" r="24.1811" gradientTransform="matrix(1 0 0 1.0252 0 0.2909)" gradientUnits="userSpaceOnUse">
	<stop  offset="0.3091" style="stop-color:#3A7E86"/>
	<stop  offset="0.7818" style="stop-color:#23464B"/>
	<a:midPointStop  offset="0.3091" style="stop-color:#3A7E86"/>
	<a:midPointStop  offset="0.5" style="stop-color:#3A7E86"/>
	<a:midPointStop  offset="0.7818" style="stop-color:#23464B"/>
</radialGradient>
<path display="none" fill="url(#SVGID_32_)" d="M26.8,23.2c-0.9,0-1.7,0.1-2.7,0c-0.6,0-0.9-0.1-1.3-0.1c-4.9,0-8.9-4.1-8.9-9.1
	c0-2.7,1.1-5.1,2.9-6.7C10.8,9.1,7.1,13,4.6,15.9c-4.5,5.3-3.3,11.4-3.3,11.4c15.5-2.2,46.7,0,46.7,0V14
	C42.5,19.4,32.5,23.2,26.8,23.2z"/>
<radialGradient id="SVGID_33_" cx="23.542" cy="13.1475" r="24.1809" gradientTransform="matrix(1 0 0 1.0252 0 0.2909)" gradientUnits="userSpaceOnUse">
	<stop  offset="0.3091" style="stop-color:#3A7E86"/>
	<stop  offset="0.7818" style="stop-color:#23464B"/>
	<a:midPointStop  offset="0.3091" style="stop-color:#3A7E86"/>
	<a:midPointStop  offset="0.5" style="stop-color:#3A7E86"/>
	<a:midPointStop  offset="0.7818" style="stop-color:#23464B"/>
</radialGradient>
<path display="none" fill="url(#SVGID_33_)" d="M23.9,4.1c0.6,0,0.9,0.1,1.3,0.1c4.9,0,8.9,4.1,8.9,9.1c0,2.7-1.1,5.1-2.9,6.7
	c6.1-1.7,9.7-5.6,12.2-8.5C47.9,6.1,46.7,0,46.7,0C31.3,2.2,0,0,0,0v13.3c5.5-5.4,15.5-9.2,21.2-9.2C22.1,4.1,22.9,4,23.9,4.1z"/>
<linearGradient id="SVGID_34_" gradientUnits="userSpaceOnUse" x1="20.6069" y1="33.1426" x2="18.3171" y2="28.3805">
	<stop  offset="0.3879" style="stop-color:#DF6A63"/>
	<stop  offset="0.8" style="stop-color:#B5332A"/>
	<a:midPointStop  offset="0.3879" style="stop-color:#DF6A63"/>
	<a:midPointStop  offset="0.5" style="stop-color:#DF6A63"/>
	<a:midPointStop  offset="0.8" style="stop-color:#B5332A"/>
</linearGradient>
<path display="none" fill="url(#SVGID_34_)" d="M17.8,28.9L23,39.5l-3.6-10.6C18.8,28.9,18.3,28.9,17.8,28.9z"/>
<linearGradient id="SVGID_35_" gradientUnits="userSpaceOnUse" x1="20.0171" y1="40.8857" x2="11.713" y2="29.7148">
	<stop  offset="0.3879" style="stop-color:#DF6A63"/>
	<stop  offset="0.8" style="stop-color:#B5332A"/>
	<a:midPointStop  offset="0.3879" style="stop-color:#DF6A63"/>
	<a:midPointStop  offset="0.5" style="stop-color:#DF6A63"/>
	<a:midPointStop  offset="0.8" style="stop-color:#B5332A"/>
</linearGradient>
<path display="none" fill="url(#SVGID_35_)" d="M9.3,29.2L23,48l-9.5-19C12,29,10.6,29.1,9.3,29.2z"/>
<linearGradient id="SVGID_36_" gradientUnits="userSpaceOnUse" x1="25.0908" y1="34.2656" x2="30.2031" y2="34.2656">
	<stop  offset="0.3879" style="stop-color:#DF6A63"/>
	<stop  offset="0.8" style="stop-color:#B5332A"/>
	<a:midPointStop  offset="0.3879" style="stop-color:#DF6A63"/>
	<a:midPointStop  offset="0.5" style="stop-color:#DF6A63"/>
	<a:midPointStop  offset="0.8" style="stop-color:#B5332A"/>
</linearGradient>
<path display="none" fill="url(#SVGID_36_)" d="M28.7,29l-3.6,10.5L30.2,29C29.7,29,29.2,29,28.7,29z"/>
<linearGradient id="SVGID_37_" gradientUnits="userSpaceOnUse" x1="25.0908" y1="38.5811" x2="38.6406" y2="38.5811">
	<stop  offset="0.3879" style="stop-color:#DF6A63"/>
	<stop  offset="0.8" style="stop-color:#B5332A"/>
	<a:midPointStop  offset="0.3879" style="stop-color:#DF6A63"/>
	<a:midPointStop  offset="0.5" style="stop-color:#DF6A63"/>
	<a:midPointStop  offset="0.8" style="stop-color:#B5332A"/>
</linearGradient>
<path display="none" fill="url(#SVGID_37_)" d="M34.5,29.2L25.1,48l13.5-18.6C37.3,29.3,35.9,29.2,34.5,29.2z"/>
</svg>
