<?xml version="1.0" encoding="utf-8"?>
<!-- Generator: Adobe Illustrator 15.0.0, SVG Export Plug-In  -->
<!DOCTYPE svg PUBLIC "-//W3C//DTD SVG 1.1//EN" "http://www.w3.org/Graphics/SVG/1.1/DTD/svg11.dtd" [
	<!ENTITY ns_flows "http://ns.adobe.com/Flows/1.0/">
]>
<svg version="1.1"
	 xmlns="http://www.w3.org/2000/svg" xmlns:xlink="http://www.w3.org/1999/xlink" xmlns:a="http://ns.adobe.com/AdobeSVGViewerExtensions/3.0/"
	 x="0px" y="0px" width="48px" height="48px" viewBox="0 0 48 48" enable-background="new 0 0 48 48" xml:space="preserve">
<defs>
</defs>
<path display="none" fill="#FFFFFF" d="M33.8,36.7h-20C7.3,36.7,2.1,31.5,2.1,25v-5.4C2.1,13.2,7.3,8,13.8,8h20
	c6.4,0,11.6,5.2,11.6,11.6V25C45.4,31.5,40.2,36.7,33.8,36.7z M13.8,10.1c-5.3,0-9.5,4.3-9.5,9.5V25c0,5.3,4.3,9.5,9.5,9.5h20
	c5.3,0,9.5-4.3,9.5-9.5v-5.4c0-5.3-4.3-9.5-9.5-9.5H13.8z"/>
<g display="none">
	<g display="inline">
		<linearGradient id="SVGID_1_" gradientUnits="userSpaceOnUse" x1="14.1699" y1="45.8896" x2="33.8325" y2="2.1071">
			<stop  offset="0.2303" style="stop-color:#368032"/>
			<stop  offset="0.8242" style="stop-color:#182B04"/>
			<a:midPointStop  offset="0.2303" style="stop-color:#368032"/>
			<a:midPointStop  offset="0.5" style="stop-color:#368032"/>
			<a:midPointStop  offset="0.8242" style="stop-color:#182B04"/>
		</linearGradient>
		<path display="none" fill="url(#SVGID_1_)" d="M24,0C10.8,0,0,10.8,0,24c0,6.5,2.6,12.4,6.9,16.8c0.4-0.5,0.8-1.1,1.2-1.8
			c-1.8-1.9-3.2-4-4.2-6.4c-1.6-2.1-2.5-4.7-2.5-7.5v-5.4c0-5.1,3.1-9.5,7.5-11.4c3.9-3.8,9.3-6.2,15.2-6.2c6.1,0,11.7,2.5,15.7,6.6
			c3.9,2.1,6.5,6.2,6.5,10.9V25c0,2-0.5,3.9-1.3,5.5C42.1,39.4,33.8,45.9,24,45.9c-4.4,0-8.5-1.3-11.9-3.5c-0.3,0.2-0.6,0.3-0.9,0.4
			c-0.5,0.2-0.9,0.5-1.3,0.6c3.9,2.9,8.8,4.5,14,4.5c13.2,0,24-10.8,24-24C48,10.8,37.2,0,24,0z"/>
		<linearGradient id="SVGID_2_" gradientUnits="userSpaceOnUse" x1="22.0024" y1="12.1641" x2="26.4117" y2="2.346">
			<stop  offset="0.2303" style="stop-color:#368032"/>
			<stop  offset="0.8242" style="stop-color:#182B04"/>
			<a:midPointStop  offset="0.2303" style="stop-color:#368032"/>
			<a:midPointStop  offset="0.5" style="stop-color:#368032"/>
			<a:midPointStop  offset="0.8242" style="stop-color:#182B04"/>
		</linearGradient>
		<path display="none" fill="url(#SVGID_2_)" d="M11.5,7.5c0.7-0.1,1.5-0.2,2.3-0.2h1.5c2.6-1.4,5.6-2.2,8.8-2.2
			c3.2,0,6.1,0.8,8.8,2.2h1c1,0,2,0.1,2.9,0.3C33.2,4.9,28.8,3.3,24,3.3C19.3,3.3,15,4.8,11.5,7.5z"/>
		<linearGradient id="SVGID_3_" gradientUnits="userSpaceOnUse" x1="23.7603" y1="46.6318" x2="31.4069" y2="29.605">
			<stop  offset="0.2303" style="stop-color:#368032"/>
			<stop  offset="0.8242" style="stop-color:#182B04"/>
			<a:midPointStop  offset="0.2303" style="stop-color:#368032"/>
			<a:midPointStop  offset="0.5" style="stop-color:#368032"/>
			<a:midPointStop  offset="0.8242" style="stop-color:#182B04"/>
		</linearGradient>
		<path display="none" fill="url(#SVGID_3_)" d="M15.1,40.7c-0.6,0.4-1.2,0.8-1.8,1.1c3.1,1.9,6.8,3,10.7,3c7.7,0,14.4-4.2,18-10.4
			c-1.2,1-2.5,1.8-4,2.4c-3.5,3.8-8.5,6.2-14,6.2C20.8,42.9,17.7,42.1,15.1,40.7z"/>
		<linearGradient id="SVGID_4_" gradientUnits="userSpaceOnUse" x1="7.1992" y1="37.2451" x2="7.8809" y2="35.7271">
			<stop  offset="0.2303" style="stop-color:#368032"/>
			<stop  offset="0.8242" style="stop-color:#182B04"/>
			<a:midPointStop  offset="0.2303" style="stop-color:#368032"/>
			<a:midPointStop  offset="0.5" style="stop-color:#368032"/>
			<a:midPointStop  offset="0.8242" style="stop-color:#182B04"/>
		</linearGradient>
		<path display="none" fill="url(#SVGID_4_)" d="M8.6,37.9C8.8,37.5,9,37,9.2,36.6c-1-0.4-1.8-0.9-2.7-1.5C7.1,36.1,7.8,37,8.6,37.9
			z"/>
	</g>
	<g display="inline">
		<linearGradient id="SVGID_5_" gradientUnits="userSpaceOnUse" x1="46.8271" y1="7.7886" x2="7.7089" y2="35.5697">
			<stop  offset="0.2303" style="stop-color:#368032"/>
			<stop  offset="0.8242" style="stop-color:#182B04"/>
			<a:midPointStop  offset="0.2303" style="stop-color:#368032"/>
			<a:midPointStop  offset="0.5" style="stop-color:#368032"/>
			<a:midPointStop  offset="0.8242" style="stop-color:#182B04"/>
		</linearGradient>
		<path display="none" fill="url(#SVGID_5_)" d="M24,0C10.8,0,0,10.8,0,24c0,6.5,2.6,12.4,6.9,16.8c0.4-0.5,0.8-1.1,1.2-1.8
			c-1.8-1.9-3.2-4-4.2-6.4c-1.6-2.1-2.5-4.7-2.5-7.5v-5.4c0-5.1,3.1-9.5,7.5-11.4c3.9-3.8,9.3-6.2,15.2-6.2c6.1,0,11.7,2.5,15.7,6.6
			c3.9,2.1,6.5,6.2,6.5,10.9V25c0,2-0.5,3.9-1.3,5.5C42.1,39.4,33.8,45.9,24,45.9c-4.4,0-8.5-1.3-11.9-3.5c-0.3,0.2-0.6,0.3-0.9,0.4
			c-0.5,0.2-0.9,0.5-1.3,0.6c3.9,2.9,8.8,4.5,14,4.5c13.2,0,24-10.8,24-24C48,10.8,37.2,0,24,0z"/>
		<linearGradient id="SVGID_6_" gradientUnits="userSpaceOnUse" x1="46.8271" y1="7.7886" x2="7.7089" y2="35.5697">
			<stop  offset="0.2303" style="stop-color:#368032"/>
			<stop  offset="0.8242" style="stop-color:#182B04"/>
			<a:midPointStop  offset="0.2303" style="stop-color:#368032"/>
			<a:midPointStop  offset="0.5" style="stop-color:#368032"/>
			<a:midPointStop  offset="0.8242" style="stop-color:#182B04"/>
		</linearGradient>
		<path display="none" fill="url(#SVGID_6_)" d="M11.5,7.5c0.7-0.1,1.5-0.2,2.3-0.2h1.5c2.6-1.4,5.6-2.2,8.8-2.2
			c3.2,0,6.1,0.8,8.8,2.2h1c1,0,2,0.1,2.9,0.3C33.2,4.9,28.8,3.3,24,3.3C19.3,3.3,15,4.8,11.5,7.5z"/>
		<linearGradient id="SVGID_7_" gradientUnits="userSpaceOnUse" x1="46.8271" y1="7.7886" x2="7.7089" y2="35.5697">
			<stop  offset="0.2303" style="stop-color:#368032"/>
			<stop  offset="0.8242" style="stop-color:#182B04"/>
			<a:midPointStop  offset="0.2303" style="stop-color:#368032"/>
			<a:midPointStop  offset="0.5" style="stop-color:#368032"/>
			<a:midPointStop  offset="0.8242" style="stop-color:#182B04"/>
		</linearGradient>
		<path display="none" fill="url(#SVGID_7_)" d="M15.1,40.7c-0.6,0.4-1.2,0.8-1.8,1.1c3.1,1.9,6.8,3,10.7,3c7.7,0,14.4-4.2,18-10.4
			c-1.2,1-2.5,1.8-4,2.4c-3.5,3.8-8.5,6.2-14,6.2C20.8,42.9,17.7,42.1,15.1,40.7z"/>
		<linearGradient id="SVGID_8_" gradientUnits="userSpaceOnUse" x1="46.8271" y1="7.7886" x2="7.7089" y2="35.5697">
			<stop  offset="0.2303" style="stop-color:#368032"/>
			<stop  offset="0.8242" style="stop-color:#182B04"/>
			<a:midPointStop  offset="0.2303" style="stop-color:#368032"/>
			<a:midPointStop  offset="0.5" style="stop-color:#368032"/>
			<a:midPointStop  offset="0.8242" style="stop-color:#182B04"/>
		</linearGradient>
		<path display="none" fill="url(#SVGID_8_)" d="M8.6,37.9C8.8,37.5,9,37,9.2,36.6c-1-0.4-1.8-0.9-2.7-1.5C7.1,36.1,7.8,37,8.6,37.9
			z"/>
	</g>
</g>
<linearGradient id="SVGID_9_" gradientUnits="userSpaceOnUse" x1="14.1006" y1="43.8662" x2="30.1829" y2="8.0558">
	<stop  offset="0.2303" style="stop-color:#368032"/>
	<stop  offset="0.8242" style="stop-color:#00C689"/>
	<a:midPointStop  offset="0.2303" style="stop-color:#368032"/>
	<a:midPointStop  offset="0.5" style="stop-color:#368032"/>
	<a:midPointStop  offset="0.8242" style="stop-color:#00C689"/>
</linearGradient>
<path display="none" fill="url(#SVGID_9_)" d="M33.8,9.1h-20c-5.8,0-10.6,4.7-10.6,10.6V25c0,4.7,3.1,8.7,7.3,10.1
	c-0.7,2.1-1.9,5-3.6,6.8c-3,3.1-0.2,2.7,2.2,1.2c1.9-1.2,7.3-3,10.1-7.5h14.6c5.8,0,10.6-4.7,10.6-10.6v-5.4
	C44.3,13.8,39.6,9.1,33.8,9.1z M13.2,25.5c-1.7,0-3.1-1.4-3.1-3.1c0-1.7,1.4-3.1,3.1-3.1c1.7,0,3.1,1.4,3.1,3.1
	C16.3,24.1,14.9,25.5,13.2,25.5z M23.8,25.5c-1.7,0-3.1-1.4-3.1-3.1c0-1.7,1.4-3.1,3.1-3.1c1.7,0,3.1,1.4,3.1,3.1
	C26.8,24.1,25.5,25.5,23.8,25.5z M34,25.5c-1.7,0-3.1-1.4-3.1-3.1c0-1.7,1.4-3.1,3.1-3.1c1.7,0,3.1,1.4,3.1,3.1
	C37.1,24.1,35.7,25.5,34,25.5z"/>
<g display="none">
	<g display="inline">
		<path display="none" fill="#006E57" d="M33.8,8.1h-20c-6.4,0-11.6,5.2-11.6,11.6v5.4c0,5.2,3.4,9.5,8,11.1c0.1-0.3,0.2-0.7,0.3-1
			c-4.2-1.4-7.3-5.4-7.3-10.1v-5.4c0-5.8,4.7-10.6,10.6-10.6h20c5.8,0,10.6,4.7,10.6,10.6v5.4c0,5.8-4.7,10.6-10.6,10.6H19.2
			c-0.2,0.4-0.5,0.7-0.8,1.1h15.3c6.4,0,11.6-5.2,11.6-11.6v-5.4C45.4,13.4,40.2,8.1,33.8,8.1z"/>
	</g>
</g>
<linearGradient id="SVGID_10_" gradientUnits="userSpaceOnUse" x1="1.7505" y1="39.1436" x2="48.1431" y2="26.6715">
	<stop  offset="0.2303" style="stop-color:#368032"/>
	<stop  offset="0.8242" style="stop-color:#00C689"/>
	<a:midPointStop  offset="0.2303" style="stop-color:#368032"/>
	<a:midPointStop  offset="0.5" style="stop-color:#368032"/>
	<a:midPointStop  offset="0.8242" style="stop-color:#00C689"/>
</linearGradient>
<path fill="url(#SVGID_10_)" d="M35.5,21.9h-2.6c-0.1-1.6,0.3-2.8,0.3-2.8l0.7-2l-1.7,1.3c-1.3,1.1-2,2.3-2.4,3.5H19.7
	c-0.4-1.2-1.1-2.5-2.4-3.5l-1.7-1.3l0.7,2c0,0,0.4,1.2,0.3,2.8h-4.2C5.6,21.9,0,27.8,0,35s5.6,13,12.5,13h23C42.4,48,48,42.2,48,35
	S42.4,21.9,35.5,21.9z"/>
<linearGradient id="SVGID_11_" gradientUnits="userSpaceOnUse" x1="44.1006" y1="9.3682" x2="35.5345" y2="0.6943">
	<stop  offset="0.2303" style="stop-color:#368032"/>
	<stop  offset="0.8242" style="stop-color:#00C689"/>
	<a:midPointStop  offset="0.2303" style="stop-color:#368032"/>
	<a:midPointStop  offset="0.5" style="stop-color:#368032"/>
	<a:midPointStop  offset="0.8242" style="stop-color:#00C689"/>
</linearGradient>
<path fill="url(#SVGID_11_)" d="M42.4,11.5c2.6-0.6,4.2-3.4,3.6-6.1c-0.6-2.7-3.2-4.4-5.8-3.8C37.6,2.2,36,5,36.6,7.7
	C37.2,10.4,39.8,12.1,42.4,11.5z"/>
<g>
	<g>
		<path fill="#565656" d="M33,0c-3.2,6-4.5,13.7-5,20.9h1.3c0.5-1.3,1.4-2.4,2.5-3.3l4.3-3.4l-1.9,5.3c0,0-0.2,0.6-0.3,1.5h1.6
			c1.6,0,3.1,0.3,4.5,0.8c3.5-3.4,6.4-5.2,6.4-5.2C31.3,17.1,33,0,33,0z"/>
		<path fill="#565656" d="M2.9,16.5c0,0,2.7,1.7,6.1,4.9c1.1-0.3,2.4-0.5,3.6-0.5h3.2c-0.1-0.9-0.3-1.5-0.3-1.5l-1.9-5.3l4.3,3.4
			c1.1,0.9,2,2,2.5,3.3h0.9c-0.5-7.2-1.9-14.9-5-20.9C16.2,0,18,17.1,2.9,16.5z"/>
	</g>
	<g>
		
			<radialGradient id="SVGID_12_" cx="24.7476" cy="6.0161" r="17.0929" gradientTransform="matrix(0.9977 0 0 1.0423 0.1121 -0.8077)" gradientUnits="userSpaceOnUse">
			<stop  offset="0.2303" style="stop-color:#368032"/>
			<stop  offset="0.8242" style="stop-color:#182B04"/>
			<a:midPointStop  offset="0.2303" style="stop-color:#368032"/>
			<a:midPointStop  offset="0.5" style="stop-color:#368032"/>
			<a:midPointStop  offset="0.8242" style="stop-color:#182B04"/>
		</radialGradient>
		<path fill="url(#SVGID_12_)" d="M33,0c-3.2,6-4.5,13.7-5,20.9h1.3c0.5-1.3,1.4-2.4,2.5-3.3l4.3-3.4l-1.9,5.3c0,0-0.2,0.6-0.3,1.5
			h1.6c1.6,0,3.1,0.3,4.5,0.8c3.5-3.4,6.4-5.2,6.4-5.2C31.3,17.1,33,0,33,0z"/>
		
			<radialGradient id="SVGID_13_" cx="24.7476" cy="6.0161" r="17.0929" gradientTransform="matrix(0.9977 0 0 1.0423 0.1121 -0.8077)" gradientUnits="userSpaceOnUse">
			<stop  offset="0.2303" style="stop-color:#368032"/>
			<stop  offset="0.8242" style="stop-color:#182B04"/>
			<a:midPointStop  offset="0.2303" style="stop-color:#368032"/>
			<a:midPointStop  offset="0.5" style="stop-color:#368032"/>
			<a:midPointStop  offset="0.8242" style="stop-color:#182B04"/>
		</radialGradient>
		<path fill="url(#SVGID_13_)" d="M2.9,16.5c0,0,2.7,1.7,6.1,4.9c1.1-0.3,2.4-0.5,3.6-0.5h3.2c-0.1-0.9-0.3-1.5-0.3-1.5l-1.9-5.3
			l4.3,3.4c1.1,0.9,2,2,2.5,3.3h0.9c-0.5-7.2-1.9-14.9-5-20.9C16.2,0,18,17.1,2.9,16.5z"/>
	</g>
</g>
<linearGradient id="SVGID_14_" gradientUnits="userSpaceOnUse" x1="4.0259" y1="8.5288" x2="12.7667" y2="4.0929">
	<stop  offset="0.2303" style="stop-color:#368032"/>
	<stop  offset="0.8242" style="stop-color:#00C689"/>
	<a:midPointStop  offset="0.2303" style="stop-color:#368032"/>
	<a:midPointStop  offset="0.5" style="stop-color:#368032"/>
	<a:midPointStop  offset="0.8242" style="stop-color:#00C689"/>
</linearGradient>
<path fill="url(#SVGID_14_)" d="M6.8,11.5c2.6,0.6,5.2-1.1,5.8-3.8c0.6-2.7-1-5.5-3.6-6.1C6.4,1,3.8,2.7,3.2,5.4
	C2.6,8.1,4.2,10.9,6.8,11.5z"/>
<path fill="#FFFFFF" d="M39.9,29.3c0,0.8-0.6,1.4-1.4,1.4H9.5c-0.7,0-1.4-0.6-1.4-1.4l0,0c0-0.8,0.6-1.4,1.4-1.4h29.1
	C39.3,27.9,39.9,28.5,39.9,29.3L39.9,29.3z"/>
<path fill="#FFFFFF" d="M39.9,35c0,0.8-0.6,1.4-1.4,1.4H9.5c-0.7,0-1.4-0.6-1.4-1.4l0,0c0-0.8,0.6-1.4,1.4-1.4h29.1
	C39.3,33.5,39.9,34.2,39.9,35L39.9,35z"/>
<path fill="#FFFFFF" d="M39.9,40.3c0,0.8-0.6,1.4-1.4,1.4H9.5c-0.7,0-1.4-0.6-1.4-1.4l0,0c0-0.8,0.6-1.4,1.4-1.4h29.1
	C39.3,38.9,39.9,39.5,39.9,40.3L39.9,40.3z"/>
</svg>
