<?xml version="1.0" encoding="utf-8"?>
<!-- Generator: Adobe Illustrator 15.0.0, SVG Export Plug-In  -->
<!DOCTYPE svg PUBLIC "-//W3C//DTD SVG 1.1//EN" "http://www.w3.org/Graphics/SVG/1.1/DTD/svg11.dtd" [
	<!ENTITY ns_flows "http://ns.adobe.com/Flows/1.0/">
]>
<svg version="1.1"
	 xmlns="http://www.w3.org/2000/svg" xmlns:xlink="http://www.w3.org/1999/xlink" xmlns:a="http://ns.adobe.com/AdobeSVGViewerExtensions/3.0/"
	 x="0px" y="0px" width="48px" height="48px" viewBox="0 0 48 48" enable-background="new 0 0 48 48" xml:space="preserve">
<defs>
</defs>
<linearGradient id="SVGID_1_" gradientUnits="userSpaceOnUse" x1="6.5713" y1="24.4595" x2="47.5238" y2="24.4595">
	<stop  offset="0" style="stop-color:#2A3859"/>
	<stop  offset="1" style="stop-color:#3C5387"/>
	<a:midPointStop  offset="0" style="stop-color:#2A3859"/>
	<a:midPointStop  offset="0.5" style="stop-color:#2A3859"/>
	<a:midPointStop  offset="1" style="stop-color:#3C5387"/>
</linearGradient>
<path display="none" fill="url(#SVGID_1_)" d="M5.4,21.7l0-3.2l-4.5,4.8L0.2,24C0.1,24.2,0,24.5,0,24.8c0,0.3,0.1,0.6,0.2,0.8
	L1,26.3l4.4,4.1V27l-2.2-2.3l-0.2-0.2l0.2-0.2L5.4,21.7z"/>
<linearGradient id="SVGID_2_" gradientUnits="userSpaceOnUse" x1="6.2764" y1="22.1523" x2="47.5276" y2="22.1523">
	<stop  offset="0" style="stop-color:#2A3859"/>
	<stop  offset="1" style="stop-color:#3C5387"/>
	<a:midPointStop  offset="0" style="stop-color:#2A3859"/>
	<a:midPointStop  offset="0.5" style="stop-color:#2A3859"/>
	<a:midPointStop  offset="1" style="stop-color:#3C5387"/>
</linearGradient>
<path display="none" fill="url(#SVGID_2_)" d="M47.4,22.1l0.2,0.2C47.6,22.2,47.5,22.1,47.4,22.1z"/>
<linearGradient id="SVGID_3_" gradientUnits="userSpaceOnUse" x1="6.25" y1="24.5381" x2="47.5284" y2="24.5381">
	<stop  offset="0" style="stop-color:#2A3859"/>
	<stop  offset="1" style="stop-color:#3C5387"/>
	<a:midPointStop  offset="0" style="stop-color:#2A3859"/>
	<a:midPointStop  offset="0.5" style="stop-color:#2A3859"/>
	<a:midPointStop  offset="1" style="stop-color:#3C5387"/>
</linearGradient>
<path display="none" fill="url(#SVGID_3_)" d="M47.8,24.4l-0.3,0.3C47.6,24.6,47.7,24.5,47.8,24.4z"/>
<linearGradient id="SVGID_4_" gradientUnits="userSpaceOnUse" x1="6.5723" y1="23.6719" x2="47.5283" y2="23.6719">
	<stop  offset="0" style="stop-color:#2A3859"/>
	<stop  offset="1" style="stop-color:#3C5387"/>
	<a:midPointStop  offset="0" style="stop-color:#2A3859"/>
	<a:midPointStop  offset="0.5" style="stop-color:#2A3859"/>
	<a:midPointStop  offset="1" style="stop-color:#3C5387"/>
</linearGradient>
<path display="none" fill="url(#SVGID_4_)" d="M47.7,22.3l-0.2-0.2l-4.6-4.3v2.7l2.2,2.2l0.5,0.5L45,23.9l-2.2,2.5v3.2l4.6-4.9
	l0.3-0.3c0.2-0.3,0.3-0.6,0.3-1C48.1,22.9,47.9,22.5,47.7,22.3z"/>
<linearGradient id="SVGID_5_" gradientUnits="userSpaceOnUse" x1="6.5723" y1="7.1289" x2="47.528" y2="7.1289">
	<stop  offset="0" style="stop-color:#2A3859"/>
	<stop  offset="1" style="stop-color:#3C5387"/>
	<a:midPointStop  offset="0" style="stop-color:#2A3859"/>
	<a:midPointStop  offset="0.5" style="stop-color:#2A3859"/>
	<a:midPointStop  offset="1" style="stop-color:#3C5387"/>
</linearGradient>
<path display="none" fill="url(#SVGID_5_)" d="M6.5,4.6L6.2,4.3c-0.1,0-0.1,0-0.2,0c-0.4,0-0.7,0.3-0.7,0.7c0,0.1,0,0.1,0,0.2
	l0.2,0.3L8.4,10c0.7-0.5,1.3-0.6,1.3-0.7l0.1,0h2.1L6.5,4.6z"/>
<linearGradient id="SVGID_6_" gradientUnits="userSpaceOnUse" x1="6.5718" y1="41.8711" x2="47.5371" y2="41.8711">
	<stop  offset="0" style="stop-color:#2A3859"/>
	<stop  offset="1" style="stop-color:#3C5387"/>
	<a:midPointStop  offset="0" style="stop-color:#2A3859"/>
	<a:midPointStop  offset="0.5" style="stop-color:#2A3859"/>
	<a:midPointStop  offset="1" style="stop-color:#3C5387"/>
</linearGradient>
<path display="none" fill="url(#SVGID_6_)" d="M7.2,40.3c-0.3,0-0.6-0.1-0.8-0.2l-2.2,2.4l-0.4,0.4c0,0.1,0,0.1,0,0.2
	c0,0.3,0.2,0.6,0.5,0.6l0.5-0.3l4.9-3H7.2z"/>
<linearGradient id="SVGID_7_" gradientUnits="userSpaceOnUse" x1="6.5747" y1="41.8975" x2="47.5293" y2="41.8975">
	<stop  offset="0" style="stop-color:#2A3859"/>
	<stop  offset="1" style="stop-color:#3C5387"/>
	<a:midPointStop  offset="0" style="stop-color:#2A3859"/>
	<a:midPointStop  offset="0.5" style="stop-color:#2A3859"/>
	<a:midPointStop  offset="1" style="stop-color:#3C5387"/>
</linearGradient>
<path display="none" fill="url(#SVGID_7_)" d="M44.3,43l-0.5-0.5l-2.1-2.3c-0.2,0.1-0.4,0.1-0.7,0.1h-2.8l5,3l0.4,0.2c0,0,0,0,0.1,0
	C44,43.6,44.3,43.4,44.3,43C44.3,43,44.3,43,44.3,43z"/>
<linearGradient id="SVGID_8_" gradientUnits="userSpaceOnUse" x1="6.5723" y1="7.1416" x2="47.5282" y2="7.1416">
	<stop  offset="0" style="stop-color:#2A3859"/>
	<stop  offset="1" style="stop-color:#3C5387"/>
	<a:midPointStop  offset="0" style="stop-color:#2A3859"/>
	<a:midPointStop  offset="0.5" style="stop-color:#2A3859"/>
	<a:midPointStop  offset="1" style="stop-color:#3C5387"/>
</linearGradient>
<path display="none" fill="url(#SVGID_8_)" d="M42.3,4.2c-0.1,0-0.2,0-0.2,0l-0.3,0.3l-5.4,4.7l2.2,0l0.1,0c0.4,0.2,0.8,0.4,1.2,0.7
	l2.9-4.6l0.2-0.3c0-0.1,0-0.1,0-0.2C43,4.6,42.7,4.2,42.3,4.2z"/>
<linearGradient id="SVGID_9_" gradientUnits="userSpaceOnUse" x1="6.5732" y1="44.1533" x2="47.5267" y2="44.1533">
	<stop  offset="0" style="stop-color:#2A3859"/>
	<stop  offset="1" style="stop-color:#3C5387"/>
	<a:midPointStop  offset="0" style="stop-color:#2A3859"/>
	<a:midPointStop  offset="0.5" style="stop-color:#2A3859"/>
	<a:midPointStop  offset="1" style="stop-color:#3C5387"/>
</linearGradient>
<path display="none" fill="url(#SVGID_9_)" d="M30.7,40.3l-4.5,5.2L25,46.9l-1.4-1.5l-5-5.1h-2.5l7.5,7l0.5,0.5
	c0.2,0.1,0.5,0.2,0.7,0.2c0.3,0,0.6-0.1,0.8-0.3l0.5-0.5l6.5-6.9H30.7z"/>
<linearGradient id="SVGID_10_" gradientUnits="userSpaceOnUse" x1="6.5723" y1="4.9023" x2="47.528" y2="4.9023">
	<stop  offset="0" style="stop-color:#2A3859"/>
	<stop  offset="1" style="stop-color:#3C5387"/>
	<a:midPointStop  offset="0" style="stop-color:#2A3859"/>
	<a:midPointStop  offset="0.5" style="stop-color:#2A3859"/>
	<a:midPointStop  offset="1" style="stop-color:#3C5387"/>
</linearGradient>
<path display="none" fill="url(#SVGID_10_)" d="M33.8,9.3l-9.1-8.5l-0.5-0.5c-0.2-0.1-0.5-0.2-0.8-0.2c-0.3,0-0.6,0.1-0.8,0.2
	l-0.5,0.6l-8.3,8.7c0,0,0.1,0,0.1,0l0.1,0h2l6.1-6.9l1.2-1.4l1.4,1.4l7.1,6.9h2.1h0.2L33.8,9.3z"/>
<g display="none">
	<g display="inline">
		
			<radialGradient id="SVGID_11_" cx="23.7847" cy="26.7236" r="30.5979" gradientTransform="matrix(0.9928 0 0 1.0416 2.011452e-002 -2.2275)" gradientUnits="userSpaceOnUse">
			<stop  offset="0.2848" style="stop-color:#D7AF63"/>
			<stop  offset="0.3572" style="stop-color:#D0A85A"/>
			<stop  offset="0.5989" style="stop-color:#BD9441"/>
			<stop  offset="0.82" style="stop-color:#B28732"/>
			<stop  offset="1" style="stop-color:#AE832D"/>
			<a:midPointStop  offset="0.2848" style="stop-color:#D7AF63"/>
			<a:midPointStop  offset="0.3361" style="stop-color:#D7AF63"/>
			<a:midPointStop  offset="1" style="stop-color:#AE832D"/>
		</radialGradient>
		<path display="none" fill="url(#SVGID_11_)" d="M19.7,21.2h-9.3V15c0,0,0.1-4.3,3.3-4.7h-3.4c0,0-3.2,1-3.8,5.2v7.8h13.2V21.2z"/>
		
			<radialGradient id="SVGID_12_" cx="23.7847" cy="26.7236" r="30.5929" gradientTransform="matrix(0.9928 0 0 1.0416 2.011452e-002 -2.2275)" gradientUnits="userSpaceOnUse">
			<stop  offset="0.2848" style="stop-color:#D7AF63"/>
			<stop  offset="0.3572" style="stop-color:#D0A85A"/>
			<stop  offset="0.5989" style="stop-color:#BD9441"/>
			<stop  offset="0.82" style="stop-color:#B28732"/>
			<stop  offset="1" style="stop-color:#AE832D"/>
			<a:midPointStop  offset="0.2848" style="stop-color:#D7AF63"/>
			<a:midPointStop  offset="0.3361" style="stop-color:#D7AF63"/>
			<a:midPointStop  offset="1" style="stop-color:#AE832D"/>
		</radialGradient>
		<path display="none" fill="url(#SVGID_12_)" d="M23.4,27.4c1.4,0,2.6-1.1,2.7-2.4h0v-3.3h-5.4V25h0C20.8,26.4,22,27.4,23.4,27.4z
			 M23.4,22.6c0.6,0,1.1,0.5,1.1,1.1c0,0.4-0.3,0.8-0.6,1c0,0,0,0,0,0.1V26c0,0.3-0.2,0.5-0.4,0.5c-0.2,0-0.4-0.2-0.4-0.5v-1.2
			c0,0,0,0,0-0.1c-0.4-0.2-0.6-0.6-0.6-1C22.4,23.1,22.8,22.6,23.4,22.6z"/>
		
			<radialGradient id="SVGID_13_" cx="23.7852" cy="26.7236" r="30.6008" gradientTransform="matrix(0.9928 0 0 1.0416 2.011452e-002 -2.2275)" gradientUnits="userSpaceOnUse">
			<stop  offset="0.2848" style="stop-color:#D7AF63"/>
			<stop  offset="0.3572" style="stop-color:#D0A85A"/>
			<stop  offset="0.5989" style="stop-color:#BD9441"/>
			<stop  offset="0.82" style="stop-color:#B28732"/>
			<stop  offset="1" style="stop-color:#AE832D"/>
			<a:midPointStop  offset="0.2848" style="stop-color:#D7AF63"/>
			<a:midPointStop  offset="0.3361" style="stop-color:#D7AF63"/>
			<a:midPointStop  offset="1" style="stop-color:#AE832D"/>
		</radialGradient>
		<path display="none" fill="url(#SVGID_13_)" d="M37.7,10.4h-2.7c0,0,2.5,1.4,2.5,5c0,3.6,0,5.8,0,5.8H27.1c0,0.5,0,1.4,0,2.2h14.2
			v-7.6C41.4,15.8,41.2,11.9,37.7,10.4z"/>
		
			<radialGradient id="SVGID_14_" cx="23.7856" cy="26.7236" r="30.6004" gradientTransform="matrix(0.9928 0 0 1.0416 2.011452e-002 -2.2275)" gradientUnits="userSpaceOnUse">
			<stop  offset="0.2848" style="stop-color:#D7AF63"/>
			<stop  offset="0.3572" style="stop-color:#D0A85A"/>
			<stop  offset="0.5989" style="stop-color:#BD9441"/>
			<stop  offset="0.82" style="stop-color:#B28732"/>
			<stop  offset="1" style="stop-color:#AE832D"/>
			<a:midPointStop  offset="0.2848" style="stop-color:#D7AF63"/>
			<a:midPointStop  offset="0.3361" style="stop-color:#D7AF63"/>
			<a:midPointStop  offset="1" style="stop-color:#AE832D"/>
		</radialGradient>
		<path display="none" fill="url(#SVGID_14_)" d="M27,25.8c-0.2,0.6-0.5,1.2-1,1.7h11.5v8.9H10.4v-8.9h10.5c-0.5-0.5-0.8-1-1-1.7
			c0,0-0.1-0.6-0.1-1.2H6.5v13l0,0c0,0.1,0,0.1,0,0.2c0,0.7,0.5,1.2,1.2,1.2h15H24h16.3c0.6,0,1.2-0.6,1.2-1.2c0-0.1,0-0.1,0-0.2
			l0,0v-13H27.1C27.1,25.3,27,25.8,27,25.8z"/>
	</g>
</g>
<linearGradient id="SVGID_15_" gradientUnits="userSpaceOnUse" x1="27.8345" y1="15.4941" x2="4.4725" y2="15.4941">
	<stop  offset="0" style="stop-color:#3C5387"/>
	<stop  offset="1" style="stop-color:#2A3859"/>
	<a:midPointStop  offset="0" style="stop-color:#3C5387"/>
	<a:midPointStop  offset="0.5" style="stop-color:#3C5387"/>
	<a:midPointStop  offset="1" style="stop-color:#2A3859"/>
</linearGradient>
<path display="none" fill="url(#SVGID_15_)" d="M36,15.4c0-3.2-2.2-4.4-2.2-4.4h-19c-2.9,0.3-3,4.1-3,4.1V20H36
	C36,20,36,18.6,36,15.4z"/>
<linearGradient id="SVGID_16_" gradientUnits="userSpaceOnUse" x1="27.8345" y1="31.8818" x2="4.473" y2="31.8818">
	<stop  offset="0" style="stop-color:#3C5387"/>
	<stop  offset="1" style="stop-color:#2A3859"/>
	<a:midPointStop  offset="0" style="stop-color:#3C5387"/>
	<a:midPointStop  offset="0.5" style="stop-color:#3C5387"/>
	<a:midPointStop  offset="1" style="stop-color:#2A3859"/>
</linearGradient>
<path display="none" fill="url(#SVGID_16_)" d="M24.6,28.5c-0.4,0.1-0.8,0.2-1.2,0.2c-0.4,0-0.8-0.1-1.2-0.2H11.4v6.7h25v-6.7H24.6z
	"/>
<radialGradient id="SVGID_17_" cx="24.0171" cy="35.5117" r="19.6712" gradientTransform="matrix(0.9904 0 0 0.9692 0.2584 0.1411)" gradientUnits="userSpaceOnUse">
	<stop  offset="0.5636" style="stop-color:#425B9B"/>
	<stop  offset="1" style="stop-color:#2B3A5B"/>
	<a:midPointStop  offset="0.5636" style="stop-color:#425B9B"/>
	<a:midPointStop  offset="0.5" style="stop-color:#425B9B"/>
	<a:midPointStop  offset="1" style="stop-color:#2B3A5B"/>
</radialGradient>
<polygon display="none" fill="url(#SVGID_17_)" points="45.2,21.8 23.9,41.7 2.6,21.2 0.1,23.6 24,47.9 48,24.8 "/>
<radialGradient id="SVGID_18_" cx="23.9282" cy="25.5635" r="14.5736" gradientTransform="matrix(0.9904 0 0 0.9692 0.2584 0.1411)" gradientUnits="userSpaceOnUse">
	<stop  offset="0.5636" style="stop-color:#425B9B"/>
	<stop  offset="1" style="stop-color:#2B3A5B"/>
	<a:midPointStop  offset="0.5636" style="stop-color:#425B9B"/>
	<a:midPointStop  offset="0.5" style="stop-color:#425B9B"/>
	<a:midPointStop  offset="1" style="stop-color:#2B3A5B"/>
</radialGradient>
<polygon display="none" fill="url(#SVGID_18_)" points="41.7,18.1 38.9,15.1 23.6,29.5 8.8,15.1 6.2,17.7 23.9,34.7 "/>
<linearGradient id="SVGID_19_" gradientUnits="userSpaceOnUse" x1="23.7588" y1="-11.9531" x2="23.7588" y2="20.6122">
	<stop  offset="0.3818" style="stop-color:#B5882B"/>
	<stop  offset="0.903" style="stop-color:#DCB15E"/>
	<a:midPointStop  offset="0.3818" style="stop-color:#B5882B"/>
	<a:midPointStop  offset="0.5" style="stop-color:#B5882B"/>
	<a:midPointStop  offset="0.903" style="stop-color:#DCB15E"/>
</linearGradient>
<path display="none" fill="url(#SVGID_19_)" d="M24,0L11.1,12.4L24,24.2l12.3-12.1L24,0z M25.4,12.9v3.9c0,0.8-0.7,1.5-1.6,1.5
	c-0.9,0-1.6-0.7-1.6-1.5v-3.9c0-0.1,0-0.1,0-0.2c-1.3-0.6-2.2-1.8-2.2-3.3c0-2,1.7-3.6,3.7-3.6c2.1,0,3.7,1.6,3.7,3.6
	c0,1.5-0.9,2.7-2.2,3.3C25.3,12.8,25.4,12.9,25.4,12.9z"/>
<radialGradient id="SVGID_20_" cx="24.8428" cy="36.5205" r="20.7876" gradientTransform="matrix(1.0117 0 0 1 -0.3213 0)" gradientUnits="userSpaceOnUse">
	<stop  offset="0.6727" style="stop-color:#425B9B"/>
	<stop  offset="0.7466" style="stop-color:#405896"/>
	<stop  offset="0.8401" style="stop-color:#3A5086"/>
	<stop  offset="0.9436" style="stop-color:#31436C"/>
	<stop  offset="1" style="stop-color:#2B3A5B"/>
	<a:midPointStop  offset="0.6727" style="stop-color:#425B9B"/>
	<a:midPointStop  offset="0.6575" style="stop-color:#425B9B"/>
	<a:midPointStop  offset="1" style="stop-color:#2B3A5B"/>
</radialGradient>
<path display="none" fill="url(#SVGID_20_)" d="M25.2,25.4c-0.7,0-1.4,0.4-1.7,1l-3.8-0.6l1.8-7.4h-3.5v6.1h-4.6v-6.1H9.1v13.7h4.4
	v-5h4.6v5h5.3c-2.4-0.4-3.4-3.6-3.4-3.6l3.6-0.5c0.3,0.6,1,1.1,1.7,1.1c1,0,1.9-0.8,1.9-1.9C27.1,26.2,26.3,25.4,25.2,25.4z"/>
<radialGradient id="SVGID_21_" cx="24.8438" cy="36.5205" r="20.7875" gradientTransform="matrix(1.0117 0 0 1 -0.3213 0)" gradientUnits="userSpaceOnUse">
	<stop  offset="0.6727" style="stop-color:#425B9B"/>
	<stop  offset="0.7466" style="stop-color:#405896"/>
	<stop  offset="0.8401" style="stop-color:#3A5086"/>
	<stop  offset="0.9436" style="stop-color:#31436C"/>
	<stop  offset="1" style="stop-color:#2B3A5B"/>
	<a:midPointStop  offset="0.6727" style="stop-color:#425B9B"/>
	<a:midPointStop  offset="0.6575" style="stop-color:#425B9B"/>
	<a:midPointStop  offset="1" style="stop-color:#2B3A5B"/>
</radialGradient>
<path display="none" fill="url(#SVGID_21_)" d="M36.9,18.3c-0.5-0.1-6.3,0-6.3,0v3.3h-6.1L24,23.5c0,0,6-2.4,7.3,2.8
	c1,4.3-3.5,5.8-3.5,5.8h4.9v-5h3.9c0,0,4-0.4,4-4.3C40.6,18.9,37.4,18.4,36.9,18.3z M34.8,24.5h-2.1v-2.8h2.7c0,0,0.9,0.3,0.9,1.2
	C36.3,24,35.7,24.4,34.8,24.5z"/>
<linearGradient id="SVGID_22_" gradientUnits="userSpaceOnUse" x1="24.019" y1="54.8789" x2="24.019" y2="7.3952">
	<stop  offset="0" style="stop-color:#F3BA65"/>
	<stop  offset="1" style="stop-color:#F3BA65"/>
	<a:midPointStop  offset="0" style="stop-color:#F3BA65"/>
	<a:midPointStop  offset="0.5" style="stop-color:#F3BA65"/>
	<a:midPointStop  offset="1" style="stop-color:#F3BA65"/>
</linearGradient>
<path display="none" fill="url(#SVGID_22_)" d="M47.9,23.7L40.3,7.1c-0.2-0.4-0.5-0.7-0.9-0.8L24.9,0.1C24.6,0,24.3,0,24,0
	c-0.3,0-0.6,0-0.9,0.1L8.6,6.2C8.3,6.4,7.9,6.7,7.8,7.1L0.1,23.7c-0.2,0.4-0.2,0.9,0,1.3l6.3,14.3c0.2,0.4,0.4,0.6,0.8,0.8L23,47.8
	c0.2,0.1,0.5,0.2,0.7,0.2c0.1,0,0.2,0,0.3,0c0.1,0,0.2,0,0.3,0c0.2,0,0.5-0.1,0.7-0.2l15.8-7.6c0.4-0.2,0.6-0.5,0.8-0.8l6.3-14.3
	C48.1,24.7,48.1,24.2,47.9,23.7z M38.7,37.5L24,44.6L9.3,37.5L3.5,24.4l7-15.4L24,3.3L37.5,9l7,15.4L38.7,37.5z"/>
<linearGradient id="SVGID_23_" gradientUnits="userSpaceOnUse" x1="23.9897" y1="62.3525" x2="23.9897" y2="-18.7378">
	<stop  offset="0" style="stop-color:#F3BA65"/>
	<stop  offset="0.4848" style="stop-color:#B5882B"/>
	<stop  offset="0.6707" style="stop-color:#D19F45"/>
	<stop  offset="0.8753" style="stop-color:#EAB35C"/>
	<stop  offset="1" style="stop-color:#F3BA65"/>
	<a:midPointStop  offset="0" style="stop-color:#F3BA65"/>
	<a:midPointStop  offset="0.5" style="stop-color:#F3BA65"/>
	<a:midPointStop  offset="0.4848" style="stop-color:#B5882B"/>
	<a:midPointStop  offset="0.4023" style="stop-color:#B5882B"/>
	<a:midPointStop  offset="1" style="stop-color:#F3BA65"/>
</linearGradient>
<path display="none" fill="url(#SVGID_23_)" d="M38.8,8.6C38.6,8.3,38.4,8,38,7.8L24.8,2.3c-0.3-0.1-0.6-0.1-0.8-0.1
	c-0.3,0-0.6,0-0.8,0.1L10,7.8C9.6,8,9.3,8.3,9.2,8.6L2.2,23.8c-0.2,0.4-0.2,0.8,0,1.2l5.8,13c0.1,0.3,0.4,0.6,0.7,0.7l14.4,6.9
	c0.2,0.1,0.4,0.2,0.7,0.2c0.1,0,0.2,0,0.2,0c0.1,0,0.2,0,0.2,0c0.2,0,0.5,0,0.7-0.2l14.4-6.9c0.3-0.2,0.6-0.4,0.7-0.7l5.8-13
	c0.2-0.4,0.2-0.8,0-1.2L38.8,8.6z M38.7,37.5L24,44.7L9.3,37.5L3.5,24.5l7-15.4L24,3.4L37.5,9l7,15.4L38.7,37.5z"/>
<linearGradient id="SVGID_24_" gradientUnits="userSpaceOnUse" x1="-5.3335" y1="31.7617" x2="53.2224" y2="31.7617">
	<stop  offset="0" style="stop-color:#2B3A5B"/>
	<stop  offset="0.1622" style="stop-color:#2D3D60"/>
	<stop  offset="0.3617" style="stop-color:#33456F"/>
	<stop  offset="0.5801" style="stop-color:#3C5388"/>
	<stop  offset="0.6303" style="stop-color:#3F578F"/>
	<a:midPointStop  offset="0" style="stop-color:#2B3A5B"/>
	<a:midPointStop  offset="0.6635" style="stop-color:#2B3A5B"/>
	<a:midPointStop  offset="0.6303" style="stop-color:#3F578F"/>
</linearGradient>
<path display="none" fill="url(#SVGID_24_)" d="M39.7,27.6c0,0-10.4,4.3-13.4,5.8c-3,1.4-5,0-5,0S9.6,28.5,7.5,27.5
	c-1.1-0.5-1.5-1.2-1.6-1.8v4.2c0,0-0.5,1.6,1.6,2.6c2.1,1,13.7,5.9,13.7,5.9s2.1,1.4,5,0c3-1.4,13.4-5.8,13.4-5.8s2.5-0.4,2.5-3.1
	c0-1.1,0-3,0-4.9C42.2,27.2,39.7,27.6,39.7,27.6z"/>
<linearGradient id="SVGID_25_" gradientUnits="userSpaceOnUse" x1="-5.3335" y1="40.7666" x2="53.2224" y2="40.7666">
	<stop  offset="0" style="stop-color:#2B3A5B"/>
	<stop  offset="0.1622" style="stop-color:#2D3D60"/>
	<stop  offset="0.3617" style="stop-color:#33456F"/>
	<stop  offset="0.5801" style="stop-color:#3C5388"/>
	<stop  offset="0.6303" style="stop-color:#3F578F"/>
	<a:midPointStop  offset="0" style="stop-color:#2B3A5B"/>
	<a:midPointStop  offset="0.6635" style="stop-color:#2B3A5B"/>
	<a:midPointStop  offset="0.6303" style="stop-color:#3F578F"/>
</linearGradient>
<path display="none" fill="url(#SVGID_25_)" d="M39.7,36.6c0,0-10.4,4.3-13.4,5.8c-3,1.4-5,0-5,0S9.6,37.5,7.5,36.5
	c-1.1-0.5-1.5-1.2-1.6-1.8v4.2c0,0-0.5,1.6,1.6,2.6c2.1,1,13.7,5.9,13.7,5.9s2.1,1.4,5,0c3-1.4,13.4-5.8,13.4-5.8s2.5-0.4,2.5-3.1
	c0-1.1,0-3,0-4.9C42.2,36.2,39.7,36.6,39.7,36.6z"/>
<radialGradient id="SVGID_26_" cx="24.1733" cy="7.5557" r="34.0712" gradientTransform="matrix(1.0283 0 0 1 -0.5396 0)" gradientUnits="userSpaceOnUse">
	<stop  offset="0.2085" style="stop-color:#DCB15E"/>
	<stop  offset="0.6182" style="stop-color:#B5882B"/>
	<a:midPointStop  offset="0.2085" style="stop-color:#DCB15E"/>
	<a:midPointStop  offset="0.5" style="stop-color:#DCB15E"/>
	<a:midPointStop  offset="0.6182" style="stop-color:#B5882B"/>
</radialGradient>
<path display="none" fill="url(#SVGID_26_)" d="M39.7,6.2c-2.7-1.2-13.1-5.7-13.1-5.7s-2.7-1.1-4.7,0S7.8,6.6,7.8,6.6
	s-1.9,0.8-1.8,3.7v10.4c0,0-0.5,1.6,1.6,2.6c2.1,1,13.7,5.9,13.7,5.9s2.1,1.4,5,0c3-1.4,13.4-5.8,13.4-5.8s2.5-0.4,2.5-3.1
	c0-2.7,0-10.3,0-10.3S42.4,7.4,39.7,6.2z M40.9,19.4c0,2.4-2.3,2.8-2.3,2.8s-9.7,3.8-12.4,5.1c-0.7,0.3-1.3,0.5-1.9,0.5
	c-1.7,0.2-2.8-0.5-2.8-0.5s-2-0.8-4.4-1.8c-3.2-1.3-7.2-2.9-8.3-3.4c-0.7-0.3-1.1-0.7-1.3-1.1c-0.3-0.6-0.2-1.1-0.2-1.1v-0.2l0-3.4
	c0.1,0.5,0.5,1,1.5,1.5c1.9,0.9,12.7,5.2,12.7,5.2s1.9,1.3,4.7,0c2.8-1.3,12.4-5.1,12.4-5.1s1.7-0.3,2.2-1.8c0-0.1,0.1-0.2,0.1-0.2
	c0,0.1,0-0.1,0,0c0.1-0.2,0.1-0.5,0.1-0.8C40.9,16.7,40.9,18.4,40.9,19.4z"/>
<linearGradient id="SVGID_27_" gradientUnits="userSpaceOnUse" x1="45.6987" y1="24.0898" x2="-2.1277" y2="23.82">
	<stop  offset="0" style="stop-color:#3F578F"/>
	<stop  offset="1" style="stop-color:#2B3A5B"/>
	<a:midPointStop  offset="0" style="stop-color:#3F578F"/>
	<a:midPointStop  offset="0.5" style="stop-color:#3F578F"/>
	<a:midPointStop  offset="1" style="stop-color:#2B3A5B"/>
</linearGradient>
<path fill="url(#SVGID_27_)" d="M44.4,25.9l3.5-2.1L44.4,22c-0.6-6.2-4-11.5-8.9-14.9l0.4-3.8l-3.7,1.9c-2.5-1.1-5.3-1.7-8.2-1.7
	c-3.3,0-6.3,0.8-9.1,2.1L11,3.6l0.4,4.3c-4.3,3.4-7.2,8.4-7.8,14.1l-3.5,1.8l3.4,2c0.5,5.9,3.4,11,7.8,14.5L11,44.5l3.8-2
	c2.8,1.4,5.9,2.2,9.2,2.2c3.2,0,6.2-0.7,8.9-2l3.6,1.9l-0.4-3.8C40.8,37.3,43.9,32,44.4,25.9z M6.5,24.1c0-9.7,7.8-17.5,17.5-17.5
	c9.7,0,17.5,7.8,17.5,17.5c0,9.7-7.8,17.5-17.5,17.5C14.3,41.7,6.5,33.8,6.5,24.1z"/>
<radialGradient id="SVGID_28_" cx="24.0376" cy="24.0015" r="16.679" gradientUnits="userSpaceOnUse">
	<stop  offset="0" style="stop-color:#B5882B"/>
	<stop  offset="1" style="stop-color:#DCB15E"/>
	<a:midPointStop  offset="0" style="stop-color:#B5882B"/>
	<a:midPointStop  offset="0.5" style="stop-color:#B5882B"/>
	<a:midPointStop  offset="1" style="stop-color:#DCB15E"/>
</radialGradient>
<path fill="url(#SVGID_28_)" d="M24,7.3C14.8,7.3,7.4,14.8,7.4,24c0,9.2,7.5,16.7,16.7,16.7S40.7,33.2,40.7,24
	C40.7,14.8,33.2,7.3,24,7.3z M34.6,12.6c0.7,1.8,1.1,4,1.2,6.5c0.7,12.5-15.4,15.4-17.9,9.2c-2.1-5.1,2.1-5.6,2.1-5.6
	c-2.8,2.6,0.8,5.9,2.8,6S33.9,27,30,17.4c-3-7.4-10-7.5-13.5-7c2.2-1.2,4.8-1.9,7.5-1.9C28.1,8.5,31.8,10,34.6,12.6z M24,39.5
	c-6.6,0-12.2-4.1-14.5-9.8C9.2,28.2,9,26.4,9,24.5c0-12.1,16.9-12.6,16.8-3.3c0,3.3-3.1,2.8-3.1,2.8s2.8-2.9-1.2-5.4
	c-4.1-2.5-11.6,3.4-8.4,11.1s12.8,8.1,18.3,4.9c3.9-2.3,6.6-5.3,7.7-6.8C37.4,34.5,31.3,39.5,24,39.5z"/>
</svg>
