<?xml version="1.0" encoding="utf-8"?>
<!-- Generator: Adobe Illustrator 15.0.0, SVG Export Plug-In  -->
<!DOCTYPE svg PUBLIC "-//W3C//DTD SVG 1.1//EN" "http://www.w3.org/Graphics/SVG/1.1/DTD/svg11.dtd" [
	<!ENTITY ns_flows "http://ns.adobe.com/Flows/1.0/">
]>
<svg version="1.1"
	 xmlns="http://www.w3.org/2000/svg" xmlns:xlink="http://www.w3.org/1999/xlink" xmlns:a="http://ns.adobe.com/AdobeSVGViewerExtensions/3.0/"
	 x="0px" y="0px" width="48px" height="48px" viewBox="0 0 48 48" enable-background="new 0 0 48 48" xml:space="preserve">
<defs>
</defs>
<radialGradient id="SVGID_1_" cx="23.6021" cy="23.6206" r="23.6477" gradientTransform="matrix(1 0 0 1.0131 0 0.1182)" gradientUnits="userSpaceOnUse">
	<stop  offset="0" style="stop-color:#00C6C6"/>
	<stop  offset="0.9939" style="stop-color:#002C61"/>
	<a:midPointStop  offset="0" style="stop-color:#00C6C6"/>
	<a:midPointStop  offset="0.5" style="stop-color:#00C6C6"/>
	<a:midPointStop  offset="0.9939" style="stop-color:#002C61"/>
</radialGradient>
<polygon display="none" fill="url(#SVGID_1_)" points="43.2,20.1 40.7,22.6 42.3,24.1 24,43 4.9,24 6.8,22.1 7.2,21.7 23.4,5.1 
	35.6,17.4 38.1,15 23.3,0 0,24 24.1,48.1 47.2,24.2 "/>
<radialGradient id="SVGID_2_" cx="-4.8208" cy="2.7017" r="20.0846" gradientTransform="matrix(1 0 0 1.0131 0 0.1182)" gradientUnits="userSpaceOnUse">
	<stop  offset="0" style="stop-color:#00C6C6"/>
	<stop  offset="0.9939" style="stop-color:#002C61"/>
	<a:midPointStop  offset="0" style="stop-color:#00C6C6"/>
	<a:midPointStop  offset="0.5" style="stop-color:#00C6C6"/>
	<a:midPointStop  offset="0.9939" style="stop-color:#002C61"/>
</radialGradient>
<path display="none" fill="url(#SVGID_2_)" d="M12.9,8.2c0.6,0.1,1.2-0.3,1.3-0.9c0.1-0.6-0.3-1.2-0.9-1.3L7,4.8
	c-0.4-0.1-0.7,0-1,0.3c-0.3,0.3-0.4,0.7-0.3,1L7,12.8c0.1,0.5,0.6,0.9,1.1,0.9c0.1,0,0.1,0,0.2,0c0.6-0.1,1-0.7,0.9-1.3L12.9,8.2z"
	/>
<radialGradient id="SVGID_3_" cx="1.2163" cy="47.8926" r="11.5353" gradientTransform="matrix(1 0 0 1.0131 0 0.1182)" gradientUnits="userSpaceOnUse">
	<stop  offset="0" style="stop-color:#00C6C6"/>
	<stop  offset="0.9939" style="stop-color:#002C61"/>
	<a:midPointStop  offset="0" style="stop-color:#00C6C6"/>
	<a:midPointStop  offset="0.5" style="stop-color:#00C6C6"/>
	<a:midPointStop  offset="0.9939" style="stop-color:#002C61"/>
</radialGradient>
<path display="none" fill="url(#SVGID_3_)" d="M12.9,40.2c0.6-0.1,1.2,0.2,1.3,0.8c0.1,0.6-0.2,1.2-0.8,1.4l-6.3,1.5
	c-0.4,0.1-0.7,0-1-0.3c-0.3-0.3-0.4-0.6-0.3-1l1.1-6.7c0.1-0.5,0.5-0.9,1.1-1c0.1,0,0.1,0,0.2,0c0.6,0.1,1,0.7,0.9,1.3L12.9,40.2z"
	/>
<radialGradient id="SVGID_4_" cx="47.7114" cy="4.1699" r="13.2799" gradientTransform="matrix(1 0 0 1.0131 0 0.1182)" gradientUnits="userSpaceOnUse">
	<stop  offset="0" style="stop-color:#00C6C6"/>
	<stop  offset="0.9939" style="stop-color:#002C61"/>
	<a:midPointStop  offset="0" style="stop-color:#00C6C6"/>
	<a:midPointStop  offset="0.5" style="stop-color:#00C6C6"/>
	<a:midPointStop  offset="0.9939" style="stop-color:#002C61"/>
</radialGradient>
<path display="none" fill="url(#SVGID_4_)" d="M34.5,8.2c-0.6,0.1-1.2-0.3-1.3-0.9c-0.1-0.6,0.3-1.2,0.9-1.3l6.3-1.2
	c0.4-0.1,0.7,0,1,0.3c0.3,0.3,0.4,0.7,0.3,1l-1.3,6.7c-0.1,0.5-0.6,0.9-1.1,0.9c-0.1,0-0.1,0-0.2,0c-0.6-0.1-1-0.7-0.9-1.3L34.5,8.2
	z"/>
<radialGradient id="SVGID_5_" cx="46.0806" cy="48.708" r="14.4308" gradientTransform="matrix(1 0 0 1.0131 0 0.1182)" gradientUnits="userSpaceOnUse">
	<stop  offset="0" style="stop-color:#00C6C6"/>
	<stop  offset="0.9939" style="stop-color:#002C61"/>
	<a:midPointStop  offset="0" style="stop-color:#00C6C6"/>
	<a:midPointStop  offset="0.5" style="stop-color:#00C6C6"/>
	<a:midPointStop  offset="0.9939" style="stop-color:#002C61"/>
</radialGradient>
<path display="none" fill="url(#SVGID_5_)" d="M38.3,36.2c-0.1-0.6,0.3-1.2,0.9-1.3c0.1,0,0.1,0,0.2,0c0.5,0,1,0.4,1.1,1l1.1,6.7
	c0.1,0.4-0.1,0.8-0.3,1c-0.3,0.3-0.7,0.4-1,0.3L34,42.4c-0.6-0.1-1-0.8-0.8-1.4s0.7-1,1.3-0.8L38.3,36.2z"/>
<radialGradient id="SVGID_6_" cx="26.2847" cy="33.0996" r="33.6762" gradientTransform="matrix(1 0 0 1.0131 0 0.1182)" gradientUnits="userSpaceOnUse">
	<stop  offset="6.060640e-003" style="stop-color:#002C61"/>
	<stop  offset="1" style="stop-color:#00C6C6"/>
	<a:midPointStop  offset="6.060640e-003" style="stop-color:#002C61"/>
	<a:midPointStop  offset="0.5" style="stop-color:#002C61"/>
	<a:midPointStop  offset="1" style="stop-color:#00C6C6"/>
</radialGradient>
<path display="none" fill="url(#SVGID_6_)" d="M22.9,35.3L10.4,22.7c0,0,0,0,0,0c-1,1.1-1,2.8,0,3.8L21,37.3
	c0.5,0.5,1.2,0.8,1.9,0.8c0.7,0,1.4-0.3,1.9-0.8l22.3-22.5c1-1,1-2.7,0.1-3.7L22.9,35.3z"/>
<radialGradient id="SVGID_7_" cx="26.3521" cy="25.2324" r="15.7219" fx="22.5873" fy="25.3342" gradientTransform="matrix(1 0 0 1.0131 0 0.1182)" gradientUnits="userSpaceOnUse">
	<stop  offset="0" style="stop-color:#00C6C6"/>
	<stop  offset="0.9939" style="stop-color:#002C61"/>
	<a:midPointStop  offset="0" style="stop-color:#00C6C6"/>
	<a:midPointStop  offset="0.5" style="stop-color:#00C6C6"/>
	<a:midPointStop  offset="0.9939" style="stop-color:#002C61"/>
</radialGradient>
<path display="none" fill="url(#SVGID_7_)" d="M47.2,11c0,0-0.1-0.1-0.1-0.1c-1-1.1-2.7-1.1-3.8,0L22.9,31.5l-8.8-8.9
	c-1-1-2.7-1-3.8,0l12.6,12.6L47.2,11z"/>
<radialGradient id="SVGID_8_" cx="24.021" cy="24.1558" r="24.0545" gradientTransform="matrix(1 0 0 0.9964 0 -2.556442e-002)" gradientUnits="userSpaceOnUse">
	<stop  offset="0.5818" style="stop-color:#06CBCE"/>
	<stop  offset="0.9939" style="stop-color:#002C61"/>
	<a:midPointStop  offset="0.5818" style="stop-color:#06CBCE"/>
	<a:midPointStop  offset="0.5" style="stop-color:#06CBCE"/>
	<a:midPointStop  offset="0.9939" style="stop-color:#002C61"/>
</radialGradient>
<path display="none" fill="url(#SVGID_8_)" d="M47.3,23c-0.7-0.4-4.6-3.1-5.7-6c0,0-1.3-3.1-0.9-5.4C41,9.2,41.4,8.3,41.4,8
	c0-0.7-0.5-1.2-1.2-1.2c-0.2,0-0.5,0.1-0.7,0.2v0c0,0-4,1.2-7.7-0.2c-3.5-1.3-5.7-4-6.5-5.5c0,0-0.2-0.3-0.2-0.5
	c0-0.2-0.3-0.6-0.9-0.7v0c-0.1,0-0.1,0-0.2,0c0,0,0,0,0,0c0,0,0,0,0,0c-0.1,0-0.1,0-0.2,0v0C23.2,0.1,23,0.6,23,0.8
	c-0.1,0.2-0.2,0.5-0.2,0.5c-0.9,1.5-3.1,4.1-6.5,5.5C12.5,8.2,8.5,7,8.5,7v0C8.3,6.9,8.1,6.8,7.8,6.8C7.2,6.8,6.6,7.3,6.6,8
	c0,0.3,0.4,1.2,0.8,3.6C7.8,13.9,6.5,17,6.5,17c-1.1,3-5,5.6-5.7,6C0.3,23.2,0,23.6,0,24.1c0,0.2,0.1,0.4,0.1,0.6c0,0,0,0,0,0.1
	c0.1,0.2,0.3,0.3,0.5,0.4v0c3.4,1.7,4.9,4.4,5.7,5.8c0.8,1.4,1,3.7,1.1,5.4c0,1.2-0.3,2.4-0.5,3c-0.1,0.2-0.2,0.4-0.2,0.7
	c0,0.2,0.1,0.4,0.1,0.6c0,0,0,0,0,0.1c0.2,0.3,0.6,0.6,1,0.6c0.3,0,0.6-0.1,0.8-0.3c1.9-0.5,5.4-0.7,8,0.3c0,0,0,0,0,0
	c0.1,0,0.2,0.1,0.3,0.1c2.7,1.2,5,4,5.7,5.2C23.3,48,23.9,48,24,48c0.1,0,0.7-0.1,1.3-1.2c0.7-1.3,3.2-4.3,6.1-5.4
	c2.7-1,6.1-0.8,8-0.3c0.2,0.2,0.5,0.3,0.8,0.3c0.4,0,0.8-0.2,1-0.6c0,0,0,0,0-0.1c0.1-0.2,0.1-0.4,0.1-0.6c0-0.3-0.1-0.5-0.2-0.7
	c-0.2-0.6-0.6-1.8-0.5-3c0-1.8,0.3-4,1.1-5.4c0.8-1.4,2.3-4.1,5.7-5.8v0c0.2-0.1,0.3-0.2,0.5-0.4c0,0,0,0,0-0.1
	c0.1-0.2,0.1-0.4,0.1-0.6C48,23.6,47.7,23.2,47.3,23z M24,40.2c-8.8,0-16-7.1-16-15.9c0-8.8,7.2-15.9,16-15.9c8.8,0,16,7.1,16,15.9
	C40,33,32.8,40.2,24,40.2z"/>
<radialGradient id="SVGID_9_" cx="25.4194" cy="12.5449" r="19.942" gradientTransform="matrix(1 0 0 0.9964 0 -2.556442e-002)" gradientUnits="userSpaceOnUse">
	<stop  offset="0.103" style="stop-color:#07CBCE"/>
	<stop  offset="0.2613" style="stop-color:#07C7CC"/>
	<stop  offset="0.4025" style="stop-color:#06BDC4"/>
	<stop  offset="0.5372" style="stop-color:#06AAB8"/>
	<stop  offset="0.668" style="stop-color:#0491A6"/>
	<stop  offset="0.7958" style="stop-color:#03708F"/>
	<stop  offset="0.9198" style="stop-color:#014874"/>
	<stop  offset="0.9939" style="stop-color:#002C61"/>
	<a:midPointStop  offset="0.103" style="stop-color:#07CBCE"/>
	<a:midPointStop  offset="0.7301" style="stop-color:#07CBCE"/>
	<a:midPointStop  offset="0.9939" style="stop-color:#002C61"/>
</radialGradient>
<path display="none" fill="url(#SVGID_9_)" d="M24.4,10.7c0,0,9.6,4.3,9.7,12.1H26c-0.4-0.9-1.3-1.5-2.4-1.5c-1.5,0-2.6,1.2-2.6,2.6
	s1.2,2.6,2.6,2.6c1.1,0,2-0.6,2.4-1.6h11.2C37.2,25.1,37.4,13.2,24.4,10.7z"/>
<path display="none" fill="#0C3060" d="M31.9,0.1v40.2c0,4.3-3.4,7.9-7.5,7.9c-4.2,0-7.5-3.5-7.5-7.9V0.1L18.1,1v39.3
	c0,3.6,2.8,6.5,6.3,6.5c3.5,0,6.3-2.9,6.3-6.5V1L31.9,0.1z"/>
<path display="none" fill="#0C3060" d="M48,11.3v28.9c0,3.8-3,6.9-6.6,6.9c-3.7,0-6.6-3.1-6.6-6.9V11.3l1.1,0.8v28.1
	c0,3.2,2.5,5.7,5.5,5.7c3,0,5.5-2.6,5.5-5.7V12.1L48,11.3z"/>
<path display="none" fill="#0C3060" d="M13.3,11.3v28.9c0,3.8-3,6.9-6.6,6.9C3,47.2,0,44.1,0,40.2V11.3l1.1,0.8v28.1
	c0,3.2,2.5,5.7,5.5,5.7c3,0,5.5-2.6,5.5-5.7V12.1L13.3,11.3z"/>
<linearGradient id="SVGID_10_" gradientUnits="userSpaceOnUse" x1="41.2329" y1="33.0439" x2="41.2329" y2="6.8461">
	<stop  offset="0" style="stop-color:#06CBCE"/>
	<stop  offset="0.7955" style="stop-color:#002C61"/>
	<a:midPointStop  offset="0" style="stop-color:#06CBCE"/>
	<a:midPointStop  offset="0.5" style="stop-color:#06CBCE"/>
	<a:midPointStop  offset="0.7955" style="stop-color:#002C61"/>
</linearGradient>
<path display="none" fill="url(#SVGID_10_)" d="M44,13.4l-2.6,2l-0.2,1.1L41,15.4l-2.7-2l-0.6-0.6v27.2c0,2,1.6,3.6,3.5,3.6
	c1.9,0,3.5-1.6,3.5-3.6V12.7L44,13.4z"/>
<linearGradient id="SVGID_11_" gradientUnits="userSpaceOnUse" x1="6.4868" y1="33.0439" x2="6.4868" y2="6.8461">
	<stop  offset="0" style="stop-color:#06CBCE"/>
	<stop  offset="0.7955" style="stop-color:#002C61"/>
	<a:midPointStop  offset="0" style="stop-color:#06CBCE"/>
	<a:midPointStop  offset="0.5" style="stop-color:#06CBCE"/>
	<a:midPointStop  offset="0.7955" style="stop-color:#002C61"/>
</linearGradient>
<path display="none" fill="url(#SVGID_11_)" d="M6.7,15.4l-0.2,1.1l-0.2-1.1l-2.7-2L3,12.7v27.2c0,2,1.6,3.6,3.5,3.6
	c1.9,0,3.5-1.6,3.5-3.6V12.7l-0.7,0.7L6.7,15.4z"/>
<linearGradient id="SVGID_12_" gradientUnits="userSpaceOnUse" x1="22.1914" y1="16.1191" x2="22.1914" y2="52.5137">
	<stop  offset="0" style="stop-color:#06CBCE"/>
	<stop  offset="0.7955" style="stop-color:#002C61"/>
	<a:midPointStop  offset="0" style="stop-color:#06CBCE"/>
	<a:midPointStop  offset="0.5" style="stop-color:#06CBCE"/>
	<a:midPointStop  offset="0.7955" style="stop-color:#002C61"/>
</linearGradient>
<path display="none" fill="url(#SVGID_12_)" d="M24,4.8l-3-2.3l-0.7-0.7v38.1c0,2.3,1.8,4.1,3.9,4.1c0,0,0,0,0,0V6L24,4.8z"/>
<linearGradient id="SVGID_13_" gradientUnits="userSpaceOnUse" x1="26.1362" y1="42.7275" x2="26.1362" y2="-10.8697">
	<stop  offset="0" style="stop-color:#06CBCE"/>
	<stop  offset="0.7955" style="stop-color:#002C61"/>
	<a:midPointStop  offset="0" style="stop-color:#06CBCE"/>
	<a:midPointStop  offset="0.5" style="stop-color:#06CBCE"/>
	<a:midPointStop  offset="0.7955" style="stop-color:#002C61"/>
</linearGradient>
<path display="none" fill="url(#SVGID_13_)" d="M28.1,39.8V1.7l-0.8,0.8l-2.9,2.3l-0.2,1.3l0-0.1v38C26.3,44,28.1,42.1,28.1,39.8z"
	/>
<g>
	<g>
		
			<radialGradient id="SVGID_14_" cx="24.3262" cy="-1.127" r="47.4643" gradientTransform="matrix(1.0985 0 0 0.9963 -2.2662 -2.915867e-003)" gradientUnits="userSpaceOnUse">
			<stop  offset="0.2667" style="stop-color:#06CBCE"/>
			<stop  offset="0.5991" style="stop-color:#037C98"/>
			<stop  offset="0.8661" style="stop-color:#014270"/>
			<stop  offset="0.9939" style="stop-color:#002C61"/>
			<a:midPointStop  offset="0.2667" style="stop-color:#06CBCE"/>
			<a:midPointStop  offset="0.4583" style="stop-color:#06CBCE"/>
			<a:midPointStop  offset="0.9939" style="stop-color:#002C61"/>
		</radialGradient>
		<path fill="url(#SVGID_14_)" d="M18.5,21.8l-1-0.5c-2.5,1.8-4,4.5-4,7.5c0,3.5,2,6.5,5.1,8.2v-1.4c-0.4-0.2-0.7-0.5-1.1-0.8
			c-3.7-3.4-3.7-8.8,0-12.2C17.8,22.4,18.1,22.1,18.5,21.8z"/>
		
			<radialGradient id="SVGID_15_" cx="24.3262" cy="-1.1274" r="47.464" gradientTransform="matrix(1.0985 0 0 0.9963 -2.2662 -2.915867e-003)" gradientUnits="userSpaceOnUse">
			<stop  offset="0.2667" style="stop-color:#06CBCE"/>
			<stop  offset="0.5991" style="stop-color:#037C98"/>
			<stop  offset="0.8661" style="stop-color:#014270"/>
			<stop  offset="0.9939" style="stop-color:#002C61"/>
			<a:midPointStop  offset="0.2667" style="stop-color:#06CBCE"/>
			<a:midPointStop  offset="0.4583" style="stop-color:#06CBCE"/>
			<a:midPointStop  offset="0.9939" style="stop-color:#002C61"/>
		</radialGradient>
		<path fill="url(#SVGID_15_)" d="M12,28.8c0-3.3,1.6-6.2,4.1-8.2l-5.2-2.6c-1.4,0-2.6-0.6-3.5-1.5l2.5,4.6
			c-0.7,1.1-1.2,2.2-1.6,3.4l-5.8,1.9l0,4.3l5.8,1.8c0.3,1.1,0.8,2.2,1.5,3.3l-2.5,5l3.4,3.1l5.5-2.2c0.8,0.4,1.5,0.7,2.4,1v-4.3
			C14.6,36.7,12,33,12,28.8z"/>
		
			<radialGradient id="SVGID_16_" cx="24.3296" cy="-1.127" r="47.4633" gradientTransform="matrix(1.0985 0 0 0.9963 -2.2662 -2.915867e-003)" gradientUnits="userSpaceOnUse">
			<stop  offset="0.2667" style="stop-color:#06CBCE"/>
			<stop  offset="0.5991" style="stop-color:#037C98"/>
			<stop  offset="0.8661" style="stop-color:#014270"/>
			<stop  offset="0.9939" style="stop-color:#002C61"/>
			<a:midPointStop  offset="0.2667" style="stop-color:#06CBCE"/>
			<a:midPointStop  offset="0.4583" style="stop-color:#06CBCE"/>
			<a:midPointStop  offset="0.9939" style="stop-color:#002C61"/>
		</radialGradient>
		<path fill="url(#SVGID_16_)" d="M34.6,28.8c0-3-1.6-5.8-4-7.5l-1,0.5c0.4,0.2,0.7,0.5,1.1,0.8c3.7,3.4,3.7,8.8,0,12.2
			c-0.3,0.3-0.7,0.6-1.1,0.8V37C32.6,35.3,34.6,32.3,34.6,28.8z"/>
		
			<radialGradient id="SVGID_17_" cx="24.3276" cy="-1.1274" r="47.4635" gradientTransform="matrix(1.0985 0 0 0.9963 -2.2662 -2.915867e-003)" gradientUnits="userSpaceOnUse">
			<stop  offset="0.2667" style="stop-color:#06CBCE"/>
			<stop  offset="0.5991" style="stop-color:#037C98"/>
			<stop  offset="0.8661" style="stop-color:#014270"/>
			<stop  offset="0.9939" style="stop-color:#002C61"/>
			<a:midPointStop  offset="0.2667" style="stop-color:#06CBCE"/>
			<a:midPointStop  offset="0.4583" style="stop-color:#06CBCE"/>
			<a:midPointStop  offset="0.9939" style="stop-color:#002C61"/>
		</radialGradient>
		<path fill="url(#SVGID_17_)" d="M39.8,32.6l5.8-1.8l0-4.3l-5.8-1.9c-0.4-1.2-0.9-2.3-1.6-3.4l2.5-4.6c-0.8,0.9-2.1,1.5-3.5,1.5
			l-5.2,2.6c2.5,2,4.1,4.9,4.1,8.2c0,4.2-2.6,7.8-6.5,9.6v4.3c0.8-0.3,1.6-0.6,2.3-1l5.5,2.2l3.4-3.1l-2.5-5
			C39,34.9,39.5,33.8,39.8,32.6z"/>
	</g>
</g>
<linearGradient id="SVGID_18_" gradientUnits="userSpaceOnUse" x1="23.7852" y1="-1.4209" x2="23.7852" y2="46.1481">
	<stop  offset="0.2667" style="stop-color:#06CBCE"/>
	<stop  offset="0.5991" style="stop-color:#037C98"/>
	<stop  offset="0.8661" style="stop-color:#014270"/>
	<stop  offset="0.9939" style="stop-color:#002C61"/>
	<a:midPointStop  offset="0.2667" style="stop-color:#06CBCE"/>
	<a:midPointStop  offset="0.4583" style="stop-color:#06CBCE"/>
	<a:midPointStop  offset="0.9939" style="stop-color:#002C61"/>
</linearGradient>
<path fill="url(#SVGID_18_)" d="M13.1,16.3h7.1v29.4c0,1.3,1.1,2.3,2.6,2.3h2.3c1.4,0,2.6-1,2.6-2.3V16.3h6.8l-10.5-6.1L13.1,16.3z"
	/>
<linearGradient id="SVGID_19_" gradientUnits="userSpaceOnUse" x1="23.9956" y1="20.9863" x2="23.7539" y2="-20.1276">
	<stop  offset="0.1087" style="stop-color:#06CBCE"/>
	<stop  offset="0.1535" style="stop-color:#06BEC5"/>
	<stop  offset="0.3801" style="stop-color:#03809A"/>
	<stop  offset="0.572" style="stop-color:#01527B"/>
	<stop  offset="0.7196" style="stop-color:#003668"/>
	<stop  offset="0.8052" style="stop-color:#002C61"/>
	<a:midPointStop  offset="0.1087" style="stop-color:#06CBCE"/>
	<a:midPointStop  offset="0.413" style="stop-color:#06CBCE"/>
	<a:midPointStop  offset="0.8052" style="stop-color:#002C61"/>
</linearGradient>
<path fill="url(#SVGID_19_)" d="M44.6,4.3l-4.8-2.1C39.7,0.9,38.6,0,37.3,0H10.7C9.3,0,8.2,0.9,8.1,2.1L3.3,4.3V10l4.9,3.5V14
	c0,1.2,1,2.2,2.4,2.3l13.4-7.6l13.1,7.6h0.2c1.4,0,2.6-1,2.6-2.3v-0.5l4.7-3.4V4.3z"/>
</svg>
